<svg xmlns="http://www.w3.org/2000/svg" viewBox="0 0 16 18.38"><defs><style>.cls-1{fill:#0b1c1a;}.cls-2{fill:#f05234;}</style></defs><title>favicon</title><g id="Layer_2" data-name="Layer 2"><g id="Logo"><path class="cls-1" d="M14.55,3.83,12.72,2.75l-1.44-.84-1.44.84-2,1.17L6.4,4.76l-1.67,1-.05,0-1.39.81-.06,0V14l-1.64-1-.07,0V5.46l1.37-.8.34-.2,1.44-.84,1.72-1,1.44-.84L9.44.84,8,0,7.83.1,6.39.94l-1.72,1-1.44.84-1.71,1L0,4.67v9.15l.07,0,.08.05,1.37.8,1.71,1,1.44.84V7.45l0,0,1.44-.84.23-.13L7.83,5.6l3.45-2,1.83,1.08L8,7.65l-.17.09-1.27.75-.17.09v9l1.44.84v-9L8,9.33l8-4.66Z"/><path class="cls-1" d="M8,18.38l1.48-.84V10.46l5-2.84v7.09L16,13.86V5.11L8,9.62Z"/><path class="cls-2" d="M11,14.3l3-1.76V9.19L11,11Z"/></g></g></svg>