<?xml version="1.0" standalone="no"?>
<!DOCTYPE svg PUBLIC "-//W3C//DTD SVG 1.1//EN" "http://www.w3.org/Graphics/SVG/1.1/DTD/svg11.dtd" >
<svg>
<metadata>
Created by FontForge 20090622 at Fri Nov  1 07:41:24 2019
 By deploy user
Copyright 2017 OMSE LTD. All rights reserved.
</metadata>
<defs>
<font id="ModernEra-Bold" horiz-adv-x="0" >
  <font-face 
    font-family="Modern Era Bold"
    font-weight="700"
    font-stretch="normal"
    units-per-em="1000"
    panose-1="2 0 0 0 0 0 0 0 0 0"
    ascent="785"
    descent="-215"
    x-height="499"
    cap-height="700"
    bbox="-502 -252 1081 937"
    underline-thickness="104"
    underline-position="2"
    unicode-range="U+000D-U+FB02"
  />
<missing-glyph horiz-adv-x="828" 
d="M414 -14q-150 0 -257 106.5t-107 257.5t107 257.5t257 106.5q151 0 257.5 -106.5t106.5 -257.5t-106.5 -257.5t-257.5 -106.5zM414 51q124 0 212 87.5t88 211.5t-88 211.5t-212 87.5t-211.5 -87.5t-87.5 -211.5t87.5 -211.5t211.5 -87.5zM302 350q-25 0 -43.5 18
t-18.5 43t18 43.5t44 18.5q25 0 43 -18t18 -44q0 -25 -18 -43t-43 -18zM526 350q-25 0 -43 18t-18 43q0 26 18 44t43 18q26 0 44 -18.5t18 -43.5t-18.5 -43t-43.5 -18z" />
    <glyph glyph-name=".notdef" horiz-adv-x="828" 
d="M414 -14q-150 0 -257 106.5t-107 257.5t107 257.5t257 106.5q151 0 257.5 -106.5t106.5 -257.5t-106.5 -257.5t-257.5 -106.5zM414 51q124 0 212 87.5t88 211.5t-88 211.5t-212 87.5t-211.5 -87.5t-87.5 -211.5t87.5 -211.5t211.5 -87.5zM302 350q-25 0 -43.5 18
t-18.5 43t18 43.5t44 18.5q25 0 43 -18t18 -44q0 -25 -18 -43t-43 -18zM526 350q-25 0 -43 18t-18 43q0 26 18 44t43 18q26 0 44 -18.5t18 -43.5t-18.5 -43t-43.5 -18z" />
    <glyph glyph-name=".null" 
 />
    <glyph glyph-name="nonmarkingreturn" horiz-adv-x="333" 
 />
    <glyph glyph-name="NULL" 
 />
    <glyph glyph-name="NULL" 
 />
    <glyph glyph-name="CR" unicode="&#xd;" horiz-adv-x="280" 
 />
    <glyph glyph-name="space" unicode=" " horiz-adv-x="280" 
 />
    <glyph glyph-name="exclam" unicode="!" horiz-adv-x="297" 
d="M88 205v495h122v-495h-122zM148 -7q-31 0 -53 23.5t-22 52.5t22 52t53 23t53.5 -23t22.5 -53q0 -31 -23 -53t-53 -22z" />
    <glyph glyph-name="quotedbl" unicode="&#x22;" horiz-adv-x="375" 
d="M29 499v241h120v-241h-120zM226 499v241h120v-241h-120z" />
    <glyph glyph-name="numbersign" unicode="#" horiz-adv-x="761" 
d="M732 433h-144l-23 -166h136v-98h-149l-23 -169h-106l23 169h-180l-23 -169h-105l23 169h-132v98h145l23 166h-137v98h150l23 169h105l-23 -169h181l23 169h105l-23 -169h131v-98zM460 267l22 166h-180l-23 -166h181z" />
    <glyph glyph-name="dollar" unicode="$" horiz-adv-x="563" 
d="M525 213q0 -71 -47 -121.5t-126 -67.5v-74h-122v73q-152 25 -192 180l116 33q16 -59 47 -84.5t86 -25.5q52 0 84 22.5t32 64.5q0 30 -23.5 51t-94.5 33q-113 21 -170.5 68t-57.5 128q0 73 48 123t125 64v70h122v-73q127 -29 162 -170l-116 -32q-14 54 -40 77.5t-72 23.5
q-51 0 -79 -22t-28 -61q0 -31 28.5 -48t99.5 -31q112 -23 165 -70.5t53 -130.5z" />
    <glyph glyph-name="percent" unicode="%" horiz-adv-x="764" 
d="M204 408q-64 0 -109 42t-45 107q0 64 43 107t105 43q64 0 108.5 -42t44.5 -108q0 -65 -42.5 -107t-104.5 -42zM88 0l472 700h113l-473 -700h-112zM204 486q29 0 48.5 20t19.5 51q0 34 -20 53t-52 19q-30 0 -49.5 -19.5t-19.5 -52.5q0 -32 21 -51.5t52 -19.5zM564 -7
q-63 0 -107 42.5t-44 107.5q0 64 43.5 106t106.5 42t107 -42t44 -106q0 -66 -43.5 -108t-106.5 -42zM566 70q30 0 50 20.5t20 52.5q0 33 -20.5 53t-50.5 20q-31 0 -51.5 -20t-20.5 -53q0 -32 21 -52.5t52 -20.5z" />
    <glyph glyph-name="ampersand" unicode="&#x26;" horiz-adv-x="580" 
d="M564 421v-98h-65v-115q0 -97 -64.5 -159.5t-158.5 -62.5q-104 0 -171 61t-67 160q0 112 93 172q-58 55 -58 136q0 87 62 143t153 56q82 0 134 -40.5t67 -108.5l-106 -27q-7 33 -33.5 52.5t-61.5 19.5q-44 0 -72.5 -26t-28.5 -68q0 -43 28.5 -68.5t70.5 -25.5h100v60h113
v-61h65zM386 209v115h-103q-52 0 -87.5 -32t-35.5 -83t33.5 -82t82.5 -31q46 0 78 31t32 82z" />
    <glyph glyph-name="quotesingle" unicode="'" horiz-adv-x="178" 
d="M29 499v241h120v-241h-120z" />
    <glyph glyph-name="parenleft" unicode="(" horiz-adv-x="280" 
d="M163 -171q-52 74 -90.5 197t-38.5 274t39 273t92 196l94 -62q-109 -153 -109 -409q0 -133 32 -237t80 -171z" />
    <glyph glyph-name="parenright" unicode=")" horiz-adv-x="280" 
d="M117 -170l-99 61q48 67 80 171t32 237q0 256 -109 409l94 62q53 -74 92 -196t39 -273t-38.5 -274t-90.5 -197z" />
    <glyph glyph-name="asterisk" unicode="*" horiz-adv-x="447" 
d="M413 571l-120 -39l75 -103l-70 -51l-75 103l-74 -103l-70 51l75 103l-120 39l25 82l121 -39v126h87v-126l120 38z" />
    <glyph glyph-name="plus" unicode="+" horiz-adv-x="600" 
d="M244 100v195h-194v110h194v195h112v-195h194v-110h-194v-195h-112z" />
    <glyph glyph-name="comma" unicode="," horiz-adv-x="210" 
d="M41 -105q40 53 42 101q-54 20 -54 71q0 32 21.5 54.5t53.5 22.5q33 0 55 -22t22 -64q0 -45 -24 -102t-67 -98z" />
    <glyph glyph-name="hyphen" unicode="-" horiz-adv-x="376" 
d="M50 245v110h276v-110h-276z" />
    <glyph glyph-name="period" unicode="." horiz-adv-x="209" 
d="M104 -7q-31 0 -53 22t-22 53t22 53.5t53 22.5q32 0 54 -22t22 -54q0 -31 -22.5 -53t-53.5 -22z" />
    <glyph glyph-name="slash" unicode="/" horiz-adv-x="449" 
d="M29 0l271 700h120l-271 -700h-120z" />
    <glyph glyph-name="zero" unicode="0" horiz-adv-x="604" 
d="M304 -13q-130 0 -196.5 101t-66.5 264q0 161 66.5 262t195.5 101q128 0 194 -101.5t66 -261.5q0 -162 -65.5 -263.5t-193.5 -101.5zM304 100q69 0 103 68t34 183q0 113 -34.5 182t-103.5 69q-71 0 -105.5 -69t-34.5 -182q0 -116 34.5 -183.5t106.5 -67.5z" />
    <glyph glyph-name="one" unicode="1" horiz-adv-x="371" 
d="M167 0v564q-26 -17 -69 -31.5t-77 -18.5v123q69 11 146 63h122v-700h-122z" />
    <glyph glyph-name="two" unicode="2" horiz-adv-x="562" 
d="M55 0v113l236 206q57 49 82 85.5t25 86.5q0 46 -32.5 78t-84.5 32q-57 0 -92.5 -37t-34.5 -98l-113 31q5 97 73.5 157t166.5 60q101 0 170 -63.5t69 -158.5q0 -77 -35.5 -132t-107.5 -118l-148 -129h292v-113h-466z" />
    <glyph glyph-name="three" unicode="3" horiz-adv-x="582" 
d="M287 -14q-107 0 -175.5 60.5t-70.5 146.5l112 33q2 -54 39.5 -90.5t94.5 -36.5t94.5 36t37.5 90q0 55 -36.5 90.5t-95.5 35.5q-21 0 -47 -8l-62 74l173 170h-286v113h430v-113l-139 -141q80 -10 132.5 -67t52.5 -154q0 -104 -72 -171.5t-182 -67.5z" />
    <glyph glyph-name="four" unicode="4" horiz-adv-x="571" 
d="M340 0l1 177h-314v91l305 432h130l1 -419h81v-104h-81l-1 -177h-122zM160 281h181l-1 250z" />
    <glyph glyph-name="five" unicode="5" horiz-adv-x="579" 
d="M287 -14q-102 0 -172 58t-74 139l113 34q3 -54 40.5 -86t92.5 -32q56 0 92.5 35.5t37.5 91.5q-1 56 -38 91.5t-93 35.5q-71 0 -111 -48l-105 39l36 356h385v-114h-280l-17 -153q39 25 102 25q107 0 174 -63t68 -168q-1 -108 -72 -174.5t-179 -66.5z" />
    <glyph glyph-name="six" unicode="6" horiz-adv-x="588" 
d="M297 -14q-128 0 -192 86.5t-64 244.5q0 192 61.5 294.5t202.5 102.5q92 0 147.5 -47.5t76.5 -128.5l-108 -32q-28 95 -116 95q-70 0 -101 -51t-36 -146q15 20 52.5 38.5t90.5 18.5q102 0 169 -65t67 -171q0 -107 -71 -173t-179 -66zM297 98q56 0 92 35.5t36 91.5
q0 57 -35.5 91.5t-92.5 34.5q-55 0 -91 -35.5t-36 -90.5q0 -54 35.5 -90.5t91.5 -36.5z" />
    <glyph glyph-name="seven" unicode="7" horiz-adv-x="514" 
d="M140 0q24 138 85.5 309.5t124.5 277.5h-323v113h460v-113q-68 -107 -135 -278.5t-90 -308.5h-122z" />
    <glyph glyph-name="eight" unicode="8" horiz-adv-x="576" 
d="M446 377q89 -61 89 -170q0 -97 -70 -159t-177 -62t-177 61.5t-70 159.5q0 109 88 169q-62 54 -62 139q0 87 63 143t158 56q94 0 157.5 -56t63.5 -143q0 -85 -63 -138zM186 516q0 -43 29.5 -68.5t72.5 -25.5t72.5 25.5t29.5 68.5q0 42 -29 68t-73 26t-73 -26t-29 -68z
M288 96q53 0 89 31t36 82t-36.5 83t-88.5 32t-88.5 -32t-36.5 -83t36 -82t89 -31z" />
    <glyph glyph-name="nine" unicode="9" horiz-adv-x="588" 
d="M291 714q128 0 192 -86.5t64 -244.5q0 -192 -61.5 -294.5t-202.5 -102.5q-92 0 -147.5 47.5t-76.5 128.5l108 32q28 -95 116 -95q70 0 101 51t36 146q-15 -20 -52.5 -38.5t-90.5 -18.5q-102 0 -169 65t-67 171q0 107 71 173t179 66zM291 602q-56 0 -92 -35.5t-36 -91.5
q0 -57 35.5 -91.5t92.5 -34.5q55 0 91 35.5t36 90.5q0 54 -35.5 90.5t-91.5 36.5z" />
    <glyph glyph-name="colon" unicode=":" horiz-adv-x="209" 
d="M104 292q-31 0 -53 22t-22 53t22 53.5t53 22.5q32 0 54 -22.5t22 -53.5t-22.5 -53t-53.5 -22zM104 -7q-31 0 -53 22t-22 53t22 53.5t53 22.5q32 0 54 -22t22 -54q0 -31 -22.5 -53t-53.5 -22z" />
    <glyph glyph-name="semicolon" unicode=";" horiz-adv-x="216" 
d="M112 292q-32 0 -54 22t-22 53t22 53.5t54 22.5q31 0 53 -22.5t22 -53.5t-22 -53t-53 -22zM41 -108q40 53 42 101q-54 20 -54 71q0 32 21.5 54.5t53.5 22.5q33 0 55 -22t22 -64q0 -45 -24 -102t-67 -98z" />
    <glyph glyph-name="less" unicode="&#x3c;" horiz-adv-x="600" 
d="M50 289v122l501 210v-123l-355 -148l355 -148v-122z" />
    <glyph glyph-name="equal" unicode="=" horiz-adv-x="600" 
d="M50 418v110h500v-110h-500zM50 173v110h500v-110h-500z" />
    <glyph glyph-name="greater" unicode="&#x3e;" horiz-adv-x="600" 
d="M50 621l501 -210v-122l-501 -209v122l355 148l-355 148v123z" />
    <glyph glyph-name="question" unicode="?" horiz-adv-x="527" 
d="M261 715q102 0 169.5 -63t67.5 -158q0 -75 -42.5 -132t-122.5 -80v-83h-121v161h27q68 0 104.5 37t37.5 92q0 48 -33 80.5t-85 32.5q-59 0 -91.5 -34.5t-32.5 -91.5l-110 30q5 93 69.5 151t162.5 58zM273 144q31 0 53 -22t22 -53t-22 -53.5t-53 -22.5t-53.5 22.5
t-22.5 53.5t22.5 53t53.5 22z" />
    <glyph glyph-name="at" unicode="@" horiz-adv-x="832" 
d="M417 614q163 0 264 -99t101 -262q0 -84 -43.5 -133.5t-116.5 -49.5q-82 0 -111 54q-48 -54 -115 -54q-70 0 -108 47.5t-38 114.5q0 75 45.5 132t124.5 57q64 0 95 -42l6 33h72l-19 -226q5 -34 47 -34q34 0 54.5 29.5t20.5 71.5q0 129 -75.5 204t-203.5 75
q-119 0 -199.5 -82t-80.5 -201t81 -201.5t199 -82.5q87 0 152 46l48 -66q-81 -61 -200 -61q-154 0 -260.5 105t-106.5 260q0 151 107 258t260 107zM410 150q42 0 66.5 32t24.5 74q0 36 -19 60.5t-56 24.5q-43 0 -68 -32t-25 -74q0 -36 19.5 -60.5t57.5 -24.5z" />
    <glyph glyph-name="A" unicode="A" horiz-adv-x="688" 
d="M545 0l-58 157h-286l-58 -157h-125l262 700h128l262 -700h-125zM242 267h204l-102 275z" />
    <glyph glyph-name="B" unicode="B" horiz-adv-x="610" 
d="M73 0v700h257q105 0 160.5 -51t55.5 -136q0 -100 -88 -147v-2q45 -15 78.5 -54.5t33.5 -107.5q0 -92 -63 -147t-168 -55h-266zM195 407h131q50 0 75.5 25t25.5 70q0 44 -26.5 67.5t-74.5 23.5h-131v-186zM195 107h143q55 0 82.5 27.5t27.5 71.5q0 45 -28 72.5t-86 27.5
h-139v-199z" />
    <glyph glyph-name="C" unicode="C" horiz-adv-x="750" 
d="M400 -13q-154 0 -252 100t-98 264q0 159 97.5 261.5t250.5 102.5q113 0 195 -56t117 -162l-117 -38q-44 143 -194 143q-98 0 -162.5 -72t-64.5 -180q0 -111 65.5 -181t164.5 -70q76 0 123 36t67 94l115 -38q-78 -204 -307 -204z" />
    <glyph glyph-name="D" unicode="D" horiz-adv-x="704" 
d="M73 0v700h243q164 0 251 -98t87 -251q0 -155 -92.5 -253t-242.5 -98h-246zM195 110h120q59 0 102.5 20.5t67.5 56t35.5 77t11.5 88.5q0 238 -226 238h-111v-480z" />
    <glyph glyph-name="E" unicode="E" horiz-adv-x="558" 
d="M73 0v700h440v-110h-318v-184h276v-107h-276v-189h318v-110h-440z" />
    <glyph glyph-name="F" unicode="F" horiz-adv-x="557" 
d="M73 0v700h439v-110h-317v-201h277v-107h-277v-282h-122z" />
    <glyph glyph-name="G" unicode="G" horiz-adv-x="786" 
d="M400 -14q-155 0 -252.5 102.5t-97.5 261.5q0 155 98 259.5t250 104.5q120 0 195 -53t108 -141l-115 -40q-47 121 -182 121q-102 0 -167 -73t-65 -178q0 -108 65.5 -179.5t168.5 -71.5q96 0 145 55t54 128h-152v104h273v-386h-83l-18 79q-24 -33 -81 -63t-144 -30z" />
    <glyph glyph-name="H" unicode="H" horiz-adv-x="699" 
d="M73 0v700h122v-287h309v287h122v-700h-122v300h-309v-300h-122z" />
    <glyph glyph-name="I" unicode="I" horiz-adv-x="268" 
d="M73 0v700h122v-700h-122z" />
    <glyph glyph-name="J" unicode="J" horiz-adv-x="527" 
d="M239 -14q-92 0 -151.5 52t-62.5 141v49l119 -23v-13q0 -42 24.5 -67.5t71.5 -25.5t71 29.5t24 81.5v490h122v-487q0 -112 -59 -169.5t-159 -57.5z" />
    <glyph glyph-name="K" unicode="K" horiz-adv-x="659" 
d="M489 -1l-218 321l-77 -83v-237h-121v700h121v-294l11 11l-5 7l12 1l254 275h158l-269 -289l286 -412h-152z" />
    <glyph glyph-name="L" unicode="L" horiz-adv-x="527" 
d="M73 0v700h122v-588h306v-112h-428z" />
    <glyph glyph-name="M" unicode="M" horiz-adv-x="882" 
d="M807 700v-700h-121v474l-202 -474h-86l-201 471l-1 -471h-121v700h137l229 -536l229 536h137z" />
    <glyph glyph-name="N" unicode="N" horiz-adv-x="731" 
d="M75 0v700h126l333 -501v501h122v-700h-125l-334 501v-501h-122z" />
    <glyph glyph-name="O" unicode="O" horiz-adv-x="815" 
d="M408 -13q-162 0 -260 105.5t-98 258.5t97.5 258.5t260.5 105.5q161 0 259 -106t98 -258t-98 -258t-259 -106zM408 100q106 0 170.5 70.5t64.5 180.5q0 109 -64.5 180t-170.5 71q-107 0 -171.5 -71t-64.5 -180q0 -110 64 -180.5t172 -70.5z" />
    <glyph glyph-name="P" unicode="P" horiz-adv-x="601" 
d="M73 0v700h250q103 0 171 -55.5t68 -166.5q0 -108 -68 -166t-165 -58h-134v-254h-122zM195 364h119q63 0 94.5 31.5t31.5 82.5t-32.5 81.5t-94.5 30.5h-118v-226z" />
    <glyph glyph-name="Q" unicode="Q" horiz-adv-x="815" 
d="M765 351q0 -131 -73 -229l71 -71l-81 -79l-72 73q-86 -58 -202 -58q-162 0 -260 105.5t-98 258.5t97.5 258.5t260.5 105.5q161 0 259 -106t98 -258zM408 100q66 0 118 29l-78 78l81 78l77 -77q37 62 37 143q0 109 -64.5 180t-170.5 71q-107 0 -171.5 -71t-64.5 -180
q0 -110 64 -180.5t172 -70.5z" />
    <glyph glyph-name="R" unicode="R" horiz-adv-x="626" 
d="M73 0v700h256q107 0 167.5 -58.5t60.5 -149.5q0 -79 -38.5 -130t-98.5 -71l167 -291h-135l-153 274h-104v-274h-122zM195 381h126q54 0 84.5 28.5t30.5 76.5q0 49 -31 76.5t-86 27.5h-124v-209z" />
    <glyph glyph-name="S" unicode="S" horiz-adv-x="602" 
d="M306 -13q-104 0 -173.5 51t-94.5 148l114 33q19 -63 54 -92.5t100 -29.5q61 0 98.5 26t37.5 74q0 38 -30 63t-107 38q-123 23 -185 73t-62 137q0 91 69 149t178 58q96 0 159 -50t86 -141l-114 -32q-15 57 -45.5 85t-85.5 28q-57 0 -91 -25t-34 -72q0 -39 34.5 -59
t112.5 -36q122 -24 179.5 -75.5t57.5 -140.5q0 -94 -74 -152t-184 -58z" />
    <glyph glyph-name="T" unicode="T" horiz-adv-x="578" 
d="M228 0v587h-202v113h526v-113h-202v-587h-122z" />
    <glyph glyph-name="U" unicode="U" horiz-adv-x="696" 
d="M348 -14q-120 0 -197.5 71t-77.5 217v426h122v-420q0 -181 153 -181t153 181v420h122v-427q0 -147 -76 -217t-199 -70z" />
    <glyph glyph-name="V" unicode="V" horiz-adv-x="687" 
d="M538 700h131l-259 -700h-133l-259 700h131l195 -540z" />
    <glyph glyph-name="W" unicode="W" horiz-adv-x="955" 
d="M811 700h126l-197 -700h-122l-142 527l-139 -527h-122l-197 700h126l136 -519l137 519h122l137 -512z" />
    <glyph glyph-name="X" unicode="X" horiz-adv-x="673" 
d="M655 0h-143l-175 259l-175 -259h-144l239 355l-230 345h145l165 -248l165 248h144l-228 -342z" />
    <glyph glyph-name="Y" unicode="Y" horiz-adv-x="645" 
d="M261 0v273l-243 427h134l170 -305l171 305h134l-244 -427v-273h-122z" />
    <glyph glyph-name="Z" unicode="Z" horiz-adv-x="612" 
d="M42 0v107l374 483h-350v110h503v-107l-375 -483h372v-110h-524z" />
    <glyph glyph-name="bracketleft" unicode="[" horiz-adv-x="246" 
d="M34 -171v940h178v-107h-68v-726h68v-107h-178z" />
    <glyph glyph-name="backslash" unicode="\" horiz-adv-x="439" 
d="M410 0h-120l-271 700h120z" />
    <glyph glyph-name="bracketright" unicode="]" horiz-adv-x="246" 
d="M34 -170v107h68v726h-68v107h178v-940h-178z" />
    <glyph glyph-name="asciicircum" unicode="^" horiz-adv-x="653" 
d="M603 350h-134l-142 239l-143 -239h-134l210 350h133z" />
    <glyph glyph-name="underscore" unicode="_" horiz-adv-x="500" 
d="M0 -154v104h500v-104h-500z" />
    <glyph glyph-name="grave" unicode="`" horiz-adv-x="567" 
d="M233 571l-114 134h147l69 -134h-102z" />
    <glyph glyph-name="a" unicode="a" horiz-adv-x="510" 
d="M207 -14q-73 0 -122 42.5t-49 111.5q0 138 197 165l107 15v6q0 91 -92 91q-86 0 -99 -81l-106 26q41 151 209 151q90 0 149 -46.5t59 -138.5v-328h-101l-13 45q-42 -59 -139 -59zM239 83q43 0 72 24.5t29 67.5v58l-99 -15q-47 -7 -68.5 -23.5t-21.5 -47.5
q0 -29 23.5 -46.5t64.5 -17.5z" />
    <glyph glyph-name="b" unicode="b" horiz-adv-x="614" 
d="M334 -14q-102 0 -159 75l-16 -61h-99v700h120v-257q54 70 155 70q106 0 173.5 -76t67.5 -187q0 -110 -69.5 -187t-172.5 -77zM317 94q60 0 99.5 44t39.5 112q0 67 -39.5 111t-99.5 44t-98.5 -43.5t-38.5 -111.5t38.5 -112t98.5 -44z" />
    <glyph glyph-name="c" unicode="c" horiz-adv-x="560" 
d="M296 -14q-112 0 -185 75.5t-73 188.5q0 112 73 187.5t185 75.5q82 0 142 -43t83 -114l-109 -37q-14 39 -44 61t-72 22q-61 0 -99.5 -42.5t-38.5 -109.5t38.5 -110t99.5 -43q40 0 69.5 20.5t43.5 58.5l109 -37q-26 -70 -84.5 -111.5t-137.5 -41.5z" />
    <glyph glyph-name="d" unicode="d" horiz-adv-x="614" 
d="M280 -14q-103 0 -172.5 77t-69.5 187q0 111 68 187t173 76q101 0 155 -70v257h120v-700h-99l-16 61q-57 -75 -159 -75zM297 94q60 0 99 44t39 112t-39 111.5t-99 43.5t-99.5 -44t-39.5 -111q0 -68 39.5 -112t99.5 -44z" />
    <glyph glyph-name="e" unicode="e" horiz-adv-x="564" 
d="M526 210h-373q4 -50 42.5 -87.5t95.5 -37.5q48 0 79.5 23t42.5 53l101 -31q-23 -64 -79.5 -104t-143.5 -40q-108 0 -180.5 74.5t-72.5 189.5q0 113 72.5 188t179.5 75q108 0 172 -71t64 -186v-46zM420 302q-3 40 -36.5 76t-92.5 36q-57 0 -92.5 -32.5t-44.5 -79.5h266z
" />
    <glyph glyph-name="f" unicode="f" horiz-adv-x="378" 
d="M106 0v394h-86v105h86v68q0 69 40.5 108.5t100.5 39.5q81 0 124 -43l-52 -83q-20 17 -47 17q-46 0 -46 -53v-54h127v-105h-127v-394h-120z" />
    <glyph glyph-name="g" unicode="g" horiz-adv-x="606" 
d="M291 -214q-96 0 -153.5 44t-77.5 118l112 25q20 -85 119 -85q64 0 99.5 33.5t35.5 95.5v61q-18 -31 -57.5 -52.5t-92.5 -21.5q-104 0 -171 72t-67 182q0 109 67.5 182t169.5 73q55 0 93.5 -22t57.5 -52l22 60h98v-480q0 -106 -67.5 -169.5t-187.5 -63.5zM293 112
q58 0 95.5 40t37.5 106q0 67 -37.5 107t-96.5 40t-96.5 -40t-37.5 -107q0 -66 38 -106t97 -40z" />
    <glyph glyph-name="h" unicode="h" horiz-adv-x="565" 
d="M60 0v700h119v-256q55 69 148 69q178 0 178 -211v-302h-119v284q0 117 -97 117q-48 0 -79 -33.5t-31 -94.5v-273h-119z" />
    <glyph glyph-name="i" unicode="i" horiz-adv-x="248" 
d="M122 567q-29 0 -49.5 21t-20.5 50t20.5 50t49.5 21t50.5 -21t21.5 -50t-21.5 -50t-50.5 -21zM64 0v499h120v-499h-120z" />
    <glyph glyph-name="j" unicode="j" horiz-adv-x="255" 
d="M132 567q-29 0 -49.5 21t-20.5 50t20.5 50t49.5 21t50.5 -21t21.5 -50t-21.5 -50t-50.5 -21zM50 -215q-78 0 -118 43l50 85q16 -16 45 -16q46 0 46 54v548h120v-564q0 -69 -41 -109.5t-102 -40.5z" />
    <glyph glyph-name="k" unicode="k" horiz-adv-x="531" 
d="M381 0l-153 218l-48 -52v-166h-120v700h120v-378l169 178h145l-187 -198l210 -302h-136z" />
    <glyph glyph-name="l" unicode="l" horiz-adv-x="240" 
d="M60 0v700h120v-700h-120z" />
    <glyph glyph-name="m" unicode="m" horiz-adv-x="845" 
d="M60 0v499h99l16 -59q55 73 154 73q97 0 135 -75q58 75 160 75q74 0 117.5 -45.5t43.5 -137.5v-330h-120v297q0 105 -85 105q-43 0 -70 -31t-27 -88v-283h-120v297q0 105 -86 105q-43 0 -70 -30.5t-27 -88.5v-283h-120z" />
    <glyph glyph-name="n" unicode="n" horiz-adv-x="567" 
d="M60 0v499h99l17 -60q56 74 152 74q179 0 179 -211v-302h-120v286q0 116 -97 116q-48 0 -79 -33.5t-31 -94.5v-274h-120z" />
    <glyph glyph-name="o" unicode="o" horiz-adv-x="595" 
d="M297 -14q-112 0 -185.5 76t-73.5 188q0 111 74 187t185 76q112 0 186 -76t74 -187q0 -112 -74 -188t-186 -76zM297 97q60 0 100 43.5t40 109.5t-40 109t-100 43q-61 0 -100 -43t-39 -109q0 -67 39 -110t100 -43z" />
    <glyph glyph-name="p" unicode="p" horiz-adv-x="614" 
d="M334 513q103 0 172.5 -77t69.5 -187q0 -111 -67.5 -187t-173.5 -76q-101 0 -155 70v-257h-120v700h99l16 -61q55 75 159 75zM317 405q-60 0 -98.5 -44t-38.5 -112t38.5 -111.5t98.5 -43.5t99.5 44t39.5 111q0 68 -39.5 112t-99.5 44z" />
    <glyph glyph-name="q" unicode="q" horiz-adv-x="614" 
d="M280 513q104 0 159 -75l16 61h99v-700h-120v257q-54 -70 -155 -70q-105 0 -173 76t-68 187q0 110 69.5 187t172.5 77zM297 405q-60 0 -99.5 -44t-39.5 -112q0 -67 39.5 -111t99.5 -44t99 43.5t39 111.5t-39 112t-99 44z" />
    <glyph glyph-name="r" unicode="r" horiz-adv-x="395" 
d="M60 0v499h99l17 -58q42 72 126 72q54 0 86 -24l-43 -105q-21 17 -60 17q-45 0 -75 -34.5t-30 -94.5v-272h-120z" />
    <glyph glyph-name="s" unicode="s" horiz-adv-x="486" 
d="M246 -14q-81 0 -135 39.5t-73 109.5l106 34q23 -83 102 -83q41 0 65 15t24 42q0 21 -19.5 35.5t-72.5 23.5q-92 17 -141.5 50.5t-49.5 104.5q0 67 53 111.5t141 44.5q75 0 124.5 -37.5t65.5 -105.5l-105 -30q-18 73 -85 73q-40 0 -61 -15t-21 -36q0 -24 23.5 -36
t76.5 -22q91 -16 137.5 -52t46.5 -107q0 -68 -55.5 -113.5t-146.5 -45.5z" />
    <glyph glyph-name="t" unicode="t" horiz-adv-x="385" 
d="M247 -14q-61 0 -101 38.5t-40 109.5v260h-86v105h86v130h120v-130h127v-105h-127v-243q0 -53 47 -53q27 0 46 17l50 -85q-36 -44 -122 -44z" />
    <glyph glyph-name="u" unicode="u" horiz-adv-x="567" 
d="M507 499v-499h-99l-17 60q-56 -74 -152 -74q-179 0 -179 212v301h120v-285q0 -116 97 -116q48 0 79 33.5t31 94.5v273h120z" />
    <glyph glyph-name="v" unicode="v" horiz-adv-x="532" 
d="M395 499h123l-189 -499h-126l-189 499h123l129 -363z" />
    <glyph glyph-name="w" unicode="w" horiz-adv-x="779" 
d="M645 499h120l-155 -499h-122l-98 346l-98 -346h-123l-155 499h120l99 -359l101 359h112l101 -357z" />
    <glyph glyph-name="x" unicode="x" horiz-adv-x="527" 
d="M513 0h-133l-117 165l-117 -165h-132l181 252l-179 247h134l113 -159l113 159h132l-177 -246z" />
    <glyph glyph-name="y" unicode="y" horiz-adv-x="576" 
d="M396 499h120v-480q0 -106 -63 -169.5t-175 -63.5q-90 0 -144.5 43.5t-73.5 115.5l112 23q16 -79 106 -79q55 0 86.5 33.5t31.5 95.5v53l-1 3q-57 -69 -151 -69q-85 0 -133.5 52t-48.5 158v284h120v-264q0 -64 26 -91t74 -27q51 0 82.5 33t31.5 94v255z" />
    <glyph glyph-name="z" unicode="z" horiz-adv-x="475" 
d="M39 0v89l248 311h-241v99h386v-88l-247 -311h251v-100h-397z" />
    <glyph glyph-name="braceleft" unicode="{" horiz-adv-x="304" 
d="M270 -170h-53q-49 0 -86 31.5t-37 88.5v236q0 59 -60 59v116q60 0 60 59v230q0 57 37 88.5t86 31.5h53v-107h-19q-41 0 -41 -64v-220q0 -49 -34 -78q34 -26 34 -76v-223q0 -65 41 -65h19v-107z" />
    <glyph glyph-name="bar" unicode="|" horiz-adv-x="223" 
d="M50 -171v940h123v-940h-123z" />
    <glyph glyph-name="braceright" unicode="}" horiz-adv-x="304" 
d="M34 -171v107h19q41 0 41 65v223q0 50 34 76q-34 29 -34 78v220q0 64 -41 64h-19v107h53q49 0 86 -31.5t37 -88.5v-230q0 -59 60 -59v-116q-60 0 -60 -59v-236q0 -57 -37 -88.5t-86 -31.5h-53z" />
    <glyph glyph-name="asciitilde" unicode="~" horiz-adv-x="600" 
d="M408 273q-45 0 -117.5 24.5t-97.5 24.5q-44 0 -83 -53l-75 66q34 50 69.5 72.5t81.5 22.5t117 -25.5t100 -25.5q42 0 80 53l82 -64q-64 -95 -157 -95z" />
    <glyph glyph-name="uni00A0" unicode="&#xa0;" horiz-adv-x="280" 
 />
    <glyph glyph-name="exclamdown" unicode="&#xa1;" horiz-adv-x="297" 
d="M148 506q30 0 53 -22t23 -53q0 -30 -22.5 -53t-53.5 -23t-53 23t-22 52t22 52.5t53 23.5zM88 294h122v-495h-122v495z" />
    <glyph glyph-name="cent" unicode="&#xa2;" horiz-adv-x="560" 
d="M296 196q40 0 69.5 20.5t43.5 58.5l109 -37q-21 -57 -64 -95.5t-102 -51.5v-80h-121v82q-87 20 -140 90.5t-53 165.5t53 165t140 90v87h121v-85q62 -13 106 -53t63 -98l-109 -37q-14 39 -44 61t-72 22q-61 0 -99.5 -42.5t-38.5 -109.5t38.5 -110t99.5 -43z" />
    <glyph glyph-name="sterling" unicode="&#xa3;" horiz-adv-x="535" 
d="M214 110h305v-110h-498v110h71v182h-72v107h72v86q0 113 60 171t158 58q87 0 142.5 -46.5t64.5 -124.5l-111 -19q-5 32 -29.5 54.5t-67.5 22.5q-45 0 -70 -29.5t-25 -82.5v-90h224v-107h-224v-182z" />
    <glyph glyph-name="currency" unicode="&#xa4;" horiz-adv-x="628" 
d="M551 351q0 -65 -35 -124l74 -75l-78 -79l-76 75q-56 -32 -121 -32q-67 0 -123 32l-75 -75l-79 79l74 75q-33 57 -33 124q0 64 33 121l-74 75l79 79l75 -74q54 34 123 34q68 0 124 -32l73 72l78 -79l-71 -73q32 -53 32 -123zM315 226q53 0 87 35t34 90q0 56 -33.5 90.5
t-87.5 34.5q-53 0 -86.5 -35t-33.5 -90t33.5 -90t86.5 -35z" />
    <glyph glyph-name="yen" unicode="&#xa5;" horiz-adv-x="645" 
d="M627 700l-189 -331h107v-98h-162v-68h162v-98h-162v-105h-122v105h-162v98h162v68h-162v98h107l-188 331h134l170 -305l171 305h134z" />
    <glyph glyph-name="brokenbar" unicode="&#xa6;" horiz-adv-x="222" 
d="M50 360v409h122v-409h-122zM50 -171v411h122v-411h-122z" />
    <glyph glyph-name="section" unicode="&#xa7;" horiz-adv-x="491" 
d="M410 247q43 -37 43 -102q0 -68 -56.5 -113.5t-147.5 -45.5q-82 0 -138 38.5t-73 104.5l102 32q22 -81 109 -81q42 0 66 16t24 45q0 45 -93 61t-144 49.5t-51 105.5q0 59 43 102q-43 35 -43 98q0 67 54 112t144 45q74 0 124 -36t67 -101l-99 -28q-22 70 -92 70
q-42 0 -63 -15.5t-21 -39.5t24 -37t77 -23q92 -16 139.5 -52t47.5 -106q0 -58 -43 -99zM165 363q0 -24 24.5 -37t76.5 -22q26 -5 44 -10q29 17 29 47q0 45 -93 61l-45 9q-36 -14 -36 -48z" />
    <glyph glyph-name="dieresis" unicode="&#xa8;" horiz-adv-x="567" 
d="M194 567q-29 0 -50 21t-21 50t21 50t50 21t50 -21t21 -50t-21 -50t-50 -21zM373 567q-29 0 -50.5 21t-21.5 50t21.5 50t50.5 21q28 0 49 -21t21 -50t-21 -50t-49 -21z" />
    <glyph glyph-name="copyright" unicode="&#xa9;" horiz-adv-x="828" 
d="M414 -13q-151 0 -257.5 106.5t-106.5 257.5t106.5 257.5t257.5 106.5t257.5 -106.5t106.5 -257.5t-106.5 -257.5t-257.5 -106.5zM414 63q119 0 203.5 84.5t84.5 203.5t-84.5 203.5t-203.5 84.5t-203.5 -84.5t-84.5 -203.5t84.5 -203.5t203.5 -84.5zM412 156
q-82 0 -134.5 53t-52.5 142q0 86 52 140.5t134 54.5q61 0 105.5 -29.5t63.5 -86.5l-72 -24q-20 71 -96 71q-48 0 -80 -36t-32 -90q0 -56 32.5 -91t81.5 -35q74 0 93 64l72 -23q-44 -110 -167 -110z" />
    <glyph glyph-name="ordfeminine" unicode="&#xaa;" horiz-adv-x="341" 
d="M143 382q-51 0 -85 29t-34 77q0 42 30 70.5t106 40.5l75 11v6q0 64 -64 64q-59 0 -69 -56l-73 17q29 105 145 105q62 0 102 -32t40 -96l1 -227h-69l-9 31q-28 -40 -96 -40zM165 448q29 0 49.5 17t20.5 47v43l-70 -11q-62 -9 -62 -51q0 -20 16.5 -32.5t45.5 -12.5z" />
    <glyph glyph-name="guillemotleft" unicode="&#xab;" horiz-adv-x="537" 
d="M256 485l-84 -184l85 -186h-123l-84 186l84 184h122zM402 301l85 -186h-123l-84 186l84 184h122z" />
    <glyph glyph-name="logicalnot" unicode="&#xac;" horiz-adv-x="600" 
d="M552 479v-258h-120v148h-384v110h504z" />
    <glyph glyph-name="uni00AD" unicode="&#xad;" horiz-adv-x="600" 
d="M51 245v110h276v-110h-276z" />
    <glyph glyph-name="registered" unicode="&#xae;" horiz-adv-x="432" 
d="M216 344q-76 0 -129 53t-53 129q0 75 53 128.5t129 53.5q75 0 128.5 -53.5t53.5 -128.5q0 -76 -53.5 -129t-128.5 -53zM216 388q58 0 98 40t40 98q0 57 -40 97.5t-98 40.5q-57 0 -97.5 -40.5t-40.5 -97.5q0 -58 40.5 -98t97.5 -40zM154 433v186h74q27 0 43 -16.5
t16 -40.5q0 -42 -31 -55l34 -74h-46l-29 67h-19v-67h-42zM196 537h26q12 0 18.5 6.5t6.5 14.5q0 23 -25 23h-26v-44z" />
    <glyph glyph-name="macron" unicode="&#xaf;" horiz-adv-x="567" 
d="M169 594v88h228v-88h-228z" />
    <glyph glyph-name="degree" unicode="&#xb0;" horiz-adv-x="373" 
d="M187 402q-65 0 -109 44t-44 109q0 64 44.5 108t108.5 44t108 -44t44 -108t-44 -108.5t-108 -44.5zM187 481q31 0 52.5 21.5t21.5 52.5t-21.5 52.5t-52.5 21.5t-53 -21.5t-22 -52.5t22 -52.5t53 -21.5z" />
    <glyph glyph-name="plusminus" unicode="&#xb1;" horiz-adv-x="600" 
d="M244 215v195h-194v110h194v195h112v-195h194v-110h-194v-195h-112zM51 51v109h500v-109h-500z" />
    <glyph glyph-name="uni00B2" unicode="&#xb2;" horiz-adv-x="313" 
d="M41 440v72l120 101q25 23 33.5 37t8.5 32t-13 31t-34 13q-25 0 -38.5 -15.5t-13.5 -42.5l-70 19q3 49 37 79.5t85 30.5q52 0 87.5 -32.5t35.5 -81.5q0 -36 -15.5 -62.5t-48.5 -55.5l-63 -53h127v-72h-238z" />
    <glyph glyph-name="uni00B3" unicode="&#xb3;" horiz-adv-x="323" 
d="M159 433q-55 0 -89.5 30.5t-35.5 74.5l70 21q1 -23 16 -38.5t39 -15.5t39 14t15 37q0 22 -15 36.5t-39 14.5q-4 0 -19 -3l-39 46l76 69h-130v71h219v-71l-55 -54q33 -8 55.5 -34.5t22.5 -74.5q0 -53 -37 -88t-93 -35z" />
    <glyph glyph-name="acute" unicode="&#xb4;" horiz-adv-x="567" 
d="M214 571l69 134h147l-114 -134h-102z" />
    <glyph glyph-name="uni00B5" unicode="&#xb5;" horiz-adv-x="567" 
d="M387 499h120v-499h-99l-17 60q-56 -74 -152 -74q-34 0 -59 7v-193h-120v699h120v-285q0 -116 97 -116q48 0 79 33.5t31 94.5v273z" />
    <glyph glyph-name="paragraph" unicode="&#xb6;" horiz-adv-x="649" 
d="M623 700v-92h-96v-809h-103l-1 809h-95l1 -809h-104v501q-82 0 -140.5 58.5t-58.5 141.5t58.5 141.5t141.5 58.5h397z" />
    <glyph glyph-name="periodcentered" unicode="&#xb7;" horiz-adv-x="209" 
d="M105 224q-31 0 -53.5 22t-22.5 54q0 31 22.5 53t53.5 22t53 -22t22 -53t-22 -53.5t-53 -22.5z" />
    <glyph glyph-name="cedilla" unicode="&#xb8;" horiz-adv-x="567" 
d="M275 -227q-39 0 -66 21.5t-30 52.5l61 20q0 -15 9.5 -24.5t25.5 -9.5q15 0 24.5 9.5t9.5 24.5t-9.5 24t-24.5 9t-22 -7l-49 27l47 88l59 -8l-23 -42q38 -2 63 -24.5t25 -61.5q0 -45 -27.5 -72t-72.5 -27z" />
    <glyph glyph-name="uni00B9" unicode="&#xb9;" horiz-adv-x="213" 
d="M85 440v265q-25 -17 -68 -25v77q38 7 68 33h77v-350h-77z" />
    <glyph glyph-name="ordmasculine" unicode="&#xba;" horiz-adv-x="411" 
d="M206 386q-78 0 -128.5 53.5t-50.5 128.5t50.5 128.5t128.5 53.5t128 -53.5t50 -128.5t-50 -128.5t-128 -53.5zM206 454q45 0 74.5 32.5t29.5 81.5t-29.5 81.5t-74.5 32.5q-46 0 -75.5 -32t-29.5 -82t29.5 -82t75.5 -32z" />
    <glyph glyph-name="guillemotright" unicode="&#xbb;" horiz-adv-x="537" 
d="M51 485h122l84 -184l-84 -186h-123l85 186zM403 485l84 -184l-84 -186h-123l85 186l-84 184h122z" />
    <glyph glyph-name="onequarter" unicode="&#xbc;" horiz-adv-x="786" 
d="M153 -5l-61 48l558 662l59 -47zM128 350v265q-25 -17 -68 -25v77q38 7 68 33h77v-350h-77zM613 0l1 85h-155v55l149 210h82l1 -201h34v-64h-34l-1 -85h-77zM543 150l71 -1l-1 97z" />
    <glyph glyph-name="onehalf" unicode="&#xbd;" horiz-adv-x="812" 
d="M142 -5l-61 48l558 662l59 -47zM128 350v265q-25 -17 -68 -25v77q38 7 68 33h77v-350h-77zM513 0v72l120 101q25 23 33.5 37t8.5 32t-13 31t-34 13q-25 0 -38.5 -15.5t-13.5 -42.5l-70 19q3 49 37 79.5t85 30.5q52 0 87.5 -32.5t35.5 -81.5q0 -36 -15.5 -62.5
t-48.5 -55.5l-63 -53h127v-72h-238z" />
    <glyph glyph-name="threequarters" unicode="&#xbe;" horiz-adv-x="814" 
d="M182 -5l-61 48l558 662l59 -47zM185 343q-55 0 -89.5 30.5t-35.5 74.5l70 21q1 -23 16 -38.5t39 -15.5t39 14t15 37q0 22 -15 36.5t-39 14.5q-4 0 -19 -3l-39 46l76 69h-130v71h219v-71l-55 -54q33 -8 55.5 -34.5t22.5 -74.5q0 -53 -37 -88t-93 -35zM642 0l1 85h-155v55
l149 210h82l1 -201h34v-64h-34l-1 -85h-77zM572 150l71 -1l-1 97z" />
    <glyph glyph-name="questiondown" unicode="&#xbf;" horiz-adv-x="527" 
d="M254 356q-31 0 -53 22t-22 53t22 53.5t53 22.5q32 0 54 -22.5t22 -53.5t-22.5 -53t-53.5 -22zM388 24l110 -30q-5 -93 -69.5 -151t-162.5 -58q-102 0 -169.5 63t-67.5 158q0 75 42.5 132t122.5 80v83h121v-161h-27q-68 0 -104.5 -37t-37.5 -92q0 -48 33 -80.5t85 -32.5
q59 0 91.5 34.5t32.5 91.5z" />
    <glyph glyph-name="Agrave" unicode="&#xc0;" horiz-adv-x="688" 
d="M396 769h-102l-114 134h147zM545 0l-58 157h-286l-58 -157h-125l262 700h128l262 -700h-125zM242 267h204l-102 275z" />
    <glyph glyph-name="Aacute" unicode="&#xc1;" horiz-adv-x="688" 
d="M508 903l-114 -134h-102l69 134h147zM545 0l-58 157h-286l-58 -157h-125l262 700h128l262 -700h-125zM242 267h204l-102 275z" />
    <glyph glyph-name="Acircumflex" unicode="&#xc2;" horiz-adv-x="688" 
d="M344 830l-53 -61h-99l97 134h110l96 -134h-98zM545 0l-58 157h-286l-58 -157h-125l262 700h128l262 -700h-125zM242 267h204l-102 275z" />
    <glyph glyph-name="Atilde" unicode="&#xc3;" horiz-adv-x="688" 
d="M291 808q-32 0 -51 -39l-65 43q31 84 107 84q29 0 65 -17.5t55 -17.5q29 0 48 41l67 -45q-27 -84 -108 -84q-31 0 -67 17.5t-51 17.5zM545 0l-58 157h-286l-58 -157h-125l262 700h128l262 -700h-125zM242 267h204l-102 275z" />
    <glyph glyph-name="Adieresis" unicode="&#xc4;" horiz-adv-x="688" 
d="M251 765q-30 0 -51 21t-21 50t21 50t51 21q28 0 49 -21t21 -50t-21 -50t-49 -21zM437 765q-29 0 -49.5 21t-20.5 50t20.5 50t49.5 21q30 0 50.5 -21t20.5 -50t-20.5 -50t-50.5 -21zM545 0l-58 157h-286l-58 -157h-125l262 700h128l262 -700h-125zM242 267h204l-102 275z
" />
    <glyph glyph-name="Aring" unicode="&#xc5;" horiz-adv-x="688" 
d="M341 738q-40 0 -68.5 29.5t-28.5 68.5t28.5 68t68.5 29q39 0 68 -28.5t29 -68.5q0 -39 -29 -68.5t-68 -29.5zM341 871q-15 0 -25 -10.5t-10 -24.5t10 -24.5t25 -10.5q14 0 24.5 10.5t10.5 24.5t-10.5 24.5t-24.5 10.5zM545 0l-58 157h-286l-58 -157h-125l262 700h128
l262 -700h-125zM242 267h204l-102 275z" />
    <glyph glyph-name="AE" unicode="&#xc6;" horiz-adv-x="990" 
d="M945 590h-318v-184h276v-107h-276v-189h318v-110h-440v152h-256l-102 -152h-129l472 700h455v-110zM321 259h184v273z" />
    <glyph glyph-name="Ccedilla" unicode="&#xc7;" horiz-adv-x="750" 
d="M402 99q76 0 123 36t67 94l115 -38q-73 -191 -280 -203l-16 -30q38 -2 63.5 -25t25.5 -61q0 -45 -27.5 -72t-72.5 -27q-39 0 -66 21.5t-31 52.5l61 20q0 -15 10 -24.5t26 -9.5q14 0 24 9.5t10 24.5t-9.5 24t-24.5 9q-16 0 -23 -7l-48 27l37 68q-141 12 -228.5 110.5
t-87.5 252.5q0 159 97.5 261.5t250.5 102.5q113 0 195 -56t117 -162l-117 -38q-44 143 -194 143q-98 0 -162.5 -72t-64.5 -180q0 -111 65.5 -181t164.5 -70z" />
    <glyph glyph-name="Egrave" unicode="&#xc8;" horiz-adv-x="558" 
d="M256 769l-114 134h147l69 -134h-102zM73 0v700h440v-110h-318v-184h276v-107h-276v-189h318v-110h-440z" />
    <glyph glyph-name="Eacute" unicode="&#xc9;" horiz-adv-x="558" 
d="M254 769l69 134h147l-114 -134h-102zM73 0v700h440v-110h-318v-184h276v-107h-276v-189h318v-110h-440z" />
    <glyph glyph-name="Ecircumflex" unicode="&#xca;" horiz-adv-x="558" 
d="M306 830l-53 -61h-99l97 134h110l96 -134h-98zM513 590h-318v-184h276v-107h-276v-189h318v-110h-440v700h440v-110z" />
    <glyph glyph-name="Edieresis" unicode="&#xcb;" horiz-adv-x="558" 
d="M213 765q-30 0 -51 21t-21 50t21 50t51 21q28 0 49 -21t21 -50t-21 -50t-49 -21zM399 765q-29 0 -49.5 21t-20.5 50t20.5 50t49.5 21q30 0 50.5 -21t20.5 -50t-20.5 -50t-50.5 -21zM73 0v700h440v-110h-318v-184h276v-107h-276v-189h318v-110h-440z" />
    <glyph glyph-name="Igrave" unicode="&#xcc;" horiz-adv-x="268" 
d="M84 769l-114 134h147l69 -134h-102zM73 0v700h122v-700h-122z" />
    <glyph glyph-name="Iacute" unicode="&#xcd;" horiz-adv-x="268" 
d="M82 769l69 134h147l-114 -134h-102zM73 0v700h122v-700h-122z" />
    <glyph glyph-name="Icircumflex" unicode="&#xce;" horiz-adv-x="268" 
d="M134 830l-53 -61h-99l97 134h110l96 -134h-98zM73 0v700h122v-700h-122z" />
    <glyph glyph-name="Idieresis" unicode="&#xcf;" horiz-adv-x="268" 
d="M44 768q-29 0 -50 21t-21 50t21 50t50 21t50 -21t21 -50t-21 -50t-50 -21zM223 768q-29 0 -50.5 21t-21.5 50t21.5 50t50.5 21q28 0 49 -21t21 -50t-21 -50t-49 -21zM73 0v700h122v-700h-122z" />
    <glyph glyph-name="Eth" unicode="&#xd0;" horiz-adv-x="704" 
d="M316 700q164 0 251 -98t87 -251q0 -155 -92.5 -253t-242.5 -98h-246v303h-74v96h74v301h243zM315 110q59 0 102.5 20.5t67.5 56t35.5 77t11.5 88.5q0 238 -226 238h-111v-191h140v-96h-140v-193h120z" />
    <glyph glyph-name="Ntilde" unicode="&#xd1;" horiz-adv-x="731" 
d="M436 773q-31 0 -67 17.5t-51 17.5q-32 0 -51 -39l-65 43q32 84 107 84q29 0 65 -17.5t55 -17.5q29 0 48 41l67 -45q-27 -84 -108 -84zM75 0v700h126l333 -501v501h122v-700h-125l-334 501v-501h-122z" />
    <glyph glyph-name="Ograve" unicode="&#xd2;" horiz-adv-x="815" 
d="M357 769l-114 134h147l69 -134h-102zM408 -13q-162 0 -260 105.5t-98 258.5t97.5 258.5t260.5 105.5q161 0 259 -106t98 -258t-98 -258t-259 -106zM408 100q106 0 170.5 70.5t64.5 180.5q0 109 -64.5 180t-170.5 71q-107 0 -171.5 -71t-64.5 -180q0 -110 64 -180.5
t172 -70.5z" />
    <glyph glyph-name="Oacute" unicode="&#xd3;" horiz-adv-x="815" 
d="M355 769l69 134h147l-114 -134h-102zM408 -13q-162 0 -260 105.5t-98 258.5t97.5 258.5t260.5 105.5q161 0 259 -106t98 -258t-98 -258t-259 -106zM408 100q106 0 170.5 70.5t64.5 180.5q0 109 -64.5 180t-170.5 71q-107 0 -171.5 -71t-64.5 -180q0 -110 64 -180.5
t172 -70.5z" />
    <glyph glyph-name="Ocircumflex" unicode="&#xd4;" horiz-adv-x="815" 
d="M407 830l-53 -61h-99l97 134h110l96 -134h-98zM408 715q161 0 259 -106t98 -258t-98 -258t-259 -106q-162 0 -260 105.5t-98 258.5t97.5 258.5t260.5 105.5zM408 100q106 0 170.5 70.5t64.5 180.5q0 109 -64.5 180t-170.5 71q-107 0 -171.5 -71t-64.5 -180
q0 -110 64 -180.5t172 -70.5z" />
    <glyph glyph-name="Otilde" unicode="&#xd5;" horiz-adv-x="815" 
d="M472 773q-31 0 -67 17.5t-51 17.5q-32 0 -51 -39l-65 43q32 84 107 84q29 0 65 -17.5t55 -17.5q29 0 48 41l67 -45q-27 -84 -108 -84zM408 -13q-162 0 -260 105.5t-98 258.5t97.5 258.5t260.5 105.5q161 0 259 -106t98 -258t-98 -258t-259 -106zM408 100
q106 0 170.5 70.5t64.5 180.5q0 109 -64.5 180t-170.5 71q-107 0 -171.5 -71t-64.5 -180q0 -110 64 -180.5t172 -70.5z" />
    <glyph glyph-name="Odieresis" unicode="&#xd6;" horiz-adv-x="815" 
d="M314 765q-30 0 -51 21t-21 50t21 50t51 21q28 0 49 -21t21 -50t-21 -50t-49 -21zM500 765q-29 0 -49.5 21t-20.5 50t20.5 50t49.5 21q30 0 50.5 -21t20.5 -50t-20.5 -50t-50.5 -21zM408 -13q-162 0 -260 105.5t-98 258.5t97.5 258.5t260.5 105.5q161 0 259 -106t98 -258
t-98 -258t-259 -106zM408 100q106 0 170.5 70.5t64.5 180.5q0 109 -64.5 180t-170.5 71q-107 0 -171.5 -71t-64.5 -180q0 -110 64 -180.5t172 -70.5z" />
    <glyph glyph-name="multiply" unicode="&#xd7;" horiz-adv-x="600" 
d="M537 508l-157 -158l157 -157l-79 -80l-157 158l-158 -158l-79 80l157 158l-157 157l78 80l158 -158l158 158z" />
    <glyph glyph-name="Oslash" unicode="&#xd8;" horiz-adv-x="815" 
d="M662 615q103 -105 103 -264q0 -152 -98 -258t-259 -106q-93 0 -167 37l-57 -80l-84 60l57 80q-107 104 -107 267q0 153 97.5 258.5t260.5 105.5q94 0 170 -39l49 69l84 -61zM172 351q0 -101 54 -169l284 399q-48 21 -102 21q-107 0 -171.5 -71t-64.5 -180zM408 100
q106 0 170.5 70.5t64.5 180.5q0 98 -52 165l-282 -397q46 -19 99 -19z" />
    <glyph glyph-name="Ugrave" unicode="&#xd9;" horiz-adv-x="696" 
d="M300 769l-114 134h147l69 -134h-102zM348 -14q-120 0 -197.5 71t-77.5 217v426h122v-420q0 -181 153 -181t153 181v420h122v-427q0 -147 -76 -217t-199 -70z" />
    <glyph glyph-name="Uacute" unicode="&#xda;" horiz-adv-x="696" 
d="M298 769l69 134h147l-114 -134h-102zM348 -14q-120 0 -197.5 71t-77.5 217v426h122v-420q0 -181 153 -181t153 181v420h122v-427q0 -147 -76 -217t-199 -70z" />
    <glyph glyph-name="Ucircumflex" unicode="&#xdb;" horiz-adv-x="696" 
d="M350 830l-53 -61h-99l97 134h110l96 -134h-98zM501 700h122v-427q0 -147 -76 -217t-199 -70q-120 0 -197.5 71t-77.5 217v426h122v-420q0 -181 153 -181t153 181v420z" />
    <glyph glyph-name="Udieresis" unicode="&#xdc;" horiz-adv-x="696" 
d="M257 765q-30 0 -51 21t-21 50t21 50t51 21q28 0 49 -21t21 -50t-21 -50t-49 -21zM443 765q-29 0 -49.5 21t-20.5 50t20.5 50t49.5 21q30 0 50.5 -21t20.5 -50t-20.5 -50t-50.5 -21zM348 -14q-120 0 -197.5 71t-77.5 217v426h122v-420q0 -181 153 -181t153 181v420h122
v-427q0 -147 -76 -217t-199 -70z" />
    <glyph glyph-name="Yacute" unicode="&#xdd;" horiz-adv-x="645" 
d="M270 769l69 134h147l-114 -134h-102zM261 0v273l-243 427h134l170 -305l171 305h134l-244 -427v-273h-122z" />
    <glyph glyph-name="Thorn" unicode="&#xde;" horiz-adv-x="597" 
d="M73 0v700h122v-125h124q103 0 171 -56t68 -168q0 -109 -68 -167t-165 -58h-130v-126h-122zM195 236h115q63 0 94.5 31.5t31.5 83.5t-32.5 83t-94.5 31h-114v-229z" />
    <glyph glyph-name="germandbls" unicode="&#xdf;" horiz-adv-x="548" 
d="M60 0v517q0 87 56 142t154 55q88 0 141.5 -54.5t53.5 -137.5t-69 -131v-2q114 -45 114 -177q0 -95 -59.5 -156t-165.5 -61q-33 0 -57 5l7 102q15 -3 37 -3q54 0 88 30t34 83q0 56 -33 84.5t-94 28.5h-17v99h17q40 0 68.5 25t28.5 69q0 46 -26.5 72.5t-70.5 26.5
q-40 0 -66 -26.5t-26 -74.5v-516h-115z" />
    <glyph glyph-name="agrave" unicode="&#xe0;" horiz-adv-x="510" 
d="M205 571l-114 134h147l69 -134h-102zM207 -14q-73 0 -122 42.5t-49 111.5q0 138 197 165l107 15v6q0 91 -92 91q-86 0 -99 -81l-106 26q41 151 209 151q90 0 149 -46.5t59 -138.5v-328h-101l-13 45q-42 -59 -139 -59zM239 83q43 0 72 24.5t29 67.5v58l-99 -15
q-47 -7 -68.5 -23.5t-21.5 -47.5q0 -29 23.5 -46.5t64.5 -17.5z" />
    <glyph glyph-name="aacute" unicode="&#xe1;" horiz-adv-x="510" 
d="M200 571l69 134h147l-114 -134h-102zM207 -14q-73 0 -122 42.5t-49 111.5q0 138 197 165l107 15v6q0 91 -92 91q-86 0 -99 -81l-106 26q41 151 209 151q90 0 149 -46.5t59 -138.5v-328h-101l-13 45q-42 -59 -139 -59zM239 83q43 0 72 24.5t29 67.5v58l-99 -15
q-47 -7 -68.5 -23.5t-21.5 -47.5q0 -29 23.5 -46.5t64.5 -17.5z" />
    <glyph glyph-name="acircumflex" unicode="&#xe2;" horiz-adv-x="510" 
d="M253 632l-53 -61h-99l97 134h110l96 -134h-98zM252 513q90 0 149 -46.5t59 -138.5v-328h-101l-13 45q-42 -59 -139 -59q-73 0 -122 42.5t-49 111.5q0 138 197 165l107 15v6q0 91 -92 91q-86 0 -99 -81l-106 26q41 151 209 151zM340 175v58l-99 -15q-47 -7 -68.5 -23.5
t-21.5 -47.5q0 -29 23.5 -46.5t64.5 -17.5q43 0 72 24.5t29 67.5z" />
    <glyph glyph-name="atilde" unicode="&#xe3;" horiz-adv-x="510" 
d="M315 575q-32 0 -67.5 18t-51.5 18q-33 0 -50 -39l-66 43q32 84 107 84q30 0 66 -18t54 -18q29 0 49 41l67 -45q-27 -84 -108 -84zM207 -14q-73 0 -122 42.5t-49 111.5q0 138 197 165l107 15v6q0 91 -92 91q-86 0 -99 -81l-106 26q41 151 209 151q90 0 149 -46.5
t59 -138.5v-328h-101l-13 45q-42 -59 -139 -59zM239 83q43 0 72 24.5t29 67.5v58l-99 -15q-47 -7 -68.5 -23.5t-21.5 -47.5q0 -29 23.5 -46.5t64.5 -17.5z" />
    <glyph glyph-name="adieresis" unicode="&#xe4;" horiz-adv-x="510" 
d="M163 567q-29 0 -50 21t-21 50t21 50t50 21t50 -21t21 -50t-21 -50t-50 -21zM342 567q-29 0 -50.5 21t-21.5 50t21.5 50t50.5 21q28 0 49 -21t21 -50t-21 -50t-49 -21zM207 -14q-73 0 -122 42.5t-49 111.5q0 138 197 165l107 15v6q0 91 -92 91q-86 0 -99 -81l-106 26
q41 151 209 151q90 0 149 -46.5t59 -138.5v-328h-101l-13 45q-42 -59 -139 -59zM239 83q43 0 72 24.5t29 67.5v58l-99 -15q-47 -7 -68.5 -23.5t-21.5 -47.5q0 -29 23.5 -46.5t64.5 -17.5z" />
    <glyph glyph-name="aring" unicode="&#xe5;" horiz-adv-x="510" 
d="M254 545q-40 0 -68.5 29.5t-28.5 68.5t28.5 68t68.5 29q39 0 68 -28.5t29 -68.5q0 -39 -29 -68.5t-68 -29.5zM254 608q14 0 24.5 10.5t10.5 24.5t-10.5 24.5t-24.5 10.5q-15 0 -25 -10.5t-10 -24.5t10 -24.5t25 -10.5zM207 -14q-73 0 -122 42.5t-49 111.5q0 138 197 165
l107 15v6q0 91 -92 91q-86 0 -99 -81l-106 26q41 151 209 151q90 0 149 -46.5t59 -138.5v-328h-101l-13 45q-42 -59 -139 -59zM239 83q43 0 72 24.5t29 67.5v58l-99 -15q-47 -7 -68.5 -23.5t-21.5 -47.5q0 -29 23.5 -46.5t64.5 -17.5z" />
    <glyph glyph-name="ae" unicode="&#xe6;" horiz-adv-x="874" 
d="M836 256v-46h-373q4 -50 42.5 -87.5t95.5 -37.5q48 0 79.5 23t42.5 53l101 -31q-23 -64 -79.5 -104t-143.5 -40q-122 0 -196 92q-12 -34 -53.5 -63.5t-122.5 -29.5q-82 0 -135.5 42.5t-53.5 112.5q0 61 43.5 103.5t153.5 58.5l107 15v9q0 91 -92 91q-86 0 -99 -81
l-106 26q41 151 209 151q116 0 171 -69q72 69 173 69q108 0 172 -71t64 -186zM464 302h266q-3 40 -36.5 76t-92.5 36q-57 0 -92.5 -32.5t-44.5 -79.5zM344 175v61l-99 -15q-47 -7 -68.5 -24.5t-21.5 -49.5q0 -29 23.5 -47t64.5 -18q43 0 72 25t29 68z" />
    <glyph glyph-name="ccedilla" unicode="&#xe7;" horiz-adv-x="560" 
d="M296 97q40 0 69.5 20.5t43.5 58.5l109 -37q-24 -64 -74 -104t-119 -47l-16 -30q38 -2 63 -24.5t25 -61.5q0 -45 -27.5 -72t-72.5 -27q-39 0 -66 21.5t-30 52.5l61 20q0 -15 9.5 -24.5t25.5 -9.5q15 0 24.5 9.5t9.5 24.5t-9.5 24t-24.5 9t-22 -7l-49 27l36 68
q-99 12 -161.5 85t-62.5 177q0 112 73 187.5t185 75.5q82 0 142 -43t83 -114l-109 -37q-14 39 -44 61t-72 22q-61 0 -99.5 -42.5t-38.5 -109.5t38.5 -110t99.5 -43z" />
    <glyph glyph-name="egrave" unicode="&#xe8;" horiz-adv-x="564" 
d="M242 571l-114 134h147l69 -134h-102zM526 210h-373q4 -50 42.5 -87.5t95.5 -37.5q48 0 79.5 23t42.5 53l101 -31q-23 -64 -79.5 -104t-143.5 -40q-108 0 -180.5 74.5t-72.5 189.5q0 113 72.5 188t179.5 75q108 0 172 -71t64 -186v-46zM420 302q-3 40 -36.5 76t-92.5 36
q-57 0 -92.5 -32.5t-44.5 -79.5h266z" />
    <glyph glyph-name="eacute" unicode="&#xe9;" horiz-adv-x="564" 
d="M237 571l69 134h147l-114 -134h-102zM526 210h-373q4 -50 42.5 -87.5t95.5 -37.5q48 0 79.5 23t42.5 53l101 -31q-23 -64 -79.5 -104t-143.5 -40q-108 0 -180.5 74.5t-72.5 189.5q0 113 72.5 188t179.5 75q108 0 172 -71t64 -186v-46zM420 302q-3 40 -36.5 76t-92.5 36
q-57 0 -92.5 -32.5t-44.5 -79.5h266z" />
    <glyph glyph-name="ecircumflex" unicode="&#xea;" horiz-adv-x="564" 
d="M290 632l-53 -61h-99l97 134h110l96 -134h-98zM526 256v-46h-373q4 -50 42.5 -87.5t95.5 -37.5q48 0 79.5 23t42.5 53l101 -31q-23 -64 -79.5 -104t-143.5 -40q-108 0 -180.5 74.5t-72.5 189.5q0 113 72.5 188t179.5 75q108 0 172 -71t64 -186zM154 302h266
q-3 40 -36.5 76t-92.5 36q-57 0 -92.5 -32.5t-44.5 -79.5z" />
    <glyph glyph-name="edieresis" unicode="&#xeb;" horiz-adv-x="564" 
d="M200 567q-29 0 -50 21t-21 50t21 50t50 21t50 -21t21 -50t-21 -50t-50 -21zM379 567q-29 0 -50.5 21t-21.5 50t21.5 50t50.5 21q28 0 49 -21t21 -50t-21 -50t-49 -21zM526 210h-373q4 -50 42.5 -87.5t95.5 -37.5q48 0 79.5 23t42.5 53l101 -31q-23 -64 -79.5 -104
t-143.5 -40q-108 0 -180.5 74.5t-72.5 189.5q0 113 72.5 188t179.5 75q108 0 172 -71t64 -186v-46zM420 302q-3 40 -36.5 76t-92.5 36q-57 0 -92.5 -32.5t-44.5 -79.5h266z" />
    <glyph glyph-name="igrave" unicode="&#xec;" horiz-adv-x="248" 
d="M75 571l-114 134h147l69 -134h-102zM64 0v499h120v-499h-120z" />
    <glyph glyph-name="iacute" unicode="&#xed;" horiz-adv-x="248" 
d="M70 571l69 134h147l-114 -134h-102zM64 0v499h120v-499h-120z" />
    <glyph glyph-name="icircumflex" unicode="&#xee;" horiz-adv-x="248" 
d="M123 632l-53 -61h-99l97 134h110l96 -134h-98zM64 0v499h120v-499h-120z" />
    <glyph glyph-name="idieresis" unicode="&#xef;" horiz-adv-x="248" 
d="M33 567q-29 0 -50 21t-21 50t21 50t50 21t50 -21t21 -50t-21 -50t-50 -21zM212 567q-29 0 -50.5 21t-21.5 50t21.5 50t50.5 21q28 0 49 -21t21 -50t-21 -50t-49 -21zM64 0v499h120v-499h-120z" />
    <glyph glyph-name="eth" unicode="&#xf0;" horiz-adv-x="612" 
d="M298 -14q-114 0 -187 74.5t-73 183.5q0 107 74 180.5t186 73.5q68 0 121 -43q-24 72 -84 132l-121 -45l-28 71l87 32q-30 25 -69 49l65 71q5 -4 23.5 -17l40.5 -29.5t43 -35.5l101 37l28 -70l-73 -27q127 -146 127 -333q0 -141 -72 -222.5t-189 -81.5zM298 94
q60 0 100 43t40 107q0 66 -40 107.5t-100 41.5q-62 0 -101 -41.5t-39 -107.5q0 -65 39.5 -107.5t100.5 -42.5z" />
    <glyph glyph-name="ntilde" unicode="&#xf1;" horiz-adv-x="567" 
d="M345 575q-32 0 -67.5 18t-51.5 18q-33 0 -50 -39l-66 43q32 84 107 84q30 0 66 -18t54 -18q29 0 49 41l67 -45q-27 -84 -108 -84zM60 0v499h99l17 -60q56 74 152 74q179 0 179 -211v-302h-120v286q0 116 -97 116q-48 0 -79 -33.5t-31 -94.5v-274h-120z" />
    <glyph glyph-name="ograve" unicode="&#xf2;" horiz-adv-x="595" 
d="M250 571l-114 134h147l69 -134h-102zM297 -14q-112 0 -185.5 76t-73.5 188q0 111 74 187t185 76q112 0 186 -76t74 -187q0 -112 -74 -188t-186 -76zM297 97q60 0 100 43.5t40 109.5t-40 109t-100 43q-61 0 -100 -43t-39 -109q0 -67 39 -110t100 -43z" />
    <glyph glyph-name="oacute" unicode="&#xf3;" horiz-adv-x="595" 
d="M245 571l69 134h147l-114 -134h-102zM297 -14q-112 0 -185.5 76t-73.5 188q0 111 74 187t185 76q112 0 186 -76t74 -187q0 -112 -74 -188t-186 -76zM297 97q60 0 100 43.5t40 109.5t-40 109t-100 43q-61 0 -100 -43t-39 -109q0 -67 39 -110t100 -43z" />
    <glyph glyph-name="ocircumflex" unicode="&#xf4;" horiz-adv-x="595" 
d="M298 632l-53 -61h-99l97 134h110l96 -134h-98zM297 513q112 0 186 -76t74 -187q0 -112 -74 -188t-186 -76t-185.5 76t-73.5 188q0 111 74 187t185 76zM297 97q60 0 100 43.5t40 109.5t-40 109t-100 43q-61 0 -100 -43t-39 -109q0 -67 39 -110t100 -43z" />
    <glyph glyph-name="otilde" unicode="&#xf5;" horiz-adv-x="595" 
d="M360 575q-32 0 -67.5 18t-51.5 18q-33 0 -50 -39l-66 43q32 84 107 84q30 0 66 -18t54 -18q28 0 49 41l67 -45q-27 -84 -108 -84zM297 -14q-112 0 -185.5 76t-73.5 188q0 111 74 187t185 76q112 0 186 -76t74 -187q0 -112 -74 -188t-186 -76zM297 97q60 0 100 43.5
t40 109.5t-40 109t-100 43q-61 0 -100 -43t-39 -109q0 -67 39 -110t100 -43z" />
    <glyph glyph-name="odieresis" unicode="&#xf6;" horiz-adv-x="595" 
d="M208 567q-29 0 -50 21t-21 50t21 50t50 21t50 -21t21 -50t-21 -50t-50 -21zM387 567q-29 0 -50.5 21t-21.5 50t21.5 50t50.5 21q28 0 49 -21t21 -50t-21 -50t-49 -21zM297 -14q-112 0 -185.5 76t-73.5 188q0 111 74 187t185 76q112 0 186 -76t74 -187q0 -112 -74 -188
t-186 -76zM297 97q60 0 100 43.5t40 109.5t-40 109t-100 43q-61 0 -100 -43t-39 -109q0 -67 39 -110t100 -43z" />
    <glyph glyph-name="divide" unicode="&#xf7;" horiz-adv-x="600" 
d="M299 492q-31 0 -53 22t-22 53t22 53.5t53 22.5t53.5 -22.5t22.5 -53.5t-22.5 -53t-53.5 -22zM35 299v104h530v-104h-530zM299 70q-31 0 -53 22t-22 53t22 53.5t53 22.5t53.5 -22.5t22.5 -53.5t-22.5 -53t-53.5 -22z" />
    <glyph glyph-name="oslash" unicode="&#xf8;" horiz-adv-x="595" 
d="M486 434q71 -74 71 -184q0 -112 -74 -188t-186 -76q-62 0 -115 25l-41 -56l-72 52l41 57q-72 75 -72 186t74 187t185 76q63 0 117 -26l39 54l72 -53zM158 250q0 -50 23 -88l166 231q-24 9 -50 9q-61 0 -100 -43t-39 -109zM297 97q60 0 100 43.5t40 109.5q0 47 -22 85
l-166 -230q24 -8 48 -8z" />
    <glyph glyph-name="ugrave" unicode="&#xf9;" horiz-adv-x="567" 
d="M235 571l-114 134h147l69 -134h-102zM507 499v-499h-99l-17 60q-56 -74 -152 -74q-179 0 -179 212v301h120v-285q0 -116 97 -116q48 0 79 33.5t31 94.5v273h120z" />
    <glyph glyph-name="uacute" unicode="&#xfa;" horiz-adv-x="567" 
d="M230 571l69 134h147l-114 -134h-102zM507 499v-499h-99l-17 60q-56 -74 -152 -74q-179 0 -179 212v301h120v-285q0 -116 97 -116q48 0 79 33.5t31 94.5v273h120z" />
    <glyph glyph-name="ucircumflex" unicode="&#xfb;" horiz-adv-x="567" 
d="M283 632l-53 -61h-99l97 134h110l96 -134h-98zM387 499h120v-499h-99l-17 60q-56 -74 -152 -74q-179 0 -179 212v301h120v-285q0 -116 97 -116q48 0 79 33.5t31 94.5v273z" />
    <glyph glyph-name="udieresis" unicode="&#xfc;" horiz-adv-x="567" 
d="M193 567q-29 0 -50 21t-21 50t21 50t50 21t50 -21t21 -50t-21 -50t-50 -21zM372 567q-29 0 -50.5 21t-21.5 50t21.5 50t50.5 21q28 0 49 -21t21 -50t-21 -50t-49 -21zM507 499v-499h-99l-17 60q-56 -74 -152 -74q-179 0 -179 212v301h120v-285q0 -116 97 -116
q48 0 79 33.5t31 94.5v273h120z" />
    <glyph glyph-name="yacute" unicode="&#xfd;" horiz-adv-x="576" 
d="M451 705l-114 -134h-102l69 134h147zM396 499h120v-480q0 -106 -63 -169.5t-175 -63.5q-90 0 -144.5 43.5t-73.5 115.5l112 23q16 -79 106 -79q55 0 86.5 33.5t31.5 95.5v53l-1 3q-57 -69 -151 -69q-85 0 -133.5 52t-48.5 158v284h120v-264q0 -64 26 -91t74 -27
q51 0 82.5 33t31.5 94v255z" />
    <glyph glyph-name="thorn" unicode="&#xfe;" horiz-adv-x="614" 
d="M60 -201v901h123l-4 -258q54 71 154 71q103 0 173 -77t70 -187q0 -111 -68 -187t-173 -76q-94 0 -156 70v-257h-119zM317 97q60 0 99.5 43t39.5 109t-39.5 109.5t-99.5 43.5t-99 -43t-39 -110q0 -66 39 -109t99 -43z" />
    <glyph glyph-name="ydieresis" unicode="&#xff;" horiz-adv-x="576" 
d="M198 567q-29 0 -50 21t-21 50t21 50t50 21t50 -21t21 -50t-21 -50t-50 -21zM377 567q-29 0 -50.5 21t-21.5 50t21.5 50t50.5 21q28 0 49 -21t21 -50t-21 -50t-49 -21zM396 499h120v-480q0 -106 -63 -169.5t-175 -63.5q-90 0 -144.5 43.5t-73.5 115.5l112 23
q16 -79 106 -79q55 0 86.5 33.5t31.5 95.5v53l-1 3q-57 -69 -151 -69q-85 0 -133.5 52t-48.5 158v284h120v-264q0 -64 26 -91t74 -27q51 0 82.5 33t31.5 94v255z" />
    <glyph glyph-name="Amacron" unicode="&#x100;" horiz-adv-x="688" 
d="M458 880v-88h-228v88h228zM545 0l-58 157h-286l-58 -157h-125l262 700h128l262 -700h-125zM242 267h204l-102 275z" />
    <glyph glyph-name="amacron" unicode="&#x101;" horiz-adv-x="510" 
d="M139 594v88h228v-88h-228zM207 -14q-73 0 -122 42.5t-49 111.5q0 138 197 165l107 15v6q0 91 -92 91q-86 0 -99 -81l-106 26q41 151 209 151q90 0 149 -46.5t59 -138.5v-328h-101l-13 45q-42 -59 -139 -59zM239 83q43 0 72 24.5t29 67.5v58l-99 -15q-47 -7 -68.5 -23.5
t-21.5 -47.5q0 -29 23.5 -46.5t64.5 -17.5z" />
    <glyph glyph-name="Abreve" unicode="&#x102;" horiz-adv-x="688" 
d="M343 772q-59 0 -98.5 37.5t-42.5 96.5h82q7 -56 60 -56q55 0 62 56h82q-4 -58 -44.5 -96t-100.5 -38zM545 0l-58 157h-286l-58 -157h-125l262 700h128l262 -700h-125zM242 267h204l-102 275z" />
    <glyph glyph-name="abreve" unicode="&#x103;" horiz-adv-x="510" 
d="M252 571q-59 0 -98.5 37.5t-42.5 96.5h82q7 -56 60 -56q55 0 62 56h82q-4 -58 -44.5 -96t-100.5 -38zM207 -14q-73 0 -122 42.5t-49 111.5q0 138 197 165l107 15v6q0 91 -92 91q-86 0 -99 -81l-106 26q41 151 209 151q90 0 149 -46.5t59 -138.5v-328h-101l-13 45
q-42 -59 -139 -59zM239 83q43 0 72 24.5t29 67.5v58l-99 -15q-47 -7 -68.5 -23.5t-21.5 -47.5q0 -29 23.5 -46.5t64.5 -17.5z" />
    <glyph glyph-name="Aogonek" unicode="&#x104;" horiz-adv-x="688" 
d="M609 -73q0 -16 12 -27t35 -11h7l-1 -74q-18 -2 -26 -2q-53 0 -83 25.5t-30 66.5q0 42 29 78l-65 174h-286l-58 -157h-125l262 700h128l262 -700q-61 -31 -61 -73zM242 267h204l-102 275z" />
    <glyph glyph-name="aogonek" unicode="&#x105;" horiz-adv-x="510" 
d="M252 513q90 0 149 -46.5t59 -138.5v-328h-51q-60 -31 -60 -73q0 -16 11.5 -27t34.5 -11h7v-74q-18 -2 -26 -2q-53 0 -83.5 25.5t-30.5 66.5q0 71 73 116l20 -6l-9 30q-42 -59 -139 -59q-73 0 -122 42.5t-49 111.5q0 138 197 165l107 15v6q0 91 -92 91q-86 0 -99 -81
l-106 26q41 151 209 151zM340 175v58l-99 -15q-47 -7 -68.5 -23.5t-21.5 -47.5q0 -29 23.5 -46.5t64.5 -17.5q43 0 72 24.5t29 67.5z" />
    <glyph glyph-name="Cacute" unicode="&#x106;" horiz-adv-x="750" 
d="M345 769l69 134h147l-114 -134h-102zM400 -13q-154 0 -252 100t-98 264q0 159 97.5 261.5t250.5 102.5q113 0 195 -56t117 -162l-117 -38q-44 143 -194 143q-98 0 -162.5 -72t-64.5 -180q0 -111 65.5 -181t164.5 -70q76 0 123 36t67 94l115 -38q-78 -204 -307 -204z" />
    <glyph glyph-name="cacute" unicode="&#x107;" horiz-adv-x="560" 
d="M243 571l69 134h147l-114 -134h-102zM296 -14q-112 0 -185 75.5t-73 188.5q0 112 73 187.5t185 75.5q82 0 142 -43t83 -114l-109 -37q-14 39 -44 61t-72 22q-61 0 -99.5 -42.5t-38.5 -109.5t38.5 -110t99.5 -43q40 0 69.5 20.5t43.5 58.5l109 -37q-26 -70 -84.5 -111.5
t-137.5 -41.5z" />
    <glyph glyph-name="Ccircumflex" unicode="&#x108;" horiz-adv-x="750" 
d="M397 830l-53 -61h-99l97 134h110l96 -134h-98zM402 99q76 0 123 36t67 94l115 -38q-78 -204 -307 -204q-154 0 -252 100t-98 264q0 159 97.5 261.5t250.5 102.5q113 0 195 -56t117 -162l-117 -38q-44 143 -194 143q-98 0 -162.5 -72t-64.5 -180q0 -111 65.5 -181
t164.5 -70z" />
    <glyph glyph-name="ccircumflex" unicode="&#x109;" horiz-adv-x="560" 
d="M296 632l-53 -61h-99l97 134h110l96 -134h-98zM296 97q40 0 69.5 20.5t43.5 58.5l109 -37q-26 -70 -84.5 -111.5t-137.5 -41.5q-112 0 -185 75.5t-73 188.5q0 112 73 187.5t185 75.5q82 0 142 -43t83 -114l-109 -37q-14 39 -44 61t-72 22q-61 0 -99.5 -42.5t-38.5 -109.5
t38.5 -110t99.5 -43z" />
    <glyph glyph-name="Cdotaccent" unicode="&#x10a;" horiz-adv-x="750" 
d="M397 768q-29 0 -49.5 21t-20.5 50t20.5 50t49.5 21t50.5 -21t21.5 -50t-21.5 -50t-50.5 -21zM400 -13q-154 0 -252 100t-98 264q0 159 97.5 261.5t250.5 102.5q113 0 195 -56t117 -162l-117 -38q-44 143 -194 143q-98 0 -162.5 -72t-64.5 -180q0 -111 65.5 -181
t164.5 -70q76 0 123 36t67 94l115 -38q-78 -204 -307 -204z" />
    <glyph glyph-name="cdotaccent" unicode="&#x10b;" horiz-adv-x="560" 
d="M295 567q-29 0 -49.5 21t-20.5 50t20.5 50t49.5 21t50.5 -21t21.5 -50t-21.5 -50t-50.5 -21zM296 -14q-112 0 -185 75.5t-73 188.5q0 112 73 187.5t185 75.5q82 0 142 -43t83 -114l-109 -37q-14 39 -44 61t-72 22q-61 0 -99.5 -42.5t-38.5 -109.5t38.5 -110t99.5 -43
q40 0 69.5 20.5t43.5 58.5l109 -37q-26 -70 -84.5 -111.5t-137.5 -41.5z" />
    <glyph glyph-name="Ccaron" unicode="&#x10c;" horiz-adv-x="750" 
d="M452 771h-110l-97 134h99l53 -61l53 61h98zM402 99q76 0 123 36t67 94l115 -38q-78 -204 -307 -204q-154 0 -252 100t-98 264q0 159 97.5 261.5t250.5 102.5q113 0 195 -56t117 -162l-117 -38q-44 143 -194 143q-98 0 -162.5 -72t-64.5 -180q0 -111 65.5 -181t164.5 -70z
" />
    <glyph glyph-name="ccaron" unicode="&#x10d;" horiz-adv-x="560" 
d="M351 570h-110l-97 134h99l53 -61l53 61h98zM296 97q40 0 69.5 20.5t43.5 58.5l109 -37q-26 -70 -84.5 -111.5t-137.5 -41.5q-112 0 -185 75.5t-73 188.5q0 112 73 187.5t185 75.5q82 0 142 -43t83 -114l-109 -37q-14 39 -44 61t-72 22q-61 0 -99.5 -42.5t-38.5 -109.5
t38.5 -110t99.5 -43z" />
    <glyph glyph-name="Dcaron" unicode="&#x10e;" horiz-adv-x="704" 
d="M405 771h-110l-97 134h99l53 -61l53 61h98zM316 700q164 0 251 -98t87 -251q0 -155 -92.5 -253t-242.5 -98h-246v700h243zM315 110q59 0 102.5 20.5t67.5 56t35.5 77t11.5 88.5q0 238 -226 238h-111v-480h120z" />
    <glyph glyph-name="dcaron" unicode="&#x10f;" horiz-adv-x="614" 
d="M280 -14q-103 0 -172.5 77t-69.5 187q0 111 68 187t173 76q101 0 155 -70v257h120v-700h-99l-16 61q-57 -75 -159 -75zM597 566l35 134h118l-76 -134h-77zM297 94q60 0 99 44t39 112t-39 111.5t-99 43.5t-99.5 -44t-39.5 -111q0 -68 39.5 -112t99.5 -44z" />
    <glyph glyph-name="Dcroat" unicode="&#x110;" horiz-adv-x="704" 
d="M316 700q164 0 251 -98t87 -251q0 -155 -92.5 -253t-242.5 -98h-246v303h-74v96h74v301h243zM315 110q59 0 102.5 20.5t67.5 56t35.5 77t11.5 88.5q0 238 -226 238h-111v-191h140v-96h-140v-193h120z" />
    <glyph glyph-name="dcroat" unicode="&#x111;" horiz-adv-x="618" 
d="M602 634v-80h-48v-554h-99l-16 61q-57 -75 -159 -75q-103 0 -172.5 77t-69.5 187q0 111 68 187t173 76q101 0 155 -70v111h-134v80h134v66h120v-66h48zM297 94q60 0 99 44t39 112t-39 111.5t-99 43.5t-99.5 -44t-39.5 -111q0 -68 39.5 -112t99.5 -44z" />
    <glyph glyph-name="Emacron" unicode="&#x112;" horiz-adv-x="558" 
d="M192 792v88h228v-88h-228zM73 0v700h440v-110h-318v-184h276v-107h-276v-189h318v-110h-440z" />
    <glyph glyph-name="emacron" unicode="&#x113;" horiz-adv-x="564" 
d="M176 594v88h228v-88h-228zM526 210h-373q4 -50 42.5 -87.5t95.5 -37.5q48 0 79.5 23t42.5 53l101 -31q-23 -64 -79.5 -104t-143.5 -40q-108 0 -180.5 74.5t-72.5 189.5q0 113 72.5 188t179.5 75q108 0 172 -71t64 -186v-46zM420 302q-3 40 -36.5 76t-92.5 36
q-57 0 -92.5 -32.5t-44.5 -79.5h266z" />
    <glyph glyph-name="Ebreve" unicode="&#x114;" horiz-adv-x="558" 
d="M305 772q-59 0 -98.5 37.5t-42.5 96.5h82q7 -56 60 -56q55 0 62 56h82q-4 -58 -44.5 -96t-100.5 -38zM73 0v700h440v-110h-318v-184h276v-107h-276v-189h318v-110h-440z" />
    <glyph glyph-name="ebreve" unicode="&#x115;" horiz-adv-x="564" 
d="M289 571q-59 0 -98.5 37.5t-42.5 96.5h82q7 -56 60 -56q55 0 62 56h82q-4 -58 -44.5 -96t-100.5 -38zM526 210h-373q4 -50 42.5 -87.5t95.5 -37.5q48 0 79.5 23t42.5 53l101 -31q-23 -64 -79.5 -104t-143.5 -40q-108 0 -180.5 74.5t-72.5 189.5q0 113 72.5 188t179.5 75
q108 0 172 -71t64 -186v-46zM420 302q-3 40 -36.5 76t-92.5 36q-57 0 -92.5 -32.5t-44.5 -79.5h266z" />
    <glyph glyph-name="Edotaccent" unicode="&#x116;" horiz-adv-x="558" 
d="M306 768q-29 0 -49.5 21t-20.5 50t20.5 50t49.5 21t50.5 -21t21.5 -50t-21.5 -50t-50.5 -21zM73 0v700h440v-110h-318v-184h276v-107h-276v-189h318v-110h-440z" />
    <glyph glyph-name="edotaccent" unicode="&#x117;" horiz-adv-x="564" 
d="M289 567q-29 0 -49.5 21t-20.5 50t20.5 50t49.5 21t50.5 -21t21.5 -50t-21.5 -50t-50.5 -21zM526 210h-373q4 -50 42.5 -87.5t95.5 -37.5q48 0 79.5 23t42.5 53l101 -31q-23 -64 -79.5 -104t-143.5 -40q-108 0 -180.5 74.5t-72.5 189.5q0 113 72.5 188t179.5 75
q108 0 172 -71t64 -186v-46zM420 302q-3 40 -36.5 76t-92.5 36q-57 0 -92.5 -32.5t-44.5 -79.5h266z" />
    <glyph glyph-name="Eogonek" unicode="&#x118;" horiz-adv-x="558" 
d="M454 -73q0 -16 11.5 -27t34.5 -11h7v-74q-18 -2 -26 -2q-53 0 -83.5 25.5t-30.5 66.5q0 54 45 95h-339v700h440v-110h-318v-184h276v-107h-276v-189h318v-110h1q-60 -31 -60 -73z" />
    <glyph glyph-name="eogonek" unicode="&#x119;" horiz-adv-x="564" 
d="M235 -95q0 46 36 82l-6 1q-99 8 -163 81t-64 181q0 112 72.5 187.5t179.5 75.5q108 0 172 -71t64 -186v-41h-374q4 -55 42.5 -92.5t96.5 -37.5q48 0 79.5 23t42.5 53l101 -31q-17 -44 -45.5 -73t-77.5 -53q-70 -34 -70 -77q0 -16 12 -27t35 -11h6v-74q-18 -2 -26 -2
q-53 0 -83 25.5t-30 66.5zM153 296h268q-4 45 -37 83t-93 38q-58 0 -94 -34t-44 -87z" />
    <glyph glyph-name="Ecaron" unicode="&#x11a;" horiz-adv-x="558" 
d="M361 771h-110l-97 134h99l53 -61l53 61h98zM513 590h-318v-184h276v-107h-276v-189h318v-110h-440v700h440v-110z" />
    <glyph glyph-name="ecaron" unicode="&#x11b;" horiz-adv-x="564" 
d="M345 570h-110l-97 134h99l53 -61l53 61h98zM526 256v-46h-373q4 -50 42.5 -87.5t95.5 -37.5q48 0 79.5 23t42.5 53l101 -31q-23 -64 -79.5 -104t-143.5 -40q-108 0 -180.5 74.5t-72.5 189.5q0 113 72.5 188t179.5 75q108 0 172 -71t64 -186zM154 302h266q-3 40 -36.5 76
t-92.5 36q-57 0 -92.5 -32.5t-44.5 -79.5z" />
    <glyph glyph-name="Gcircumflex" unicode="&#x11c;" horiz-adv-x="786" 
d="M398 830l-53 -61h-99l97 134h110l96 -134h-98zM453 386h273v-386h-83l-18 79q-24 -33 -81 -63t-144 -30q-155 0 -252.5 102.5t-97.5 261.5q0 155 98 259.5t250 104.5q120 0 195 -53t108 -141l-115 -40q-47 121 -182 121q-102 0 -167 -73t-65 -178q0 -108 65.5 -179.5
t168.5 -71.5q96 0 145 55t54 128h-152v104z" />
    <glyph glyph-name="gcircumflex" unicode="&#x11d;" horiz-adv-x="606" 
d="M297 632l-53 -61h-99l97 134h110l96 -134h-98zM448 499h98v-480q0 -106 -67.5 -169.5t-187.5 -63.5q-96 0 -153.5 44t-77.5 118l112 25q20 -85 119 -85q64 0 99.5 33.5t35.5 95.5v61q-18 -31 -57.5 -52.5t-92.5 -21.5q-104 0 -171 72t-67 182q0 109 67.5 182t169.5 73
q55 0 93.5 -22t57.5 -52zM293 112q58 0 95.5 40t37.5 106q0 67 -37.5 107t-96.5 40t-96.5 -40t-37.5 -107q0 -66 38 -106t97 -40z" />
    <glyph glyph-name="Gbreve" unicode="&#x11e;" horiz-adv-x="786" 
d="M397 772q-59 0 -98.5 37.5t-42.5 96.5h82q7 -56 60 -56q55 0 62 56h82q-4 -58 -44.5 -96t-100.5 -38zM400 -14q-155 0 -252.5 102.5t-97.5 261.5q0 155 98 259.5t250 104.5q120 0 195 -53t108 -141l-115 -40q-47 121 -182 121q-102 0 -167 -73t-65 -178
q0 -108 65.5 -179.5t168.5 -71.5q96 0 145 55t54 128h-152v104h273v-386h-83l-18 79q-24 -33 -81 -63t-144 -30z" />
    <glyph glyph-name="gbreve" unicode="&#x11f;" horiz-adv-x="606" 
d="M296 571q-59 0 -98.5 37.5t-42.5 96.5h82q7 -56 60 -56q55 0 62 56h82q-4 -58 -44.5 -96t-100.5 -38zM291 -214q-96 0 -153.5 44t-77.5 118l112 25q20 -85 119 -85q64 0 99.5 33.5t35.5 95.5v61q-18 -31 -57.5 -52.5t-92.5 -21.5q-104 0 -171 72t-67 182q0 109 67.5 182
t169.5 73q55 0 93.5 -22t57.5 -52l22 60h98v-480q0 -106 -67.5 -169.5t-187.5 -63.5zM293 112q58 0 95.5 40t37.5 106q0 67 -37.5 107t-96.5 40t-96.5 -40t-37.5 -107q0 -66 38 -106t97 -40z" />
    <glyph glyph-name="Gdotaccent" unicode="&#x120;" horiz-adv-x="786" 
d="M398 768q-29 0 -49.5 21t-20.5 50t20.5 50t49.5 21t50.5 -21t21.5 -50t-21.5 -50t-50.5 -21zM400 -14q-155 0 -252.5 102.5t-97.5 261.5q0 155 98 259.5t250 104.5q120 0 195 -53t108 -141l-115 -40q-47 121 -182 121q-102 0 -167 -73t-65 -178q0 -108 65.5 -179.5
t168.5 -71.5q96 0 145 55t54 128h-152v104h273v-386h-83l-18 79q-24 -33 -81 -63t-144 -30z" />
    <glyph glyph-name="gdotaccent" unicode="&#x121;" horiz-adv-x="606" 
d="M296 567q-29 0 -49.5 21t-20.5 50t20.5 50t49.5 21t50.5 -21t21.5 -50t-21.5 -50t-50.5 -21zM291 -214q-96 0 -153.5 44t-77.5 118l112 25q20 -85 119 -85q64 0 99.5 33.5t35.5 95.5v61q-18 -31 -57.5 -52.5t-92.5 -21.5q-104 0 -171 72t-67 182q0 109 67.5 182t169.5 73
q55 0 93.5 -22t57.5 -52l22 60h98v-480q0 -106 -67.5 -169.5t-187.5 -63.5zM293 112q58 0 95.5 40t37.5 106q0 67 -37.5 107t-96.5 40t-96.5 -40t-37.5 -107q0 -66 38 -106t97 -40z" />
    <glyph glyph-name="Gcommaaccent" unicode="&#x122;" horiz-adv-x="786" 
d="M400 -14q-155 0 -252.5 102.5t-97.5 261.5q0 155 98 259.5t250 104.5q120 0 195 -53t108 -141l-115 -40q-47 121 -182 121q-102 0 -167 -73t-65 -178q0 -108 65.5 -179.5t168.5 -71.5q96 0 145 55t54 128h-152v104h273v-386h-83l-18 79q-24 -33 -81 -63t-144 -30z
M355 -217q20 26 26 46q-47 10 -47 54q0 28 19.5 44t41.5 16q28 0 46.5 -17.5t18.5 -49.5t-17.5 -66.5t-45.5 -55.5z" />
    <glyph glyph-name="gcommaaccent" unicode="&#x123;" horiz-adv-x="606" 
d="M337 733q-20 -26 -25 -46q47 -11 47 -54q0 -28 -19.5 -44t-42.5 -16q-28 0 -46.5 17.5t-18.5 48.5q0 32 17.5 66.5t45.5 56.5zM291 -214q-96 0 -153.5 44t-77.5 118l112 25q20 -85 119 -85q64 0 99.5 33.5t35.5 95.5v61q-18 -31 -57.5 -52.5t-92.5 -21.5q-104 0 -171 72
t-67 182q0 109 67.5 182t169.5 73q55 0 93.5 -22t57.5 -52l22 60h98v-480q0 -106 -67.5 -169.5t-187.5 -63.5zM293 112q58 0 95.5 40t37.5 106q0 67 -37.5 107t-96.5 40t-96.5 -40t-37.5 -107q0 -66 38 -106t97 -40z" />
    <glyph glyph-name="Hcircumflex" unicode="&#x124;" horiz-adv-x="699" 
d="M351 830l-53 -61h-99l97 134h110l96 -134h-98zM504 700h122v-700h-122v300h-309v-300h-122v700h122v-287h309v287z" />
    <glyph glyph-name="hcircumflex" unicode="&#x125;" horiz-adv-x="565" 
d="M121 801l-52 -61h-99l96 134h111l95 -134h-97zM327 513q178 0 178 -211v-302h-119v284q0 117 -97 117q-48 0 -79 -33.5t-31 -94.5v-273h-119v700h119v-256q55 69 148 69z" />
    <glyph glyph-name="Hbar" unicode="&#x126;" horiz-adv-x="799" 
d="M726 600v-97h-50v-503h-122v288h-309v-288h-122v503h-50v97h50v100h122v-100h309v100h122v-100h50zM554 401v102h-309v-102h309z" />
    <glyph glyph-name="hbar" unicode="&#x127;" horiz-adv-x="572" 
d="M334 513q178 0 178 -211v-302h-119v284q0 117 -97 117q-48 0 -79 -33.5t-31 -94.5v-273h-119v554h-49v80h49v66h119v-66h135v-80h-135v-110q55 69 148 69z" />
    <glyph glyph-name="Itilde" unicode="&#x128;" horiz-adv-x="268" 
d="M199 773q-31 0 -67 17.5t-51 17.5q-32 0 -51 -39l-65 43q32 84 107 84q29 0 65 -17.5t55 -17.5q29 0 48 41l67 -45q-27 -84 -108 -84zM73 0v700h122v-700h-122z" />
    <glyph glyph-name="itilde" unicode="&#x129;" horiz-adv-x="248" 
d="M185 575q-32 0 -67.5 18t-51.5 18q-33 0 -50 -39l-66 43q32 84 107 84q30 0 66 -18t54 -18q29 0 49 41l67 -45q-27 -84 -108 -84zM64 0v499h120v-499h-120z" />
    <glyph glyph-name="Imacron" unicode="&#x12a;" horiz-adv-x="268" 
d="M20 792v88h228v-88h-228zM73 0v700h122v-700h-122z" />
    <glyph glyph-name="imacron" unicode="&#x12b;" horiz-adv-x="248" 
d="M9 594v88h228v-88h-228zM64 0v499h120v-499h-120z" />
    <glyph glyph-name="Ibreve" unicode="&#x12c;" horiz-adv-x="268" 
d="M133 772q-59 0 -98.5 37.5t-42.5 96.5h82q7 -56 60 -56q55 0 62 56h82q-4 -58 -44.5 -96t-100.5 -38zM73 0v700h122v-700h-122z" />
    <glyph glyph-name="ibreve" unicode="&#x12d;" horiz-adv-x="248" 
d="M122 571q-59 0 -98.5 37.5t-42.5 96.5h82q7 -56 60 -56q55 0 62 56h82q-4 -58 -44.5 -96t-100.5 -38zM64 0v499h120v-499h-120z" />
    <glyph glyph-name="Iogonek" unicode="&#x12e;" horiz-adv-x="268" 
d="M195 0q-60 -31 -60 -73q0 -16 11.5 -27t34.5 -11h7v-74q-18 -2 -26 -2q-53 0 -83.5 25.5t-30.5 66.5q0 54 45 95h-20v700h122v-700z" />
    <glyph glyph-name="iogonek" unicode="&#x12f;" horiz-adv-x="248" 
d="M122 567q-29 0 -49.5 21t-20.5 50t20.5 50t49.5 21t50.5 -21t21.5 -50t-21.5 -50t-50.5 -21zM64 0v499h120v-499q-60 -31 -60 -73q0 -16 11.5 -27t34.5 -11h7v-74q-18 -2 -26 -2q-53 0 -83.5 25.5t-30.5 66.5q0 54 45 95h-18z" />
    <glyph glyph-name="Idotaccent" unicode="&#x130;" horiz-adv-x="268" 
d="M134 768q-29 0 -49.5 21t-20.5 50t20.5 50t49.5 21t50.5 -21t21.5 -50t-21.5 -50t-50.5 -21zM73 0v700h122v-700h-122z" />
    <glyph glyph-name="dotlessi" unicode="&#x131;" horiz-adv-x="248" 
d="M64 0v499h120v-499h-120z" />
    <glyph glyph-name="IJ" unicode="&#x132;" horiz-adv-x="795" 
d="M73 0v700h122v-700h-122zM507 -14q-92 0 -151.5 52t-62.5 141v49l119 -23v-13q0 -42 24.5 -67.5t71.5 -25.5t71 29.5t24 81.5v490h122v-487q0 -112 -59 -169.5t-159 -57.5z" />
    <glyph glyph-name="ij" unicode="&#x133;" horiz-adv-x="503" 
d="M122 567q-29 0 -49.5 21t-20.5 50t20.5 50t49.5 21t50.5 -21t21.5 -50t-21.5 -50t-50.5 -21zM380 567q-29 0 -49.5 21t-20.5 50t20.5 50t49.5 21t50.5 -21t21.5 -50t-21.5 -50t-50.5 -21zM64 0v499h120v-499h-120zM298 -215q-78 0 -118 43l50 85q16 -16 45 -16
q46 0 46 54v548h120v-564q0 -69 -41 -109.5t-102 -40.5z" />
    <glyph glyph-name="Jcircumflex" unicode="&#x134;" horiz-adv-x="527" 
d="M395 830l-53 -61h-99l97 134h110l96 -134h-98zM335 210v490h122v-487q0 -112 -59 -169.5t-159 -57.5q-92 0 -151.5 52t-62.5 141v49l119 -23v-13q0 -42 24.5 -67.5t71.5 -25.5t71 29.5t24 81.5z" />
    <glyph glyph-name="jcircumflex" unicode="&#x135;" horiz-adv-x="255" 
d="M133 632l-53 -61h-99l97 134h110l96 -134h-98zM73 -49v548h120v-564q0 -69 -41 -109.5t-102 -40.5q-78 0 -118 43l50 85q16 -16 45 -16q46 0 46 54z" />
    <glyph glyph-name="Kcommaaccent" unicode="&#x136;" horiz-adv-x="659" 
d="M355 411l286 -412h-152l-218 321l-77 -83v-237h-121v700h121v-294l11 11l-5 7l12 1l254 275h158zM331 -57q28 0 46.5 -17.5t18.5 -49.5t-17.5 -66.5t-45.5 -55.5l-42 29q20 26 26 46q-47 10 -47 54q0 28 19.5 44t41.5 16z" />
    <glyph glyph-name="kcommaaccent" unicode="&#x137;" horiz-adv-x="531" 
d="M307 302l210 -302h-136l-153 218l-48 -52v-166h-120v700h120v-378l169 178h145zM269 -57q28 0 46.5 -17.5t18.5 -49.5t-17.5 -66.5t-45.5 -55.5l-42 29q20 26 26 46q-47 10 -47 54q0 28 19.5 44t41.5 16z" />
    <glyph glyph-name="kgreenlandic" unicode="&#x138;" horiz-adv-x="531" 
d="M381 0l-153 218l-48 -52v-166h-120v499h120v-177l169 178h145l-187 -198l210 -302h-136z" />
    <glyph glyph-name="Lacute" unicode="&#x139;" horiz-adv-x="527" 
d="M91 769l69 134h147l-114 -134h-102zM73 0v700h122v-588h306v-112h-428z" />
    <glyph glyph-name="lacute" unicode="&#x13a;" horiz-adv-x="240" 
d="M70 769l69 134h147l-114 -134h-102zM60 0v700h120v-700h-120z" />
    <glyph glyph-name="Lcommaaccent" unicode="&#x13b;" horiz-adv-x="527" 
d="M73 0v700h122v-588h306v-112h-428zM246 -217q20 26 26 46q-47 10 -47 54q0 28 19.5 44t41.5 16q28 0 46.5 -17.5t18.5 -49.5t-17.5 -66.5t-45.5 -55.5z" />
    <glyph glyph-name="lcommaaccent" unicode="&#x13c;" horiz-adv-x="240" 
d="M60 0v700h120v-700h-120zM77 -217q20 26 26 46q-47 10 -47 54q0 28 19.5 44t41.5 16q28 0 46.5 -17.5t18.5 -49.5t-17.5 -66.5t-45.5 -55.5z" />
    <glyph glyph-name="Lcaron" unicode="&#x13d;" horiz-adv-x="527" 
d="M73 0v700h122v-588h306v-112h-428zM250 566l42 134h133l-82 -134h-93z" />
    <glyph glyph-name="lcaron" unicode="&#x13e;" horiz-adv-x="240" 
d="M60 0v700h120v-700h-120zM223 566l35 134h119l-77 -134h-77z" />
    <glyph glyph-name="Ldot" unicode="&#x13f;" horiz-adv-x="527" 
d="M73 0v700h122v-588h306v-112h-428zM399 324q-31 0 -53.5 22t-22.5 54q0 31 22.5 53t53.5 22t53 -22t22 -53t-22 -53.5t-53 -22.5z" />
    <glyph glyph-name="ldot" unicode="&#x140;" horiz-adv-x="390" 
d="M60 0v700h120v-700h-120zM319 274q-31 0 -53.5 22t-22.5 54q0 31 22.5 53t53.5 22t53 -22t22 -53t-22 -53.5t-53 -22.5z" />
    <glyph glyph-name="Lslash" unicode="&#x141;" horiz-adv-x="568" 
d="M236 112h306v-112h-428v266l-68 -30l-36 85l104 46v333h122v-279l133 59l37 -85l-170 -75v-208z" />
    <glyph glyph-name="lslash" unicode="&#x142;" horiz-adv-x="354" 
d="M344 417l-107 -78v-339h-120v251l-54 -39l-53 77l107 78v333h120v-246l53 39z" />
    <glyph glyph-name="Nacute" unicode="&#x143;" horiz-adv-x="731" 
d="M319 769l69 134h147l-114 -134h-102zM75 0v700h126l333 -501v501h122v-700h-125l-334 501v-501h-122z" />
    <glyph glyph-name="nacute" unicode="&#x144;" horiz-adv-x="567" 
d="M230 571l69 134h147l-114 -134h-102zM60 0v499h99l17 -60q56 74 152 74q179 0 179 -211v-302h-120v286q0 116 -97 116q-48 0 -79 -33.5t-31 -94.5v-274h-120z" />
    <glyph glyph-name="Ncommaaccent" unicode="&#x145;" horiz-adv-x="731" 
d="M75 0v700h126l333 -501v501h122v-700h-125l-334 501v-501h-122zM323 -217q20 26 26 46q-47 10 -47 54q0 28 19.5 44t41.5 16q28 0 46.5 -17.5t18.5 -49.5t-17.5 -66.5t-45.5 -55.5z" />
    <glyph glyph-name="ncommaaccent" unicode="&#x146;" horiz-adv-x="567" 
d="M60 0v499h99l17 -60q56 74 152 74q179 0 179 -211v-302h-120v286q0 116 -97 116q-48 0 -79 -33.5t-31 -94.5v-274h-120zM245 -217q20 26 26 46q-47 10 -47 54q0 28 19.5 44t41.5 16q28 0 46.5 -17.5t18.5 -49.5t-17.5 -66.5t-45.5 -55.5z" />
    <glyph glyph-name="Ncaron" unicode="&#x147;" horiz-adv-x="731" 
d="M426 771h-110l-97 134h99l53 -61l53 61h98zM534 700h122v-700h-125l-334 501v-501h-122v700h126l333 -501v501z" />
    <glyph glyph-name="ncaron" unicode="&#x148;" horiz-adv-x="567" 
d="M338 570h-110l-97 134h99l53 -61l53 61h98zM328 513q179 0 179 -211v-302h-120v286q0 116 -97 116q-48 0 -79 -33.5t-31 -94.5v-274h-120v499h99l17 -60q56 74 152 74z" />
    <glyph glyph-name="napostrophe" unicode="&#x149;" horiz-adv-x="628" 
d="M25 562q19 22 26 46q-47 10 -47 54q0 28 19.5 44t41.5 16q28 0 46.5 -17.5t18.5 -48.5q0 -32 -17.5 -67t-45.5 -56zM121 0v499h99l17 -60q56 74 152 74q179 0 179 -211v-302h-120v286q0 116 -97 116q-48 0 -79 -33.5t-31 -94.5v-274h-120z" />
    <glyph glyph-name="Eng" unicode="&#x14a;" horiz-adv-x="731" 
d="M656 499h1v-564q0 -69 -41 -109.5t-102 -40.5q-78 0 -118 43l50 85q16 -16 45 -16q46 0 46 54v40l-340 510v-501h-122v700h126l333 -501v501h122v-201z" />
    <glyph glyph-name="eng" unicode="&#x14b;" horiz-adv-x="567" 
d="M328 513q179 0 179 -211v-367q0 -69 -41 -109.5t-101 -40.5q-79 0 -119 43l51 85q14 -16 44 -16q46 0 46 54v335q0 116 -97 116q-48 0 -79 -33.5t-31 -94.5v-274h-120v499h99l17 -60q56 74 152 74z" />
    <glyph glyph-name="Omacron" unicode="&#x14c;" horiz-adv-x="815" 
d="M293 792v88h228v-88h-228zM408 -13q-162 0 -260 105.5t-98 258.5t97.5 258.5t260.5 105.5q161 0 259 -106t98 -258t-98 -258t-259 -106zM408 100q106 0 170.5 70.5t64.5 180.5q0 109 -64.5 180t-170.5 71q-107 0 -171.5 -71t-64.5 -180q0 -110 64 -180.5t172 -70.5z" />
    <glyph glyph-name="omacron" unicode="&#x14d;" horiz-adv-x="595" 
d="M184 594v88h228v-88h-228zM297 -14q-112 0 -185.5 76t-73.5 188q0 111 74 187t185 76q112 0 186 -76t74 -187q0 -112 -74 -188t-186 -76zM297 97q60 0 100 43.5t40 109.5t-40 109t-100 43q-61 0 -100 -43t-39 -109q0 -67 39 -110t100 -43z" />
    <glyph glyph-name="Obreve" unicode="&#x14e;" horiz-adv-x="815" 
d="M406 772q-59 0 -98.5 37.5t-42.5 96.5h82q7 -56 60 -56q55 0 62 56h82q-4 -58 -44.5 -96t-100.5 -38zM408 -13q-162 0 -260 105.5t-98 258.5t97.5 258.5t260.5 105.5q161 0 259 -106t98 -258t-98 -258t-259 -106zM408 100q106 0 170.5 70.5t64.5 180.5q0 109 -64.5 180
t-170.5 71q-107 0 -171.5 -71t-64.5 -180q0 -110 64 -180.5t172 -70.5z" />
    <glyph glyph-name="obreve" unicode="&#x14f;" horiz-adv-x="595" 
d="M297 571q-59 0 -98.5 37.5t-42.5 96.5h82q7 -56 60 -56q55 0 62 56h82q-4 -58 -44.5 -96t-100.5 -38zM297 -14q-112 0 -185.5 76t-73.5 188q0 111 74 187t185 76q112 0 186 -76t74 -187q0 -112 -74 -188t-186 -76zM297 97q60 0 100 43.5t40 109.5t-40 109t-100 43
q-61 0 -100 -43t-39 -109q0 -67 39 -110t100 -43z" />
    <glyph glyph-name="Ohungarumlaut" unicode="&#x150;" horiz-adv-x="815" 
d="M366 772h-84l66 134h129zM528 772h-84l66 134h129zM408 -13q-162 0 -260 105.5t-98 258.5t97.5 258.5t260.5 105.5q161 0 259 -106t98 -258t-98 -258t-259 -106zM408 100q106 0 170.5 70.5t64.5 180.5q0 109 -64.5 180t-170.5 71q-107 0 -171.5 -71t-64.5 -180
q0 -110 64 -180.5t172 -70.5z" />
    <glyph glyph-name="ohungarumlaut" unicode="&#x151;" horiz-adv-x="595" 
d="M257 571h-84l66 134h129zM419 571h-84l66 134h129zM297 -14q-112 0 -185.5 76t-73.5 188q0 111 74 187t185 76q112 0 186 -76t74 -187q0 -112 -74 -188t-186 -76zM297 97q60 0 100 43.5t40 109.5t-40 109t-100 43q-61 0 -100 -43t-39 -109q0 -67 39 -110t100 -43z" />
    <glyph glyph-name="OE" unicode="&#x152;" horiz-adv-x="1126" 
d="M1081 590h-318v-184h276v-107h-276v-189h318v-110h-440v81q-88 -95 -235 -95q-161 0 -258.5 105.5t-97.5 258.5q0 152 97.5 258t258.5 106q147 0 235 -96v82h440v-110zM406 101q106 0 170.5 70.5t64.5 178.5t-65 179t-170 71t-168.5 -71t-63.5 -179t63 -178.5t169 -70.5z
" />
    <glyph glyph-name="oe" unicode="&#x153;" horiz-adv-x="976" 
d="M937 256v-46h-373q4 -50 42.5 -87.5t95.5 -37.5q48 0 79.5 23t42.5 53l101 -31q-23 -64 -79.5 -104t-143.5 -40q-62 0 -114 26t-86 72q-77 -98 -205 -98q-112 0 -185.5 76t-73.5 188q0 111 74 187t185 76q130 0 205 -98q74 98 199 98q108 0 172 -71t64 -186zM565 302h266
q-3 40 -36.5 76t-92.5 36q-57 0 -92.5 -32.5t-44.5 -79.5zM297 97q60 0 100 43.5t40 109.5t-40 109t-100 43q-61 0 -100 -43t-39 -109q0 -67 39 -110t100 -43z" />
    <glyph glyph-name="Racute" unicode="&#x154;" horiz-adv-x="626" 
d="M242 769l69 134h147l-114 -134h-102zM73 0v700h256q107 0 167.5 -58.5t60.5 -149.5q0 -79 -38.5 -130t-98.5 -71l167 -291h-135l-153 274h-104v-274h-122zM195 381h126q54 0 84.5 28.5t30.5 76.5q0 49 -31 76.5t-86 27.5h-124v-209z" />
    <glyph glyph-name="racute" unicode="&#x155;" horiz-adv-x="395" 
d="M171 571l69 134h147l-114 -134h-102zM60 0v499h99l17 -58q42 72 126 72q54 0 86 -24l-43 -105q-21 17 -60 17q-45 0 -75 -34.5t-30 -94.5v-272h-120z" />
    <glyph glyph-name="Rcommaaccent" unicode="&#x156;" horiz-adv-x="626" 
d="M73 0v700h256q107 0 167.5 -58.5t60.5 -149.5q0 -79 -38.5 -130t-98.5 -71l167 -291h-135l-153 274h-104v-274h-122zM195 381h126q54 0 84.5 28.5t30.5 76.5q0 49 -31 76.5t-86 27.5h-124v-209zM268 -217q20 26 26 46q-47 10 -47 54q0 28 19.5 44t41.5 16
q28 0 46.5 -17.5t18.5 -49.5t-17.5 -66.5t-45.5 -55.5z" />
    <glyph glyph-name="rcommaaccent" unicode="&#x157;" horiz-adv-x="395" 
d="M60 0v499h99l17 -58q42 72 126 72q54 0 86 -24l-43 -105q-21 17 -60 17q-45 0 -75 -34.5t-30 -94.5v-272h-120zM83 -217q20 26 26 46q-47 10 -47 54q0 28 19.5 44t41.5 16q28 0 46.5 -17.5t18.5 -49.5t-17.5 -66.5t-45.5 -55.5z" />
    <glyph glyph-name="Rcaron" unicode="&#x158;" horiz-adv-x="626" 
d="M349 771h-110l-97 134h99l53 -61l53 61h98zM420 291l167 -291h-135l-153 274h-104v-274h-122v700h256q107 0 167.5 -58.5t60.5 -149.5q0 -79 -38.5 -130t-98.5 -71zM321 381q54 0 84.5 28.5t30.5 76.5q0 49 -31 76.5t-86 27.5h-124v-209h126z" />
    <glyph glyph-name="rcaron" unicode="&#x159;" horiz-adv-x="395" 
d="M279 570h-110l-97 134h99l53 -61l53 61h98zM302 513q54 0 86 -24l-43 -105q-21 17 -60 17q-45 0 -75 -34.5t-30 -94.5v-272h-120v499h99l17 -58q42 72 126 72z" />
    <glyph glyph-name="Sacute" unicode="&#x15a;" horiz-adv-x="602" 
d="M253 769l69 134h147l-114 -134h-102zM306 -13q-104 0 -173.5 51t-94.5 148l114 33q19 -63 54 -92.5t100 -29.5q61 0 98.5 26t37.5 74q0 38 -30 63t-107 38q-123 23 -185 73t-62 137q0 91 69 149t178 58q96 0 159 -50t86 -141l-114 -32q-15 57 -45.5 85t-85.5 28
q-57 0 -91 -25t-34 -72q0 -39 34.5 -59t112.5 -36q122 -24 179.5 -75.5t57.5 -140.5q0 -94 -74 -152t-184 -58z" />
    <glyph glyph-name="sacute" unicode="&#x15b;" horiz-adv-x="486" 
d="M195 571l69 134h147l-114 -134h-102zM246 -14q-81 0 -135 39.5t-73 109.5l106 34q23 -83 102 -83q41 0 65 15t24 42q0 21 -19.5 35.5t-72.5 23.5q-92 17 -141.5 50.5t-49.5 104.5q0 67 53 111.5t141 44.5q75 0 124.5 -37.5t65.5 -105.5l-105 -30q-18 73 -85 73
q-40 0 -61 -15t-21 -36q0 -24 23.5 -36t76.5 -22q91 -16 137.5 -52t46.5 -107q0 -68 -55.5 -113.5t-146.5 -45.5z" />
    <glyph glyph-name="Scircumflex" unicode="&#x15c;" horiz-adv-x="602" 
d="M305 830l-53 -61h-99l97 134h110l96 -134h-98zM327 413q122 -24 179.5 -75.5t57.5 -140.5q0 -94 -74 -152t-184 -58q-104 0 -173.5 51t-94.5 148l114 33q19 -63 54 -92.5t100 -29.5q61 0 98.5 26t37.5 74q0 38 -30 63t-107 38q-123 23 -185 73t-62 137q0 91 69 149
t178 58q96 0 159 -50t86 -141l-114 -32q-15 57 -45.5 85t-85.5 28q-57 0 -91 -25t-34 -72q0 -39 34.5 -59t112.5 -36z" />
    <glyph glyph-name="scircumflex" unicode="&#x15d;" horiz-adv-x="486" 
d="M248 632l-53 -61h-99l97 134h110l96 -134h-98zM264 304q91 -16 137.5 -52t46.5 -107q0 -68 -55.5 -113.5t-146.5 -45.5q-81 0 -135 39.5t-73 109.5l106 34q23 -83 102 -83q41 0 65 15t24 42q0 21 -19.5 35.5t-72.5 23.5q-92 17 -141.5 50.5t-49.5 104.5q0 67 53 111.5
t141 44.5q75 0 124.5 -37.5t65.5 -105.5l-105 -30q-18 73 -85 73q-40 0 -61 -15t-21 -36q0 -24 23.5 -36t76.5 -22z" />
    <glyph glyph-name="Scedilla" unicode="&#x15e;" horiz-adv-x="602" 
d="M564 197q0 -88 -65 -144.5t-165 -64.5l-16 -30q38 -2 63.5 -25t25.5 -61q0 -45 -27.5 -72t-72.5 -27q-39 0 -66 21.5t-31 52.5l61 20q0 -15 10 -24.5t26 -9.5q14 0 24 9.5t10 24.5t-9.5 24t-24.5 9q-16 0 -23 -7l-48 27l37 68q-91 8 -151.5 58.5t-83.5 139.5l114 33
q19 -63 54 -92.5t100 -29.5q61 0 98.5 26t37.5 74q0 38 -30 63t-107 38q-123 23 -185 73t-62 137q0 91 69 149t178 58q96 0 159 -50t86 -141l-114 -32q-15 57 -45.5 85t-85.5 28q-57 0 -91 -25t-34 -72q0 -39 34.5 -59t112.5 -36q122 -24 179.5 -75.5t57.5 -140.5z" />
    <glyph glyph-name="scedilla" unicode="&#x15f;" horiz-adv-x="486" 
d="M448 145q0 -62 -46.5 -106t-125.5 -52l-16 -29q38 -2 63 -24.5t25 -61.5q0 -45 -27.5 -72t-72.5 -27q-39 0 -66 21.5t-30 52.5l61 20q0 -15 9.5 -24.5t25.5 -9.5q15 0 24.5 9.5t9.5 24.5t-9.5 24t-24.5 9t-22 -7l-49 27l36 68q-68 7 -113 45.5t-62 101.5l106 34
q23 -83 102 -83q41 0 65 15t24 42q0 21 -19.5 35.5t-72.5 23.5q-92 17 -141.5 50.5t-49.5 104.5q0 67 53 111.5t141 44.5q75 0 124.5 -37.5t65.5 -105.5l-105 -30q-18 73 -85 73q-40 0 -61 -15t-21 -36q0 -24 23.5 -36t76.5 -22q91 -16 137.5 -52t46.5 -107z" />
    <glyph glyph-name="Scaron" unicode="&#x160;" horiz-adv-x="602" 
d="M360 771h-110l-97 134h99l53 -61l53 61h98zM327 413q122 -24 179.5 -75.5t57.5 -140.5q0 -94 -74 -152t-184 -58q-104 0 -173.5 51t-94.5 148l114 33q19 -63 54 -92.5t100 -29.5q61 0 98.5 26t37.5 74q0 38 -30 63t-107 38q-123 23 -185 73t-62 137q0 91 69 149t178 58
q96 0 159 -50t86 -141l-114 -32q-15 57 -45.5 85t-85.5 28q-57 0 -91 -25t-34 -72q0 -39 34.5 -59t112.5 -36z" />
    <glyph glyph-name="scaron" unicode="&#x161;" horiz-adv-x="486" 
d="M303 570h-110l-97 134h99l53 -61l53 61h98zM264 304q91 -16 137.5 -52t46.5 -107q0 -68 -55.5 -113.5t-146.5 -45.5q-81 0 -135 39.5t-73 109.5l106 34q23 -83 102 -83q41 0 65 15t24 42q0 21 -19.5 35.5t-72.5 23.5q-92 17 -141.5 50.5t-49.5 104.5q0 67 53 111.5
t141 44.5q75 0 124.5 -37.5t65.5 -105.5l-105 -30q-18 73 -85 73q-40 0 -61 -15t-21 -36q0 -24 23.5 -36t76.5 -22z" />
    <glyph glyph-name="uni0162" unicode="&#x162;" horiz-adv-x="578" 
d="M350 0h-26l-23 -42q38 -2 63.5 -25t25.5 -61q0 -45 -27.5 -72t-72.5 -27q-39 0 -66 21.5t-31 52.5l61 20q0 -15 10 -24.5t26 -9.5q14 0 24 9.5t10 24.5t-9.5 24t-24.5 9q-16 0 -23 -7l-48 27l43 80h-34v587h-202v113h526v-113h-202v-587z" />
    <glyph glyph-name="uni0163" unicode="&#x163;" horiz-adv-x="385" 
d="M369 30q-32 -39 -105 -43l-16 -29q38 -2 63 -24.5t25 -61.5q0 -45 -27.5 -72t-72.5 -27q-39 0 -66 21.5t-30 52.5l61 20q0 -15 9.5 -24.5t25.5 -9.5q15 0 24.5 9.5t9.5 24.5t-9.5 24t-24.5 9t-22 -7l-49 27l38 72q-44 13 -70.5 49t-26.5 93v260h-86v105h86v130h120v-130
h127v-105h-127v-243q0 -53 47 -53q27 0 46 17z" />
    <glyph glyph-name="Tcaron" unicode="&#x164;" horiz-adv-x="578" 
d="M344 771h-110l-97 134h99l53 -61l53 61h98zM26 700h526v-113h-202v-587h-122v587h-202v113z" />
    <glyph glyph-name="tcaron" unicode="&#x165;" horiz-adv-x="385" 
d="M260 566l42 134h133l-82 -134h-93zM247 -14q-61 0 -101 38.5t-40 109.5v260h-86v105h86v130h120v-130h127v-105h-127v-243q0 -53 47 -53q27 0 46 17l50 -85q-36 -44 -122 -44z" />
    <glyph glyph-name="Tbar" unicode="&#x166;" horiz-adv-x="578" 
d="M552 587h-202v-216h105v-92h-105v-279h-122v279h-106v92h106v216h-202v113h526v-113z" />
    <glyph glyph-name="tbar" unicode="&#x167;" horiz-adv-x="386" 
d="M319 115l51 -86q-43 -43 -123 -43q-61 0 -101 37t-40 103v99h-63v80h63v108h-86v86h86v130h120v-130h127v-86h-127v-108h87v-80h-87v-81q0 -46 47 -46q29 0 46 17z" />
    <glyph glyph-name="Utilde" unicode="&#x168;" horiz-adv-x="696" 
d="M415 773q-31 0 -67 17.5t-51 17.5q-32 0 -51 -39l-65 43q31 84 107 84q29 0 65 -17.5t55 -17.5q29 0 48 41l67 -45q-27 -84 -108 -84zM348 -14q-120 0 -197.5 71t-77.5 217v426h122v-420q0 -181 153 -181t153 181v420h122v-427q0 -147 -76 -217t-199 -70z" />
    <glyph glyph-name="utilde" unicode="&#x169;" horiz-adv-x="567" 
d="M345 575q-32 0 -67.5 18t-51.5 18q-33 0 -50 -39l-66 43q32 84 107 84q30 0 66 -18t54 -18q29 0 49 41l67 -45q-27 -84 -108 -84zM507 499v-499h-99l-17 60q-56 -74 -152 -74q-179 0 -179 212v301h120v-285q0 -116 97 -116q48 0 79 33.5t31 94.5v273h120z" />
    <glyph glyph-name="Umacron" unicode="&#x16a;" horiz-adv-x="696" 
d="M236 792v88h228v-88h-228zM348 -14q-120 0 -197.5 71t-77.5 217v426h122v-420q0 -181 153 -181t153 181v420h122v-427q0 -147 -76 -217t-199 -70z" />
    <glyph glyph-name="umacron" unicode="&#x16b;" horiz-adv-x="567" 
d="M169 594v88h228v-88h-228zM507 499v-499h-99l-17 60q-56 -74 -152 -74q-179 0 -179 212v301h120v-285q0 -116 97 -116q48 0 79 33.5t31 94.5v273h120z" />
    <glyph glyph-name="Ubreve" unicode="&#x16c;" horiz-adv-x="696" 
d="M349 772q-59 0 -98.5 37.5t-42.5 96.5h82q7 -56 60 -56q55 0 62 56h82q-4 -58 -44.5 -96t-100.5 -38zM348 -14q-120 0 -197.5 71t-77.5 217v426h122v-420q0 -181 153 -181t153 181v420h122v-427q0 -147 -76 -217t-199 -70z" />
    <glyph glyph-name="ubreve" unicode="&#x16d;" horiz-adv-x="567" 
d="M282 571q-59 0 -98.5 37.5t-42.5 96.5h82q7 -56 60 -56q55 0 62 56h82q-4 -58 -44.5 -96t-100.5 -38zM507 499v-499h-99l-17 60q-56 -74 -152 -74q-179 0 -179 212v301h120v-285q0 -116 97 -116q48 0 79 33.5t31 94.5v273h120z" />
    <glyph glyph-name="Uring" unicode="&#x16e;" horiz-adv-x="696" 
d="M347 738q-40 0 -68.5 29.5t-28.5 68.5t28.5 68t68.5 29q39 0 68 -28.5t29 -68.5q0 -39 -29 -68.5t-68 -29.5zM347 801q14 0 24.5 10.5t10.5 24.5t-10.5 24.5t-24.5 10.5q-15 0 -25 -10.5t-10 -24.5t10 -24.5t25 -10.5zM348 -14q-120 0 -197.5 71t-77.5 217v426h122v-420
q0 -181 153 -181t153 181v420h122v-427q0 -147 -76 -217t-199 -70z" />
    <glyph glyph-name="uring" unicode="&#x16f;" horiz-adv-x="567" 
d="M284 545q-40 0 -68.5 29.5t-28.5 68.5t28.5 68t68.5 29q39 0 68 -28.5t29 -68.5q0 -39 -29 -68.5t-68 -29.5zM284 608q14 0 24.5 10.5t10.5 24.5t-10.5 24.5t-24.5 10.5q-15 0 -25 -10.5t-10 -24.5t10 -24.5t25 -10.5zM507 499v-499h-99l-17 60q-56 -74 -152 -74
q-179 0 -179 212v301h120v-285q0 -116 97 -116q48 0 79 33.5t31 94.5v273h120z" />
    <glyph glyph-name="Uhungarumlaut" unicode="&#x170;" horiz-adv-x="696" 
d="M309 772h-84l66 134h129zM471 772h-84l66 134h129zM348 -14q-120 0 -197.5 71t-77.5 217v426h122v-420q0 -181 153 -181t153 181v420h122v-427q0 -147 -76 -217t-199 -70z" />
    <glyph glyph-name="uhungarumlaut" unicode="&#x171;" horiz-adv-x="567" 
d="M242 571h-84l66 134h129zM404 571h-84l66 134h129zM507 499v-499h-99l-17 60q-56 -74 -152 -74q-179 0 -179 212v301h120v-285q0 -116 97 -116q48 0 79 33.5t31 94.5v273h120z" />
    <glyph glyph-name="Uogonek" unicode="&#x172;" horiz-adv-x="696" 
d="M427 -185q-18 -2 -26 -2q-53 0 -83.5 25.5t-30.5 66.5q0 46 38 82q-112 6 -182 77.5t-70 209.5v426h122v-420q0 -181 153 -181t153 181v420h122v-427q0 -177 -113 -246q-10 -6 -69 -31q-67 -25 -67 -69q0 -16 11.5 -27t34.5 -11h7v-74z" />
    <glyph glyph-name="uogonek" unicode="&#x173;" horiz-adv-x="567" 
d="M507 0q-60 -31 -60 -73q0 -16 11.5 -27t34.5 -11h7v-74q-18 -2 -26 -2q-53 0 -83.5 25.5t-30.5 66.5q0 55 47 97l-16 58q-56 -74 -152 -74q-179 0 -179 212v301h120v-285q0 -116 97 -116q48 0 79 33.5t31 94.5v273h120v-499z" />
    <glyph glyph-name="Wcircumflex" unicode="&#x174;" horiz-adv-x="955" 
d="M478 830l-53 -61h-99l97 134h110l96 -134h-98zM811 700h126l-197 -700h-122l-142 527l-139 -527h-122l-197 700h126l136 -519l137 519h122l137 -512z" />
    <glyph glyph-name="wcircumflex" unicode="&#x175;" horiz-adv-x="779" 
d="M390 632l-53 -61h-99l97 134h110l96 -134h-98zM645 499h120l-155 -499h-122l-98 346l-98 -346h-123l-155 499h120l99 -359l101 359h112l101 -357z" />
    <glyph glyph-name="Ycircumflex" unicode="&#x176;" horiz-adv-x="645" 
d="M322 830l-53 -61h-99l97 134h110l96 -134h-98zM493 700h134l-244 -427v-273h-122v273l-243 427h134l170 -305z" />
    <glyph glyph-name="ycircumflex" unicode="&#x177;" horiz-adv-x="576" 
d="M288 632l-53 -61h-99l97 134h110l96 -134h-98zM396 499h120v-480q0 -106 -63 -169.5t-175 -63.5q-90 0 -144.5 43.5t-73.5 115.5l112 23q16 -79 106 -79q55 0 86.5 33.5t31.5 95.5v53l-1 3q-57 -69 -151 -69q-85 0 -133.5 52t-48.5 158v284h120v-264q0 -64 26 -91t74 -27
q51 0 82.5 33t31.5 94v255z" />
    <glyph glyph-name="Ydieresis" unicode="&#x178;" horiz-adv-x="645" 
d="M229 765q-30 0 -51 21t-21 50t21 50t51 21q28 0 49 -21t21 -50t-21 -50t-49 -21zM415 765q-29 0 -49.5 21t-20.5 50t20.5 50t49.5 21q30 0 50.5 -21t20.5 -50t-20.5 -50t-50.5 -21zM261 0v273l-243 427h134l170 -305l171 305h134l-244 -427v-273h-122z" />
    <glyph glyph-name="Zacute" unicode="&#x179;" horiz-adv-x="612" 
d="M261 769l69 134h147l-114 -134h-102zM42 0v107l374 483h-350v110h503v-107l-375 -483h372v-110h-524z" />
    <glyph glyph-name="zacute" unicode="&#x17a;" horiz-adv-x="475" 
d="M185 571l69 134h147l-114 -134h-102zM39 0v89l248 311h-241v99h386v-88l-247 -311h251v-100h-397z" />
    <glyph glyph-name="Zdotaccent" unicode="&#x17b;" horiz-adv-x="612" 
d="M313 768q-29 0 -49.5 21t-20.5 50t20.5 50t49.5 21t50.5 -21t21.5 -50t-21.5 -50t-50.5 -21zM42 0v107l374 483h-350v110h503v-107l-375 -483h372v-110h-524z" />
    <glyph glyph-name="zdotaccent" unicode="&#x17c;" horiz-adv-x="475" 
d="M237 567q-29 0 -49.5 21t-20.5 50t20.5 50t49.5 21t50.5 -21t21.5 -50t-21.5 -50t-50.5 -21zM39 0v89l248 311h-241v99h386v-88l-247 -311h251v-100h-397z" />
    <glyph glyph-name="Zcaron" unicode="&#x17d;" horiz-adv-x="612" 
d="M368 771h-110l-97 134h99l53 -61l53 61h98zM569 700v-107l-375 -483h372v-110h-524v107l374 483h-350v110h503z" />
    <glyph glyph-name="zcaron" unicode="&#x17e;" horiz-adv-x="475" 
d="M293 570h-110l-97 134h99l53 -61l53 61h98zM185 100h251v-100h-397v89l248 311h-241v99h386v-88z" />
    <glyph glyph-name="longs" unicode="&#x17f;" horiz-adv-x="291" 
d="M60 0v583q0 65 34.5 98t91.5 33q62 0 91 -18l-28 -96q-12 5 -32 5q-37 0 -37 -40v-565h-120z" />
    <glyph glyph-name="florin" unicode="&#x192;" horiz-adv-x="437" 
d="M286 605v-106h118v-105h-118v-417q0 -69 -41 -108.5t-101 -39.5q-80 0 -124 44l52 83q17 -17 46 -17q46 0 46 54v401h-93v105h93v122q0 69 41 108.5t101 39.5q84 0 124 -44l-51 -83q-17 17 -46 17q-47 0 -47 -54z" />
    <glyph glyph-name="uni01B5" unicode="&#x1b5;" horiz-adv-x="612" 
d="M569 700v-107l-155 -200h109v-92h-181l-148 -191h372v-110h-524v107l150 194h-100v92h171l153 197h-350v110h503z" />
    <glyph glyph-name="uni01B6" unicode="&#x1b6;" horiz-adv-x="475" 
d="M185 100h251v-100h-397v89l99 124h-74v76h134l89 111h-241v99h386v-88l-97 -122h72v-76h-132z" />
    <glyph glyph-name="AEacute" unicode="&#x1fc;" horiz-adv-x="990" 
d="M844 903l-114 -134h-102l69 134h147zM945 590h-318v-184h276v-107h-276v-189h318v-110h-440v152h-256l-102 -152h-129l472 700h455v-110zM321 259h184v273z" />
    <glyph glyph-name="aeacute" unicode="&#x1fd;" horiz-adv-x="874" 
d="M600 705l-114 -134h-102l69 134h147zM836 256v-46h-373q4 -50 42.5 -87.5t95.5 -37.5q48 0 79.5 23t42.5 53l101 -31q-23 -64 -79.5 -104t-143.5 -40q-122 0 -196 92q-12 -34 -53.5 -63.5t-122.5 -29.5q-82 0 -135.5 42.5t-53.5 112.5q0 61 43.5 103.5t153.5 58.5l107 15
v9q0 91 -92 91q-86 0 -99 -81l-106 26q41 151 209 151q116 0 171 -69q72 69 173 69q108 0 172 -71t64 -186zM464 302h266q-3 40 -36.5 76t-92.5 36q-57 0 -92.5 -32.5t-44.5 -79.5zM344 175v61l-99 -15q-47 -7 -68.5 -24.5t-21.5 -49.5q0 -29 23.5 -47t64.5 -18q43 0 72 25
t29 68z" />
    <glyph glyph-name="Oslashacute" unicode="&#x1fe;" horiz-adv-x="815" 
d="M573 903l-114 -134h-102l69 134h147zM662 615q103 -105 103 -264q0 -152 -98 -258t-259 -106q-93 0 -167 37l-57 -80l-84 60l57 80q-107 104 -107 267q0 153 97.5 258.5t260.5 105.5q94 0 170 -39l49 69l84 -61zM172 351q0 -101 54 -169l284 399q-48 21 -102 21
q-107 0 -171.5 -71t-64.5 -180zM408 100q106 0 170.5 70.5t64.5 180.5q0 98 -52 165l-282 -397q46 -19 99 -19z" />
    <glyph glyph-name="oslashacute" unicode="&#x1ff;" horiz-adv-x="595" 
d="M455 705l-114 -134h-102l69 134h147zM486 434q71 -74 71 -184q0 -112 -74 -188t-186 -76q-62 0 -115 25l-41 -56l-72 52l41 57q-72 75 -72 186t74 187t185 76q63 0 117 -26l39 54l72 -53zM158 250q0 -50 23 -88l166 231q-24 9 -50 9q-61 0 -100 -43t-39 -109zM297 97
q60 0 100 43.5t40 109.5q0 47 -22 85l-166 -230q24 -8 48 -8z" />
    <glyph glyph-name="Scommaaccent" unicode="&#x218;" horiz-adv-x="602" 
d="M306 -13q-104 0 -173.5 51t-94.5 148l114 33q19 -63 54 -92.5t100 -29.5q61 0 98.5 26t37.5 74q0 38 -30 63t-107 38q-123 23 -185 73t-62 137q0 91 69 149t178 58q96 0 159 -50t86 -141l-114 -32q-15 57 -45.5 85t-85.5 28q-57 0 -91 -25t-34 -72q0 -39 34.5 -59
t112.5 -36q122 -24 179.5 -75.5t57.5 -140.5q0 -94 -74 -152t-184 -58zM263 -217q20 26 26 46q-47 10 -47 54q0 28 19.5 44t41.5 16q28 0 46.5 -17.5t18.5 -49.5t-17.5 -66.5t-45.5 -55.5z" />
    <glyph glyph-name="scommaaccent" unicode="&#x219;" horiz-adv-x="486" 
d="M246 -14q-81 0 -135 39.5t-73 109.5l106 34q23 -83 102 -83q41 0 65 15t24 42q0 21 -19.5 35.5t-72.5 23.5q-92 17 -141.5 50.5t-49.5 104.5q0 67 53 111.5t141 44.5q75 0 124.5 -37.5t65.5 -105.5l-105 -30q-18 73 -85 73q-40 0 -61 -15t-21 -36q0 -24 23.5 -36
t76.5 -22q91 -16 137.5 -52t46.5 -107q0 -68 -55.5 -113.5t-146.5 -45.5zM204 -217q20 26 26 46q-47 10 -47 54q0 28 19.5 44t41.5 16q28 0 46.5 -17.5t18.5 -49.5t-17.5 -66.5t-45.5 -55.5z" />
    <glyph glyph-name="uni021A" unicode="&#x21a;" horiz-adv-x="578" 
d="M228 0v587h-202v113h526v-113h-202v-587h-122zM246 -217q20 26 26 46q-47 10 -47 54q0 28 19.5 44t41.5 16q28 0 46.5 -17.5t18.5 -49.5t-17.5 -66.5t-45.5 -55.5z" />
    <glyph glyph-name="uni021B" unicode="&#x21b;" horiz-adv-x="385" 
d="M247 -14q-61 0 -101 38.5t-40 109.5v260h-86v105h86v130h120v-130h127v-105h-127v-243q0 -53 47 -53q27 0 46 17l50 -85q-36 -44 -122 -44zM192 -217q20 26 26 46q-47 10 -47 54q0 28 19.5 44t41.5 16q28 0 46.5 -17.5t18.5 -49.5t-17.5 -66.5t-45.5 -55.5z" />
    <glyph glyph-name="uni0237" unicode="&#x237;" horiz-adv-x="255" 
d="M50 -215q-78 0 -118 43l50 85q16 -16 45 -16q46 0 46 54v548h120v-564q0 -69 -41 -109.5t-102 -40.5z" />
    <glyph glyph-name="uni02BB" unicode="&#x2bb;" horiz-adv-x="209" 
d="M41 495q40 53 42 101q-54 20 -54 71q0 32 21.5 54.5t53.5 22.5q33 0 55 -22t22 -64q0 -45 -24 -102t-67 -98z" />
    <glyph glyph-name="circumflex" unicode="&#x2c6;" horiz-adv-x="567" 
d="M435 571h-98l-53 61l-53 -61h-99l97 134h110z" />
    <glyph glyph-name="caron" unicode="&#x2c7;" horiz-adv-x="567" 
d="M337 704h98l-96 -134h-110l-97 134h99l53 -61z" />
    <glyph glyph-name="breve" unicode="&#x2d8;" horiz-adv-x="567" 
d="M276 571q-59 0 -98.5 37.5t-42.5 96.5h82q7 -56 60 -56q55 0 62 56h82q-4 -58 -44.5 -96t-100.5 -38z" />
    <glyph glyph-name="dotaccent" unicode="&#x2d9;" horiz-adv-x="567" 
d="M282 567q-29 0 -49.5 21t-20.5 50t20.5 50t49.5 21t50.5 -21t21.5 -50t-21.5 -50t-50.5 -21z" />
    <glyph glyph-name="ring" unicode="&#x2da;" horiz-adv-x="567" 
d="M284 545q-40 0 -68.5 29.5t-28.5 68.5t28.5 68t68.5 29q39 0 68 -28.5t29 -68.5q0 -39 -29 -68.5t-68 -29.5zM284 608q14 0 24.5 10.5t10.5 24.5t-10.5 24.5t-24.5 10.5q-15 0 -25 -10.5t-10 -24.5t10 -24.5t25 -10.5z" />
    <glyph glyph-name="ogonek" unicode="&#x2db;" horiz-adv-x="567" 
d="M334 -185q-18 -2 -26 -2q-53 0 -83.5 25.5t-30.5 66.5q0 71 73 116l74 -21q-60 -31 -60 -73q0 -16 11.5 -27t34.5 -11h7v-74z" />
    <glyph glyph-name="tilde" unicode="&#x2dc;" horiz-adv-x="567" 
d="M347 575q-32 0 -67.5 18t-51.5 18q-33 0 -50 -39l-66 43q32 84 107 84q30 0 66 -18t54 -18q29 0 49 41l67 -45q-27 -84 -108 -84z" />
    <glyph glyph-name="hungarumlaut" unicode="&#x2dd;" horiz-adv-x="567" 
d="M227 571h-84l66 134h129zM389 571h-84l66 134h129z" />
    <glyph glyph-name="gravecomb" unicode="&#x300;" 
d="M-48 571l-114 134h147l69 -134h-102z" />
    <glyph glyph-name="acutecomb" unicode="&#x301;" 
d="M-53 571l69 134h147l-114 -134h-102z" />
    <glyph glyph-name="uni0302" unicode="&#x302;" 
d="M151 571h-98l-53 61l-53 -61h-99l97 134h110z" />
    <glyph glyph-name="tildecomb" unicode="&#x303;" 
d="M62 575q-32 0 -67.5 18t-51.5 18q-33 0 -50 -39l-66 43q32 84 107 84q30 0 66 -18t54 -18q28 0 49 41l67 -45q-27 -84 -108 -84z" />
    <glyph glyph-name="uni0304" unicode="&#x304;" 
d="M-114 594v88h228v-88h-228z" />
    <glyph glyph-name="uni0306" unicode="&#x306;" 
d="M-1 571q-59 0 -98.5 37.5t-42.5 96.5h82q7 -56 60 -56q55 0 62 56h82q-4 -58 -44.5 -96t-100.5 -38z" />
    <glyph glyph-name="uni0307" unicode="&#x307;" 
d="M-1 567q-29 0 -49.5 21t-20.5 50t20.5 50t49.5 21t50.5 -21t21.5 -50t-21.5 -50t-50.5 -21z" />
    <glyph glyph-name="uni0308" unicode="&#x308;" 
d="M-90 567q-29 0 -50 21t-21 50t21 50t50 21t50 -21t21 -50t-21 -50t-50 -21zM89 567q-29 0 -50.5 21t-21.5 50t21.5 50t50.5 21q28 0 49 -21t21 -50t-21 -50t-49 -21z" />
    <glyph glyph-name="uni030A" unicode="&#x30a;" 
d="M1 545q-40 0 -68.5 29.5t-28.5 68.5t28.5 68t68.5 29q39 0 68 -28.5t29 -68.5q0 -39 -29 -68.5t-68 -29.5zM1 608q14 0 24.5 10.5t10.5 24.5t-10.5 24.5t-24.5 10.5q-15 0 -25 -10.5t-10 -24.5t10 -24.5t25 -10.5z" />
    <glyph glyph-name="uni030B" unicode="&#x30b;" 
d="M-48 571h-84l66 134h129zM114 571h-84l66 134h129z" />
    <glyph glyph-name="uni030C" unicode="&#x30c;" 
d="M53 704h98l-96 -134h-110l-97 134h99l53 -61z" />
    <glyph glyph-name="uni0312" unicode="&#x312;" 
d="M39 733q-20 -26 -25 -46q47 -11 47 -54q0 -28 -19.5 -44t-42.5 -16q-28 0 -46.5 17.5t-18.5 48.5q0 32 17.5 66.5t45.5 56.5z" />
    <glyph glyph-name="uni0326" unicode="&#x326;" 
d="M-43 -217q20 26 26 46q-47 10 -47 54q0 28 19.5 44t41.5 16q28 0 46.5 -17.5t18.5 -49.5t-17.5 -66.5t-45.5 -55.5z" />
    <glyph glyph-name="uni0327" unicode="&#x327;" 
d="M1 -227q-39 0 -66 21.5t-30 52.5l61 20q0 -15 9.5 -24.5t25.5 -9.5q15 0 24.5 9.5t9.5 24.5t-9.5 24t-24.5 9t-22 -7l-49 27l47 88l59 -8l-23 -42q38 -2 63 -24.5t25 -61.5q0 -45 -27.5 -72t-72.5 -27z" />
    <glyph glyph-name="uni0328" unicode="&#x328;" 
d="M99 -185q-18 -2 -26 -2q-53 0 -83.5 25.5t-30.5 66.5q0 71 73 116l74 -21q-60 -31 -60 -73q0 -16 11.5 -27t34.5 -11h7v-74z" />
    <glyph glyph-name="uni0335" unicode="&#x335;" 
d="M-174 345v80h333v-80h-333z" />
    <glyph glyph-name="uni0336" unicode="&#x336;" 
d="M-54 304v92h360v-92h-360z" />
    <glyph glyph-name="uni0337" unicode="&#x337;" 
d="M10 219l-53 78l280 204l55 -77z" />
    <glyph glyph-name="uni0338" unicode="&#x338;" 
d="M-4 -55l-73 52l384 534l72 -53z" />
    <glyph glyph-name="uni0394" unicode="&#x394;" horiz-adv-x="684" 
d="M18 0l259 700h130l259 -700h-648zM184 110h316l-158 434z" />
    <glyph glyph-name="uni03A9" unicode="&#x3a9;" horiz-adv-x="812" 
d="M762 354q0 -152 -113 -247h113v-107h-297v107q82 19 128.5 85t46.5 159q0 108 -64 179.5t-170 71.5t-170 -71.5t-64 -179.5q0 -93 46 -159t128 -85v-107h-296v107h111q-111 92 -111 247q0 151 97.5 256t258.5 105q160 0 258 -105t98 -256z" />
    <glyph glyph-name="uni03BC" unicode="&#x3bc;" horiz-adv-x="567" 
d="M387 499h120v-499h-99l-17 60q-56 -74 -152 -74q-34 0 -59 7v-193h-120v699h120v-285q0 -116 97 -116q48 0 79 33.5t31 94.5v273z" />
    <glyph glyph-name="pi" unicode="&#x3c0;" horiz-adv-x="660" 
d="M594 110l50 -83q-38 -41 -120 -41q-60 0 -99.5 38.5t-40.5 109.5v262h-144v-396h-120v396h-100v103h608v-103h-124v-248q0 -53 46 -53q27 0 44 15z" />
    <glyph glyph-name="Wgrave" unicode="&#x1e80;" horiz-adv-x="955" 
d="M530 769h-102l-114 134h147zM811 700h126l-197 -700h-122l-142 527l-139 -527h-122l-197 700h126l136 -519l137 519h122l137 -512z" />
    <glyph glyph-name="wgrave" unicode="&#x1e81;" horiz-adv-x="779" 
d="M444 571h-102l-114 134h147zM645 499h120l-155 -499h-122l-98 346l-98 -346h-123l-155 499h120l99 -359l101 359h112l101 -357z" />
    <glyph glyph-name="Wacute" unicode="&#x1e82;" horiz-adv-x="955" 
d="M642 903l-114 -134h-102l69 134h147zM811 700h126l-197 -700h-122l-142 527l-139 -527h-122l-197 700h126l136 -519l137 519h122l137 -512z" />
    <glyph glyph-name="wacute" unicode="&#x1e83;" horiz-adv-x="779" 
d="M553 705l-114 -134h-102l69 134h147zM645 499h120l-155 -499h-122l-98 346l-98 -346h-123l-155 499h120l99 -359l101 359h112l101 -357z" />
    <glyph glyph-name="Wdieresis" unicode="&#x1e84;" horiz-adv-x="955" 
d="M385 765q-30 0 -51 21t-21 50t21 50t51 21q28 0 49 -21t21 -50t-21 -50t-49 -21zM571 765q-29 0 -49.5 21t-20.5 50t20.5 50t49.5 21q30 0 50.5 -21t20.5 -50t-20.5 -50t-50.5 -21zM811 700h126l-197 -700h-122l-142 527l-139 -527h-122l-197 700h126l136 -519l137 519
h122l137 -512z" />
    <glyph glyph-name="wdieresis" unicode="&#x1e85;" horiz-adv-x="779" 
d="M300 567q-29 0 -50 21t-21 50t21 50t50 21t50 -21t21 -50t-21 -50t-50 -21zM479 567q-29 0 -50.5 21t-21.5 50t21.5 50t50.5 21q28 0 49 -21t21 -50t-21 -50t-49 -21zM645 499h120l-155 -499h-122l-98 346l-98 -346h-123l-155 499h120l99 -359l101 359h112l101 -357z" />
    <glyph glyph-name="uni1E8A" unicode="&#x1e8a;" horiz-adv-x="673" 
d="M340 768q-29 0 -49.5 21t-20.5 50t20.5 50t49.5 21t50.5 -21t21.5 -50t-21.5 -50t-50.5 -21zM655 0h-143l-175 259l-175 -259h-144l239 355l-230 345h145l165 -248l165 248h144l-228 -342z" />
    <glyph glyph-name="uni1E8B" unicode="&#x1e8b;" horiz-adv-x="527" 
d="M263 567q-29 0 -49.5 21t-20.5 50t20.5 50t49.5 21t50.5 -21t21.5 -50t-21.5 -50t-50.5 -21zM513 0h-133l-117 165l-117 -165h-132l181 252l-179 247h134l113 -159l113 159h132l-177 -246z" />
    <glyph glyph-name="Ygrave" unicode="&#x1ef2;" horiz-adv-x="645" 
d="M272 769l-114 134h147l69 -134h-102zM261 0v273l-243 427h134l170 -305l171 305h134l-244 -427v-273h-122z" />
    <glyph glyph-name="ygrave" unicode="&#x1ef3;" horiz-adv-x="576" 
d="M342 571h-102l-114 134h147zM396 499h120v-480q0 -106 -63 -169.5t-175 -63.5q-90 0 -144.5 43.5t-73.5 115.5l112 23q16 -79 106 -79q55 0 86.5 33.5t31.5 95.5v53l-1 3q-57 -69 -151 -69q-85 0 -133.5 52t-48.5 158v284h120v-264q0 -64 26 -91t74 -27q51 0 82.5 33
t31.5 94v255z" />
    <glyph glyph-name="endash" unicode="&#x2013;" horiz-adv-x="600" 
d="M50 244v112h500v-112h-500z" />
    <glyph glyph-name="emdash" unicode="&#x2014;" horiz-adv-x="1100" 
d="M50 245v110h1000v-110h-1000z" />
    <glyph glyph-name="quoteleft" unicode="&#x2018;" horiz-adv-x="210" 
d="M169 726q-40 -53 -42 -101q54 -20 54 -71q0 -32 -21.5 -54.5t-53.5 -22.5q-33 0 -55 22t-22 64q0 45 24 102t67 98z" />
    <glyph glyph-name="quoteright" unicode="&#x2019;" horiz-adv-x="210" 
d="M41 513q40 53 42 101q-54 20 -54 71q0 32 21.5 54.5t53.5 22.5q33 0 55 -22t22 -64q0 -45 -24 -102t-67 -98z" />
    <glyph glyph-name="quotesinglbase" unicode="&#x201a;" horiz-adv-x="210" 
d="M41 -106q40 53 42 101q-54 20 -54 71q0 32 21.5 54.5t53.5 22.5q33 0 55 -22t22 -64q0 -45 -24 -102t-67 -98z" />
    <glyph glyph-name="quotedblleft" unicode="&#x201c;" horiz-adv-x="413" 
d="M169 726q-40 -53 -42 -101q54 -20 54 -71q0 -32 -21.5 -54.5t-53.5 -22.5q-33 0 -55 22t-22 64q0 45 24 102t67 98zM372 726q-40 -53 -42 -101q54 -20 54 -71q0 -32 -21.5 -54.5t-53.5 -22.5q-33 0 -55 22t-22 64q0 45 24 102t67 98z" />
    <glyph glyph-name="quotedblright" unicode="&#x201d;" horiz-adv-x="413" 
d="M41 513q40 53 42 101q-54 20 -54 71q0 32 21.5 54.5t53.5 22.5q33 0 55 -22t22 -64q0 -45 -24 -102t-67 -98zM244 513q40 53 42 101q-54 20 -54 71q0 32 21.5 54.5t53.5 22.5q33 0 55 -22t22 -64q0 -45 -24 -102t-67 -98z" />
    <glyph glyph-name="quotedblbase" unicode="&#x201e;" horiz-adv-x="413" 
d="M41 -89q40 53 42 101q-54 20 -54 71q0 32 21.5 54.5t53.5 22.5q33 0 55 -22t22 -64q0 -45 -24 -102t-67 -98zM244 -89q40 53 42 101q-54 20 -54 71q0 32 21.5 54.5t53.5 22.5q33 0 55 -22t22 -64q0 -45 -24 -102t-67 -98z" />
    <glyph glyph-name="dagger" unicode="&#x2020;" horiz-adv-x="321" 
d="M287 605v-76h-85v-179h-83v179h-85v76h85v95h83v-95h85z" />
    <glyph glyph-name="daggerdbl" unicode="&#x2021;" horiz-adv-x="321" 
d="M287 529h-85v-48h85v-76h-85v-95h-83v95h-85v76h85v48h-85v76h85v95h83v-95h85v-76z" />
    <glyph glyph-name="bullet" unicode="&#x2022;" horiz-adv-x="269" 
d="M135 195q-44 0 -75 30.5t-31 74.5t31 74.5t75 30.5q43 0 74 -31t31 -74q0 -44 -31 -74.5t-74 -30.5z" />
    <glyph glyph-name="ellipsis" unicode="&#x2026;" horiz-adv-x="667" 
d="M104 -7q-31 0 -53 22.5t-22 53.5t22 53t53 22t53.5 -22t22.5 -53t-22 -53.5t-54 -22.5zM334 -7q-32 0 -54 22.5t-22 53.5t22.5 53t53.5 22t53 -22t22 -53t-22 -53.5t-53 -22.5zM562 -7q-31 0 -53 22.5t-22 53.5t22 53t53 22t53.5 -22t22.5 -53t-22 -53.5t-54 -22.5z" />
    <glyph glyph-name="perthousand" unicode="&#x2030;" horiz-adv-x="1117" 
d="M204 408q-64 0 -109 42t-45 107q0 64 43 107t105 43q64 0 108.5 -42t44.5 -108q0 -65 -42.5 -107t-104.5 -42zM88 0l472 700h113l-473 -700h-112zM204 486q29 0 48.5 20t19.5 51q0 34 -20 53t-52 19q-30 0 -49.5 -19.5t-19.5 -52.5q0 -32 21 -51.5t52 -19.5zM564 -7
q-63 0 -107 42.5t-44 107.5q0 64 43.5 106t106.5 42t107 -42t44 -106q0 -66 -43.5 -108t-106.5 -42zM917 -11q-63 0 -106.5 42t-43.5 107t43 107t106 42t107 -42t44 -107t-43.5 -107t-106.5 -42zM566 70q30 0 50 20.5t20 52.5q0 33 -20.5 53t-50.5 20q-31 0 -51.5 -20
t-20.5 -53q0 -32 21 -52.5t52 -20.5zM920 66q30 0 50 20.5t20 51.5q0 34 -20.5 53.5t-51.5 19.5t-51.5 -20t-20.5 -53q0 -32 21.5 -52t52.5 -20z" />
    <glyph glyph-name="guilsinglleft" unicode="&#x2039;" horiz-adv-x="307" 
d="M172 301l85 -186h-123l-84 186l84 184h122z" />
    <glyph glyph-name="guilsinglright" unicode="&#x203a;" horiz-adv-x="307" 
d="M173 485l84 -184l-84 -186h-123l85 186l-84 184h122z" />
    <glyph glyph-name="fraction" unicode="&#x2044;" horiz-adv-x="217" 
d="M-139 -5l-61 48l558 662l59 -47z" />
    <glyph glyph-name="uni2070" unicode="&#x2070;" horiz-adv-x="334" 
d="M168 432q-66 0 -100 50.5t-34 132.5q0 81 34 131t100 50q64 0 98 -50t34 -131t-34 -132t-98 -51zM168 502q56 0 56 112q0 110 -56 110q-58 0 -58 -110q0 -112 58 -112z" />
    <glyph glyph-name="uni2074" unicode="&#x2074;" horiz-adv-x="310" 
d="M176 440l1 85h-155v55l149 210h82l1 -201h34v-64h-34l-1 -85h-77zM106 590l71 -1l-1 97z" />
    <glyph glyph-name="uni2075" unicode="&#x2075;" horiz-adv-x="320" 
d="M158 433q-51 0 -87 30t-37 72l71 21q0 -24 15 -37.5t38 -13.5q21 0 36 14t15 36q0 23 -14.5 37t-36.5 14q-31 0 -46 -21l-65 25l17 180h202v-72h-137l-6 -54q19 7 41 7q54 0 88 -31t34 -84q0 -56 -36 -89.5t-92 -33.5z" />
    <glyph glyph-name="uni2076" unicode="&#x2076;" horiz-adv-x="327" 
d="M166 433q-132 0 -132 170q0 194 136 194q94 0 116 -90l-68 -19q-13 38 -48 38q-53 0 -55 -72q2 2 8 6.5t21 9t33 4.5q50 0 83 -33t33 -87t-36.5 -87.5t-90.5 -33.5zM166 504q22 0 36.5 14.5t14.5 35.5q0 23 -14 36.5t-37 13.5t-37 -14t-14 -36t14.5 -36t36.5 -14z" />
    <glyph glyph-name="uni2077" unicode="&#x2077;" horiz-adv-x="278" 
d="M78 440q10 67 36.5 147.5t55.5 131.5h-148v71h233v-71q-33 -51 -62 -132t-39 -147h-76z" />
    <glyph glyph-name="uni2078" unicode="&#x2078;" horiz-adv-x="323" 
d="M249 628q40 -30 40 -81q0 -50 -37 -82t-91 -32q-53 0 -90 32t-37 82q0 49 39 80q-27 27 -27 67q0 45 33 74t82 29t82 -29t33 -74q0 -39 -27 -66zM120 694q0 -17 12 -28t29 -11q18 0 29.5 10.5t11.5 28.5q0 17 -11.5 27.5t-29.5 10.5q-17 0 -29 -10.5t-12 -27.5zM161 502
q21 0 36 13t15 33q0 21 -15 34t-36 13t-35.5 -13t-14.5 -34q0 -20 14.5 -33t35.5 -13z" />
    <glyph glyph-name="uni2079" unicode="&#x2079;" horiz-adv-x="327" 
d="M158 433q-47 0 -76.5 24.5t-39.5 65.5l67 19q13 -38 49 -38q52 0 55 73q-15 -20 -62 -20q-50 0 -83.5 32.5t-33.5 86.5t36.5 87.5t91.5 33.5q131 0 131 -169q0 -195 -135 -195zM162 626q23 0 37 14t14 36t-14.5 36.5t-36.5 14.5t-37 -14.5t-15 -36.5t15 -36t37 -14z" />
    <glyph glyph-name="uni2080" unicode="&#x2080;" horiz-adv-x="334" 
d="M168 -83q-66 0 -100 50.5t-34 132.5q0 81 34 131t100 50q64 0 98 -50t34 -131t-34 -132t-98 -51zM168 -13q56 0 56 112q0 110 -56 110q-58 0 -58 -110q0 -112 58 -112z" />
    <glyph glyph-name="uni2081" unicode="&#x2081;" horiz-adv-x="213" 
d="M85 -75v265q-25 -17 -68 -25v77q38 7 68 33h77v-350h-77z" />
    <glyph glyph-name="uni2082" unicode="&#x2082;" horiz-adv-x="313" 
d="M41 -75v72l120 101q25 23 33.5 37t8.5 32t-13 31t-34 13q-25 0 -38.5 -15.5t-13.5 -42.5l-70 19q3 49 37 79.5t85 30.5q52 0 87.5 -32.5t35.5 -81.5q0 -36 -15.5 -62.5t-48.5 -55.5l-63 -53h127v-72h-238z" />
    <glyph glyph-name="uni2083" unicode="&#x2083;" horiz-adv-x="323" 
d="M159 -82q-55 0 -89.5 30.5t-35.5 74.5l70 21q1 -23 16 -38.5t39 -15.5t39 14t15 37q0 22 -15 36.5t-39 14.5q-4 0 -19 -3l-39 46l76 69h-130v71h219v-71l-55 -54q33 -8 55.5 -34.5t22.5 -74.5q0 -53 -37 -88t-93 -35z" />
    <glyph glyph-name="uni2084" unicode="&#x2084;" horiz-adv-x="310" 
d="M176 -75l1 85h-155v55l149 210h82l1 -201h34v-64h-34l-1 -85h-77zM106 75l71 -1l-1 97z" />
    <glyph glyph-name="uni2085" unicode="&#x2085;" horiz-adv-x="320" 
d="M158 -82q-51 0 -87 30t-37 72l71 21q0 -24 15 -37.5t38 -13.5q21 0 36 14t15 36q0 23 -14.5 37t-36.5 14q-31 0 -46 -21l-65 25l17 180h202v-72h-137l-6 -54q19 7 41 7q54 0 88 -31t34 -84q0 -56 -36 -89.5t-92 -33.5z" />
    <glyph glyph-name="uni2086" unicode="&#x2086;" horiz-adv-x="327" 
d="M166 -82q-132 0 -132 170q0 194 136 194q94 0 116 -90l-68 -19q-13 38 -48 38q-53 0 -55 -72q2 2 8 6.5t21 9t33 4.5q50 0 83 -33t33 -87t-36.5 -87.5t-90.5 -33.5zM166 -11q22 0 36.5 14.5t14.5 35.5q0 23 -14 36.5t-37 13.5t-37 -14t-14 -36t14.5 -36t36.5 -14z" />
    <glyph glyph-name="uni2087" unicode="&#x2087;" horiz-adv-x="278" 
d="M78 -75q10 67 36.5 147.5t55.5 131.5h-148v71h233v-71q-33 -51 -62 -132t-39 -147h-76z" />
    <glyph glyph-name="uni2088" unicode="&#x2088;" horiz-adv-x="323" 
d="M249 113q40 -30 40 -81q0 -50 -37 -82t-91 -32q-53 0 -90 32t-37 82q0 49 39 80q-27 27 -27 67q0 45 33 74t82 29t82 -29t33 -74q0 -39 -27 -66zM120 179q0 -17 12 -28t29 -11q18 0 29.5 10.5t11.5 28.5q0 17 -11.5 27.5t-29.5 10.5q-17 0 -29 -10.5t-12 -27.5zM161 -13
q21 0 36 13t15 33q0 21 -15 34t-36 13t-35.5 -13t-14.5 -34q0 -20 14.5 -33t35.5 -13z" />
    <glyph glyph-name="uni2089" unicode="&#x2089;" horiz-adv-x="327" 
d="M158 -82q-47 0 -76.5 24.5t-39.5 65.5l67 19q13 -38 49 -38q52 0 55 73q-15 -20 -62 -20q-50 0 -83.5 32.5t-33.5 86.5t36.5 87.5t91.5 33.5q131 0 131 -169q0 -195 -135 -195zM162 111q23 0 37 14t14 36t-14.5 36.5t-36.5 14.5t-37 -14.5t-15 -36.5t15 -36t37 -14z" />
    <glyph glyph-name="Euro" unicode="&#x20ac;" horiz-adv-x="726" 
d="M597 163l89 -71q-92 -106 -241 -106q-118 0 -204.5 61t-120.5 171h-100l27 95h55q-1 12 -1 38q0 22 1 33h-82l27 95h74q34 107 121 171t203 64q150 0 238 -99l-88 -74q-54 60 -148 60q-63 0 -114.5 -33t-80.5 -89h228l-29 -95h-227q-2 -22 -2 -35q0 -12 2 -36h208
l-29 -95h-153q28 -57 80 -88t119 -31q92 0 148 64z" />
    <glyph glyph-name="uni20BF" unicode="&#x20bf;" horiz-adv-x="577" 
d="M537 213q0 -73 -43.5 -122t-118.5 -62v-79h-84v74h-53v-74h-83v74h-82v654h82v62h83v-62h53v62h84v-68q69 -14 104.5 -58.5t35.5 -110.5q0 -93 -82 -137v-2q42 -14 73 -51t31 -100zM404 493q0 41 -25 63t-70 22h-122v-174h122q47 0 71 23.5t24 65.5zM321 124
q51 0 76.5 25.5t25.5 66.5q0 42 -26 68t-80 26h-130v-186h134z" />
    <glyph glyph-name="trademark" unicode="&#x2122;" horiz-adv-x="577" 
d="M50 652v48h183v-48h-66v-191h-51v191h-66zM527 700v-239h-51v144l-62 -144h-34l-60 142l-1 -142h-51v239h57l73 -169l72 169h57z" />
    <glyph glyph-name="estimated" unicode="&#x212e;" horiz-adv-x="893" 
d="M445 -14q-176 0 -285.5 99t-109.5 264q0 162 110.5 263t286.5 101q178 -2 283 -99t113 -276h-632q-5 0 -8 -0.5t-5.5 -5t-2.5 -12.5v-178q0 -34 76 -80.5t179 -46.5q71 0 137.5 32t110.5 82h75q-74 -81 -145.5 -112t-182.5 -31zM212 361h466q11 0 14.5 4t3.5 14v173
q0 45 -83.5 90t-168.5 45q-65 -1 -125.5 -26.5t-92 -54.5t-31.5 -46v-190q0 -9 17 -9z" />
    <glyph glyph-name="uni2153" unicode="&#x2153;" horiz-adv-x="835" 
d="M152 -5l-61 48l558 662l59 -47zM128 350v265q-25 -17 -68 -25v77q38 7 68 33h77v-350h-77zM645 -7q-55 0 -89.5 30.5t-35.5 74.5l70 21q1 -23 16 -38.5t39 -15.5t39 14t15 37q0 22 -15 36.5t-39 14.5q-4 0 -19 -3l-39 46l76 69h-130v71h219v-71l-55 -54q33 -8 55.5 -34.5
t22.5 -74.5q0 -53 -37 -88t-93 -35z" />
    <glyph glyph-name="uni2154" unicode="&#x2154;" horiz-adv-x="867" 
d="M67 350v72l120 101q25 23 33.5 37t8.5 32t-13 31t-34 13q-25 0 -38.5 -15.5t-13.5 -42.5l-70 19q3 49 37 79.5t85 30.5q52 0 87.5 -32.5t35.5 -81.5q0 -36 -15.5 -62.5t-48.5 -55.5l-63 -53h127v-72h-238zM188 -5l-61 48l558 662l59 -47zM677 -7q-55 0 -89.5 30.5
t-35.5 74.5l70 21q1 -23 16 -38.5t39 -15.5t39 14t15 37q0 22 -15 36.5t-39 14.5q-4 0 -19 -3l-39 46l76 69h-130v71h219v-71l-55 -54q33 -8 55.5 -34.5t22.5 -74.5q0 -53 -37 -88t-93 -35z" />
    <glyph glyph-name="uni215F" unicode="&#x215f;" horiz-adv-x="505" 
d="M148 -5l-61 48l558 662l59 -47zM128 350v265q-25 -17 -68 -25v77q38 7 68 33h77v-350h-77z" />
    <glyph glyph-name="arrowleft" unicode="&#x2190;" horiz-adv-x="666" 
d="M616 347v-95h-383l148 -149l-67 -68l-264 265l263 265l68 -68l-149 -150h384z" />
    <glyph glyph-name="arrowup" unicode="&#x2191;" horiz-adv-x="629" 
d="M579 320l-67 -67l-151 149v-385h-94l-1 384l-149 -149l-67 67l264 264z" />
    <glyph glyph-name="arrowright" unicode="&#x2192;" horiz-adv-x="666" 
d="M353 565l263 -265l-264 -265l-67 68l148 149h-383v95h384l-149 150z" />
    <glyph glyph-name="arrowdown" unicode="&#x2193;" horiz-adv-x="629" 
d="M512 347l67 -67l-265 -263l-264 264l67 67l149 -149l1 384h94v-385z" />
    <glyph glyph-name="arrowboth" unicode="&#x2194;" horiz-adv-x="832" 
d="M519 565l263 -265l-264 -265l-67 68l148 149h-366l148 -149l-67 -68l-264 265l263 265l68 -68l-149 -150h368l-149 150z" />
    <glyph glyph-name="arrowupdn" unicode="&#x2195;" horiz-adv-x="630" 
d="M362 118l150 149l68 -68l-265 -263l-265 264l68 67l149 -148v366l-149 -148l-68 67l265 264l265 -263l-68 -68l-150 149v-368z" />
    <glyph glyph-name="uni2196" unicode="&#x2196;" horiz-adv-x="534" 
d="M484 149l-67 -67l-272 271v-210h-95v373l374 1v-95l-213 -1z" />
    <glyph glyph-name="uni2197" unicode="&#x2197;" horiz-adv-x="534" 
d="M110 517l374 -1v-373h-95v210l-272 -271l-67 67l273 272l-213 1v95z" />
    <glyph glyph-name="uni2198" unicode="&#x2198;" horiz-adv-x="534" 
d="M389 457h95v-373l-374 -1v95l213 1l-273 272l67 67l272 -271v210z" />
    <glyph glyph-name="uni2199" unicode="&#x2199;" horiz-adv-x="534" 
d="M484 451l-273 -272l213 -1v-95l-374 1v373h95v-210l272 271z" />
    <glyph glyph-name="uni21A9" unicode="&#x21a9;" horiz-adv-x="668" 
d="M422 652q83 -1 139.5 -58.5t56.5 -140.5t-58 -141.5t-141 -59.5h-187l124 -124l-68 -67l-238 238l237 239l68 -67l-124 -125h188q45 2 75.5 32.5t30.5 74.5q0 43 -29.5 74t-73.5 32v93z" />
    <glyph glyph-name="uni21AA" unicode="&#x21aa;" horiz-adv-x="668" 
d="M381 538l237 -239l-238 -238l-68 67l124 124h-187q-83 1 -141 59.5t-58 141.5t56.5 140.5t139.5 58.5v-93q-44 -1 -73.5 -32t-29.5 -74q0 -44 30.5 -74.5t75.5 -32.5h188l-124 125z" />
    <glyph glyph-name="uni21B0" unicode="&#x21b0;" horiz-adv-x="628" 
d="M233 349l345 -1v-347h-94v252l-252 1l149 -151l-68 -67l-263 265l264 263l67 -66z" />
    <glyph glyph-name="uni21B1" unicode="&#x21b1;" horiz-adv-x="628" 
d="M314 564l264 -263l-263 -265l-68 67l149 151l-252 -1v-252h-94v347l345 1l-148 149z" />
    <glyph glyph-name="uni21B2" unicode="&#x21b2;" horiz-adv-x="628" 
d="M484 599h94v-347l-345 -1l148 -149l-67 -66l-264 263l263 265l68 -67l-149 -151l252 1v252z" />
    <glyph glyph-name="uni21B3" unicode="&#x21b3;" horiz-adv-x="628" 
d="M315 564l263 -265l-264 -263l-67 66l148 149l-345 1v347h94v-252l252 -1l-149 151z" />
    <glyph glyph-name="uni21B4" unicode="&#x21b4;" horiz-adv-x="638" 
d="M521 385l67 -67l-264 -264l-264 263l66 68l152 -150l-1 271h-227v94h322v-363z" />
    <glyph glyph-name="partialdiff" unicode="&#x2202;" horiz-adv-x="588" 
d="M291 -14q-108 0 -179 66t-71 173q0 106 67 171t169 65q53 0 90.5 -18.5t52.5 -38.5q-5 95 -36 146t-101 51q-88 0 -116 -95l-108 32q21 81 76.5 128.5t147.5 47.5q141 0 202.5 -102.5t61.5 -294.5q0 -158 -64 -244.5t-192 -86.5zM291 98q56 0 91.5 36.5t35.5 90.5
q0 55 -36 90.5t-91 35.5q-57 0 -92.5 -34.5t-35.5 -91.5q0 -56 36 -91.5t92 -35.5z" />
    <glyph glyph-name="emptyset" unicode="&#x2205;" horiz-adv-x="604" 
d="M554 537l-47 -47q44 -63 44 -140q0 -103 -73 -176t-176 -73q-77 0 -140 44l-47 -48l-65 66l47 47q-43 64 -43 140q0 103 73 176t175 73q76 0 140 -43l47 47zM151 350q0 -36 16 -70l206 207q-34 16 -71 16q-65 0 -108 -44t-43 -109zM453 350q0 36 -16 70l-206 -207
q34 -16 71 -16q65 0 108 44t43 109z" />
    <glyph glyph-name="uni2206" unicode="&#x2206;" horiz-adv-x="684" 
d="M18 0l324 700l324 -700h-648zM184 110h316l-158 348z" />
    <glyph glyph-name="product" unicode="&#x220f;" horiz-adv-x="572" 
d="M522 700v-700h-121v587h-231v-587h-120v700h472z" />
    <glyph glyph-name="summation" unicode="&#x2211;" horiz-adv-x="600" 
d="M550 700v-110h-333l223 -240l-223 -240h333v-110h-500v94l234 256l-234 256v94h500z" />
    <glyph glyph-name="minus" unicode="&#x2212;" horiz-adv-x="600" 
d="M50 295v110h500v-110h-500z" />
    <glyph glyph-name="uni2219" unicode="&#x2219;" horiz-adv-x="600" 
d="M301 274q-31 0 -53.5 22t-22.5 54q0 31 22.5 53t53.5 22t53 -22t22 -53t-22 -53.5t-53 -22.5z" />
    <glyph glyph-name="radical" unicode="&#x221a;" horiz-adv-x="600" 
d="M454 700h128l-260 -700h-131l-102 296h-69l1 110h69v-1l71 1l96 -266z" />
    <glyph glyph-name="infinity" unicode="&#x221e;" horiz-adv-x="702" 
d="M203 198q-66 0 -109.5 43.5t-43.5 108.5t43.5 108.5t109.5 43.5q72 0 148 -85q75 85 147 85q67 0 110.5 -43.5t43.5 -108.5t-43.5 -108.5t-110.5 -43.5q-40 0 -74 21t-73 65q-77 -86 -148 -86zM203 290q25 0 45.5 14.5t48.5 45.5q-28 31 -48.5 45.5t-45.5 14.5t-41.5 -17
t-16.5 -43t16.5 -43t41.5 -17zM498 290q26 0 43 17t17 43t-17 43t-43 17q-41 0 -94 -60q53 -60 94 -60z" />
    <glyph glyph-name="integral" unicode="&#x222b;" horiz-adv-x="437" 
d="M306 769q84 0 124 -44l-51 -83q-17 17 -46 17q-47 0 -47 -54v-628q0 -69 -41 -108.5t-101 -39.5q-80 0 -124 44l52 83q17 -17 46 -17q46 0 46 54v628q0 69 41 108.5t101 39.5z" />
    <glyph glyph-name="approxequal" unicode="&#x2248;" horiz-adv-x="600" 
d="M408 391q-45 0 -117.5 24.5t-97.5 24.5q-44 0 -83 -53l-75 66q34 50 69.5 72.5t81.5 22.5t117 -25.5t100 -25.5q42 0 80 53l82 -64q-64 -95 -157 -95zM408 150q-45 0 -117.5 24.5t-97.5 24.5q-44 0 -83 -53l-75 66q34 50 69.5 72.5t81.5 22.5t117 -25.5t100 -25.5
q42 0 80 53l82 -64q-64 -95 -157 -95z" />
    <glyph glyph-name="notequal" unicode="&#x2260;" horiz-adv-x="600" 
d="M550 418h-158l-63 -135h221v-110h-272l-56 -121l-99 47l34 74h-107v110h158l63 135h-221v110h271l55 118l100 -47l-33 -71h107v-110z" />
    <glyph glyph-name="lessequal" unicode="&#x2264;" horiz-adv-x="600" 
d="M551 735v-123l-346 -135l346 -137v-122l-501 198v122zM51 50v110h500v-110h-500z" />
    <glyph glyph-name="greaterequal" unicode="&#x2265;" horiz-adv-x="600" 
d="M51 735l500 -197v-122l-500 -198v122l345 137l-345 135v123zM50 50v110h500v-110h-500z" />
    <glyph glyph-name="uni258A" unicode="&#x258a;" horiz-adv-x="600" 
d="M75 0v700h450v-700h-450z" />
    <glyph glyph-name="lozenge" unicode="&#x25ca;" horiz-adv-x="653" 
d="M603 351v-1h-1l-209 -349h-133l-209 349h-1v1h1l209 349h133l209 -349h1zM327 112l142 239l-142 238l-143 -238z" />
    <glyph glyph-name="uni25D0" unicode="&#x25d0;" horiz-adv-x="597" 
d="M298 549q103 0 176 -73t73 -176t-73 -176t-176 -73q-102 0 -175 73t-73 176t73 176t175 73zM302 106q79 2 133.5 56t54.5 138t-55 138t-133 56v-388z" />
    <glyph glyph-name="smileface" unicode="&#x263a;" horiz-adv-x="828" 
d="M414 -14q-150 0 -257 106.5t-107 257.5t107 257.5t257 106.5q151 0 257.5 -106.5t106.5 -257.5t-106.5 -257.5t-257.5 -106.5zM414 51q124 0 212 87.5t88 211.5t-88 211.5t-212 87.5t-211.5 -87.5t-87.5 -211.5t87.5 -211.5t211.5 -87.5zM302 350q-25 0 -43.5 18
t-18.5 43t18 43.5t44 18.5q25 0 43 -18t18 -44q0 -25 -18 -43t-43 -18zM526 350q-25 0 -43 18t-18 43q0 26 18 44t43 18q26 0 44 -18.5t18 -43.5t-18.5 -43t-43.5 -18z" />
    <glyph glyph-name="uni2713" unicode="&#x2713;" horiz-adv-x="694" 
d="M543 700l101 -49l-337 -651h-118l-140 249l91 52l106 -191z" />
    <glyph glyph-name="uni2B0F" unicode="&#x2b0f;" horiz-adv-x="638" 
d="M588 336l-67 -67l-149 148v-363h-322v94h227l1 271l-152 -150l-66 68l264 263z" />
    <glyph glyph-name="uni2B10" unicode="&#x2b10;" horiz-adv-x="638" 
d="M588 506h-227l-1 -271l152 150l66 -68l-264 -263l-264 264l67 67l149 -148v363h322v-94z" />
    <glyph glyph-name="uni2B11" unicode="&#x2b11;" horiz-adv-x="638" 
d="M361 148h227v-94h-322v363l-149 -148l-67 67l264 264l264 -263l-66 -68l-152 150z" />
    <glyph glyph-name="fi" unicode="&#xfb01;" horiz-adv-x="626" 
d="M106 0v394h-86v105h86v68q0 69 40.5 108.5t100.5 39.5q81 0 124 -43l-52 -83q-20 17 -47 17q-46 0 -46 -53v-54h127v-105h-127v-394h-120zM500 567q-29 0 -49.5 21t-20.5 50t20.5 50t49.5 21t50.5 -21t21.5 -50t-21.5 -50t-50.5 -21zM442 0v499h120v-499h-120z" />
    <glyph glyph-name="fl" unicode="&#xfb02;" horiz-adv-x="618" 
d="M106 0v394h-86v105h86v68q0 69 40.5 108.5t100.5 39.5q81 0 124 -43l-52 -83q-20 17 -47 17q-46 0 -46 -53v-54h127v-105h-127v-394h-120zM438 0v700h120v-700h-120z" />
    <glyph glyph-name="G.ss05" horiz-adv-x="775" 
d="M400 -14q-155 0 -252.5 102.5t-97.5 261.5q0 155 98 259.5t250 104.5q120 0 195 -53t108 -141l-115 -40q-47 121 -182 121q-102 0 -167 -73t-65 -178q0 -108 65.5 -179.5t168.5 -71.5q96 0 145.5 53.5t51.5 123.5h-147v104h269v-66q-1 -143 -86.5 -235.5t-238.5 -92.5z
" />
    <glyph glyph-name="Gbreve.ss05" horiz-adv-x="775" 
d="M398 772q-59 0 -98.5 37.5t-42.5 96.5h82q7 -56 60 -56q55 0 62 56h82q-4 -58 -44.5 -96t-100.5 -38zM400 -14q-155 0 -252.5 102.5t-97.5 261.5q0 155 98 259.5t250 104.5q120 0 195 -53t108 -141l-115 -40q-47 121 -182 121q-102 0 -167 -73t-65 -178
q0 -108 65.5 -179.5t168.5 -71.5q96 0 145.5 53.5t51.5 123.5h-147v104h269v-66q-1 -143 -86.5 -235.5t-238.5 -92.5z" />
    <glyph glyph-name="Gcircumflex.ss05" horiz-adv-x="775" 
d="M399 830l-53 -61h-99l97 134h110l96 -134h-98zM456 380h269v-66q-1 -143 -86.5 -235.5t-238.5 -92.5q-155 0 -252.5 102.5t-97.5 261.5q0 155 98 259.5t250 104.5q120 0 195 -53t108 -141l-115 -40q-47 121 -182 121q-102 0 -167 -73t-65 -178q0 -108 65.5 -179.5
t168.5 -71.5q96 0 145.5 53.5t51.5 123.5h-147v104z" />
    <glyph glyph-name="Gcommaaccent.ss05" horiz-adv-x="775" 
d="M400 -14q-155 0 -252.5 102.5t-97.5 261.5q0 155 98 259.5t250 104.5q120 0 195 -53t108 -141l-115 -40q-47 121 -182 121q-102 0 -167 -73t-65 -178q0 -108 65.5 -179.5t168.5 -71.5q96 0 145.5 53.5t51.5 123.5h-147v104h269v-66q-1 -143 -86.5 -235.5t-238.5 -92.5z
M355 -223q20 26 26 46q-47 10 -47 54q0 28 19.5 44t41.5 16q28 0 46.5 -17.5t18.5 -49.5t-17.5 -66.5t-45.5 -55.5z" />
    <glyph glyph-name="Gdotaccent.ss05" horiz-adv-x="775" 
d="M399 768q-29 0 -49.5 21t-20.5 50t20.5 50t49.5 21t50.5 -21t21.5 -50t-21.5 -50t-50.5 -21zM400 -14q-155 0 -252.5 102.5t-97.5 261.5q0 155 98 259.5t250 104.5q120 0 195 -53t108 -141l-115 -40q-47 121 -182 121q-102 0 -167 -73t-65 -178q0 -108 65.5 -179.5
t168.5 -71.5q96 0 145.5 53.5t51.5 123.5h-147v104h269v-66q-1 -143 -86.5 -235.5t-238.5 -92.5z" />
    <glyph glyph-name="i.loclTRK" horiz-adv-x="248" 
d="M122 567q-29 0 -49.5 21t-20.5 50t20.5 50t49.5 21t50.5 -21t21.5 -50t-21.5 -50t-50.5 -21zM64 0v499h120v-499h-120z" />
    <glyph glyph-name="a.ss01" horiz-adv-x="541" 
d="M515 83l20 -85q-24 -12 -62 -12q-84 0 -111 62q-47 -62 -153 -62q-73 0 -122 42.5t-49 111.5q0 139 197 167l107 15v4q0 91 -92 91q-86 0 -99 -81l-106 26q41 151 209 151q90 0 149 -46t59 -139v-213q0 -36 34 -36zM342 175v56l-99 -15q-47 -7 -68.5 -23t-21.5 -46
q0 -29 23.5 -46.5t64.5 -17.5q43 0 72 24.5t29 67.5z" />
    <glyph glyph-name="aacute.ss01" horiz-adv-x="541" 
d="M418 705l-114 -134h-102l69 134h147zM515 83l20 -85q-24 -12 -62 -12q-84 0 -111 62q-47 -62 -153 -62q-73 0 -122 42.5t-49 111.5q0 139 197 167l107 15v4q0 91 -92 91q-86 0 -99 -81l-106 26q41 151 209 151q90 0 149 -46t59 -139v-213q0 -36 34 -36zM342 175v56
l-99 -15q-47 -7 -68.5 -23t-21.5 -46q0 -29 23.5 -46.5t64.5 -17.5q43 0 72 24.5t29 67.5z" />
    <glyph glyph-name="abreve.ss01" horiz-adv-x="541" 
d="M254 571q-59 0 -98.5 37.5t-42.5 96.5h82q7 -56 60 -56q55 0 62 56h82q-4 -58 -44.5 -96t-100.5 -38zM515 83l20 -85q-24 -12 -62 -12q-84 0 -111 62q-47 -62 -153 -62q-73 0 -122 42.5t-49 111.5q0 139 197 167l107 15v4q0 91 -92 91q-86 0 -99 -81l-106 26
q41 151 209 151q90 0 149 -46t59 -139v-213q0 -36 34 -36zM342 175v56l-99 -15q-47 -7 -68.5 -23t-21.5 -46q0 -29 23.5 -46.5t64.5 -17.5q43 0 72 24.5t29 67.5z" />
    <glyph glyph-name="acircumflex.ss01" horiz-adv-x="541" 
d="M255 632l-53 -61h-99l97 134h110l96 -134h-98zM515 83l20 -85q-24 -12 -62 -12q-84 0 -111 62q-47 -62 -153 -62q-73 0 -122 42.5t-49 111.5q0 139 197 167l107 15v4q0 91 -92 91q-86 0 -99 -81l-106 26q41 151 209 151q90 0 149 -46t59 -139v-213q0 -36 34 -36zM342 175
v56l-99 -15q-47 -7 -68.5 -23t-21.5 -46q0 -29 23.5 -46.5t64.5 -17.5q43 0 72 24.5t29 67.5z" />
    <glyph glyph-name="adieresis.ss01" horiz-adv-x="541" 
d="M165 567q-29 0 -50 21t-21 50t21 50t50 21t50 -21t21 -50t-21 -50t-50 -21zM344 567q-29 0 -50.5 21t-21.5 50t21.5 50t50.5 21q28 0 49 -21t21 -50t-21 -50t-49 -21zM515 83l20 -85q-24 -12 -62 -12q-84 0 -111 62q-47 -62 -153 -62q-73 0 -122 42.5t-49 111.5
q0 139 197 167l107 15v4q0 91 -92 91q-86 0 -99 -81l-106 26q41 151 209 151q90 0 149 -46t59 -139v-213q0 -36 34 -36zM342 175v56l-99 -15q-47 -7 -68.5 -23t-21.5 -46q0 -29 23.5 -46.5t64.5 -17.5q43 0 72 24.5t29 67.5z" />
    <glyph glyph-name="agrave.ss01" horiz-adv-x="541" 
d="M309 571h-102l-114 134h147zM515 83l20 -85q-24 -12 -62 -12q-84 0 -111 62q-47 -62 -153 -62q-73 0 -122 42.5t-49 111.5q0 139 197 167l107 15v4q0 91 -92 91q-86 0 -99 -81l-106 26q41 151 209 151q90 0 149 -46t59 -139v-213q0 -36 34 -36zM342 175v56l-99 -15
q-47 -7 -68.5 -23t-21.5 -46q0 -29 23.5 -46.5t64.5 -17.5q43 0 72 24.5t29 67.5z" />
    <glyph glyph-name="amacron.ss01" horiz-adv-x="541" 
d="M368 682v-88h-228v88h228zM515 83l20 -85q-24 -12 -62 -12q-84 0 -111 62q-47 -62 -153 -62q-73 0 -122 42.5t-49 111.5q0 139 197 167l107 15v4q0 91 -92 91q-86 0 -99 -81l-106 26q41 151 209 151q90 0 149 -46t59 -139v-213q0 -36 34 -36zM342 175v56l-99 -15
q-47 -7 -68.5 -23t-21.5 -46q0 -29 23.5 -46.5t64.5 -17.5q43 0 72 24.5t29 67.5z" />
    <glyph glyph-name="aogonek.ss01" horiz-adv-x="541" 
d="M442 -75q0 -16 11.5 -27t34.5 -11h7v-74q-18 -2 -26 -2q-53 0 -83.5 25.5t-30.5 66.5q0 56 49 98q-28 15 -42 47q-47 -62 -153 -62q-73 0 -122 42.5t-49 111.5q0 139 197 167l107 15v4q0 91 -92 91q-86 0 -99 -81l-106 26q41 151 209 151q90 0 149 -46t59 -139v-213
q0 -36 34 -36l19 4l20 -85q-20 -10 -53 -12q-40 -27 -40 -61zM342 175v56l-99 -15q-47 -7 -68.5 -23t-21.5 -46q0 -29 23.5 -46.5t64.5 -17.5q43 0 72 24.5t29 67.5z" />
    <glyph glyph-name="aring.ss01" horiz-adv-x="541" 
d="M256 545q-40 0 -68.5 29.5t-28.5 68.5t28.5 68t68.5 29q39 0 68 -28.5t29 -68.5q0 -39 -29 -68.5t-68 -29.5zM256 678q-15 0 -25 -10.5t-10 -24.5t10 -24.5t25 -10.5q14 0 24.5 10.5t10.5 24.5t-10.5 24.5t-24.5 10.5zM515 83l20 -85q-24 -12 -62 -12q-84 0 -111 62
q-47 -62 -153 -62q-73 0 -122 42.5t-49 111.5q0 139 197 167l107 15v4q0 91 -92 91q-86 0 -99 -81l-106 26q41 151 209 151q90 0 149 -46t59 -139v-213q0 -36 34 -36zM342 175v56l-99 -15q-47 -7 -68.5 -23t-21.5 -46q0 -29 23.5 -46.5t64.5 -17.5q43 0 72 24.5t29 67.5z
" />
    <glyph glyph-name="atilde.ss01" horiz-adv-x="541" 
d="M198 611q-33 0 -50 -39l-66 43q32 84 107 84q30 0 66 -18t54 -18q29 0 49 41l67 -45q-27 -84 -108 -84q-32 0 -67.5 18t-51.5 18zM515 83l20 -85q-24 -12 -62 -12q-84 0 -111 62q-47 -62 -153 -62q-73 0 -122 42.5t-49 111.5q0 139 197 167l107 15v4q0 91 -92 91
q-86 0 -99 -81l-106 26q41 151 209 151q90 0 149 -46t59 -139v-213q0 -36 34 -36zM342 175v56l-99 -15q-47 -7 -68.5 -23t-21.5 -46q0 -29 23.5 -46.5t64.5 -17.5q43 0 72 24.5t29 67.5z" />
    <glyph glyph-name="a.ss02" horiz-adv-x="614" 
d="M280 -14q-103 0 -172.5 77t-69.5 187q0 111 68 187t173 76q101 0 155 -70v56h120v-499h-99l-16 61q-57 -75 -159 -75zM297 94q60 0 99 44t39 112t-39 111.5t-99 43.5t-99.5 -44t-39.5 -111q0 -68 39.5 -112t99.5 -44z" />
    <glyph glyph-name="aacute.ss02" horiz-adv-x="614" 
d="M239 571l69 134h147l-114 -134h-102zM280 -14q-103 0 -172.5 77t-69.5 187q0 111 68 187t173 76q101 0 155 -70v56h120v-499h-99l-16 61q-57 -75 -159 -75zM297 94q60 0 99 44t39 112t-39 111.5t-99 43.5t-99.5 -44t-39.5 -111q0 -68 39.5 -112t99.5 -44z" />
    <glyph glyph-name="abreve.ss02" horiz-adv-x="614" 
d="M291 571q-59 0 -98.5 37.5t-42.5 96.5h82q7 -56 60 -56q55 0 62 56h82q-4 -58 -44.5 -96t-100.5 -38zM280 -14q-103 0 -172.5 77t-69.5 187q0 111 68 187t173 76q101 0 155 -70v56h120v-499h-99l-16 61q-57 -75 -159 -75zM297 94q60 0 99 44t39 112t-39 111.5t-99 43.5
t-99.5 -44t-39.5 -111q0 -68 39.5 -112t99.5 -44z" />
    <glyph glyph-name="acircumflex.ss02" horiz-adv-x="614" 
d="M292 632l-53 -61h-99l97 134h110l96 -134h-98zM434 499h120v-499h-99l-16 61q-57 -75 -159 -75q-103 0 -172.5 77t-69.5 187q0 111 68 187t173 76q101 0 155 -70v56zM297 94q60 0 99 44t39 112t-39 111.5t-99 43.5t-99.5 -44t-39.5 -111q0 -68 39.5 -112t99.5 -44z" />
    <glyph glyph-name="adieresis.ss02" horiz-adv-x="614" 
d="M202 567q-29 0 -50 21t-21 50t21 50t50 21t50 -21t21 -50t-21 -50t-50 -21zM381 567q-29 0 -50.5 21t-21.5 50t21.5 50t50.5 21q28 0 49 -21t21 -50t-21 -50t-49 -21zM280 -14q-103 0 -172.5 77t-69.5 187q0 111 68 187t173 76q101 0 155 -70v56h120v-499h-99l-16 61
q-57 -75 -159 -75zM297 94q60 0 99 44t39 112t-39 111.5t-99 43.5t-99.5 -44t-39.5 -111q0 -68 39.5 -112t99.5 -44z" />
    <glyph glyph-name="agrave.ss02" horiz-adv-x="614" 
d="M244 571l-114 134h147l69 -134h-102zM280 -14q-103 0 -172.5 77t-69.5 187q0 111 68 187t173 76q101 0 155 -70v56h120v-499h-99l-16 61q-57 -75 -159 -75zM297 94q60 0 99 44t39 112t-39 111.5t-99 43.5t-99.5 -44t-39.5 -111q0 -68 39.5 -112t99.5 -44z" />
    <glyph glyph-name="amacron.ss02" horiz-adv-x="614" 
d="M178 594v88h228v-88h-228zM280 -14q-103 0 -172.5 77t-69.5 187q0 111 68 187t173 76q101 0 155 -70v56h120v-499h-99l-16 61q-57 -75 -159 -75zM297 94q60 0 99 44t39 112t-39 111.5t-99 43.5t-99.5 -44t-39.5 -111q0 -68 39.5 -112t99.5 -44z" />
    <glyph glyph-name="aogonek.ss02" horiz-adv-x="614" 
d="M495 -73q0 -16 11.5 -27t34.5 -11h7v-74q-18 -2 -26 -2q-53 0 -83.5 25.5t-30.5 66.5q0 54 47 96l-16 60q-57 -75 -159 -75q-103 0 -172.5 77t-69.5 187q0 111 68 187t173 76q101 0 155 -70v56h120v-499h1q-60 -31 -60 -73zM297 94q60 0 99 44t39 112t-39 111.5t-99 43.5
t-99.5 -44t-39.5 -111q0 -68 39.5 -112t99.5 -44z" />
    <glyph glyph-name="aring.ss02" horiz-adv-x="614" 
d="M293 545q-40 0 -68.5 29.5t-28.5 68.5t28.5 68t68.5 29q39 0 68 -28.5t29 -68.5q0 -39 -29 -68.5t-68 -29.5zM293 608q14 0 24.5 10.5t10.5 24.5t-10.5 24.5t-24.5 10.5q-15 0 -25 -10.5t-10 -24.5t10 -24.5t25 -10.5zM280 -14q-103 0 -172.5 77t-69.5 187q0 111 68 187
t173 76q101 0 155 -70v56h120v-499h-99l-16 61q-57 -75 -159 -75zM297 94q60 0 99 44t39 112t-39 111.5t-99 43.5t-99.5 -44t-39.5 -111q0 -68 39.5 -112t99.5 -44z" />
    <glyph glyph-name="atilde.ss02" horiz-adv-x="614" 
d="M354 575q-32 0 -67.5 18t-51.5 18q-33 0 -50 -39l-66 43q32 84 107 84q30 0 66 -18t54 -18q28 0 49 41l67 -45q-27 -84 -108 -84zM280 -14q-103 0 -172.5 77t-69.5 187q0 111 68 187t173 76q101 0 155 -70v56h120v-499h-99l-16 61q-57 -75 -159 -75zM297 94q60 0 99 44
t39 112t-39 111.5t-99 43.5t-99.5 -44t-39.5 -111q0 -68 39.5 -112t99.5 -44z" />
    <glyph glyph-name="l.ss03" horiz-adv-x="291" 
d="M186 -14q-57 0 -91.5 33t-34.5 98v583h120v-565q0 -40 37 -40q20 0 32 5l28 -96q-29 -18 -91 -18z" />
    <glyph glyph-name="lacute.ss03" horiz-adv-x="301" 
d="M71 769l69 134h147l-114 -134h-102zM186 -14q-57 0 -91.5 33t-34.5 98v583h120v-565q0 -40 37 -40q20 0 32 5l28 -96q-29 -18 -91 -18z" />
    <glyph glyph-name="lcaron.ss03" horiz-adv-x="305" 
d="M186 -14q-57 0 -91.5 33t-34.5 98v583h120v-565q0 -40 37 -40q20 0 32 5l28 -96q-29 -18 -91 -18zM223 566l35 134h118l-76 -134h-77z" />
    <glyph glyph-name="lcommaaccent.ss03" horiz-adv-x="291" 
d="M186 -14q-57 0 -91.5 33t-34.5 98v583h120v-565q0 -40 37 -40q20 0 32 5l28 -96q-29 -18 -91 -18zM133 -217q20 26 26 46q-47 10 -47 54q0 28 19.5 44t41.5 16q28 0 46.5 -17.5t18.5 -49.5t-17.5 -66.5t-45.5 -55.5z" />
    <glyph glyph-name="ldot.ss03" horiz-adv-x="390" 
d="M186 -14q-57 0 -91.5 33t-34.5 98v583h120v-565q0 -40 37 -40q20 0 32 5l28 -96q-29 -18 -91 -18zM319 274q-31 0 -53.5 22t-22.5 54q0 31 22.5 53t53.5 22t53 -22t22 -53t-22 -53.5t-53 -22.5z" />
    <glyph glyph-name="lslash.ss03" horiz-adv-x="354" 
d="M271 95q20 0 32 5l28 -96q-29 -18 -91 -18q-57 0 -91.5 33t-34.5 98v134l-53 -39l-53 77l106 77v334h120v-246l54 39l55 -76l-109 -79v-203q0 -40 37 -40z" />
    <glyph glyph-name="y.ss04" horiz-adv-x="533" 
d="M396 499h123l-227 -596q-45 -118 -157 -118q-90 0 -135 69l90 60q12 -22 44 -22q38 0 53 42l29 79l-193 486h123l128 -331z" />
    <glyph glyph-name="yacute.ss04" horiz-adv-x="533" 
d="M432 705l-114 -134h-102l69 134h147zM396 499h123l-227 -596q-45 -118 -157 -118q-90 0 -135 69l90 60q12 -22 44 -22q38 0 53 42l29 79l-193 486h123l128 -331z" />
    <glyph glyph-name="ycircumflex.ss04" horiz-adv-x="533" 
d="M269 632l-53 -61h-99l97 134h110l96 -134h-98zM396 499h123l-227 -596q-45 -118 -157 -118q-90 0 -135 69l90 60q12 -22 44 -22q38 0 53 42l29 79l-193 486h123l128 -331z" />
    <glyph glyph-name="ydieresis.ss04" horiz-adv-x="533" 
d="M179 567q-29 0 -50 21t-21 50t21 50t50 21t50 -21t21 -50t-21 -50t-50 -21zM358 567q-29 0 -50.5 21t-21.5 50t21.5 50t50.5 21q28 0 49 -21t21 -50t-21 -50t-49 -21zM396 499h123l-227 -596q-45 -118 -157 -118q-90 0 -135 69l90 60q12 -22 44 -22q38 0 53 42l29 79
l-193 486h123l128 -331z" />
    <glyph glyph-name="ygrave.ss04" horiz-adv-x="533" 
d="M323 571h-102l-114 134h147zM396 499h123l-227 -596q-45 -118 -157 -118q-90 0 -135 69l90 60q12 -22 44 -22q38 0 53 42l29 79l-193 486h123l128 -331z" />
    <glyph glyph-name="f_f.dlig" horiz-adv-x="711" 
d="M558 553v-54h128v-105h-128v-394h-120v394h-212v-394h-120v394h-86v105h86v68q0 69 40.5 108.5t100.5 39.5q81 0 124 -43l-52 -83q-20 17 -47 17q-46 0 -46 -53v-54h212v68q0 69 40.5 108.5t101.5 39.5q81 0 124 -43l-53 -83q-17 17 -46 17q-47 0 -47 -53z" />
    <glyph glyph-name="f_f_i.dlig" horiz-adv-x="955" 
d="M891 499v-499h-120v394h-213v-394h-120v394h-212v-394h-120v394h-86v105h86v68q0 69 40.5 108.5t100.5 39.5q81 0 124 -43l-52 -83q-20 17 -47 17q-46 0 -46 -53v-54h212v68q0 69 40.5 108.5t101.5 39.5q81 0 124 -43l-53 -83q-17 17 -46 17q-47 0 -47 -53v-54h333z
M829 567q-29 0 -49.5 21t-20.5 50t20.5 50t49.5 21t50.5 -21t21.5 -50t-21.5 -50t-50.5 -21z" />
    <glyph glyph-name="f_f_j.dlig" horiz-adv-x="954" 
d="M892 499v-564q0 -69 -41 -109.5t-102 -40.5q-78 0 -118 43l50 85q16 -16 45 -16q46 0 46 54v443h-214v-394h-120v394h-212v-394h-120v394h-86v105h86v68q0 69 40.5 108.5t100.5 39.5q81 0 124 -43l-52 -83q-20 17 -47 17q-46 0 -46 -53v-54h212v68q0 69 40.5 108.5
t101.5 39.5q81 0 124 -43l-53 -83q-17 17 -46 17q-47 0 -47 -53v-54h334zM831 567q-29 0 -49.5 21t-20.5 50t20.5 50t49.5 21t50.5 -21t21.5 -50t-21.5 -50t-50.5 -21z" />
    <glyph glyph-name="f_f_l.dlig" horiz-adv-x="951" 
d="M771 700h120v-700h-120v394h-213v-394h-120v394h-212v-394h-120v394h-86v105h86v68q0 69 40.5 108.5t100.5 39.5q81 0 124 -43l-52 -83q-20 17 -47 17q-46 0 -46 -53v-54h212v68q0 69 40.5 108.5t101.5 39.5q81 0 124 -43l-53 -83q-17 17 -46 17q-47 0 -47 -53v-54h213
v201z" />
    <glyph glyph-name="f_i.dlig" horiz-adv-x="622" 
d="M559 499v-499h-120v394h-213v-394h-120v394h-86v105h86v68q0 69 40.5 108.5t100.5 39.5q81 0 124 -43l-52 -83q-20 17 -47 17q-46 0 -46 -53v-54h333zM497 567q-29 0 -49.5 21t-20.5 50t20.5 50t49.5 21t50.5 -21t21.5 -50t-21.5 -50t-50.5 -21z" />
    <glyph glyph-name="f_j.dlig" horiz-adv-x="621" 
d="M559 499v-564q0 -69 -41 -109.5t-102 -40.5q-78 0 -118 43l50 85q16 -16 45 -16q46 0 46 54v443h-213v-394h-120v394h-86v105h86v68q0 69 40.5 108.5t100.5 39.5q81 0 124 -43l-52 -83q-20 17 -47 17q-46 0 -46 -53v-54h333zM498 567q-29 0 -49.5 21t-20.5 50t20.5 50
t49.5 21t50.5 -21t21.5 -50t-21.5 -50t-50.5 -21z" />
    <glyph glyph-name="f_l.dlig" horiz-adv-x="618" 
d="M438 700h120v-700h-120v394h-212v-394h-120v394h-86v105h86v68q0 69 40.5 108.5t100.5 39.5q81 0 124 -43l-52 -83q-20 17 -47 17q-46 0 -46 -53v-54h212v201z" />
    <glyph glyph-name="fl.dlig" horiz-adv-x="618" 
d="M438 700h120v-700h-120v394h-212v-394h-120v394h-86v105h86v68q0 69 40.5 108.5t100.5 39.5q81 0 124 -43l-52 -83q-20 17 -47 17q-46 0 -46 -53v-54h212v201z" />
    <glyph glyph-name="zero.tf" horiz-adv-x="600" 
d="M302 -13q-130 0 -196.5 101t-66.5 264q0 161 66.5 262t195.5 101q128 0 194 -101.5t66 -261.5q0 -162 -65.5 -263.5t-193.5 -101.5zM302 100q69 0 103 68t34 183q0 113 -34.5 182t-103.5 69q-71 0 -105.5 -69t-34.5 -182q0 -116 34.5 -183.5t106.5 -67.5z" />
    <glyph glyph-name="one.tf" horiz-adv-x="600" 
d="M361 113h167v-113h-454v113h165v451q-26 -17 -69 -31.5t-77 -18.5v123q69 11 146 63h122v-587z" />
    <glyph glyph-name="two.tf" horiz-adv-x="600" 
d="M76 0v113l236 206q57 49 82 85.5t25 86.5q0 46 -32.5 78t-84.5 32q-57 0 -92.5 -37t-34.5 -98l-113 31q5 97 73.5 157t166.5 60q101 0 170 -63.5t69 -158.5q0 -77 -35.5 -132t-107.5 -118l-148 -129h292v-113h-466z" />
    <glyph glyph-name="three.tf" horiz-adv-x="600" 
d="M298 -14q-107 0 -175.5 60.5t-70.5 146.5l112 33q2 -54 39.5 -90.5t94.5 -36.5t94.5 36t37.5 90q0 55 -36.5 90.5t-95.5 35.5q-21 0 -47 -8l-62 74l173 170h-286v113h430v-113l-139 -141q80 -10 132.5 -67t52.5 -154q0 -104 -72 -171.5t-182 -67.5z" />
    <glyph glyph-name="four.tf" horiz-adv-x="600" 
d="M346 0l1 177h-314v91l305 432h130l1 -419h81v-104h-81l-1 -177h-122zM166 281h181l-1 250z" />
    <glyph glyph-name="five.tf" horiz-adv-x="600" 
d="M300 -14q-102 0 -172 58t-74 139l113 34q3 -54 40.5 -86t92.5 -32q56 0 92.5 35.5t37.5 91.5q-1 56 -38 91.5t-93 35.5q-71 0 -111 -48l-105 39l36 356h385v-114h-280l-17 -153q39 25 102 25q107 0 174 -63t68 -168q-1 -108 -72 -174.5t-179 -66.5z" />
    <glyph glyph-name="six.tf" horiz-adv-x="600" 
d="M300 -14q-128 0 -192 86.5t-64 244.5q0 192 61.5 294.5t202.5 102.5q92 0 147.5 -47.5t76.5 -128.5l-108 -32q-28 95 -116 95q-70 0 -101 -51t-36 -146q15 20 52.5 38.5t90.5 18.5q102 0 169 -65t67 -171q0 -107 -71 -173t-179 -66zM300 98q56 0 92 35.5t36 91.5
q0 57 -35.5 91.5t-92.5 34.5q-55 0 -91 -35.5t-36 -90.5q0 -54 35.5 -90.5t91.5 -36.5z" />
    <glyph glyph-name="seven.tf" horiz-adv-x="600" 
d="M180 0q24 138 85.5 309.5t124.5 277.5h-323v113h460v-113q-68 -107 -135 -278.5t-90 -308.5h-122z" />
    <glyph glyph-name="eight.tf" horiz-adv-x="600" 
d="M455 377q89 -61 89 -170q0 -97 -70 -159t-177 -62t-177 61.5t-70 159.5q0 109 88 169q-62 54 -62 139q0 87 63 143t158 56q94 0 157.5 -56t63.5 -143q0 -85 -63 -138zM195 516q0 -43 29.5 -68.5t72.5 -25.5t72.5 25.5t29.5 68.5q0 42 -29 68t-73 26t-73 -26t-29 -68z
M297 96q53 0 89 31t36 82t-36.5 83t-88.5 32t-88.5 -32t-36.5 -83t36 -82t89 -31z" />
    <glyph glyph-name="nine.tf" horiz-adv-x="600" 
d="M294 714q128 0 192 -86.5t64 -244.5q0 -192 -61.5 -294.5t-202.5 -102.5q-92 0 -147.5 47.5t-76.5 128.5l108 32q28 -95 116 -95q70 0 101 51t36 146q-15 -20 -52.5 -38.5t-90.5 -18.5q-102 0 -169 65t-67 171q0 107 71 173t179 66zM294 602q-56 0 -92 -35.5t-36 -91.5
q0 -57 35.5 -91.5t92.5 -34.5q55 0 91 35.5t36 90.5q0 54 -35.5 90.5t-91.5 36.5z" />
    <glyph glyph-name="zero.tf.zero" horiz-adv-x="600" 
d="M301 714q128 0 194 -101.5t66 -261.5q0 -162 -65.5 -263.5t-193.5 -101.5q-130 0 -196.5 101t-66.5 264q0 161 66.5 262t195.5 101zM301 601q-71 0 -105.5 -69t-34.5 -182q0 -48 6 -87l216 301q-32 37 -82 37zM302 99q69 0 103 68t34 183q0 40 -5 83l-215 -299
q32 -35 83 -35z" />
    <glyph glyph-name="zero.zero" horiz-adv-x="604" 
d="M303 714q128 0 194 -101.5t66 -261.5q0 -162 -65.5 -263.5t-193.5 -101.5q-130 0 -196.5 101t-66.5 264q0 161 66.5 262t195.5 101zM303 601q-71 0 -105.5 -69t-34.5 -182q0 -48 6 -87l216 301q-32 37 -82 37zM304 99q69 0 103 68t34 183q0 40 -5 83l-215 -299
q32 -35 83 -35z" />
    <glyph glyph-name="zero.dnom" horiz-adv-x="334" 
d="M168 -8q-66 0 -100 50.5t-34 132.5q0 81 34 131t100 50q64 0 98 -50t34 -131t-34 -132t-98 -51zM168 62q56 0 56 112q0 110 -56 110q-58 0 -58 -110q0 -112 58 -112z" />
    <glyph glyph-name="one.dnom" horiz-adv-x="213" 
d="M85 0v265q-25 -17 -68 -25v77q38 7 68 33h77v-350h-77z" />
    <glyph glyph-name="two.dnom" horiz-adv-x="313" 
d="M41 0v72l120 101q25 23 33.5 37t8.5 32t-13 31t-34 13q-25 0 -38.5 -15.5t-13.5 -42.5l-70 19q3 49 37 79.5t85 30.5q52 0 87.5 -32.5t35.5 -81.5q0 -36 -15.5 -62.5t-48.5 -55.5l-63 -53h127v-72h-238z" />
    <glyph glyph-name="three.dnom" horiz-adv-x="323" 
d="M159 -7q-55 0 -89.5 30.5t-35.5 74.5l70 21q1 -23 16 -38.5t39 -15.5t39 14t15 37q0 22 -15 36.5t-39 14.5q-4 0 -19 -3l-39 46l76 69h-130v71h219v-71l-55 -54q33 -8 55.5 -34.5t22.5 -74.5q0 -53 -37 -88t-93 -35z" />
    <glyph glyph-name="four.dnom" horiz-adv-x="310" 
d="M176 0l1 85h-155v55l149 210h82l1 -201h34v-64h-34l-1 -85h-77zM106 150l71 -1l-1 97z" />
    <glyph glyph-name="five.dnom" horiz-adv-x="320" 
d="M158 -7q-51 0 -87 30t-37 72l71 21q0 -24 15 -37.5t38 -13.5q21 0 36 14t15 36q0 23 -14.5 37t-36.5 14q-31 0 -46 -21l-65 25l17 180h202v-72h-137l-6 -54q19 7 41 7q54 0 88 -31t34 -84q0 -56 -36 -89.5t-92 -33.5z" />
    <glyph glyph-name="six.dnom" horiz-adv-x="327" 
d="M166 -7q-132 0 -132 170q0 194 136 194q94 0 116 -90l-68 -19q-13 38 -48 38q-53 0 -55 -72q2 2 8 6.5t21 9t33 4.5q50 0 83 -33t33 -87t-36.5 -87.5t-90.5 -33.5zM166 64q22 0 36.5 14.5t14.5 35.5q0 23 -14 36.5t-37 13.5t-37 -14t-14 -36t14.5 -36t36.5 -14z" />
    <glyph glyph-name="seven.dnom" horiz-adv-x="278" 
d="M78 0q10 67 36.5 147.5t55.5 131.5h-148v71h233v-71q-33 -51 -62 -132t-39 -147h-76z" />
    <glyph glyph-name="eight.dnom" horiz-adv-x="323" 
d="M249 188q40 -30 40 -81q0 -50 -37 -82t-91 -32q-53 0 -90 32t-37 82q0 49 39 80q-27 27 -27 67q0 45 33 74t82 29t82 -29t33 -74q0 -39 -27 -66zM120 254q0 -17 12 -28t29 -11q18 0 29.5 10.5t11.5 28.5q0 17 -11.5 27.5t-29.5 10.5q-17 0 -29 -10.5t-12 -27.5zM161 62
q21 0 36 13t15 33q0 21 -15 34t-36 13t-35.5 -13t-14.5 -34q0 -20 14.5 -33t35.5 -13z" />
    <glyph glyph-name="nine.dnom" horiz-adv-x="327" 
d="M158 -7q-47 0 -76.5 24.5t-39.5 65.5l67 19q13 -38 49 -38q52 0 55 73q-15 -20 -62 -20q-50 0 -83.5 32.5t-33.5 86.5t36.5 87.5t91.5 33.5q131 0 131 -169q0 -195 -135 -195zM162 186q23 0 37 14t14 36t-14.5 36.5t-36.5 14.5t-37 -14.5t-15 -36.5t15 -36t37 -14z" />
    <glyph glyph-name="zero.numr" horiz-adv-x="334" 
d="M168 342q-66 0 -100 50.5t-34 132.5q0 81 34 131t100 50q64 0 98 -50t34 -131t-34 -132t-98 -51zM168 412q56 0 56 112q0 110 -56 110q-58 0 -58 -110q0 -112 58 -112z" />
    <glyph glyph-name="one.numr" horiz-adv-x="213" 
d="M85 350v265q-25 -17 -68 -25v77q38 7 68 33h77v-350h-77z" />
    <glyph glyph-name="two.numr" horiz-adv-x="313" 
d="M41 350v72l120 101q25 23 33.5 37t8.5 32t-13 31t-34 13q-25 0 -38.5 -15.5t-13.5 -42.5l-70 19q3 49 37 79.5t85 30.5q52 0 87.5 -32.5t35.5 -81.5q0 -36 -15.5 -62.5t-48.5 -55.5l-63 -53h127v-72h-238z" />
    <glyph glyph-name="three.numr" horiz-adv-x="323" 
d="M159 343q-55 0 -89.5 30.5t-35.5 74.5l70 21q1 -23 16 -38.5t39 -15.5t39 14t15 37q0 22 -15 36.5t-39 14.5q-4 0 -19 -3l-39 46l76 69h-130v71h219v-71l-55 -54q33 -8 55.5 -34.5t22.5 -74.5q0 -53 -37 -88t-93 -35z" />
    <glyph glyph-name="four.numr" horiz-adv-x="310" 
d="M176 350l1 85h-155v55l149 210h82l1 -201h34v-64h-34l-1 -85h-77zM106 500l71 -1l-1 97z" />
    <glyph glyph-name="five.numr" horiz-adv-x="320" 
d="M158 343q-51 0 -87 30t-37 72l71 21q0 -24 15 -37.5t38 -13.5q21 0 36 14t15 36q0 23 -14.5 37t-36.5 14q-31 0 -46 -21l-65 25l17 180h202v-72h-137l-6 -54q19 7 41 7q54 0 88 -31t34 -84q0 -56 -36 -89.5t-92 -33.5z" />
    <glyph glyph-name="six.numr" horiz-adv-x="327" 
d="M166 343q-132 0 -132 170q0 194 136 194q94 0 116 -90l-68 -19q-13 38 -48 38q-53 0 -55 -72q2 2 8 6.5t21 9t33 4.5q50 0 83 -33t33 -87t-36.5 -87.5t-90.5 -33.5zM166 414q22 0 36.5 14.5t14.5 35.5q0 23 -14 36.5t-37 13.5t-37 -14t-14 -36t14.5 -36t36.5 -14z" />
    <glyph glyph-name="seven.numr" horiz-adv-x="278" 
d="M78 350q10 67 36.5 147.5t55.5 131.5h-148v71h233v-71q-33 -51 -62 -132t-39 -147h-76z" />
    <glyph glyph-name="eight.numr" horiz-adv-x="323" 
d="M249 538q40 -30 40 -81q0 -50 -37 -82t-91 -32q-53 0 -90 32t-37 82q0 49 39 80q-27 27 -27 67q0 45 33 74t82 29t82 -29t33 -74q0 -39 -27 -66zM120 604q0 -17 12 -28t29 -11q18 0 29.5 10.5t11.5 28.5q0 17 -11.5 27.5t-29.5 10.5q-17 0 -29 -10.5t-12 -27.5zM161 412
q21 0 36 13t15 33q0 21 -15 34t-36 13t-35.5 -13t-14.5 -34q0 -20 14.5 -33t35.5 -13z" />
    <glyph glyph-name="nine.numr" horiz-adv-x="327" 
d="M158 343q-47 0 -76.5 24.5t-39.5 65.5l67 19q13 -38 49 -38q52 0 55 73q-15 -20 -62 -20q-50 0 -83.5 32.5t-33.5 86.5t36.5 87.5t91.5 33.5q131 0 131 -169q0 -195 -135 -195zM162 536q23 0 37 14t14 36t-14.5 36.5t-36.5 14.5t-37 -14.5t-15 -36.5t15 -36t37 -14z" />
    <glyph glyph-name="periodcentered.case" horiz-adv-x="209" 
d="M105 274q-31 0 -53.5 22t-22.5 54q0 31 22.5 53t53.5 22t53 -22t22 -53t-22 -53.5t-53 -22.5z" />
    <glyph glyph-name="bullet.case" horiz-adv-x="269" 
d="M135 245q-44 0 -75 30.5t-31 74.5t31 74.5t75 30.5q43 0 74 -31t31 -74q0 -44 -31 -74.5t-74 -30.5z" />
    <glyph glyph-name="exclamdown.case" horiz-adv-x="297" 
d="M148 707q30 0 53 -22t23 -53q0 -30 -22.5 -53t-53.5 -23t-53 23t-22 52t22 52.5t53 23.5zM88 495h122v-495h-122v495z" />
    <glyph glyph-name="questiondown.case" horiz-adv-x="527" 
d="M254 557q-31 0 -53 22t-22 53t22 53.5t53 22.5q32 0 54 -22t22 -54q0 -31 -22.5 -53t-53.5 -22zM388 225l110 -30q-5 -93 -69.5 -151t-162.5 -58q-102 0 -169.5 63t-67.5 158q0 75 42.5 132t122.5 80v83h121v-161h-27q-68 0 -104.5 -37t-37.5 -92q0 -48 33 -80.5
t85 -32.5q59 0 91.5 34.5t32.5 91.5z" />
    <glyph glyph-name="braceleft.case" horiz-adv-x="304" 
d="M270 -120h-53q-49 0 -86 31.5t-37 88.5v236q0 59 -60 59v116q60 0 60 59v230q0 57 37 88.5t86 31.5h53v-107h-19q-41 0 -41 -64v-220q0 -49 -34 -78q34 -26 34 -76v-223q0 -65 41 -65h19v-107z" />
    <glyph glyph-name="braceright.case" horiz-adv-x="304" 
d="M34 -121v107h19q41 0 41 65v223q0 50 34 76q-34 29 -34 78v220q0 64 -41 64h-19v107h53q49 0 86 -31.5t37 -88.5v-230q0 -59 60 -59v-116q-60 0 -60 -59v-236q0 -57 -37 -88.5t-86 -31.5h-53z" />
    <glyph glyph-name="bracketleft.case" horiz-adv-x="246" 
d="M34 -120v940h178v-107h-68v-726h68v-107h-178z" />
    <glyph glyph-name="bracketright.case" horiz-adv-x="246" 
d="M34 -120v107h68v726h-68v107h178v-940h-178z" />
    <glyph glyph-name="parenleft.case" horiz-adv-x="287" 
d="M163 -120q-52 74 -90.5 197t-38.5 274t39 273t92 196l94 -62q-109 -153 -109 -409q0 -133 32 -237t80 -171z" />
    <glyph glyph-name="parenright.case" horiz-adv-x="287" 
d="M124 -120l-99 61q48 67 80 171t32 237q0 256 -109 409l94 62q53 -74 92 -196t39 -273t-38.5 -274t-90.5 -197z" />
    <glyph glyph-name="emdash.case" horiz-adv-x="1100" 
d="M50 295v110h1000v-110h-1000z" />
    <glyph glyph-name="endash.case" horiz-adv-x="600" 
d="M50 294v112h500v-112h-500z" />
    <glyph glyph-name="hyphen.case" horiz-adv-x="376" 
d="M50 295v110h276v-110h-276z" />
    <glyph glyph-name="guillemotleft.case" horiz-adv-x="537" 
d="M256 533l-84 -184l85 -186h-123l-84 186l84 184h122zM402 349l85 -186h-123l-84 186l84 184h122z" />
    <glyph glyph-name="guillemotright.case" horiz-adv-x="537" 
d="M51 534h122l84 -184l-84 -186h-123l85 186zM403 534l84 -184l-84 -186h-123l85 186l-84 184h122z" />
    <glyph glyph-name="guilsinglleft.case" horiz-adv-x="307" 
d="M172 351l85 -186h-123l-84 186l84 184h122z" />
    <glyph glyph-name="guilsinglright.case" horiz-adv-x="307" 
d="M173 534l84 -184l-84 -186h-123l85 186l-84 184h122z" />
    <glyph glyph-name="at.case" horiz-adv-x="832" 
d="M417 715q163 0 264 -99t101 -262q0 -84 -43.5 -133.5t-116.5 -49.5q-82 0 -111 54q-48 -54 -115 -54q-70 0 -108 47.5t-38 114.5q0 75 45.5 132t124.5 57q64 0 95 -42l6 33h72l-19 -226q5 -34 47 -34q34 0 54.5 29.5t20.5 71.5q0 129 -75.5 204t-203.5 75
q-119 0 -199.5 -82t-80.5 -201t81 -201.5t199 -82.5q87 0 152 46l48 -66q-81 -61 -200 -61q-154 0 -260.5 105t-106.5 260q0 151 107 258t260 107zM410 251q42 0 66.5 32t24.5 74q0 36 -19 60.5t-56 24.5q-43 0 -68 -32t-25 -74q0 -36 19.5 -60.5t57.5 -24.5z" />
    <glyph glyph-name="uni0308.case" 
d="M-93 765q-30 0 -51 21t-21 50t21 50t51 21q28 0 49 -21t21 -50t-21 -50t-49 -21zM93 765q-29 0 -49.5 21t-20.5 50t20.5 50t49.5 21q30 0 50.5 -21t20.5 -50t-20.5 -50t-50.5 -21z" />
    <glyph glyph-name="uni0307.case" 
d="M0 768q-29 0 -49.5 21t-20.5 50t20.5 50t49.5 21t50.5 -21t21.5 -50t-21.5 -50t-50.5 -21z" />
    <glyph glyph-name="gravecomb.case" 
d="M-50 769l-114 134h147l69 -134h-102z" />
    <glyph glyph-name="acutecomb.case" 
d="M-52 769l69 134h147l-114 -134h-102z" />
    <glyph glyph-name="uni0302.case" 
d="M151 769h-98l-53 61l-53 -61h-99l97 134h110z" />
    <glyph glyph-name="uni030A.case" 
d="M1 742q-40 0 -68.5 29.5t-28.5 68.5t28.5 68t68.5 29q39 0 68 -28.5t29 -68.5q0 -39 -29 -68.5t-68 -29.5zM1 805q14 0 24.5 10.5t10.5 24.5t-10.5 24.5t-24.5 10.5q-15 0 -25 -10.5t-10 -24.5t10 -24.5t25 -10.5z" />
    <glyph glyph-name="tildecomb.case" 
d="M65 773q-31 0 -67 17.5t-51 17.5q-32 0 -51 -39l-65 43q31 84 107 84q29 0 65 -17.5t55 -17.5q29 0 48 41l67 -45q-27 -84 -108 -84z" />
    <glyph glyph-name="uni0304.case" 
d="M-114 792v88h228v-88h-228z" />
    <glyph glyph-name="uni0327.case" 
d="M1 -227q-39 0 -66 21.5t-31 52.5l61 20q0 -15 10 -24.5t26 -9.5q14 0 24 9.5t10 24.5t-9.5 24t-24.5 9q-16 0 -23 -7l-48 27l47 88l58 -8l-23 -42q38 -2 63.5 -25t25.5 -61q0 -45 -27.5 -72t-72.5 -27z" />
    <glyph glyph-name="uni0328.case" 
d="M122 -185q-18 -2 -26 -2q-53 0 -83.5 25.5t-30.5 66.5q0 71 74 116l73 -21q-60 -31 -60 -73q0 -16 11.5 -27t34.5 -11h7v-74z" />
    <glyph glyph-name="uni0335.case" 
d="M-114 793v88h228v-88h-228z" />
    <glyph glyph-name="uni0338.case" 
d="M-418 -55l-84 60l527 741l84 -60z" />
    </font>
</defs>
</svg>
