<?xml version="1.0" standalone="no"?>
<!DOCTYPE svg PUBLIC "-//W3C//DTD SVG 1.1//EN" "http://www.w3.org/Graphics/SVG/1.1/DTD/svg11.dtd" >
<svg>
<metadata>
Created by FontForge 20090622 at Fri Nov  1 07:36:54 2019
 By deploy user
Copyright 2017 OMSE LTD. All rights reserved.
</metadata>
<defs>
<font id="ModernEra-Medium" horiz-adv-x="557" >
  <font-face 
    font-family="Modern Era Medium"
    font-weight="500"
    font-stretch="normal"
    units-per-em="1000"
    panose-1="2 0 0 0 0 0 0 0 0 0"
    ascent="785"
    descent="-215"
    x-height="495"
    cap-height="700"
    bbox="-431 -244 1097 929"
    underline-thickness="86"
    underline-position="-7"
    unicode-range="U+000D-U+FB02"
  />
<missing-glyph horiz-adv-x="828" 
d="M414 -14q-150 0 -257 106.5t-107 257.5t107 257.5t257 106.5q151 0 257.5 -106.5t106.5 -257.5t-106.5 -257.5t-257.5 -106.5zM414 51q124 0 212 87.5t88 211.5t-88 211.5t-212 87.5t-211.5 -87.5t-87.5 -211.5t87.5 -211.5t211.5 -87.5zM302 350q-25 0 -43.5 18
t-18.5 43t18 43.5t44 18.5q25 0 43 -18t18 -44q0 -25 -18 -43t-43 -18zM526 350q-25 0 -43 18t-18 43q0 26 18 44t43 18q26 0 44 -18.5t18 -43.5t-18.5 -43t-43.5 -18z" />
    <glyph glyph-name=".notdef" horiz-adv-x="828" 
d="M414 -14q-150 0 -257 106.5t-107 257.5t107 257.5t257 106.5q151 0 257.5 -106.5t106.5 -257.5t-106.5 -257.5t-257.5 -106.5zM414 51q124 0 212 87.5t88 211.5t-88 211.5t-212 87.5t-211.5 -87.5t-87.5 -211.5t87.5 -211.5t211.5 -87.5zM302 350q-25 0 -43.5 18
t-18.5 43t18 43.5t44 18.5q25 0 43 -18t18 -44q0 -25 -18 -43t-43 -18zM526 350q-25 0 -43 18t-18 43q0 26 18 44t43 18q26 0 44 -18.5t18 -43.5t-18.5 -43t-43.5 -18z" />
    <glyph glyph-name=".null" horiz-adv-x="0" 
 />
    <glyph glyph-name="nonmarkingreturn" horiz-adv-x="333" 
 />
    <glyph glyph-name="NULL" horiz-adv-x="0" 
 />
    <glyph glyph-name="NULL" horiz-adv-x="0" 
 />
    <glyph glyph-name="CR" unicode="&#xd;" horiz-adv-x="280" 
 />
    <glyph glyph-name="space" unicode=" " horiz-adv-x="280" 
 />
    <glyph glyph-name="exclam" unicode="!" horiz-adv-x="288" 
d="M94 190v510h100v-510h-100zM144 -7q-28 0 -47.5 20.5t-19.5 47.5q0 26 19.5 46t47.5 20q27 0 47 -20.5t20 -47.5t-20 -46.5t-47 -19.5z" />
    <glyph glyph-name="quotedbl" unicode="&#x22;" horiz-adv-x="328" 
d="M31 513v223h98v-223h-98zM199 513v223h98v-223h-98z" />
    <glyph glyph-name="numbersign" unicode="#" horiz-adv-x="761" 
d="M730 439h-151l-25 -179h143v-82h-154l-24 -178h-89l24 178h-196l-24 -178h-88l24 178h-139v82h150l25 179h-144v82h155l24 179h88l-24 -179h196l25 179h88l-24 -179h140v-82zM466 260l24 179h-196l-25 -179h197z" />
    <glyph glyph-name="dollar" unicode="$" horiz-adv-x="602" 
d="M560 193q0 -81 -57 -136t-148 -67v-68h-97v68q-171 23 -216 197l94 27q30 -112 122 -132v238q-95 23 -144 69.5t-49 123.5q0 79 53 132.5t140 66.5v66h97v-67q151 -22 192 -187l-93 -27q-24 102 -99 122v-221q105 -26 155 -74.5t50 -130.5zM165 513q0 -36 22.5 -57.5
t70.5 -35.5v200q-93 -22 -93 -107zM355 81q48 9 76.5 37.5t28.5 74.5q0 36 -21.5 61.5t-83.5 43.5v-217z" />
    <glyph glyph-name="percent" unicode="%" horiz-adv-x="755" 
d="M201 412q-63 0 -107 41.5t-44 105.5t42 106t103 42q63 0 107 -41.5t44 -106.5q0 -64 -41.5 -105.5t-103.5 -41.5zM88 0l478 700h96l-477 -700h-97zM201 480q32 0 54.5 22.5t22.5 56.5q0 37 -23 58.5t-58 21.5q-33 0 -54.5 -22t-21.5 -58q0 -35 23 -57t57 -22zM558 -7
q-63 0 -106 41.5t-43 105.5t42.5 106t103.5 42q63 0 106.5 -41.5t43.5 -106.5q0 -64 -42.5 -105.5t-104.5 -41.5zM560 61q32 0 54.5 23t22.5 56q0 37 -23 58.5t-57 21.5t-56 -21.5t-22 -58.5q0 -35 23 -57t58 -22z" />
    <glyph glyph-name="ampersand" unicode="&#x26;" horiz-adv-x="585" 
d="M564 416v-82h-69v-130q0 -96 -63 -157.5t-157 -61.5q-103 0 -168 60.5t-65 158.5q0 58 27 104t75 73q-64 53 -64 138t59.5 139.5t149.5 54.5q81 0 132.5 -39.5t65.5 -106.5l-89 -22q-8 38 -37.5 60t-70.5 22q-50 0 -83 -29t-33 -77t32.5 -76.5t82.5 -28.5h112v67h94v-67
h69zM401 204v130h-118q-59 0 -100 -35.5t-41 -94.5q0 -58 39.5 -93.5t94.5 -35.5q53 0 89 35.5t36 93.5z" />
    <glyph glyph-name="quotesingle" unicode="'" horiz-adv-x="160" 
d="M31 513v223h98v-223h-98z" />
    <glyph glyph-name="parenleft" unicode="(" horiz-adv-x="265" 
d="M166 -171q-54 80 -92 200.5t-38 270.5q0 151 38 271t93 198l78 -51q-47 -66 -80 -174.5t-33 -245.5q0 -134 33.5 -241.5t79.5 -175.5z" />
    <glyph glyph-name="parenright" unicode=")" horiz-adv-x="265" 
d="M99 -171l-79 52q46 68 79.5 175.5t33.5 241.5q0 137 -33 245.5t-80 174.5l78 51q55 -78 93 -198t38 -271q0 -150 -38 -270.5t-92 -200.5z" />
    <glyph glyph-name="asterisk" unicode="*" horiz-adv-x="436" 
d="M400 577l-123 -39l77 -105l-60 -44l-76 104l-77 -104l-60 44l77 105l-122 39l22 70l123 -40v129h73v-128l122 39z" />
    <glyph glyph-name="plus" unicode="+" horiz-adv-x="600" 
d="M254 100v205h-204v90h204v205h92v-205h204v-90h-204v-205h-92z" />
    <glyph glyph-name="comma" unicode="," horiz-adv-x="196" 
d="M40 -97q38 48 40 93q-49 17 -49 63q0 29 19.5 48.5t46.5 19.5q29 0 48.5 -19.5t19.5 -56.5q0 -42 -22 -94.5t-61 -88.5z" />
    <glyph glyph-name="hyphen" unicode="-" horiz-adv-x="361" 
d="M50 255v90h261v-90h-261z" />
    <glyph glyph-name="period" unicode="." horiz-adv-x="196" 
d="M98 -7q-28 0 -47.5 19.5t-19.5 47.5t19.5 47.5t47.5 19.5t47.5 -19.5t19.5 -47.5t-19.5 -47.5t-47.5 -19.5z" />
    <glyph glyph-name="slash" unicode="/" horiz-adv-x="430" 
d="M31 0l268 700h100l-268 -700h-100z" />
    <glyph glyph-name="zero" unicode="0" horiz-adv-x="603" 
d="M303 -14q-87 0 -146.5 50t-86 131t-26.5 186q0 159 65.5 260t192.5 101q85 0 144.5 -49.5t86 -129t26.5 -182.5q0 -162 -64.5 -264.5t-191.5 -102.5zM303 78q79 0 117.5 75t38.5 197q0 120 -39.5 196t-117.5 76q-80 0 -119.5 -76t-39.5 -196q0 -121 39.5 -196.5
t120.5 -75.5z" />
    <glyph glyph-name="one" unicode="1" horiz-adv-x="355" 
d="M167 0v590q-60 -39 -145 -51v98q73 13 145 63h100v-700h-100z" />
    <glyph glyph-name="two" unicode="2" horiz-adv-x="560" 
d="M57 0v93l234 206q44 38 65 60t40 59t19 77q0 54 -37.5 90.5t-96.5 36.5q-62 0 -103 -41t-41 -108l-93 27q4 96 72.5 155t164.5 59q101 0 167.5 -62t66.5 -156q0 -81 -38.5 -137t-115.5 -123l-163 -144h318v-92h-459z" />
    <glyph glyph-name="three" unicode="3" horiz-adv-x="580" 
d="M286 -14q-103 0 -171 59.5t-71 144.5l92 27q3 -59 45.5 -99t104.5 -40q66 0 108 40.5t42 101.5q0 63 -40.5 103t-109.5 40q-27 0 -51 -8l-51 62l187 191h-305v92h424v-92l-158 -165q91 -5 147.5 -64.5t56.5 -158.5q0 -100 -70.5 -167t-179.5 -67z" />
    <glyph glyph-name="four" unicode="4" horiz-adv-x="565" 
d="M345 0v183h-316v76l311 441h105v-431h91v-86h-91v-183h-100zM137 268l208 1v291z" />
    <glyph glyph-name="five" unicode="5" horiz-adv-x="580" 
d="M288 -14q-100 0 -169.5 57.5t-74.5 136.5l93 28q5 -58 47.5 -94t103.5 -36q66 0 107.5 41t41.5 105q0 63 -42 104t-107 41q-40 0 -73.5 -15.5t-50.5 -37.5l-89 31l38 353h377v-92h-293l-20 -186q45 34 117 34q107 0 174.5 -64.5t67.5 -167.5q0 -105 -71 -171.5
t-177 -66.5z" />
    <glyph glyph-name="six" unicode="6" horiz-adv-x="585" 
d="M296 -14q-124 0 -188 84.5t-64 241.5q0 194 60 298t199 104q89 0 143.5 -46.5t75.5 -125.5l-88 -27q-31 107 -131 107q-82 0 -116 -60.5t-38 -172.5q20 25 61 46t95 21q102 0 169 -64.5t67 -169.5t-69.5 -170.5t-175.5 -65.5zM296 78q64 0 104.5 40t40.5 105
q0 64 -40 103.5t-105 39.5q-63 0 -103.5 -40t-40.5 -103q0 -61 40.5 -103t103.5 -42z" />
    <glyph glyph-name="seven" unicode="7" horiz-adv-x="513" 
d="M144 0q26 141 94 318.5t134 289.5h-343v92h455v-92q-71 -111 -142.5 -288.5t-97.5 -319.5h-100z" />
    <glyph glyph-name="eight" unicode="8" horiz-adv-x="573" 
d="M432 378q97 -58 97 -174q0 -97 -68.5 -158t-173.5 -61q-107 0 -175 61t-68 158q0 115 98 174q-69 53 -69 141q0 85 60.5 139.5t153.5 54.5q92 0 153 -54.5t61 -139.5q0 -88 -69 -141zM171 521q0 -48 33 -76.5t83 -28.5q49 0 82.5 28.5t33.5 76.5t-33.5 77t-82.5 29
q-50 0 -83 -29t-33 -77zM287 75q60 0 101 35.5t41 93.5q0 60 -41 95t-101 35t-101.5 -35.5t-41.5 -94.5q0 -58 42 -93.5t101 -35.5z" />
    <glyph glyph-name="nine" unicode="9" horiz-adv-x="585" 
d="M289 714q124 0 188 -84.5t64 -241.5q0 -194 -60 -298t-199 -104q-89 0 -143.5 46.5t-75.5 125.5l88 27q31 -107 131 -107q82 0 116 60.5t38 172.5q-20 -25 -61 -46t-95 -21q-102 0 -169 64.5t-67 169.5t69.5 170.5t175.5 65.5zM289 622q-65 0 -105 -40t-40 -105
q0 -64 40 -103.5t105 -39.5q63 0 103.5 40t40.5 103q0 61 -40.5 103t-103.5 42z" />
    <glyph glyph-name="colon" unicode=":" horiz-adv-x="196" 
d="M98 294q-28 0 -47.5 19.5t-19.5 48.5q0 27 19.5 46.5t47.5 19.5t47.5 -19.5t19.5 -46.5q0 -28 -19.5 -48t-47.5 -20zM98 -7q-28 0 -47.5 19.5t-19.5 47.5t19.5 47.5t47.5 19.5t47.5 -19.5t19.5 -47.5t-19.5 -47.5t-47.5 -19.5z" />
    <glyph glyph-name="semicolon" unicode=";" horiz-adv-x="202" 
d="M104 294q-28 0 -47.5 19.5t-19.5 47.5q0 29 19.5 48t47.5 19t47.5 -19.5t19.5 -47.5t-19.5 -47.5t-47.5 -19.5zM40 -100q38 48 40 93q-49 17 -49 63q0 29 19.5 48.5t46.5 19.5q29 0 48.5 -19.5t19.5 -56.5q0 -42 -22 -94.5t-61 -88.5z" />
    <glyph glyph-name="less" unicode="&#x3c;" horiz-adv-x="600" 
d="M50 301v100l500 208v-100l-380 -158l380 -160v-100z" />
    <glyph glyph-name="equal" unicode="=" horiz-adv-x="600" 
d="M50 421v90h500v-90h-500zM50 189v90h500v-90h-500z" />
    <glyph glyph-name="greater" unicode="&#x3e;" horiz-adv-x="600" 
d="M50 609l500 -208v-100l-500 -210v100l380 160l-380 158v100z" />
    <glyph glyph-name="question" unicode="?" horiz-adv-x="518" 
d="M256 715q98 0 164.5 -61.5t66.5 -153.5q0 -78 -45 -137.5t-128 -80.5v-96h-99v164h18q75 0 115.5 41t42.5 104q0 55 -37.5 91.5t-95.5 36.5q-63 0 -99.5 -37t-37.5 -99l-90 24q5 91 67.5 147.5t157.5 56.5zM266 127q28 0 47.5 -19.5t19.5 -47.5t-19.5 -47.5t-47.5 -19.5
t-47.5 19.5t-19.5 47.5t19.5 47.5t47.5 19.5z" />
    <glyph glyph-name="at" unicode="@" horiz-adv-x="839" 
d="M421 612q162 0 262.5 -99.5t100.5 -261.5q0 -85 -43 -135t-116 -50q-81 0 -107 54q-52 -54 -120 -54q-70 0 -108.5 47.5t-38.5 115.5q0 76 46.5 134.5t126.5 58.5q66 0 101 -45l7 35h63l-19 -217v-10q-2 -20 10.5 -33t38.5 -13q39 0 61 32.5t22 79.5q0 133 -77.5 210.5
t-209.5 77.5q-124 0 -206.5 -84.5t-82.5 -208.5q0 -122 84 -207t205 -85q88 0 153 45l41 -59q-83 -59 -194 -59q-153 0 -259.5 105.5t-106.5 259.5q0 151 107 258.5t259 107.5zM409 137q47 0 75 36t28 82q0 40 -21.5 68t-62.5 28q-47 0 -75.5 -36.5t-28.5 -82.5
q0 -40 22 -67.5t63 -27.5z" />
    <glyph glyph-name="A" unicode="A" horiz-adv-x="671" 
d="M546 0l-66 177h-290l-65 -177h-103l262 700h103l262 -700h-103zM224 267h223l-112 301z" />
    <glyph glyph-name="B" unicode="B" horiz-adv-x="608" 
d="M77 0v700h253q101 0 154 -51.5t53 -133.5q0 -102 -87 -150v-2q45 -15 79 -54.5t34 -108.5q0 -88 -60.5 -144t-162.5 -56h-263zM177 398h150q55 0 83.5 30t28.5 81q0 48 -30 75.5t-82 27.5h-150v-214zM177 88h163q59 0 91 32.5t32 81.5q0 51 -32.5 81.5t-99.5 30.5h-154
v-226z" />
    <glyph glyph-name="C" unicode="C" horiz-adv-x="759" 
d="M407 -14q-156 0 -254 101t-98 263q0 158 98.5 261t250.5 103q113 0 194.5 -57t115.5 -160l-96 -32q-24 75 -78 116t-135 41q-108 0 -179 -77.5t-71 -194.5q0 -120 71 -196t182 -76q81 0 133.5 39t74.5 104l95 -31q-37 -97 -114 -150.5t-190 -53.5z" />
    <glyph glyph-name="D" unicode="D" horiz-adv-x="706" 
d="M77 0v700h229q73 0 132 -19t98 -51.5t65.5 -77.5t38 -94.5t11.5 -104.5q0 -151 -88 -252t-248 -101h-238zM177 90h133q65 0 113.5 22.5t75.5 61t39.5 83.5t12.5 97q0 256 -250 256h-124v-520z" />
    <glyph glyph-name="E" unicode="E" horiz-adv-x="559" 
d="M77 0v700h432v-90h-332v-213h290v-88h-290v-219h332v-90h-432z" />
    <glyph glyph-name="F" unicode="F" horiz-adv-x="559" 
d="M77 0v700h432v-90h-332v-230h292v-88h-292v-292h-100z" />
    <glyph glyph-name="G" unicode="G" horiz-adv-x="792" 
d="M408 -14q-155 0 -254 102t-99 262q0 155 100 259.5t251 104.5q112 0 187.5 -52t109.5 -141l-93 -32q-53 133 -200 133q-111 0 -183 -79t-72 -193q0 -118 71.5 -195t184.5 -77q71 0 121.5 32.5t72.5 79.5t24 102h-163v86h261v-378h-71l-15 92q-23 -37 -83 -71.5
t-150 -34.5z" />
    <glyph glyph-name="H" unicode="H" horiz-adv-x="689" 
d="M77 0v700h100v-297h335v297h100v-700h-100v311h-335v-311h-100z" />
    <glyph glyph-name="I" unicode="I" horiz-adv-x="254" 
d="M77 0v700h100v-700h-100z" />
    <glyph glyph-name="J" unicode="J" horiz-adv-x="516" 
d="M234 -14q-89 0 -145.5 51.5t-58.5 137.5v37l98 -18v-11q0 -47 28 -76t78 -29q52 0 79.5 32.5t27.5 90.5v499h100v-496q0 -107 -55.5 -162.5t-151.5 -55.5z" />
    <glyph glyph-name="K" unicode="K" horiz-adv-x="638" 
d="M492 0l-233 336l-83 -87v-249h-99v700h99v-313l296 313h130l-274 -290l288 -410h-124z" />
    <glyph glyph-name="L" unicode="L" horiz-adv-x="527" 
d="M77 0v700h100v-608h321v-92h-421z" />
    <glyph glyph-name="M" unicode="M" horiz-adv-x="872" 
d="M792 700l-1 -700h-99v515l-220 -515h-74l-218 513l-1 -513h-99v700h114l242 -566l241 566h115z" />
    <glyph glyph-name="N" unicode="N" horiz-adv-x="729" 
d="M80 0v700h105l363 -539v539h101v-700h-105l-364 538v-538h-100z" />
    <glyph glyph-name="O" unicode="O" horiz-adv-x="821" 
d="M411 -13q-158 0 -257 104t-99 260q0 155 99 259.5t257 104.5q157 0 256 -105t99 -259q0 -155 -99 -259.5t-256 -104.5zM411 79q114 0 184.5 76.5t70.5 195.5q0 117 -71.5 194.5t-183.5 77.5q-114 0 -185 -77t-71 -195q0 -120 70.5 -196t185.5 -76z" />
    <glyph glyph-name="P" unicode="P" horiz-adv-x="596" 
d="M77 0v700h236q106 0 171.5 -55.5t65.5 -161.5q0 -103 -66 -160t-167 -57h-140v-266h-100zM177 356h129q69 0 106.5 33t37.5 95q0 61 -38 93.5t-106 32.5h-129v-254z" />
    <glyph glyph-name="Q" unicode="Q" horiz-adv-x="821" 
d="M766 351q0 -138 -80 -238l77 -77l-67 -64l-78 78q-88 -63 -207 -63q-158 0 -257 104t-99 260q0 155 99 259.5t257 104.5q157 0 256 -105t99 -259zM411 79q80 0 139 39l-86 86l67 65l86 -87q49 70 49 169q0 117 -71.5 194.5t-183.5 77.5q-114 0 -185 -77t-71 -195
q0 -120 70.5 -196t185.5 -76z" />
    <glyph glyph-name="R" unicode="R" horiz-adv-x="621" 
d="M77 0v700h242q109 0 168.5 -57t59.5 -147q0 -80 -42 -130.5t-104 -67.5l174 -298h-110l-165 285h-123v-285h-100zM177 373h140q60 0 95 31t35 88q0 59 -36 88.5t-96 29.5h-138v-237z" />
    <glyph glyph-name="S" unicode="S" horiz-adv-x="602" 
d="M307 -13q-104 0 -172 50.5t-93 149.5l94 27q18 -70 59 -103.5t112 -33.5q68 0 110.5 30t42.5 86q0 42 -30.5 70.5t-120.5 45.5q-120 21 -182 69.5t-62 134.5q0 90 68 146t174 56q96 0 156.5 -50t83.5 -141l-93 -27q-15 63 -50 95.5t-97 32.5q-64 0 -103 -29.5t-39 -82.5
q0 -47 38 -70t123 -39q120 -25 177 -74.5t57 -136.5q0 -93 -72 -149.5t-181 -56.5z" />
    <glyph glyph-name="T" unicode="T" horiz-adv-x="575" 
d="M237 0v608h-208v92h517v-92h-209v-608h-100z" />
    <glyph glyph-name="U" unicode="U" horiz-adv-x="685" 
d="M343 -14q-119 0 -192.5 69.5t-73.5 207.5v437h100v-432q0 -190 166 -190q78 0 121.5 46.5t43.5 143.5v432h100v-438q0 -139 -73 -207.5t-192 -68.5z" />
    <glyph glyph-name="V" unicode="V" horiz-adv-x="669" 
d="M542 700h105l-259 -700h-107l-259 700h106l207 -572z" />
    <glyph glyph-name="W" unicode="W" horiz-adv-x="940" 
d="M816 700h102l-197 -700h-101l-150 556l-150 -556h-101l-197 700h103l148 -549l147 549h102l147 -547z" />
    <glyph glyph-name="X" unicode="X" horiz-adv-x="658" 
d="M636 0h-118l-189 278l-188 -278h-119l242 356l-232 344h118l179 -266l180 266h118l-231 -343z" />
    <glyph glyph-name="Y" unicode="Y" horiz-adv-x="623" 
d="M262 0v279l-240 421h109l180 -322l181 322h109l-239 -421v-279h-100z" />
    <glyph glyph-name="Z" unicode="Z" horiz-adv-x="615" 
d="M43 0v88l405 522h-377v90h500v-88l-404 -522h400v-90h-524z" />
    <glyph glyph-name="bracketleft" unicode="[" horiz-adv-x="232" 
d="M36 -171v940h160v-88h-68v-764h68v-88h-160z" />
    <glyph glyph-name="backslash" unicode="\" horiz-adv-x="420" 
d="M389 0h-100l-268 700h100z" />
    <glyph glyph-name="bracketright" unicode="]" horiz-adv-x="232" 
d="M36 -171v88h68v764h-68v88h160v-940h-160z" />
    <glyph glyph-name="asciicircum" unicode="^" horiz-adv-x="629" 
d="M579 350h-110l-154 259l-155 -259h-110l210 350h109z" />
    <glyph glyph-name="underscore" unicode="_" horiz-adv-x="500" 
d="M0 -136v86h500v-86h-500z" />
    <glyph glyph-name="grave" unicode="`" 
d="M232 569l-107 126h127l67 -126h-87z" />
    <glyph glyph-name="a" unicode="a" horiz-adv-x="507" 
d="M213 -14q-77 0 -124 42.5t-47 108.5q0 64 44.5 105.5t148.5 56.5l119 17v11q0 101 -106 101q-96 0 -111 -90l-87 21q36 149 200 149q91 0 146.5 -46t55.5 -134v-328h-83l-10 48q-45 -62 -146 -62zM237 67q49 0 83 28t34 81v65l-111 -17q-53 -8 -79.5 -26.5t-26.5 -55.5
q0 -34 27 -54.5t73 -20.5z" />
    <glyph glyph-name="b" unicode="b" horiz-adv-x="606" 
d="M326 -13q-109 0 -167 80l-13 -67h-81v700h98v-269q58 78 164 78q108 0 172.5 -76.5t64.5 -184.5q0 -106 -67 -183.5t-171 -77.5zM314 75q66 0 109 49t43 124q0 76 -43 124.5t-109 48.5q-67 0 -109.5 -48.5t-42.5 -124.5q0 -75 42.5 -124t109.5 -49z" />
    <glyph glyph-name="c" unicode="c" horiz-adv-x="558" 
d="M295 -14q-113 0 -183 76.5t-70 184.5q0 109 70.5 185.5t182.5 76.5q82 0 139 -42t80 -112l-90 -30q-14 44 -48 69t-81 25q-68 0 -111.5 -48.5t-43.5 -123.5q0 -74 43.5 -122.5t111.5 -48.5q46 0 80 25t49 68l89 -30q-26 -69 -82.5 -111t-135.5 -42z" />
    <glyph glyph-name="d" unicode="d" horiz-adv-x="606" 
d="M280 -13q-104 0 -171 77.5t-67 183.5q0 108 64.5 184.5t172.5 76.5q106 0 164 -78v269h98v-700h-81l-13 67q-58 -80 -167 -80zM292 75q67 0 109 48.5t42 124.5t-42 124.5t-109 48.5t-109.5 -48.5t-42.5 -124.5q0 -75 42.5 -124t109.5 -49z" />
    <glyph glyph-name="e" unicode="e" horiz-adv-x="564" 
d="M522 217h-385q4 -62 46.5 -105.5t106.5 -43.5q52 0 87.5 25.5t47.5 60.5l84 -27q-22 -62 -78 -101.5t-141 -39.5q-108 0 -178 75t-70 187q0 110 71 185t176 75q106 0 169.5 -69t63.5 -183v-39zM434 294q-4 53 -43 92.5t-101 39.5q-63 0 -103 -38t-49 -94h296z" />
    <glyph glyph-name="f" unicode="f" horiz-adv-x="362" 
d="M107 0v407h-87v88h87v82q0 63 37 100.5t95 37.5q79 0 115 -41l-48 -67q-15 19 -48 19q-53 0 -53 -60v-71h135v-88h-135v-407h-98z" />
    <glyph glyph-name="g" unicode="g" horiz-adv-x="601" 
d="M288 -218q-92 0 -147.5 43t-76.5 116l92 22q25 -97 132 -97q73 0 111.5 37t38.5 104v74q-21 -34 -63 -57.5t-98 -23.5q-107 0 -171 73.5t-64 179.5q0 105 65 180.5t169 75.5q109 0 162 -79l16 65h82v-486q0 -99 -63 -163t-185 -64zM290 88q65 0 106.5 45.5t41.5 119.5
q0 75 -41.5 121.5t-107.5 46.5t-107.5 -46.5t-41.5 -121.5q0 -74 41.5 -119.5t108.5 -45.5z" />
    <glyph glyph-name="h" unicode="h" horiz-adv-x="556" 
d="M65 0v700h97v-265q56 74 156 74q82 0 127.5 -49t45.5 -149v-311h-98v294q0 68 -28 95.5t-78 27.5q-52 0 -88.5 -38t-36.5 -104v-275h-97z" />
    <glyph glyph-name="i" unicode="i" horiz-adv-x="238" 
d="M120 568q-27 0 -46 18.5t-19 45.5q0 26 19 45t46 19q26 0 44.5 -19t18.5 -45q0 -27 -18.5 -45.5t-44.5 -18.5zM70 0v495h98v-495h-98z" />
    <glyph glyph-name="j" unicode="j" horiz-adv-x="246" 
d="M129 568q-27 0 -46 18.5t-19 45.5q0 26 19 45t46 19q26 0 44.5 -19t18.5 -45q0 -27 -18.5 -45.5t-44.5 -18.5zM45 -219q-74 0 -107 38l45 70q16 -18 46 -18q50 0 50 60v564h98v-575q0 -63 -37.5 -101t-94.5 -38z" />
    <glyph glyph-name="k" unicode="k" horiz-adv-x="510" 
d="M382 0l-163 231l-56 -59v-172h-98v700h98v-401l188 196h120l-187 -196l210 -299h-112z" />
    <glyph glyph-name="l" unicode="l" horiz-adv-x="228" 
d="M65 0v700h98v-700h-98z" />
    <glyph glyph-name="m" unicode="m" horiz-adv-x="846" 
d="M65 0v495h81l14 -63q55 77 156 77t139 -81q60 81 165 81q72 0 116.5 -45t44.5 -135v-329h-98v298q0 65 -25 92t-72 27q-49 0 -81.5 -36t-32.5 -101v-280h-98v298q0 119 -96 119q-49 0 -82 -36t-33 -101v-280h-98z" />
    <glyph glyph-name="n" unicode="n" 
d="M65 0v495h81l15 -63q57 77 157 77q82 0 128 -49t46 -149v-311h-98v294q0 68 -28 95.5t-78 27.5q-53 0 -89 -37.5t-36 -103.5v-276h-98z" />
    <glyph glyph-name="o" unicode="o" horiz-adv-x="594" 
d="M297 -14q-113 0 -184 77t-71 184q0 108 71.5 185t183.5 77t183.5 -77t71.5 -185q0 -106 -71.5 -183.5t-183.5 -77.5zM297 76q68 0 112.5 48.5t44.5 122.5t-44.5 123t-112.5 49q-69 0 -113 -48.5t-44 -123.5q0 -74 44 -122.5t113 -48.5z" />
    <glyph glyph-name="p" unicode="p" horiz-adv-x="606" 
d="M326 508q104 0 171 -77.5t67 -183.5q0 -108 -64.5 -184.5t-172.5 -76.5q-106 0 -164 78v-269h-98v700h81l13 -67q59 80 167 80zM314 420q-67 0 -109.5 -49t-42.5 -124q0 -76 42.5 -124.5t109.5 -48.5q66 0 109 48.5t43 124.5q0 75 -43 124t-109 49z" />
    <glyph glyph-name="q" unicode="q" horiz-adv-x="606" 
d="M280 508q108 0 167 -80l13 67h81v-700h-98v269q-58 -78 -164 -78q-108 0 -172.5 76.5t-64.5 184.5q0 106 67 183.5t171 77.5zM292 420q-67 0 -109.5 -49t-42.5 -124q0 -76 42.5 -124.5t109.5 -48.5t109 48.5t42 124.5t-42 124.5t-109 48.5z" />
    <glyph glyph-name="r" unicode="r" horiz-adv-x="387" 
d="M65 0v495h81l15 -62q18 32 51.5 54t77.5 22q56 0 89 -25l-38 -86q-22 18 -64 18q-49 0 -81.5 -38.5t-32.5 -103.5v-274h-98z" />
    <glyph glyph-name="s" unicode="s" horiz-adv-x="484" 
d="M246 -14q-163 0 -204 150l88 27q12 -42 37.5 -68t78.5 -26q46 0 74.5 18.5t28.5 50.5q0 24 -21 41.5t-83 28.5q-42 8 -72 17.5t-57.5 26.5t-42 43.5t-14.5 62.5q0 67 52.5 108.5t134.5 41.5q75 0 123.5 -37.5t63.5 -105.5l-87 -25q-19 85 -100 85q-48 0 -71 -18.5
t-23 -44.5q0 -29 27 -43.5t83 -24.5q88 -17 134 -51.5t46 -103.5q0 -67 -55 -110t-141 -43z" />
    <glyph glyph-name="t" unicode="t" horiz-adv-x="373" 
d="M240 -14q-58 0 -94.5 36t-36.5 101v284h-89v88h89v129h98v-129h134v-88h-134v-272q0 -58 52 -58q29 0 48 19l45 -70q-35 -40 -112 -40z" />
    <glyph glyph-name="u" unicode="u" 
d="M492 495v-495h-81l-15 63q-57 -77 -157 -77q-82 0 -128 48.5t-46 148.5v312h98v-295q0 -123 106 -123q53 0 89 37.5t36 103.5v277h98z" />
    <glyph glyph-name="v" unicode="v" horiz-adv-x="513" 
d="M397 495h100l-188 -495h-104l-189 495h101l140 -384z" />
    <glyph glyph-name="w" unicode="w" horiz-adv-x="759" 
d="M644 495h99l-153 -495h-101l-109 373l-110 -373h-101l-153 495h99l107 -378l109 378h96l110 -377z" />
    <glyph glyph-name="x" unicode="x" horiz-adv-x="504" 
d="M488 0h-109l-127 178l-128 -178h-108l180 249l-176 246h109l123 -174l123 174h108l-175 -245z" />
    <glyph glyph-name="y" unicode="y" horiz-adv-x="569" 
d="M406 495h98v-486q0 -99 -57.5 -163t-168.5 -64q-87 0 -140 42.5t-73 115.5l92 20q22 -93 121 -93q63 0 95.5 37t32.5 103v68q-30 -37 -67 -55.5t-93 -18.5q-79 0 -129 48.5t-50 146.5v299h98v-277q0 -126 111 -126q57 0 93.5 37.5t36.5 104.5v261z" />
    <glyph glyph-name="z" unicode="z" horiz-adv-x="469" 
d="M41 0v77l264 334h-256v84h376v-77l-265 -335h268l-1 -83h-386z" />
    <glyph glyph-name="braceleft" unicode="{" horiz-adv-x="278" 
d="M242 -171h-45q-43 0 -75.5 28.5t-32.5 80.5v260q0 57 -53 57v93q53 0 53 57v255q0 52 32.5 80.5t75.5 28.5h45v-88h-22q-35 -1 -35 -55v-249q0 -51 -31 -77q31 -26 31 -76v-252q0 -54 35 -55h22v-88z" />
    <glyph glyph-name="bar" unicode="|" horiz-adv-x="200" 
d="M50 -171v940h100v-940h-100z" />
    <glyph glyph-name="braceright" unicode="}" horiz-adv-x="278" 
d="M36 -171v88h22q35 1 35 55v252q0 50 31 76q-31 26 -31 77v249q0 54 -35 55h-22v88h45q43 0 75.5 -28.5t32.5 -80.5v-255q0 -57 53 -57v-93q-53 0 -53 -57v-260q0 -52 -32.5 -80.5t-75.5 -28.5h-45z" />
    <glyph glyph-name="asciitilde" unicode="~" horiz-adv-x="600" 
d="M410 280q-43 0 -116.5 27t-100.5 27q-45 0 -82 -53l-64 53q58 87 141 87q44 0 116 -26.5t102 -26.5q43 0 78 51l68 -52q-57 -87 -142 -87z" />
    <glyph glyph-name="uni00A0" unicode="&#xa0;" horiz-adv-x="280" 
 />
    <glyph glyph-name="exclamdown" unicode="&#xa1;" horiz-adv-x="288" 
d="M144 502q27 0 47 -19.5t20 -46.5t-20 -47.5t-47 -20.5q-28 0 -47.5 20t-19.5 46q0 27 19.5 47.5t47.5 20.5zM94 305h100v-510h-100v510z" />
    <glyph glyph-name="cent" unicode="&#xa2;" horiz-adv-x="558" 
d="M295 177q46 0 80 25t49 68l89 -30q-22 -59 -66.5 -98.5t-107.5 -50.5v-81h-99v82q-90 18 -144 90t-54 166t54 166t144 91v86h99v-84q65 -11 110 -51t65 -100l-90 -30q-14 44 -48 69t-81 25q-68 0 -111.5 -48.5t-43.5 -123.5q0 -74 43.5 -122.5t111.5 -48.5z" />
    <glyph glyph-name="sterling" unicode="&#xa3;" horiz-adv-x="525" 
d="M193 90h317v-90h-490v90h73v213h-73v88h73v105q0 105 58 161.5t149 56.5q87 0 138 -43.5t62 -113.5l-91 -18q-6 34 -33.5 58.5t-75.5 24.5t-77.5 -32t-29.5 -90v-109h231v-88h-231v-213z" />
    <glyph glyph-name="currency" unicode="&#xa4;" horiz-adv-x="602" 
d="M527 352q0 -68 -37 -125l70 -72l-65 -64l-71 70q-54 -35 -122 -35q-71 0 -125 35l-71 -70l-64 64l70 72q-35 55 -35 125q0 67 35 122l-70 70l64 64l69 -68q55 38 127 38q73 0 126 -36l67 66l65 -64l-68 -68q35 -56 35 -124zM302 216q57 0 93.5 38t36.5 98t-36.5 98
t-93.5 38q-58 0 -94.5 -38t-36.5 -98q0 -59 36.5 -97.5t94.5 -38.5z" />
    <glyph glyph-name="yen" unicode="&#xa5;" horiz-adv-x="623" 
d="M601 700l-194 -342h116v-82h-161v-72h161v-82h-161v-122h-100v122h-162v82h162v72h-162v82h117l-195 342h109l180 -322l181 322h109z" />
    <glyph glyph-name="brokenbar" unicode="&#xa6;" horiz-adv-x="200" 
d="M50 360v409h100v-409h-100zM50 -171v411h100v-411h-100z" />
    <glyph glyph-name="section" unicode="&#xa7;" horiz-adv-x="487" 
d="M397 244q48 -38 48 -105t-55.5 -110t-142.5 -43q-79 0 -132.5 37t-72.5 103l84 27q27 -88 121 -88q47 0 75.5 19t28.5 52q0 25 -22 43t-83 28q-89 16 -138.5 49t-49.5 102q0 64 48 104q-48 37 -48 102q0 67 53 108.5t136 41.5q73 0 121.5 -35t66.5 -100l-83 -22
q-22 77 -104 77q-50 0 -73 -19t-23 -47q0 -29 27.5 -44t83.5 -25q89 -17 135.5 -51.5t46.5 -103.5q0 -60 -48 -100zM152 363q0 -29 27 -44t84 -26q28 -5 47 -10q41 18 41 59q0 53 -105 71l-46 9q-48 -14 -48 -59z" />
    <glyph glyph-name="dieresis" unicode="&#xa8;" 
d="M195 568q-26 0 -45 19t-19 45t19 45t45 19t45 -19t19 -45t-19 -45t-45 -19zM363 568q-26 0 -45 19t-19 45t19 45t45 19t45 -19t19 -45t-19 -45t-45 -19z" />
    <glyph glyph-name="copyright" unicode="&#xa9;" horiz-adv-x="828" 
d="M414 -13q-151 0 -257.5 106.5t-106.5 257.5t106.5 257.5t257.5 106.5t257.5 -106.5t106.5 -257.5t-106.5 -257.5t-257.5 -106.5zM414 54q123 0 210 87t87 210t-87 210t-210 87t-210 -87t-87 -210t87 -210t210 -87zM413 154q-83 0 -136 54.5t-53 142.5q0 86 52.5 141.5
t135.5 55.5q61 0 105.5 -30.5t63.5 -87.5l-66 -21q-24 75 -103 75q-52 0 -86 -38t-34 -95q0 -59 34.5 -96t87.5 -37q76 0 100 68l65 -21q-43 -111 -166 -111z" />
    <glyph glyph-name="ordfeminine" unicode="&#xaa;" horiz-adv-x="342" 
d="M145 377q-52 0 -85.5 29.5t-33.5 77.5q0 90 136 110l78 12v8q0 66 -69 66q-63 0 -73 -59l-66 16q24 104 141 104q62 0 102 -32t40 -95l1 -227h-64l-8 32q-32 -42 -99 -42zM164 439q33 0 54.5 18t21.5 52v44l-73 -10q-68 -11 -68 -55q0 -22 17.5 -35.5t47.5 -13.5z" />
    <glyph glyph-name="guillemotleft" unicode="&#xab;" horiz-adv-x="498" 
d="M143 485h102l-93 -184l93 -186h-101l-94 186zM448 485l-93 -184l93 -186h-101l-94 186l93 184h102z" />
    <glyph glyph-name="logicalnot" unicode="&#xac;" horiz-adv-x="600" 
d="M551 470v-240h-96v150h-407v90h503z" />
    <glyph glyph-name="uni00AD" unicode="&#xad;" horiz-adv-x="600" 
d="M51 255v90h261v-90h-261z" />
    <glyph glyph-name="registered" unicode="&#xae;" horiz-adv-x="436" 
d="M218 344q-75 0 -128.5 53t-53.5 129q0 75 53.5 128.5t128.5 53.5t128.5 -53.5t53.5 -128.5q0 -76 -53.5 -129t-128.5 -53zM218 386q58 0 98.5 41t40.5 99t-40.5 98.5t-98.5 40.5t-99 -40.5t-41 -98.5t41 -99t99 -41zM156 433v185h73q27 0 43.5 -16t16.5 -39
q0 -41 -32 -56l35 -74h-45l-30 68h-20v-68h-41zM197 537h27q12 0 18.5 6.5t6.5 15.5q0 22 -25 22h-27v-44z" />
    <glyph glyph-name="macron" unicode="&#xaf;" 
d="M172 594v76h212v-76h-212z" />
    <glyph glyph-name="degree" unicode="&#xb0;" horiz-adv-x="369" 
d="M184 411q-62 0 -105 43.5t-43 104.5q0 62 43 105.5t105 43.5t105.5 -43.5t43.5 -105.5t-43.5 -105t-105.5 -43zM184 480q34 0 57 23t23 56t-23 56t-57 23q-33 0 -56 -23t-23 -56t23 -56t56 -23z" />
    <glyph glyph-name="plusminus" unicode="&#xb1;" horiz-adv-x="600" 
d="M254 199v205h-204v90h204v205h92v-205h204v-90h-204v-205h-92zM52 50v90h500v-90h-500z" />
    <glyph glyph-name="uni00B2" unicode="&#xb2;" horiz-adv-x="315" 
d="M43 436v65l119 102q26 24 36.5 40t10.5 37q0 20 -14.5 34.5t-37.5 14.5q-26 0 -42 -17t-15 -46l-64 18q2 49 36.5 79t84.5 30q51 0 86.5 -32t35.5 -80q0 -37 -17 -64.5t-51 -57.5l-69 -58h137v-65h-236z" />
    <glyph glyph-name="uni00B3" unicode="&#xb3;" horiz-adv-x="325" 
d="M160 429q-54 0 -88.5 30.5t-35.5 74.5l64 18q1 -25 17.5 -41.5t42.5 -16.5t43 15.5t17 40.5t-16.5 41t-43.5 16q-10 0 -21 -3l-35 41l81 77h-136v64h217v-64l-62 -62q36 -6 60.5 -34t24.5 -76q0 -53 -36.5 -87t-92.5 -34z" />
    <glyph glyph-name="acute" unicode="&#xb4;" 
d="M222 569l67 126h127l-107 -126h-87z" />
    <glyph glyph-name="uni00B5" unicode="&#xb5;" 
d="M394 495h98v-495h-81l-15 63q-57 -77 -157 -77q-44 0 -76 13v-204h-98v700h98v-295q0 -123 106 -123q53 0 89 37.5t36 103.5v277z" />
    <glyph glyph-name="paragraph" unicode="&#xb6;" horiz-adv-x="618" 
d="M589 700v-78h-90v-827h-87l-1 827h-95v-827h-87v505q-83 0 -141.5 59t-58.5 141q0 83 58.5 141.5t141.5 58.5h360z" />
    <glyph glyph-name="periodcentered" unicode="&#xb7;" horiz-adv-x="196" 
d="M98 233q-28 0 -47.5 19.5t-19.5 47.5t19.5 47.5t47.5 19.5t47.5 -19.5t19.5 -47.5t-19.5 -47.5t-47.5 -19.5z" />
    <glyph glyph-name="cedilla" unicode="&#xb8;" 
d="M272 -217q-38 0 -63.5 20.5t-28.5 50.5l55 19q0 -16 10 -25.5t27 -9.5q15 0 25 9.5t10 25.5q0 15 -10 24t-25 9q-16 0 -23 -7l-43 25l45 84l53 -8l-22 -42q36 -1 60.5 -23t24.5 -58q0 -43 -26 -68.5t-69 -25.5z" />
    <glyph glyph-name="uni00B9" unicode="&#xb9;" horiz-adv-x="209" 
d="M87 436v273q-29 -20 -69 -24v68q41 10 69 33h68v-350h-68z" />
    <glyph glyph-name="ordmasculine" unicode="&#xba;" horiz-adv-x="416" 
d="M208 381q-80 0 -129 54t-49 128q0 75 49.5 128.5t128.5 53.5t128.5 -53.5t49.5 -128.5q0 -74 -49.5 -128t-128.5 -54zM208 443q48 0 79.5 34t31.5 86t-31.5 86.5t-79.5 34.5q-49 0 -80 -34t-31 -87q0 -52 31 -86t80 -34z" />
    <glyph glyph-name="guillemotright" unicode="&#xbb;" horiz-adv-x="498" 
d="M50 485h102l93 -184l-94 -186h-101l93 186zM355 485l93 -184l-94 -186h-101l93 186l-93 184h102z" />
    <glyph glyph-name="onequarter" unicode="&#xbc;" horiz-adv-x="784" 
d="M146 -7l-54 44l563 670l54 -43zM134 350v273q-29 -20 -69 -24v68q41 10 69 33h68v-350h-68zM612 0l1 87h-156v50l150 213h74v-205h37v-58h-37v-87h-69zM532 145h81l-1 111z" />
    <glyph glyph-name="onehalf" unicode="&#xbd;" horiz-adv-x="813" 
d="M134 -7l-54 44l563 670l54 -43zM134 350v273q-29 -20 -69 -24v68q41 10 69 33h68v-350h-68zM513 0v65l119 102q26 24 36.5 40t10.5 37q0 20 -14.5 34.5t-37.5 14.5q-26 0 -42 -17t-15 -46l-64 18q2 49 36.5 79t84.5 30q51 0 86.5 -32t35.5 -80q0 -37 -17 -64.5t-51 -57.5
l-69 -58h137v-65h-236z" />
    <glyph glyph-name="threequarters" unicode="&#xbe;" horiz-adv-x="818" 
d="M179 -7l-54 44l563 670l54 -43zM189 343q-54 0 -88.5 30.5t-35.5 74.5l64 18q1 -25 17.5 -41.5t42.5 -16.5t43 15.5t17 40.5t-16.5 41t-43.5 16q-11 0 -21 -3l-35 41l81 77h-136v64h217v-64l-62 -62q36 -6 60.5 -34t24.5 -76q0 -53 -36.5 -87t-92.5 -34zM646 0l1 87h-156
v50l150 213h74v-205h37v-58h-37v-87h-69zM566 145h81l-1 111z" />
    <glyph glyph-name="questiondown" unicode="&#xbf;" horiz-adv-x="518" 
d="M252 368q-28 0 -47.5 19.5t-19.5 47.5t19.5 47.5t47.5 19.5t47.5 -19.5t19.5 -47.5t-19.5 -47.5t-47.5 -19.5zM397 8l90 -24q-5 -91 -67.5 -147.5t-157.5 -56.5q-98 0 -164.5 61.5t-66.5 153.5q0 78 45 137.5t128 80.5v96h99v-164h-18q-75 0 -115.5 -41t-42.5 -104
q0 -55 37.5 -91.5t95.5 -36.5q63 0 99.5 37t37.5 99z" />
    <glyph glyph-name="Agrave" unicode="&#xc0;" horiz-adv-x="671" 
d="M381 771h-87l-107 126h127zM546 0l-66 177h-290l-65 -177h-103l262 700h103l262 -700h-103zM224 267h223l-112 301z" />
    <glyph glyph-name="Aacute" unicode="&#xc1;" horiz-adv-x="671" 
d="M485 897l-107 -126h-87l67 126h127zM546 0l-66 177h-290l-65 -177h-103l262 700h103l262 -700h-103zM224 267h223l-112 301z" />
    <glyph glyph-name="Acircumflex" unicode="&#xc2;" horiz-adv-x="671" 
d="M336 834l-56 -63h-86l90 126h103l90 -126h-85zM546 0l-66 177h-290l-65 -177h-103l262 700h103l262 -700h-103zM224 267h223l-112 301z" />
    <glyph glyph-name="Atilde" unicode="&#xc3;" horiz-adv-x="671" 
d="M282 813q-30 0 -48 -37l-55 37q28 75 96 75q29 0 64.5 -18t53.5 -18q27 0 47 40l57 -39q-28 -76 -99 -76q-30 0 -65 18t-51 18zM546 0l-66 177h-290l-65 -177h-103l262 700h103l262 -700h-103zM224 267h223l-112 301z" />
    <glyph glyph-name="Adieresis" unicode="&#xc4;" horiz-adv-x="671" 
d="M249 770q-26 0 -45.5 19t-19.5 45t19.5 45t45.5 19t45 -19t19 -45t-19 -45t-45 -19zM423 770q-26 0 -45 19t-19 45t19 45t45 19q27 0 45.5 -19t18.5 -45t-18.5 -45t-45.5 -19zM546 0l-66 177h-290l-65 -177h-103l262 700h103l262 -700h-103zM224 267h223l-112 301z" />
    <glyph glyph-name="Aring" unicode="&#xc5;" horiz-adv-x="671" 
d="M334 742q-37 0 -64 27t-27 65t27 65t64 27q38 0 65 -27t27 -65t-27 -65t-65 -27zM334 868q-14 0 -24 -10t-10 -24t10 -24t24 -10t24 10t10 24t-10 24t-24 10zM546 0l-66 177h-290l-65 -177h-103l262 700h103l262 -700h-103zM224 267h223l-112 301z" />
    <glyph glyph-name="AE" unicode="&#xc6;" horiz-adv-x="986" 
d="M936 610h-332v-213h290v-88h-290v-219h332v-90h-432v160h-268l-107 -160h-107l467 700h447v-90zM294 248h210v315z" />
    <glyph glyph-name="Ccedilla" unicode="&#xc7;" horiz-adv-x="759" 
d="M408 78q81 0 133.5 39t74.5 104l95 -31q-35 -92 -106 -145t-175 -58l-15 -29q36 -1 60 -23t24 -58q0 -43 -26 -68.5t-69 -25.5q-37 0 -63 20.5t-28 50.5l55 19q0 -35 36 -35q16 0 25.5 9.5t9.5 25.5q0 15 -10 24t-25 9t-22 -7l-44 25l34 63q-142 12 -229.5 111t-87.5 252
q0 158 98.5 261t250.5 103q113 0 194.5 -57t115.5 -160l-96 -32q-24 75 -78 116t-135 41q-108 0 -179 -77.5t-71 -194.5q0 -120 71 -196t182 -76z" />
    <glyph glyph-name="Egrave" unicode="&#xc8;" horiz-adv-x="559" 
d="M265 771l-107 126h127l67 -126h-87zM77 0v700h432v-90h-332v-213h290v-88h-290v-219h332v-90h-432z" />
    <glyph glyph-name="Eacute" unicode="&#xc9;" horiz-adv-x="559" 
d="M262 771l67 126h127l-107 -126h-87zM77 0v700h432v-90h-332v-213h290v-88h-290v-219h332v-90h-432z" />
    <glyph glyph-name="Ecircumflex" unicode="&#xca;" horiz-adv-x="559" 
d="M307 834l-56 -63h-86l90 126h103l90 -126h-85zM509 610h-332v-213h290v-88h-290v-219h332v-90h-432v700h432v-90z" />
    <glyph glyph-name="Edieresis" unicode="&#xcb;" horiz-adv-x="559" 
d="M220 770q-26 0 -45.5 19t-19.5 45t19.5 45t45.5 19t45 -19t19 -45t-19 -45t-45 -19zM394 770q-26 0 -45 19t-19 45t19 45t45 19q27 0 45.5 -19t18.5 -45t-18.5 -45t-45.5 -19zM77 0v700h432v-90h-332v-213h290v-88h-290v-219h332v-90h-432z" />
    <glyph glyph-name="Igrave" unicode="&#xcc;" horiz-adv-x="254" 
d="M85 771l-107 126h127l67 -126h-87zM77 0v700h100v-700h-100z" />
    <glyph glyph-name="Iacute" unicode="&#xcd;" horiz-adv-x="254" 
d="M82 771l67 126h127l-107 -126h-87zM77 0v700h100v-700h-100z" />
    <glyph glyph-name="Icircumflex" unicode="&#xce;" horiz-adv-x="254" 
d="M178 897l90 -126h-85l-56 63l-56 -63h-86l90 126h103zM77 0v700h100v-700h-100z" />
    <glyph glyph-name="Idieresis" unicode="&#xcf;" horiz-adv-x="254" 
d="M43 773q-26 0 -45 19t-19 45t19 45t45 19t45 -19t19 -45t-19 -45t-45 -19zM211 773q-26 0 -45 19t-19 45t19 45t45 19t45 -19t19 -45t-19 -45t-45 -19zM77 0v700h100v-700h-100z" />
    <glyph glyph-name="Eth" unicode="&#xd0;" horiz-adv-x="706" 
d="M306 700q73 0 132 -19t98 -51.5t65.5 -77.5t38 -94.5t11.5 -104.5q0 -151 -88 -252t-248 -101h-238v311h-75v81h75v308h229zM310 90q65 0 113.5 22.5t75.5 61t39.5 83.5t12.5 97q0 256 -250 256h-124v-218h152v-81h-152v-221h133z" />
    <glyph glyph-name="Ntilde" unicode="&#xd1;" horiz-adv-x="729" 
d="M433 777q-31 0 -66 18t-50 18q-30 0 -48 -37l-55 37q28 75 96 75q29 0 64.5 -18t53.5 -18q27 0 47 40l57 -39q-28 -76 -99 -76zM80 0v700h105l363 -539v539h101v-700h-105l-364 538v-538h-100z" />
    <glyph glyph-name="Ograve" unicode="&#xd2;" horiz-adv-x="821" 
d="M369 771l-107 126h127l67 -126h-87zM411 -13q-158 0 -257 104t-99 260q0 155 99 259.5t257 104.5q157 0 256 -105t99 -259q0 -155 -99 -259.5t-256 -104.5zM411 79q114 0 184.5 76.5t70.5 195.5q0 117 -71.5 194.5t-183.5 77.5q-114 0 -185 -77t-71 -195
q0 -120 70.5 -196t185.5 -76z" />
    <glyph glyph-name="Oacute" unicode="&#xd3;" horiz-adv-x="821" 
d="M366 771l67 126h127l-107 -126h-87zM411 -13q-158 0 -257 104t-99 260q0 155 99 259.5t257 104.5q157 0 256 -105t99 -259q0 -155 -99 -259.5t-256 -104.5zM411 79q114 0 184.5 76.5t70.5 195.5q0 117 -71.5 194.5t-183.5 77.5q-114 0 -185 -77t-71 -195
q0 -120 70.5 -196t185.5 -76z" />
    <glyph glyph-name="Ocircumflex" unicode="&#xd4;" horiz-adv-x="821" 
d="M411 834l-56 -63h-86l90 126h103l90 -126h-85zM411 715q157 0 256 -105t99 -259q0 -155 -99 -259.5t-256 -104.5q-158 0 -257 104t-99 260q0 155 99 259.5t257 104.5zM411 79q114 0 184.5 76.5t70.5 195.5q0 117 -71.5 194.5t-183.5 77.5q-114 0 -185 -77t-71 -195
q0 -120 70.5 -196t185.5 -76z" />
    <glyph glyph-name="Otilde" unicode="&#xd5;" horiz-adv-x="821" 
d="M473 777q-31 0 -66 18t-50 18q-30 0 -48 -37l-55 37q28 75 96 75q29 0 64.5 -18t53.5 -18q27 0 47 40l57 -39q-28 -76 -99 -76zM411 -13q-158 0 -257 104t-99 260q0 155 99 259.5t257 104.5q157 0 256 -105t99 -259q0 -155 -99 -259.5t-256 -104.5zM411 79
q114 0 184.5 76.5t70.5 195.5q0 117 -71.5 194.5t-183.5 77.5q-114 0 -185 -77t-71 -195q0 -120 70.5 -196t185.5 -76z" />
    <glyph glyph-name="Odieresis" unicode="&#xd6;" horiz-adv-x="821" 
d="M324 770q-26 0 -45.5 19t-19.5 45t19.5 45t45.5 19t45 -19t19 -45t-19 -45t-45 -19zM498 770q-26 0 -45 19t-19 45t19 45t45 19q27 0 45.5 -19t18.5 -45t-18.5 -45t-45.5 -19zM411 -13q-158 0 -257 104t-99 260q0 155 99 259.5t257 104.5q157 0 256 -105t99 -259
q0 -155 -99 -259.5t-256 -104.5zM411 79q114 0 184.5 76.5t70.5 195.5q0 117 -71.5 194.5t-183.5 77.5q-114 0 -185 -77t-71 -195q0 -120 70.5 -196t185.5 -76z" />
    <glyph glyph-name="multiply" unicode="&#xd7;" horiz-adv-x="600" 
d="M534 519l-169 -169l169 -169l-65 -65l-169 169l-169 -169l-65 65l169 169l-169 169l65 66l169 -170l170 170z" />
    <glyph glyph-name="Oslash" unicode="&#xd8;" horiz-adv-x="821" 
d="M658 619q108 -105 108 -268q0 -155 -99 -259.5t-256 -104.5q-95 0 -174 41l-57 -80l-70 50l57 80q-112 104 -112 273q0 155 99 259.5t257 104.5q99 0 178 -45l50 70l69 -50zM155 351q0 -117 69 -194l310 436q-57 30 -123 30q-114 0 -185 -77t-71 -195zM411 79
q114 0 184.5 76.5t70.5 195.5q0 112 -65 188l-309 -433q53 -27 119 -27z" />
    <glyph glyph-name="Ugrave" unicode="&#xd9;" horiz-adv-x="685" 
d="M304 771l-107 126h127l67 -126h-87zM343 -14q-119 0 -192.5 69.5t-73.5 207.5v437h100v-432q0 -190 166 -190q78 0 121.5 46.5t43.5 143.5v432h100v-438q0 -139 -73 -207.5t-192 -68.5z" />
    <glyph glyph-name="Uacute" unicode="&#xda;" horiz-adv-x="685" 
d="M301 771l67 126h127l-107 -126h-87zM343 -14q-119 0 -192.5 69.5t-73.5 207.5v437h100v-432q0 -190 166 -190q78 0 121.5 46.5t43.5 143.5v432h100v-438q0 -139 -73 -207.5t-192 -68.5z" />
    <glyph glyph-name="Ucircumflex" unicode="&#xdb;" horiz-adv-x="685" 
d="M346 834l-56 -63h-86l90 126h103l90 -126h-85zM508 700h100v-438q0 -139 -73 -207.5t-192 -68.5t-192.5 69.5t-73.5 207.5v437h100v-432q0 -190 166 -190q78 0 121.5 46.5t43.5 143.5v432z" />
    <glyph glyph-name="Udieresis" unicode="&#xdc;" horiz-adv-x="685" 
d="M259 770q-26 0 -45.5 19t-19.5 45t19.5 45t45.5 19t45 -19t19 -45t-19 -45t-45 -19zM433 770q-26 0 -45 19t-19 45t19 45t45 19q27 0 45.5 -19t18.5 -45t-18.5 -45t-45.5 -19zM343 -14q-119 0 -192.5 69.5t-73.5 207.5v437h100v-432q0 -190 166 -190q78 0 121.5 46.5
t43.5 143.5v432h100v-438q0 -139 -73 -207.5t-192 -68.5z" />
    <glyph glyph-name="Yacute" unicode="&#xdd;" horiz-adv-x="623" 
d="M267 771l67 126h127l-107 -126h-87zM262 0v279l-240 421h109l180 -322l181 322h109l-239 -421v-279h-100z" />
    <glyph glyph-name="Thorn" unicode="&#xde;" horiz-adv-x="590" 
d="M77 0v700h100v-130h130q106 0 171.5 -56t65.5 -163q0 -104 -66 -161.5t-167 -57.5h-134v-132h-100zM177 222h123q69 0 106.5 33.5t37.5 96.5q0 62 -38 95t-106 33h-123v-258z" />
    <glyph glyph-name="germandbls" unicode="&#xdf;" horiz-adv-x="541" 
d="M65 0v521q0 89 54.5 141.5t146.5 52.5q80 0 134 -50.5t54 -136.5t-75 -137v-2q16 -6 31.5 -15t38 -29t36.5 -55.5t14 -81.5q0 -93 -60 -154.5t-161 -61.5q-35 0 -62 7l11 84q17 -5 42 -5q55 0 94.5 32.5t39.5 96.5t-39 96.5t-102 32.5h-25v84h26q43 0 74.5 28t31.5 77
q0 50 -28 79t-80 29q-45 0 -73.5 -30t-28.5 -84v-519h-94z" />
    <glyph glyph-name="agrave" unicode="&#xe0;" horiz-adv-x="507" 
d="M211 568l-107 126h127l67 -126h-87zM213 -14q-77 0 -124 42.5t-47 108.5q0 64 44.5 105.5t148.5 56.5l119 17v11q0 101 -106 101q-96 0 -111 -90l-87 21q36 149 200 149q91 0 146.5 -46t55.5 -134v-328h-83l-10 48q-45 -62 -146 -62zM237 67q49 0 83 28t34 81v65
l-111 -17q-53 -8 -79.5 -26.5t-26.5 -55.5q0 -34 27 -54.5t73 -20.5z" />
    <glyph glyph-name="aacute" unicode="&#xe1;" horiz-adv-x="507" 
d="M204 568l67 126h127l-107 -126h-87zM213 -14q-77 0 -124 42.5t-47 108.5q0 64 44.5 105.5t148.5 56.5l119 17v11q0 101 -106 101q-96 0 -111 -90l-87 21q36 149 200 149q91 0 146.5 -46t55.5 -134v-328h-83l-10 48q-45 -62 -146 -62zM237 67q49 0 83 28t34 81v65
l-111 -17q-53 -8 -79.5 -26.5t-26.5 -55.5q0 -34 27 -54.5t73 -20.5z" />
    <glyph glyph-name="acircumflex" unicode="&#xe2;" horiz-adv-x="507" 
d="M251 631l-56 -63h-86l90 126h103l90 -126h-85zM250 508q91 0 146.5 -46t55.5 -134v-328h-83l-10 48q-45 -62 -146 -62q-77 0 -124 42.5t-47 108.5q0 64 44.5 105.5t148.5 56.5l119 17v11q0 101 -106 101q-96 0 -111 -90l-87 21q36 149 200 149zM354 176v65l-111 -17
q-53 -8 -79.5 -26.5t-26.5 -55.5q0 -34 27 -54.5t73 -20.5q49 0 83 28t34 81z" />
    <glyph glyph-name="atilde" unicode="&#xe3;" horiz-adv-x="507" 
d="M310 575q-30 0 -65 17.5t-51 17.5q-30 0 -48 -37l-55 37q28 75 96 75q29 0 64.5 -17.5t54.5 -17.5q27 0 47 39l57 -38q-28 -76 -100 -76zM213 -14q-77 0 -124 42.5t-47 108.5q0 64 44.5 105.5t148.5 56.5l119 17v11q0 101 -106 101q-96 0 -111 -90l-87 21q36 149 200 149
q91 0 146.5 -46t55.5 -134v-328h-83l-10 48q-45 -62 -146 -62zM237 67q49 0 83 28t34 81v65l-111 -17q-53 -8 -79.5 -26.5t-26.5 -55.5q0 -34 27 -54.5t73 -20.5z" />
    <glyph glyph-name="adieresis" unicode="&#xe4;" horiz-adv-x="507" 
d="M167 567q-26 0 -45 19t-19 45t19 45t45 19t45 -19t19 -45t-19 -45t-45 -19zM335 567q-26 0 -45 19t-19 45t19 45t45 19t45 -19t19 -45t-19 -45t-45 -19zM213 -14q-77 0 -124 42.5t-47 108.5q0 64 44.5 105.5t148.5 56.5l119 17v11q0 101 -106 101q-96 0 -111 -90l-87 21
q36 149 200 149q91 0 146.5 -46t55.5 -134v-328h-83l-10 48q-45 -62 -146 -62zM237 67q49 0 83 28t34 81v65l-111 -17q-53 -8 -79.5 -26.5t-26.5 -55.5q0 -34 27 -54.5t73 -20.5z" />
    <glyph glyph-name="aring" unicode="&#xe5;" horiz-adv-x="507" 
d="M251 543q-37 0 -64 27t-27 65t27 65t64 27t64.5 -27.5t27.5 -64.5t-27.5 -64.5t-64.5 -27.5zM251 601q14 0 24 10t10 24t-10 24t-24 10t-24 -10t-10 -24t10 -24t24 -10zM213 -14q-77 0 -124 42.5t-47 108.5q0 64 44.5 105.5t148.5 56.5l119 17v11q0 101 -106 101
q-96 0 -111 -90l-87 21q36 149 200 149q91 0 146.5 -46t55.5 -134v-328h-83l-10 48q-45 -62 -146 -62zM237 67q49 0 83 28t34 81v65l-111 -17q-53 -8 -79.5 -26.5t-26.5 -55.5q0 -34 27 -54.5t73 -20.5z" />
    <glyph glyph-name="ae" unicode="&#xe6;" horiz-adv-x="884" 
d="M841 256v-39h-385q4 -62 46.5 -105.5t106.5 -43.5q52 0 87.5 25.5t47.5 60.5l84 -27q-22 -62 -78 -101.5t-141 -39.5q-128 0 -200 101v-1q-12 -36 -54.5 -68t-121.5 -32q-86 0 -137 42.5t-51 108.5q0 133 193 159l118 17v13q0 103 -105 103q-96 0 -111 -91l-87 21
q36 150 200 150q125 0 175 -80q71 79 180 79q106 0 169.5 -69t63.5 -183zM457 294h296q-4 53 -42.5 92.5t-101.5 39.5t-103 -38t-49 -94zM356 176v67l-110 -16q-53 -8 -79.5 -27.5t-26.5 -56.5q0 -35 26.5 -55.5t73.5 -20.5q49 0 82.5 28t33.5 81z" />
    <glyph glyph-name="ccedilla" unicode="&#xe7;" horiz-adv-x="558" 
d="M295 76q46 0 80 25t49 68l89 -30q-23 -63 -73 -104t-119 -48l-15 -29q36 -1 60.5 -23t24.5 -58q0 -43 -26 -68.5t-69 -25.5q-38 0 -63.5 20.5t-28.5 50.5l55 19q0 -16 10 -25.5t27 -9.5q15 0 25 9.5t10 25.5q0 15 -10 24t-25 9q-16 0 -23 -7l-43 25l34 64
q-101 11 -161.5 85t-60.5 174q0 109 70.5 185.5t182.5 76.5q82 0 139 -42t80 -112l-90 -30q-14 44 -48 69t-81 25q-68 0 -111.5 -48.5t-43.5 -123.5q0 -74 43.5 -122.5t111.5 -48.5z" />
    <glyph glyph-name="egrave" unicode="&#xe8;" horiz-adv-x="564" 
d="M250 568l-107 126h127l67 -126h-87zM522 217h-385q4 -62 46.5 -105.5t106.5 -43.5q52 0 87.5 25.5t47.5 60.5l84 -27q-22 -62 -78 -101.5t-141 -39.5q-108 0 -178 75t-70 187q0 110 71 185t176 75q106 0 169.5 -69t63.5 -183v-39zM434 294q-4 53 -43 92.5t-101 39.5
q-63 0 -103 -38t-49 -94h296z" />
    <glyph glyph-name="eacute" unicode="&#xe9;" horiz-adv-x="564" 
d="M243 568l67 126h127l-107 -126h-87zM522 217h-385q4 -62 46.5 -105.5t106.5 -43.5q52 0 87.5 25.5t47.5 60.5l84 -27q-22 -62 -78 -101.5t-141 -39.5q-108 0 -178 75t-70 187q0 110 71 185t176 75q106 0 169.5 -69t63.5 -183v-39zM434 294q-4 53 -43 92.5t-101 39.5
q-63 0 -103 -38t-49 -94h296z" />
    <glyph glyph-name="ecircumflex" unicode="&#xea;" horiz-adv-x="564" 
d="M290 631l-56 -63h-86l90 126h103l90 -126h-85zM522 256v-39h-385q4 -62 46.5 -105.5t106.5 -43.5q52 0 87.5 25.5t47.5 60.5l84 -27q-22 -62 -78 -101.5t-141 -39.5q-108 0 -178 75t-70 187q0 110 71 185t176 75q106 0 169.5 -69t63.5 -183zM138 294h296q-4 53 -43 92.5
t-101 39.5q-63 0 -103 -38t-49 -94z" />
    <glyph glyph-name="edieresis" unicode="&#xeb;" horiz-adv-x="564" 
d="M206 567q-26 0 -45 19t-19 45t19 45t45 19t45 -19t19 -45t-19 -45t-45 -19zM374 567q-26 0 -45 19t-19 45t19 45t45 19t45 -19t19 -45t-19 -45t-45 -19zM522 217h-385q4 -62 46.5 -105.5t106.5 -43.5q52 0 87.5 25.5t47.5 60.5l84 -27q-22 -62 -78 -101.5t-141 -39.5
q-108 0 -178 75t-70 187q0 110 71 185t176 75q106 0 169.5 -69t63.5 -183v-39zM434 294q-4 53 -43 92.5t-101 39.5q-63 0 -103 -38t-49 -94h296z" />
    <glyph glyph-name="igrave" unicode="&#xec;" horiz-adv-x="238" 
d="M79 569l-107 126h127l67 -126h-87zM70 0v495h98v-495h-98z" />
    <glyph glyph-name="iacute" unicode="&#xed;" horiz-adv-x="238" 
d="M72 569l67 126h127l-107 -126h-87zM70 0v495h98v-495h-98z" />
    <glyph glyph-name="icircumflex" unicode="&#xee;" horiz-adv-x="238" 
d="M170 695l90 -126h-85l-56 63l-56 -63h-86l90 126h103zM70 0v495h98v-495h-98z" />
    <glyph glyph-name="idieresis" unicode="&#xef;" horiz-adv-x="238" 
d="M35 568q-26 0 -45 19t-19 45t19 45t45 19t45 -19t19 -45t-19 -45t-45 -19zM203 568q-26 0 -45 19t-19 45t19 45t45 19t45 -19t19 -45t-19 -45t-45 -19zM70 0v495h98v-495h-98z" />
    <glyph glyph-name="eth" unicode="&#xf0;" horiz-adv-x="611" 
d="M297 -14q-117 0 -186 76t-69 182q0 103 72 179t183 76q82 0 141 -57q-26 85 -99 157l-130 -48l-24 62l99 36q-38 32 -80 57l54 58q4 -3 19.5 -13.5l27.5 -19t30 -22.5t34 -29l106 39l23 -62l-78 -29q134 -149 134 -342q0 -137 -69 -218.5t-188 -81.5zM297 74
q69 0 113.5 48.5t44.5 121.5t-44.5 121t-113.5 48t-113 -48t-44 -121t44 -121.5t113 -48.5z" />
    <glyph glyph-name="ntilde" unicode="&#xf1;" 
d="M338 576q-30 0 -65 17.5t-51 17.5q-30 0 -48 -37l-55 37q28 75 96 75q29 0 64.5 -17.5t54.5 -17.5q27 0 47 39l57 -38q-28 -76 -100 -76zM65 0v495h81l15 -63q57 77 157 77q82 0 128 -49t46 -149v-311h-98v294q0 68 -28 95.5t-78 27.5q-53 0 -89 -37.5t-36 -103.5v-276
h-98z" />
    <glyph glyph-name="ograve" unicode="&#xf2;" horiz-adv-x="594" 
d="M257 569l-107 126h127l67 -126h-87zM297 -14q-113 0 -184 77t-71 184q0 108 71.5 185t183.5 77t183.5 -77t71.5 -185q0 -106 -71.5 -183.5t-183.5 -77.5zM297 76q68 0 112.5 48.5t44.5 122.5t-44.5 123t-112.5 49q-69 0 -113 -48.5t-44 -123.5q0 -74 44 -122.5t113 -48.5
z" />
    <glyph glyph-name="oacute" unicode="&#xf3;" horiz-adv-x="594" 
d="M250 569l67 126h127l-107 -126h-87zM297 -14q-113 0 -184 77t-71 184q0 108 71.5 185t183.5 77t183.5 -77t71.5 -185q0 -106 -71.5 -183.5t-183.5 -77.5zM297 76q68 0 112.5 48.5t44.5 122.5t-44.5 123t-112.5 49q-69 0 -113 -48.5t-44 -123.5q0 -74 44 -122.5t113 -48.5
z" />
    <glyph glyph-name="ocircumflex" unicode="&#xf4;" horiz-adv-x="594" 
d="M297 632l-56 -63h-86l90 126h103l90 -126h-85zM297 509q112 0 183.5 -77t71.5 -185q0 -106 -71.5 -183.5t-183.5 -77.5q-113 0 -184 77t-71 184q0 108 71.5 185t183.5 77zM297 76q68 0 112.5 48.5t44.5 122.5t-44.5 123t-112.5 49q-69 0 -113 -48.5t-44 -123.5
q0 -74 44 -122.5t113 -48.5z" />
    <glyph glyph-name="otilde" unicode="&#xf5;" horiz-adv-x="594" 
d="M356 576q-30 0 -65 17.5t-51 17.5q-30 0 -48 -37l-55 37q28 75 96 75q29 0 64.5 -17.5t54.5 -17.5q27 0 47 39l57 -38q-28 -76 -100 -76zM297 -14q-113 0 -184 77t-71 184q0 108 71.5 185t183.5 77t183.5 -77t71.5 -185q0 -106 -71.5 -183.5t-183.5 -77.5zM297 76
q68 0 112.5 48.5t44.5 122.5t-44.5 123t-112.5 49q-69 0 -113 -48.5t-44 -123.5q0 -74 44 -122.5t113 -48.5z" />
    <glyph glyph-name="odieresis" unicode="&#xf6;" horiz-adv-x="594" 
d="M213 568q-26 0 -45 19t-19 45t19 45t45 19t45 -19t19 -45t-19 -45t-45 -19zM381 568q-26 0 -45 19t-19 45t19 45t45 19t45 -19t19 -45t-19 -45t-45 -19zM297 -14q-113 0 -184 77t-71 184q0 108 71.5 185t183.5 77t183.5 -77t71.5 -185q0 -106 -71.5 -183.5t-183.5 -77.5z
M297 76q68 0 112.5 48.5t44.5 122.5t-44.5 123t-112.5 49q-69 0 -113 -48.5t-44 -123.5q0 -74 44 -122.5t113 -48.5z" />
    <glyph glyph-name="divide" unicode="&#xf7;" horiz-adv-x="600" 
d="M299 497q-28 0 -47.5 19.5t-19.5 47.5t19.5 47.5t47.5 19.5t47.5 -19.5t19.5 -47.5t-19.5 -47.5t-47.5 -19.5zM40 307v86h520v-86h-520zM300 84q-28 0 -47.5 19.5t-19.5 47.5t19.5 47.5t47.5 19.5t47.5 -19.5t19.5 -47.5t-19.5 -47.5t-47.5 -19.5z" />
    <glyph glyph-name="oslash" unicode="&#xf8;" horiz-adv-x="594" 
d="M479 434q73 -78 73 -187q0 -106 -71.5 -183.5t-183.5 -77.5q-66 0 -119 28l-40 -55l-62 45l40 56q-74 76 -74 187q0 108 71.5 185t183.5 77q65 0 121 -29l38 52l61 -45zM140 247q0 -62 33 -108l191 265q-30 15 -67 15q-69 0 -113 -48.5t-44 -123.5zM297 76
q68 0 112.5 48.5t44.5 122.5q0 62 -32 108l-190 -265q30 -14 65 -14z" />
    <glyph glyph-name="ugrave" unicode="&#xf9;" 
d="M239 569l-107 126h127l67 -126h-87zM492 495v-495h-81l-15 63q-57 -77 -157 -77q-82 0 -128 48.5t-46 148.5v312h98v-295q0 -123 106 -123q53 0 89 37.5t36 103.5v277h98z" />
    <glyph glyph-name="uacute" unicode="&#xfa;" 
d="M232 569l67 126h127l-107 -126h-87zM492 495v-495h-81l-15 63q-57 -77 -157 -77q-82 0 -128 48.5t-46 148.5v312h98v-295q0 -123 106 -123q53 0 89 37.5t36 103.5v277h98z" />
    <glyph glyph-name="ucircumflex" unicode="&#xfb;" 
d="M279 632l-56 -63h-86l90 126h103l90 -126h-85zM394 495h98v-495h-81l-15 63q-57 -77 -157 -77q-82 0 -128 48.5t-46 148.5v312h98v-295q0 -123 106 -123q53 0 89 37.5t36 103.5v277z" />
    <glyph glyph-name="udieresis" unicode="&#xfc;" 
d="M195 568q-26 0 -45 19t-19 45t19 45t45 19t45 -19t19 -45t-19 -45t-45 -19zM363 568q-26 0 -45 19t-19 45t19 45t45 19t45 -19t19 -45t-19 -45t-45 -19zM492 495v-495h-81l-15 63q-57 -77 -157 -77q-82 0 -128 48.5t-46 148.5v312h98v-295q0 -123 106 -123q53 0 89 37.5
t36 103.5v277h98z" />
    <glyph glyph-name="yacute" unicode="&#xfd;" horiz-adv-x="569" 
d="M432 695l-107 -126h-87l67 126h127zM406 495h98v-486q0 -99 -57.5 -163t-168.5 -64q-87 0 -140 42.5t-73 115.5l92 20q22 -93 121 -93q63 0 95.5 37t32.5 103v68q-30 -37 -67 -55.5t-93 -18.5q-79 0 -129 48.5t-50 146.5v299h98v-277q0 -126 111 -126q57 0 93.5 37.5
t36.5 104.5v261z" />
    <glyph glyph-name="thorn" unicode="&#xfe;" horiz-adv-x="605" 
d="M65 -205v905h100l-3 -270q59 78 164 78q104 0 170.5 -77.5t66.5 -183.5q0 -108 -64.5 -184.5t-172.5 -76.5q-101 0 -163 78v-269h-98zM313 76q67 0 110 48.5t43 122.5t-43 122.5t-110 48.5q-66 0 -108.5 -48.5t-42.5 -122.5q0 -75 42 -123t109 -48z" />
    <glyph glyph-name="ydieresis" unicode="&#xff;" horiz-adv-x="569" 
d="M201 568q-26 0 -45 19t-19 45t19 45t45 19t45 -19t19 -45t-19 -45t-45 -19zM369 568q-26 0 -45 19t-19 45t19 45t45 19t45 -19t19 -45t-19 -45t-45 -19zM406 495h98v-486q0 -99 -57.5 -163t-168.5 -64q-87 0 -140 42.5t-73 115.5l92 20q22 -93 121 -93q63 0 95.5 37
t32.5 103v68q-30 -37 -67 -55.5t-93 -18.5q-79 0 -129 48.5t-50 146.5v299h98v-277q0 -126 111 -126q57 0 93.5 37.5t36.5 104.5v261z" />
    <glyph glyph-name="Amacron" unicode="&#x100;" horiz-adv-x="671" 
d="M442 872v-76h-212v76h212zM546 0l-66 177h-290l-65 -177h-103l262 700h103l262 -700h-103zM224 267h223l-112 301z" />
    <glyph glyph-name="amacron" unicode="&#x101;" horiz-adv-x="507" 
d="M145 593v76h212v-76h-212zM213 -14q-77 0 -124 42.5t-47 108.5q0 64 44.5 105.5t148.5 56.5l119 17v11q0 101 -106 101q-96 0 -111 -90l-87 21q36 149 200 149q91 0 146.5 -46t55.5 -134v-328h-83l-10 48q-45 -62 -146 -62zM237 67q49 0 83 28t34 81v65l-111 -17
q-53 -8 -79.5 -26.5t-26.5 -55.5q0 -34 27 -54.5t73 -20.5z" />
    <glyph glyph-name="Abreve" unicode="&#x102;" horiz-adv-x="671" 
d="M335 775q-56 0 -92 35.5t-39 90.5h72q2 -26 18 -42t42 -16t42.5 16t18.5 42h71q-2 -55 -39 -90.5t-94 -35.5zM546 0l-66 177h-290l-65 -177h-103l262 700h103l262 -700h-103zM224 267h223l-112 301z" />
    <glyph glyph-name="abreve" unicode="&#x103;" horiz-adv-x="507" 
d="M250 569q-56 0 -92 35.5t-39 90.5h72q2 -26 18 -42t42 -16t42.5 16t18.5 42h71q-2 -55 -39 -90.5t-94 -35.5zM213 -14q-77 0 -124 42.5t-47 108.5q0 64 44.5 105.5t148.5 56.5l119 17v11q0 101 -106 101q-96 0 -111 -90l-87 21q36 149 200 149q91 0 146.5 -46t55.5 -134
v-328h-83l-10 48q-45 -62 -146 -62zM237 67q49 0 83 28t34 81v65l-111 -17q-53 -8 -79.5 -26.5t-26.5 -55.5q0 -34 27 -54.5t73 -20.5z" />
    <glyph glyph-name="Aogonek" unicode="&#x104;" horiz-adv-x="671" 
d="M588 -75q0 -18 12.5 -29.5t36.5 -11.5h6v-66q-7 -1 -20 -1q-51 0 -81 24.5t-30 64.5q0 47 37 86l-69 185h-290l-65 -177h-103l262 700h103l262 -700q-61 -33 -61 -75zM224 267h223l-112 301z" />
    <glyph glyph-name="aogonek" unicode="&#x105;" horiz-adv-x="507" 
d="M250 508q91 0 146.5 -46t55.5 -134v-328h-34q-62 -32 -62 -75q0 -18 13 -29.5t37 -11.5h6l-1 -66q-7 -1 -20 -1q-51 0 -80.5 24.5t-29.5 64.5q0 72 76 116l8 -3l-6 29q-45 -62 -146 -62q-77 0 -124 42.5t-47 108.5q0 64 44.5 105.5t148.5 56.5l119 17v11q0 101 -106 101
q-96 0 -111 -90l-87 21q36 149 200 149zM354 176v65l-111 -17q-53 -8 -79.5 -26.5t-26.5 -55.5q0 -34 27 -54.5t73 -20.5q49 0 83 28t34 81z" />
    <glyph glyph-name="Cacute" unicode="&#x106;" horiz-adv-x="759" 
d="M359 771l67 126h127l-107 -126h-87zM407 -14q-156 0 -254 101t-98 263q0 158 98.5 261t250.5 103q113 0 194.5 -57t115.5 -160l-96 -32q-24 75 -78 116t-135 41q-108 0 -179 -77.5t-71 -194.5q0 -120 71 -196t182 -76q81 0 133.5 39t74.5 104l95 -31q-37 -97 -114 -150.5
t-190 -53.5z" />
    <glyph glyph-name="cacute" unicode="&#x107;" horiz-adv-x="558" 
d="M248 569l67 126h127l-107 -126h-87zM295 -14q-113 0 -183 76.5t-70 184.5q0 109 70.5 185.5t182.5 76.5q82 0 139 -42t80 -112l-90 -30q-14 44 -48 69t-81 25q-68 0 -111.5 -48.5t-43.5 -123.5q0 -74 43.5 -122.5t111.5 -48.5q46 0 80 25t49 68l89 -30
q-26 -69 -82.5 -111t-135.5 -42z" />
    <glyph glyph-name="Ccircumflex" unicode="&#x108;" horiz-adv-x="759" 
d="M404 834l-56 -63h-86l90 126h103l90 -126h-85zM408 78q81 0 133.5 39t74.5 104l95 -31q-37 -97 -114 -150.5t-190 -53.5q-156 0 -254 101t-98 263q0 158 98.5 261t250.5 103q113 0 194.5 -57t115.5 -160l-96 -32q-24 75 -78 116t-135 41q-108 0 -179 -77.5t-71 -194.5
q0 -120 71 -196t182 -76z" />
    <glyph glyph-name="ccircumflex" unicode="&#x109;" horiz-adv-x="558" 
d="M295 632l-56 -63h-86l90 126h103l90 -126h-85zM295 76q46 0 80 25t49 68l89 -30q-26 -69 -82.5 -111t-135.5 -42q-113 0 -183 76.5t-70 184.5q0 109 70.5 185.5t182.5 76.5q82 0 139 -42t80 -112l-90 -30q-14 44 -48 69t-81 25q-68 0 -111.5 -48.5t-43.5 -123.5
q0 -74 43.5 -122.5t111.5 -48.5z" />
    <glyph glyph-name="Cdotaccent" unicode="&#x10a;" horiz-adv-x="759" 
d="M405 772q-27 0 -46 18.5t-19 45.5q0 26 19 45t46 19q26 0 44.5 -19t18.5 -45q0 -27 -18.5 -45.5t-44.5 -18.5zM407 -14q-156 0 -254 101t-98 263q0 158 98.5 261t250.5 103q113 0 194.5 -57t115.5 -160l-96 -32q-24 75 -78 116t-135 41q-108 0 -179 -77.5t-71 -194.5
q0 -120 71 -196t182 -76q81 0 133.5 39t74.5 104l95 -31q-37 -97 -114 -150.5t-190 -53.5z" />
    <glyph glyph-name="cdotaccent" unicode="&#x10b;" horiz-adv-x="558" 
d="M296 568q-27 0 -46 18.5t-19 45.5q0 26 19 45t46 19q26 0 44.5 -19t18.5 -45q0 -27 -18.5 -45.5t-44.5 -18.5zM295 -14q-113 0 -183 76.5t-70 184.5q0 109 70.5 185.5t182.5 76.5q82 0 139 -42t80 -112l-90 -30q-14 44 -48 69t-81 25q-68 0 -111.5 -48.5t-43.5 -123.5
q0 -74 43.5 -122.5t111.5 -48.5q46 0 80 25t49 68l89 -30q-26 -69 -82.5 -111t-135.5 -42z" />
    <glyph glyph-name="Ccaron" unicode="&#x10c;" horiz-adv-x="759" 
d="M455 774h-103l-90 126h86l56 -63l56 63h85zM408 78q81 0 133.5 39t74.5 104l95 -31q-37 -97 -114 -150.5t-190 -53.5q-156 0 -254 101t-98 263q0 158 98.5 261t250.5 103q113 0 194.5 -57t115.5 -160l-96 -32q-24 75 -78 116t-135 41q-108 0 -179 -77.5t-71 -194.5
q0 -120 71 -196t182 -76z" />
    <glyph glyph-name="ccaron" unicode="&#x10d;" horiz-adv-x="558" 
d="M346 569h-103l-90 126h86l56 -63l56 63h85zM295 76q46 0 80 25t49 68l89 -30q-26 -69 -82.5 -111t-135.5 -42q-113 0 -183 76.5t-70 184.5q0 109 70.5 185.5t182.5 76.5q82 0 139 -42t80 -112l-90 -30q-14 44 -48 69t-81 25q-68 0 -111.5 -48.5t-43.5 -123.5
q0 -74 43.5 -122.5t111.5 -48.5z" />
    <glyph glyph-name="Dcaron" unicode="&#x10e;" horiz-adv-x="706" 
d="M400 774h-103l-90 126h86l56 -63l56 63h85zM306 700q73 0 132 -19t98 -51.5t65.5 -77.5t38 -94.5t11.5 -104.5q0 -151 -88 -252t-248 -101h-238v700h229zM310 90q65 0 113.5 22.5t75.5 61t39.5 83.5t12.5 97q0 256 -250 256h-124v-520h133z" />
    <glyph glyph-name="dcaron" unicode="&#x10f;" horiz-adv-x="606" 
d="M280 -13q-104 0 -171 77.5t-67 183.5q0 108 64.5 184.5t172.5 76.5q106 0 164 -78v269h98v-700h-81l-13 67q-58 -80 -167 -80zM582 574l37 126h102l-73 -126h-66zM292 75q67 0 109 48.5t42 124.5t-42 124.5t-109 48.5t-109.5 -48.5t-42.5 -124.5q0 -75 42.5 -124
t109.5 -49z" />
    <glyph glyph-name="Dcroat" unicode="&#x110;" horiz-adv-x="706" 
d="M306 700q73 0 132 -19t98 -51.5t65.5 -77.5t38 -94.5t11.5 -104.5q0 -151 -88 -252t-248 -101h-238v311h-75v81h75v308h229zM310 90q65 0 113.5 22.5t75.5 61t39.5 83.5t12.5 97q0 256 -250 256h-124v-218h152v-81h-152v-221h133z" />
    <glyph glyph-name="dcroat" unicode="&#x111;" horiz-adv-x="607" 
d="M589 626v-70h-48v-556h-81l-13 67q-58 -80 -167 -80q-104 0 -171 77.5t-67 183.5q0 108 64.5 184.5t172.5 76.5q106 0 164 -78v125h-142v70h142v74h98v-74h48zM292 75q67 0 109 48.5t42 124.5t-42 124.5t-109 48.5t-109.5 -48.5t-42.5 -124.5q0 -75 42.5 -124t109.5 -49z
" />
    <glyph glyph-name="Emacron" unicode="&#x112;" horiz-adv-x="559" 
d="M201 796v76h212v-76h-212zM77 0v700h432v-90h-332v-213h290v-88h-290v-219h332v-90h-432z" />
    <glyph glyph-name="emacron" unicode="&#x113;" horiz-adv-x="564" 
d="M184 593v76h212v-76h-212zM522 217h-385q4 -62 46.5 -105.5t106.5 -43.5q52 0 87.5 25.5t47.5 60.5l84 -27q-22 -62 -78 -101.5t-141 -39.5q-108 0 -178 75t-70 187q0 110 71 185t176 75q106 0 169.5 -69t63.5 -183v-39zM434 294q-4 53 -43 92.5t-101 39.5
q-63 0 -103 -38t-49 -94h296z" />
    <glyph glyph-name="Ebreve" unicode="&#x114;" horiz-adv-x="559" 
d="M306 775q-56 0 -92 35.5t-39 90.5h72q2 -26 18 -42t42 -16t42.5 16t18.5 42h71q-2 -55 -39 -90.5t-94 -35.5zM77 0v700h432v-90h-332v-213h290v-88h-290v-219h332v-90h-432z" />
    <glyph glyph-name="ebreve" unicode="&#x115;" horiz-adv-x="564" 
d="M289 569q-56 0 -92 35.5t-39 90.5h72q2 -26 18 -42t42 -16t42.5 16t18.5 42h71q-2 -55 -39 -90.5t-94 -35.5zM522 217h-385q4 -62 46.5 -105.5t106.5 -43.5q52 0 87.5 25.5t47.5 60.5l84 -27q-22 -62 -78 -101.5t-141 -39.5q-108 0 -178 75t-70 187q0 110 71 185t176 75
q106 0 169.5 -69t63.5 -183v-39zM434 294q-4 53 -43 92.5t-101 39.5q-63 0 -103 -38t-49 -94h296z" />
    <glyph glyph-name="Edotaccent" unicode="&#x116;" horiz-adv-x="559" 
d="M308 772q-27 0 -46 18.5t-19 45.5q0 26 19 45t46 19q26 0 44.5 -19t18.5 -45q0 -27 -18.5 -45.5t-44.5 -18.5zM77 0v700h432v-90h-332v-213h290v-88h-290v-219h332v-90h-432z" />
    <glyph glyph-name="edotaccent" unicode="&#x117;" horiz-adv-x="564" 
d="M291 567q-27 0 -46 18.5t-19 45.5q0 26 19 45t46 19q26 0 44.5 -19t18.5 -45q0 -27 -18.5 -45.5t-44.5 -18.5zM522 217h-385q4 -62 46.5 -105.5t106.5 -43.5q52 0 87.5 25.5t47.5 60.5l84 -27q-22 -62 -78 -101.5t-141 -39.5q-108 0 -178 75t-70 187q0 110 71 185t176 75
q106 0 169.5 -69t63.5 -183v-39zM434 294q-4 53 -43 92.5t-101 39.5q-63 0 -103 -38t-49 -94h296z" />
    <glyph glyph-name="Eogonek" unicode="&#x118;" horiz-adv-x="559" 
d="M509 610h-332v-213h290v-88h-290v-219h332v-90q-62 -32 -62 -75q0 -18 13 -29.5t37 -11.5h6l-1 -66q-7 -1 -20 -1q-51 0 -80.5 24.5t-29.5 64.5q0 54 45 94h-340v700h432v-90z" />
    <glyph glyph-name="eogonek" unicode="&#x119;" horiz-adv-x="565" 
d="M242 -94q0 41 36 81h-5q-103 5 -167 79t-64 181q0 110 71 186t175 76q106 0 170.5 -69.5t64.5 -182.5v-36h-387q4 -66 46.5 -109.5t108.5 -43.5q51 0 86.5 25t47.5 60l84 -25q-30 -82 -119 -124q-72 -33 -72 -79q0 -18 12.5 -29.5t36.5 -11.5h6v-66q-7 -1 -20 -1
q-51 0 -81 24.5t-30 64.5zM137 291h297q-3 56 -42 97t-102 41q-64 0 -104 -39t-49 -99z" />
    <glyph glyph-name="Ecaron" unicode="&#x11a;" horiz-adv-x="559" 
d="M358 774h-103l-90 126h86l56 -63l56 63h85zM509 610h-332v-213h290v-88h-290v-219h332v-90h-432v700h432v-90z" />
    <glyph glyph-name="ecaron" unicode="&#x11b;" horiz-adv-x="564" 
d="M341 568h-103l-90 126h86l56 -63l56 63h85zM522 256v-39h-385q4 -62 46.5 -105.5t106.5 -43.5q52 0 87.5 25.5t47.5 60.5l84 -27q-22 -62 -78 -101.5t-141 -39.5q-108 0 -178 75t-70 187q0 110 71 185t176 75q106 0 169.5 -69t63.5 -183zM138 294h296q-4 53 -43 92.5
t-101 39.5q-63 0 -103 -38t-49 -94z" />
    <glyph glyph-name="Gcircumflex" unicode="&#x11c;" horiz-adv-x="792" 
d="M407 834l-56 -63h-86l90 126h103l90 -126h-85zM466 378h261v-378h-71l-15 92q-23 -37 -83 -71.5t-150 -34.5q-155 0 -254 102t-99 262q0 155 100 259.5t251 104.5q112 0 187.5 -52t109.5 -141l-93 -32q-53 133 -200 133q-111 0 -183 -79t-72 -193q0 -118 71.5 -195
t184.5 -77q71 0 121.5 32.5t72.5 79.5t24 102h-163v86z" />
    <glyph glyph-name="gcircumflex" unicode="&#x11d;" horiz-adv-x="601" 
d="M291 632l-56 -63h-86l90 126h103l90 -126h-85zM454 495h82v-486q0 -99 -63 -163t-185 -64q-92 0 -147.5 43t-76.5 116l92 22q25 -97 132 -97q73 0 111.5 37t38.5 104v74q-21 -34 -63 -57.5t-98 -23.5q-107 0 -171 73.5t-64 179.5q0 105 65 180.5t169 75.5q109 0 162 -79z
M290 88q65 0 106.5 45.5t41.5 119.5q0 75 -41.5 121.5t-107.5 46.5t-107.5 -46.5t-41.5 -121.5q0 -74 41.5 -119.5t108.5 -45.5z" />
    <glyph glyph-name="Gbreve" unicode="&#x11e;" horiz-adv-x="792" 
d="M406 775q-56 0 -92 35.5t-39 90.5h72q2 -26 18 -42t42 -16t42.5 16t18.5 42h71q-2 -55 -39 -90.5t-94 -35.5zM408 -14q-155 0 -254 102t-99 262q0 155 100 259.5t251 104.5q112 0 187.5 -52t109.5 -141l-93 -32q-53 133 -200 133q-111 0 -183 -79t-72 -193
q0 -118 71.5 -195t184.5 -77q71 0 121.5 32.5t72.5 79.5t24 102h-163v86h261v-378h-71l-15 92q-23 -37 -83 -71.5t-150 -34.5z" />
    <glyph glyph-name="gbreve" unicode="&#x11f;" horiz-adv-x="601" 
d="M290 570q-56 0 -92 35.5t-39 90.5h72q2 -26 18 -42t42 -16t42.5 16t18.5 42h71q-2 -55 -39 -90.5t-94 -35.5zM288 -218q-92 0 -147.5 43t-76.5 116l92 22q25 -97 132 -97q73 0 111.5 37t38.5 104v74q-21 -34 -63 -57.5t-98 -23.5q-107 0 -171 73.5t-64 179.5
q0 105 65 180.5t169 75.5q109 0 162 -79l16 65h82v-486q0 -99 -63 -163t-185 -64zM290 88q65 0 106.5 45.5t41.5 119.5q0 75 -41.5 121.5t-107.5 46.5t-107.5 -46.5t-41.5 -121.5q0 -74 41.5 -119.5t108.5 -45.5z" />
    <glyph glyph-name="Gdotaccent" unicode="&#x120;" horiz-adv-x="792" 
d="M408 772q-27 0 -46 18.5t-19 45.5q0 26 19 45t46 19q26 0 44.5 -19t18.5 -45q0 -27 -18.5 -45.5t-44.5 -18.5zM408 -14q-155 0 -254 102t-99 262q0 155 100 259.5t251 104.5q112 0 187.5 -52t109.5 -141l-93 -32q-53 133 -200 133q-111 0 -183 -79t-72 -193
q0 -118 71.5 -195t184.5 -77q71 0 121.5 32.5t72.5 79.5t24 102h-163v86h261v-378h-71l-15 92q-23 -37 -83 -71.5t-150 -34.5z" />
    <glyph glyph-name="gdotaccent" unicode="&#x121;" horiz-adv-x="601" 
d="M292 568q-27 0 -46 18.5t-19 45.5q0 26 19 45t46 19q26 0 44.5 -19t18.5 -45q0 -27 -18.5 -45.5t-44.5 -18.5zM288 -218q-92 0 -147.5 43t-76.5 116l92 22q25 -97 132 -97q73 0 111.5 37t38.5 104v74q-21 -34 -63 -57.5t-98 -23.5q-107 0 -171 73.5t-64 179.5
q0 105 65 180.5t169 75.5q109 0 162 -79l16 65h82v-486q0 -99 -63 -163t-185 -64zM290 88q65 0 106.5 45.5t41.5 119.5q0 75 -41.5 121.5t-107.5 46.5t-107.5 -46.5t-41.5 -121.5q0 -74 41.5 -119.5t108.5 -45.5z" />
    <glyph glyph-name="Gcommaaccent" unicode="&#x122;" horiz-adv-x="792" 
d="M408 -14q-155 0 -254 102t-99 262q0 155 100 259.5t251 104.5q112 0 187.5 -52t109.5 -141l-93 -32q-53 133 -200 133q-111 0 -183 -79t-72 -193q0 -118 71.5 -195t184.5 -77q71 0 121.5 32.5t72.5 79.5t24 102h-163v86h261v-378h-71l-15 92q-23 -37 -83 -71.5
t-150 -34.5zM367 -210q18 21 24 45q-44 9 -44 51q0 26 17.5 40.5t38.5 14.5q26 0 42.5 -16t16.5 -45q0 -31 -16 -63t-43 -53z" />
    <glyph glyph-name="gcommaaccent" unicode="&#x123;" horiz-adv-x="601" 
d="M327 723q-18 -21 -25 -45q20 -4 32 -17.5t12 -33.5q0 -26 -17.5 -40.5t-37.5 -14.5q-26 0 -42.5 16t-16.5 46q0 31 16 63t43 52zM288 -218q-92 0 -147.5 43t-76.5 116l92 22q25 -97 132 -97q73 0 111.5 37t38.5 104v74q-21 -34 -63 -57.5t-98 -23.5q-107 0 -171 73.5
t-64 179.5q0 105 65 180.5t169 75.5q109 0 162 -79l16 65h82v-486q0 -99 -63 -163t-185 -64zM290 88q65 0 106.5 45.5t41.5 119.5q0 75 -41.5 121.5t-107.5 46.5t-107.5 -46.5t-41.5 -121.5q0 -74 41.5 -119.5t108.5 -45.5z" />
    <glyph glyph-name="Hcircumflex" unicode="&#x124;" horiz-adv-x="689" 
d="M346 834l-56 -63h-86l90 126h103l90 -126h-85zM512 700h100v-700h-100v311h-335v-311h-100v700h100v-297h335v297z" />
    <glyph glyph-name="hcircumflex" unicode="&#x125;" horiz-adv-x="556" 
d="M173 739l-56 63l-56 -63h-86l91 126h102l91 -126h-86zM318 509q82 0 127.5 -49t45.5 -149v-311h-98v294q0 68 -28 95.5t-78 27.5q-52 0 -88.5 -38t-36.5 -104v-275h-97v700h97v-265q56 74 156 74z" />
    <glyph glyph-name="Hbar" unicode="&#x126;" horiz-adv-x="789" 
d="M711 589v-81h-49v-508h-100v303h-335v-303h-100v508h-50v81h50v111h100v-111h335v111h100v-111h49zM562 395v113h-335v-113h335z" />
    <glyph glyph-name="hbar" unicode="&#x127;" horiz-adv-x="560" 
d="M322 509q82 0 127.5 -49t45.5 -149v-311h-98v294q0 68 -28 95.5t-78 27.5q-52 0 -88.5 -38t-36.5 -104v-275h-97v556h-48v70h48v74h97v-74h143v-70h-143v-121q56 74 156 74z" />
    <glyph glyph-name="Itilde" unicode="&#x128;" horiz-adv-x="254" 
d="M189 777q-31 0 -66 18t-50 18q-30 0 -48 -37l-55 37q28 75 96 75q29 0 64.5 -18t53.5 -18q27 0 47 40l57 -39q-28 -76 -99 -76zM77 0v700h100v-700h-100z" />
    <glyph glyph-name="itilde" unicode="&#x129;" horiz-adv-x="238" 
d="M178 576q-30 0 -65 17.5t-51 17.5q-30 0 -48 -37l-55 37q28 75 96 75q29 0 64.5 -17.5t54.5 -17.5q27 0 47 39l57 -38q-28 -76 -100 -76zM70 0v495h98v-495h-98z" />
    <glyph glyph-name="Imacron" unicode="&#x12a;" horiz-adv-x="254" 
d="M21 796v76h212v-76h-212zM77 0v700h100v-700h-100z" />
    <glyph glyph-name="imacron" unicode="&#x12b;" horiz-adv-x="238" 
d="M13 594v76h212v-76h-212zM70 0v495h98v-495h-98z" />
    <glyph glyph-name="Ibreve" unicode="&#x12c;" horiz-adv-x="254" 
d="M126 775q-56 0 -92 35.5t-39 90.5h72q2 -26 18 -42t42 -16t42.5 16t18.5 42h71q-2 -55 -39 -90.5t-94 -35.5zM77 0v700h100v-700h-100z" />
    <glyph glyph-name="ibreve" unicode="&#x12d;" horiz-adv-x="238" 
d="M118 570q-56 0 -92 35.5t-39 90.5h72q2 -26 18 -42t42 -16t42.5 16t18.5 42h71q-2 -55 -39 -90.5t-94 -35.5zM70 0v495h98v-495h-98z" />
    <glyph glyph-name="Iogonek" unicode="&#x12e;" horiz-adv-x="254" 
d="M177 0q-62 -32 -62 -75q0 -18 13 -29.5t37 -11.5h6l-1 -66q-7 -1 -20 -1q-51 0 -80.5 24.5t-29.5 64.5q0 54 45 94h-8v700h100v-700z" />
    <glyph glyph-name="iogonek" unicode="&#x12f;" horiz-adv-x="238" 
d="M120 568q-27 0 -46 18.5t-19 45.5q0 26 19 45t46 19q26 0 44.5 -19t18.5 -45q0 -27 -18.5 -45.5t-44.5 -18.5zM70 0v495h98v-495q-62 -32 -62 -75q0 -18 13 -29.5t37 -11.5h6l-1 -66q-7 -1 -20 -1q-51 0 -80.5 24.5t-29.5 64.5q0 54 45 94h-6z" />
    <glyph glyph-name="Idotaccent" unicode="&#x130;" horiz-adv-x="254" 
d="M128 772q-27 0 -46 18.5t-19 45.5q0 26 19 45t46 19q26 0 44.5 -19t18.5 -45q0 -27 -18.5 -45.5t-44.5 -18.5zM77 0v700h100v-700h-100z" />
    <glyph glyph-name="dotlessi" unicode="&#x131;" horiz-adv-x="238" 
d="M70 0v495h98v-495h-98z" />
    <glyph glyph-name="IJ" unicode="&#x132;" horiz-adv-x="770" 
d="M77 0v700h100v-700h-100zM488 -14q-89 0 -145.5 51.5t-58.5 137.5v37l98 -18v-11q0 -47 28 -76t78 -29q52 0 79.5 32.5t27.5 90.5v499h100v-496q0 -107 -55.5 -162.5t-151.5 -55.5z" />
    <glyph glyph-name="ij" unicode="&#x133;" horiz-adv-x="484" 
d="M120 568q-27 0 -46 18.5t-19 45.5q0 26 19 45t46 19q26 0 44.5 -19t18.5 -45q0 -27 -18.5 -45.5t-44.5 -18.5zM367 568q-27 0 -46 18.5t-19 45.5q0 26 19 45t46 19q26 0 44.5 -19t18.5 -45q0 -27 -18.5 -45.5t-44.5 -18.5zM70 0v495h98v-495h-98zM283 -219q-74 0 -107 38
l45 70q16 -18 46 -18q50 0 50 60v564h98v-575q0 -63 -37.5 -101t-94.5 -38z" />
    <glyph glyph-name="Jcircumflex" unicode="&#x134;" horiz-adv-x="516" 
d="M441 897l90 -126h-85l-56 63l-56 -63h-86l90 126h103zM341 201v499h100v-496q0 -107 -55.5 -162.5t-151.5 -55.5q-89 0 -145.5 51.5t-58.5 137.5v37l98 -18v-11q0 -47 28 -76t78 -29q52 0 79.5 32.5t27.5 90.5z" />
    <glyph glyph-name="jcircumflex" unicode="&#x135;" horiz-adv-x="246" 
d="M179 695l90 -126h-85l-56 63l-56 -63h-86l90 126h103zM79 -69v564h98v-575q0 -63 -37.5 -101t-94.5 -38q-74 0 -107 38l45 70q16 -18 46 -18q50 0 50 60z" />
    <glyph glyph-name="Kcommaaccent" unicode="&#x136;" horiz-adv-x="638" 
d="M328 410l288 -410h-124l-233 336l-83 -87v-249h-99v700h99v-313l296 313h130zM324 -59q26 0 42.5 -16t16.5 -45q0 -31 -16 -63t-43 -53l-36 26q18 21 24 45q-44 9 -44 51q0 26 17.5 40.5t38.5 14.5z" />
    <glyph glyph-name="kcommaaccent" unicode="&#x137;" horiz-adv-x="510" 
d="M284 299l210 -299h-112l-163 231l-56 -59v-172h-98v700h98v-401l188 196h120zM263 -59q26 0 42.5 -16t16.5 -45q0 -31 -16 -63t-43 -53l-36 26q18 21 24 45q-44 9 -44 51q0 26 17.5 40.5t38.5 14.5z" />
    <glyph glyph-name="kgreenlandic" unicode="&#x138;" horiz-adv-x="510" 
d="M382 0l-163 231l-56 -59v-172h-98v495h98v-196l188 196h120l-187 -196l210 -299h-112z" />
    <glyph glyph-name="Lacute" unicode="&#x139;" horiz-adv-x="527" 
d="M92 771l67 126h127l-107 -126h-87zM77 0v700h100v-608h321v-92h-421z" />
    <glyph glyph-name="lacute" unicode="&#x13a;" horiz-adv-x="228" 
d="M70 771l67 126h127l-107 -126h-87zM65 0v700h98v-700h-98z" />
    <glyph glyph-name="Lcommaaccent" unicode="&#x13b;" horiz-adv-x="527" 
d="M77 0v700h100v-608h321v-92h-421zM248 -210q18 21 24 45q-44 9 -44 51q0 26 17.5 40.5t38.5 14.5q26 0 42.5 -16t16.5 -45q0 -31 -16 -63t-43 -53z" />
    <glyph glyph-name="lcommaaccent" unicode="&#x13c;" horiz-adv-x="228" 
d="M65 0v700h98v-700h-98zM75 -210q18 21 24 45q-44 9 -44 51q0 26 17.5 40.5t38.5 14.5q26 0 42.5 -16t16.5 -45q0 -31 -16 -63t-43 -53z" />
    <glyph glyph-name="Lcaron" unicode="&#x13d;" horiz-adv-x="527" 
d="M77 0v700h100v-608h321v-92h-421zM238 574l41 126h116l-77 -126h-80z" />
    <glyph glyph-name="lcaron" unicode="&#x13e;" horiz-adv-x="228" 
d="M65 0v700h98v-700h-98zM205 574l37 126h101l-72 -126h-66z" />
    <glyph glyph-name="Ldot" unicode="&#x13f;" horiz-adv-x="527" 
d="M77 0v700h100v-608h321v-92h-421zM390 327q-28 0 -47.5 19.5t-19.5 47.5t19.5 47.5t47.5 19.5t47.5 -19.5t19.5 -47.5t-19.5 -47.5t-47.5 -19.5z" />
    <glyph glyph-name="ldot" unicode="&#x140;" horiz-adv-x="357" 
d="M65 0v700h98v-700h-98zM295 283q-28 0 -47.5 19.5t-19.5 47.5t19.5 47.5t47.5 19.5t47.5 -19.5t19.5 -47.5t-19.5 -47.5t-47.5 -19.5z" />
    <glyph glyph-name="Lslash" unicode="&#x141;" 
d="M207 92h321v-92h-421v275l-70 -32l-30 71l100 46v340h100v-294l138 63l32 -71l-170 -77v-229z" />
    <glyph glyph-name="lslash" unicode="&#x142;" horiz-adv-x="318" 
d="M312 417l-104 -78v-339h-98v265l-57 -43l-47 66l104 78v334h98v-260l56 42z" />
    <glyph glyph-name="Nacute" unicode="&#x143;" horiz-adv-x="729" 
d="M326 771l67 126h127l-107 -126h-87zM80 0v700h105l363 -539v539h101v-700h-105l-364 538v-538h-100z" />
    <glyph glyph-name="nacute" unicode="&#x144;" 
d="M232 569l67 126h127l-107 -126h-87zM65 0v495h81l15 -63q57 77 157 77q82 0 128 -49t46 -149v-311h-98v294q0 68 -28 95.5t-78 27.5q-53 0 -89 -37.5t-36 -103.5v-276h-98z" />
    <glyph glyph-name="Ncommaaccent" unicode="&#x145;" horiz-adv-x="729" 
d="M80 0v700h105l363 -539v539h101v-700h-105l-364 538v-538h-100zM326 -210q18 21 24 45q-44 9 -44 51q0 26 17.5 40.5t38.5 14.5q26 0 42.5 -16t16.5 -45q0 -31 -16 -63t-43 -53z" />
    <glyph glyph-name="ncommaaccent" unicode="&#x146;" 
d="M65 0v495h81l15 -63q57 77 157 77q82 0 128 -49t46 -149v-311h-98v294q0 68 -28 95.5t-78 27.5q-53 0 -89 -37.5t-36 -103.5v-276h-98zM245 -210q18 21 24 45q-44 9 -44 51q0 26 17.5 40.5t38.5 14.5q26 0 42.5 -16t16.5 -45q0 -31 -16 -63t-43 -53z" />
    <glyph glyph-name="Ncaron" unicode="&#x147;" horiz-adv-x="729" 
d="M422 774h-103l-90 126h86l56 -63l56 63h85zM548 700h101v-700h-105l-364 538v-538h-100v700h105l363 -539v539z" />
    <glyph glyph-name="ncaron" unicode="&#x148;" 
d="M330 569h-103l-90 126h86l56 -63l56 63h85zM318 509q82 0 128 -49t46 -149v-311h-98v294q0 68 -28 95.5t-78 27.5q-53 0 -89 -37.5t-36 -103.5v-276h-98v495h81l15 -63q57 77 157 77z" />
    <glyph glyph-name="napostrophe" unicode="&#x149;" horiz-adv-x="598" 
d="M22 560q19 25 24 45q-44 9 -44 51q0 26 17.5 40.5t38.5 14.5q26 0 42.5 -16t16.5 -46t-16 -62t-43 -53zM106 0v495h81l15 -63q57 77 157 77q82 0 128 -49t46 -149v-311h-98v294q0 68 -28 95.5t-78 27.5q-53 0 -89 -37.5t-36 -103.5v-276h-98z" />
    <glyph glyph-name="Eng" unicode="&#x14a;" horiz-adv-x="729" 
d="M649 700v-700h-1v-80q0 -63 -37.5 -101t-94.5 -38q-74 0 -107 38l45 70q16 -18 46 -18q50 0 50 60v60l-6 9l-364 538v-538h-100v700h105l363 -539v539h101z" />
    <glyph glyph-name="eng" unicode="&#x14b;" 
d="M318 509q82 0 128 -49t46 -149v-391q0 -63 -38 -101t-95 -38q-73 0 -106 38l44 70q18 -18 47 -18q50 0 50 60v363q0 68 -28 95.5t-78 27.5q-53 0 -89 -37.5t-36 -103.5v-276h-98v495h81l15 -63q57 77 157 77z" />
    <glyph glyph-name="Omacron" unicode="&#x14c;" horiz-adv-x="821" 
d="M305 796v76h212v-76h-212zM411 -13q-158 0 -257 104t-99 260q0 155 99 259.5t257 104.5q157 0 256 -105t99 -259q0 -155 -99 -259.5t-256 -104.5zM411 79q114 0 184.5 76.5t70.5 195.5q0 117 -71.5 194.5t-183.5 77.5q-114 0 -185 -77t-71 -195q0 -120 70.5 -196
t185.5 -76z" />
    <glyph glyph-name="omacron" unicode="&#x14d;" horiz-adv-x="594" 
d="M191 594v76h212v-76h-212zM297 -14q-113 0 -184 77t-71 184q0 108 71.5 185t183.5 77t183.5 -77t71.5 -185q0 -106 -71.5 -183.5t-183.5 -77.5zM297 76q68 0 112.5 48.5t44.5 122.5t-44.5 123t-112.5 49q-69 0 -113 -48.5t-44 -123.5q0 -74 44 -122.5t113 -48.5z" />
    <glyph glyph-name="Obreve" unicode="&#x14e;" horiz-adv-x="821" 
d="M410 775q-56 0 -92 35.5t-39 90.5h72q2 -26 18 -42t42 -16t42.5 16t18.5 42h71q-2 -55 -39 -90.5t-94 -35.5zM411 -13q-158 0 -257 104t-99 260q0 155 99 259.5t257 104.5q157 0 256 -105t99 -259q0 -155 -99 -259.5t-256 -104.5zM411 79q114 0 184.5 76.5t70.5 195.5
q0 117 -71.5 194.5t-183.5 77.5q-114 0 -185 -77t-71 -195q0 -120 70.5 -196t185.5 -76z" />
    <glyph glyph-name="obreve" unicode="&#x14f;" horiz-adv-x="594" 
d="M296 570q-56 0 -92 35.5t-39 90.5h72q2 -26 18 -42t42 -16t42.5 16t18.5 42h71q-2 -55 -39 -90.5t-94 -35.5zM297 -14q-113 0 -184 77t-71 184q0 108 71.5 185t183.5 77t183.5 -77t71.5 -185q0 -106 -71.5 -183.5t-183.5 -77.5zM297 76q68 0 112.5 48.5t44.5 122.5
t-44.5 123t-112.5 49q-69 0 -113 -48.5t-44 -123.5q0 -74 44 -122.5t113 -48.5z" />
    <glyph glyph-name="Ohungarumlaut" unicode="&#x150;" horiz-adv-x="821" 
d="M371 774h-75l65 126h115zM518 774h-75l65 126h115zM411 -13q-158 0 -257 104t-99 260q0 155 99 259.5t257 104.5q157 0 256 -105t99 -259q0 -155 -99 -259.5t-256 -104.5zM411 79q114 0 184.5 76.5t70.5 195.5q0 117 -71.5 194.5t-183.5 77.5q-114 0 -185 -77t-71 -195
q0 -120 70.5 -196t185.5 -76z" />
    <glyph glyph-name="ohungarumlaut" unicode="&#x151;" horiz-adv-x="594" 
d="M257 569h-75l65 126h115zM404 569h-75l65 126h115zM297 -14q-113 0 -184 77t-71 184q0 108 71.5 185t183.5 77t183.5 -77t71.5 -185q0 -106 -71.5 -183.5t-183.5 -77.5zM297 76q68 0 112.5 48.5t44.5 122.5t-44.5 123t-112.5 49q-69 0 -113 -48.5t-44 -123.5
q0 -74 44 -122.5t113 -48.5z" />
    <glyph glyph-name="OE" unicode="&#x152;" horiz-adv-x="1147" 
d="M1097 610h-332v-213h290v-88h-290v-219h332v-90h-432v102q-92 -115 -254 -115q-159 0 -257.5 104t-98.5 260q0 154 99.5 259t256.5 105q161 0 254 -117v102h432v-90zM411 81q113 0 183.5 76t70.5 194q0 115 -71.5 192.5t-182.5 77.5q-112 0 -182.5 -77t-70.5 -193
q0 -119 69 -194.5t184 -75.5z" />
    <glyph glyph-name="oe" unicode="&#x153;" horiz-adv-x="985" 
d="M943 256v-39h-385q4 -62 46.5 -105.5t106.5 -43.5q52 0 87.5 25.5t47.5 60.5l84 -27q-22 -62 -78 -101.5t-141 -39.5q-66 0 -119 29t-86 80q-74 -109 -209 -109q-113 0 -184 77t-71 184q0 108 71.5 185t183.5 77q68 0 122 -29.5t88 -80.5q34 51 87 80t116 29
q106 0 169.5 -69t63.5 -183zM559 294h296q-4 53 -42.5 92.5t-101.5 39.5t-103 -38t-49 -94zM297 76q68 0 112.5 48.5t44.5 122.5t-44.5 123t-112.5 49q-69 0 -113 -48.5t-44 -123.5q0 -74 44 -122.5t113 -48.5z" />
    <glyph glyph-name="Racute" unicode="&#x154;" horiz-adv-x="621" 
d="M249 771l67 126h127l-107 -126h-87zM77 0v700h242q109 0 168.5 -57t59.5 -147q0 -80 -42 -130.5t-104 -67.5l174 -298h-110l-165 285h-123v-285h-100zM177 373h140q60 0 95 31t35 88q0 59 -36 88.5t-96 29.5h-138v-237z" />
    <glyph glyph-name="racute" unicode="&#x155;" horiz-adv-x="387" 
d="M177 569l67 126h127l-107 -126h-87zM65 0v495h81l15 -62q18 32 51.5 54t77.5 22q56 0 89 -25l-38 -86q-22 18 -64 18q-49 0 -81.5 -38.5t-32.5 -103.5v-274h-98z" />
    <glyph glyph-name="Rcommaaccent" unicode="&#x156;" horiz-adv-x="621" 
d="M77 0v700h242q109 0 168.5 -57t59.5 -147q0 -80 -42 -130.5t-104 -67.5l174 -298h-110l-165 285h-123v-285h-100zM177 373h140q60 0 95 31t35 88q0 59 -36 88.5t-96 29.5h-138v-237zM271 -210q18 21 24 45q-44 9 -44 51q0 26 17.5 40.5t38.5 14.5q26 0 42.5 -16t16.5 -45
q0 -31 -16 -63t-43 -53z" />
    <glyph glyph-name="rcommaaccent" unicode="&#x157;" horiz-adv-x="387" 
d="M65 0v495h81l15 -62q18 32 51.5 54t77.5 22q56 0 89 -25l-38 -86q-22 18 -64 18q-49 0 -81.5 -38.5t-32.5 -103.5v-274h-98zM80 -210q18 21 24 45q-44 9 -44 51q0 26 17.5 40.5t38.5 14.5q26 0 42.5 -16t16.5 -45q0 -31 -16 -63t-43 -53z" />
    <glyph glyph-name="Rcaron" unicode="&#x158;" horiz-adv-x="621" 
d="M345 774h-103l-90 126h86l56 -63l56 63h85zM401 298l174 -298h-110l-165 285h-123v-285h-100v700h242q109 0 168.5 -57t59.5 -147q0 -80 -42 -130.5t-104 -67.5zM177 373h140q60 0 95 31t35 88q0 59 -36 88.5t-96 29.5h-138v-237z" />
    <glyph glyph-name="rcaron" unicode="&#x159;" horiz-adv-x="387" 
d="M275 569h-103l-90 126h86l56 -63l56 63h85zM290 509q56 0 89 -25l-38 -86q-22 18 -64 18q-49 0 -81.5 -38.5t-32.5 -103.5v-274h-98v495h81l15 -62q18 32 51.5 54t77.5 22z" />
    <glyph glyph-name="Sacute" unicode="&#x15a;" horiz-adv-x="602" 
d="M262 771l67 126h127l-107 -126h-87zM307 -13q-104 0 -172 50.5t-93 149.5l94 27q18 -70 59 -103.5t112 -33.5q68 0 110.5 30t42.5 86q0 42 -30.5 70.5t-120.5 45.5q-120 21 -182 69.5t-62 134.5q0 90 68 146t174 56q96 0 156.5 -50t83.5 -141l-93 -27q-15 63 -50 95.5
t-97 32.5q-64 0 -103 -29.5t-39 -82.5q0 -47 38 -70t123 -39q120 -25 177 -74.5t57 -136.5q0 -93 -72 -149.5t-181 -56.5z" />
    <glyph glyph-name="sacute" unicode="&#x15b;" horiz-adv-x="484" 
d="M201 568l67 126h127l-107 -126h-87zM246 -14q-163 0 -204 150l88 27q12 -42 37.5 -68t78.5 -26q46 0 74.5 18.5t28.5 50.5q0 24 -21 41.5t-83 28.5q-42 8 -72 17.5t-57.5 26.5t-42 43.5t-14.5 62.5q0 67 52.5 108.5t134.5 41.5q75 0 123.5 -37.5t63.5 -105.5l-87 -25
q-19 85 -100 85q-48 0 -71 -18.5t-23 -44.5q0 -29 27 -43.5t83 -24.5q88 -17 134 -51.5t46 -103.5q0 -67 -55 -110t-141 -43z" />
    <glyph glyph-name="Scircumflex" unicode="&#x15c;" horiz-adv-x="602" 
d="M307 834l-56 -63h-86l90 126h103l90 -126h-85zM326 404q120 -25 177 -74.5t57 -136.5q0 -93 -72 -149.5t-181 -56.5q-104 0 -172 50.5t-93 149.5l94 27q18 -70 59 -103.5t112 -33.5q68 0 110.5 30t42.5 86q0 42 -30.5 70.5t-120.5 45.5q-120 21 -182 69.5t-62 134.5
q0 90 68 146t174 56q96 0 156.5 -50t83.5 -141l-93 -27q-15 63 -50 95.5t-97 32.5q-64 0 -103 -29.5t-39 -82.5q0 -47 38 -70t123 -39z" />
    <glyph glyph-name="scircumflex" unicode="&#x15d;" horiz-adv-x="484" 
d="M248 631l-56 -63h-86l90 126h103l90 -126h-85zM262 294q88 -17 134 -51.5t46 -103.5q0 -67 -55 -110t-141 -43q-163 0 -204 150l88 27q12 -42 37.5 -68t78.5 -26q46 0 74.5 18.5t28.5 50.5q0 24 -21 41.5t-83 28.5q-42 8 -72 17.5t-57.5 26.5t-42 43.5t-14.5 62.5
q0 67 52.5 108.5t134.5 41.5q75 0 123.5 -37.5t63.5 -105.5l-87 -25q-19 85 -100 85q-48 0 -71 -18.5t-23 -44.5q0 -29 27 -43.5t83 -24.5z" />
    <glyph glyph-name="Scedilla" unicode="&#x15e;" horiz-adv-x="602" 
d="M560 193q0 -87 -64 -142.5t-163 -62.5l-16 -30q36 -1 60 -23t24 -58q0 -43 -26 -68.5t-69 -25.5q-37 0 -63 20.5t-28 50.5l55 19q0 -35 36 -35q16 0 25.5 9.5t9.5 25.5q0 15 -10 24t-25 9t-22 -7l-44 25l34 64q-185 16 -232 199l94 27q18 -70 59 -103.5t112 -33.5
q68 0 110.5 30t42.5 86q0 42 -30.5 70.5t-120.5 45.5q-120 21 -182 69.5t-62 134.5q0 90 68 146t174 56q96 0 156.5 -50t83.5 -141l-93 -27q-15 63 -50 95.5t-97 32.5q-64 0 -103 -29.5t-39 -82.5q0 -47 38 -70t123 -39q120 -25 177 -74.5t57 -136.5z" />
    <glyph glyph-name="scedilla" unicode="&#x15f;" horiz-adv-x="484" 
d="M442 139q0 -61 -47 -102.5t-122 -49.5l-15 -29q36 -1 60.5 -23t24.5 -58q0 -43 -26 -68.5t-69 -25.5q-38 0 -63.5 20.5t-28.5 50.5l55 19q0 -16 10 -25.5t27 -9.5q15 0 25 9.5t10 25.5q0 15 -10 24t-25 9q-16 0 -23 -7l-43 25l34 63q-67 8 -111.5 45.5t-62.5 103.5l88 27
q12 -42 37.5 -68t78.5 -26q46 0 74.5 18.5t28.5 50.5q0 24 -21 41.5t-83 28.5q-42 8 -72 17.5t-57.5 26.5t-42 43.5t-14.5 62.5q0 67 52.5 108.5t134.5 41.5q75 0 123.5 -37.5t63.5 -105.5l-87 -25q-19 85 -100 85q-48 0 -71 -18.5t-23 -44.5q0 -29 27 -43.5t83 -24.5
q88 -17 134 -51.5t46 -103.5z" />
    <glyph glyph-name="Scaron" unicode="&#x160;" horiz-adv-x="602" 
d="M358 774h-103l-90 126h86l56 -63l56 63h85zM326 404q120 -25 177 -74.5t57 -136.5q0 -93 -72 -149.5t-181 -56.5q-104 0 -172 50.5t-93 149.5l94 27q18 -70 59 -103.5t112 -33.5q68 0 110.5 30t42.5 86q0 42 -30.5 70.5t-120.5 45.5q-120 21 -182 69.5t-62 134.5
q0 90 68 146t174 56q96 0 156.5 -50t83.5 -141l-93 -27q-15 63 -50 95.5t-97 32.5q-64 0 -103 -29.5t-39 -82.5q0 -47 38 -70t123 -39z" />
    <glyph glyph-name="scaron" unicode="&#x161;" horiz-adv-x="484" 
d="M299 568h-103l-90 126h86l56 -63l56 63h85zM262 294q88 -17 134 -51.5t46 -103.5q0 -67 -55 -110t-141 -43q-163 0 -204 150l88 27q12 -42 37.5 -68t78.5 -26q46 0 74.5 18.5t28.5 50.5q0 24 -21 41.5t-83 28.5q-42 8 -72 17.5t-57.5 26.5t-42 43.5t-14.5 62.5
q0 67 52.5 108.5t134.5 41.5q75 0 123.5 -37.5t63.5 -105.5l-87 -25q-19 85 -100 85q-48 0 -71 -18.5t-23 -44.5q0 -29 27 -43.5t83 -24.5z" />
    <glyph glyph-name="uni0162" unicode="&#x162;" horiz-adv-x="575" 
d="M337 0h-17l-22 -42q36 -1 60 -23t24 -58q0 -43 -26 -68.5t-69 -25.5q-37 0 -63 20.5t-28 50.5l55 19q0 -35 36 -35q16 0 25.5 9.5t9.5 25.5q0 15 -10 24t-25 9t-22 -7l-44 25l41 76h-25v608h-208v92h517v-92h-209v-608z" />
    <glyph glyph-name="uni0163" unicode="&#x163;" horiz-adv-x="373" 
d="M352 26q-30 -35 -97 -40l-15 -28q36 -1 60.5 -23t24.5 -58q0 -43 -26 -68.5t-69 -25.5q-38 0 -63.5 20.5t-28.5 50.5l55 19q0 -16 10 -25.5t27 -9.5q15 0 25 9.5t10 25.5q0 15 -10 24t-25 9q-16 0 -23 -7l-43 25l36 67q-42 12 -66.5 45.5t-24.5 86.5v284h-89v88h89v129
h98v-129h134v-88h-134v-272q0 -58 52 -58q29 0 48 19z" />
    <glyph glyph-name="Tcaron" unicode="&#x164;" horiz-adv-x="575" 
d="M339 774h-103l-90 126h86l56 -63l56 63h85zM29 700h517v-92h-209v-608h-100v608h-208v92z" />
    <glyph glyph-name="tcaron" unicode="&#x165;" horiz-adv-x="373" 
d="M243 574l41 126h116l-77 -126h-80zM240 -14q-58 0 -94.5 36t-36.5 101v284h-89v88h89v129h98v-129h134v-88h-134v-272q0 -58 52 -58q29 0 48 19l45 -70q-35 -40 -112 -40z" />
    <glyph glyph-name="Tbar" unicode="&#x166;" horiz-adv-x="575" 
d="M546 608h-209v-236h112v-77h-112v-295h-100v295h-110v77h110v236h-208v92h517v-92z" />
    <glyph glyph-name="tbar" unicode="&#x167;" horiz-adv-x="374" 
d="M307 95l46 -69q-40 -40 -113 -40q-58 0 -94.5 33.5t-36.5 93.5v111h-66v70h66v127h-89v74h89v129h98v-129h134v-74h-134v-127h94v-70h-94v-99q0 -48 52 -48q34 0 48 18z" />
    <glyph glyph-name="Utilde" unicode="&#x168;" horiz-adv-x="685" 
d="M408 777q-30 0 -65 18t-51 18q-30 0 -48 -37l-55 37q28 75 96 75q29 0 64.5 -18t53.5 -18q27 0 47 40l57 -39q-28 -76 -99 -76zM343 -14q-119 0 -192.5 69.5t-73.5 207.5v437h100v-432q0 -190 166 -190q78 0 121.5 46.5t43.5 143.5v432h100v-438q0 -139 -73 -207.5
t-192 -68.5z" />
    <glyph glyph-name="utilde" unicode="&#x169;" 
d="M338 576q-30 0 -65 17.5t-51 17.5q-30 0 -48 -37l-55 37q28 75 96 75q29 0 64.5 -17.5t54.5 -17.5q27 0 47 39l57 -38q-28 -76 -100 -76zM492 495v-495h-81l-15 63q-57 -77 -157 -77q-82 0 -128 48.5t-46 148.5v312h98v-295q0 -123 106 -123q53 0 89 37.5t36 103.5v277
h98z" />
    <glyph glyph-name="Umacron" unicode="&#x16a;" horiz-adv-x="685" 
d="M240 796v76h212v-76h-212zM343 -14q-119 0 -192.5 69.5t-73.5 207.5v437h100v-432q0 -190 166 -190q78 0 121.5 46.5t43.5 143.5v432h100v-438q0 -139 -73 -207.5t-192 -68.5z" />
    <glyph glyph-name="umacron" unicode="&#x16b;" 
d="M173 594v76h212v-76h-212zM492 495v-495h-81l-15 63q-57 -77 -157 -77q-82 0 -128 48.5t-46 148.5v312h98v-295q0 -123 106 -123q53 0 89 37.5t36 103.5v277h98z" />
    <glyph glyph-name="Ubreve" unicode="&#x16c;" horiz-adv-x="685" 
d="M345 775q-56 0 -92 35.5t-39 90.5h72q2 -26 18 -42t42 -16t42.5 16t18.5 42h71q-2 -55 -39 -90.5t-94 -35.5zM343 -14q-119 0 -192.5 69.5t-73.5 207.5v437h100v-432q0 -190 166 -190q78 0 121.5 46.5t43.5 143.5v432h100v-438q0 -139 -73 -207.5t-192 -68.5z" />
    <glyph glyph-name="ubreve" unicode="&#x16d;" 
d="M278 570q-56 0 -92 35.5t-39 90.5h72q2 -26 18 -42t42 -16t42.5 16t18.5 42h71q-2 -55 -39 -90.5t-94 -35.5zM492 495v-495h-81l-15 63q-57 -77 -157 -77q-82 0 -128 48.5t-46 148.5v312h98v-295q0 -123 106 -123q53 0 89 37.5t36 103.5v277h98z" />
    <glyph glyph-name="Uring" unicode="&#x16e;" horiz-adv-x="685" 
d="M344 742q-37 0 -64 27t-27 65t27 65t64 27q38 0 65 -27t27 -65t-27 -65t-65 -27zM344 800q14 0 24 10t10 24t-10 24t-24 10t-24 -10t-10 -24t10 -24t24 -10zM343 -14q-119 0 -192.5 69.5t-73.5 207.5v437h100v-432q0 -190 166 -190q78 0 121.5 46.5t43.5 143.5v432h100
v-438q0 -139 -73 -207.5t-192 -68.5z" />
    <glyph glyph-name="uring" unicode="&#x16f;" 
d="M279 544q-37 0 -64 27t-27 65t27 65t64 27t64.5 -27t27.5 -65t-27.5 -65t-64.5 -27zM279 602q14 0 24 10t10 24t-10 24t-24 10t-24 -10t-10 -24t10 -24t24 -10zM492 495v-495h-81l-15 63q-57 -77 -157 -77q-82 0 -128 48.5t-46 148.5v312h98v-295q0 -123 106 -123
q53 0 89 37.5t36 103.5v277h98z" />
    <glyph glyph-name="Uhungarumlaut" unicode="&#x170;" horiz-adv-x="685" 
d="M306 774h-75l65 126h115zM453 774h-75l65 126h115zM343 -14q-119 0 -192.5 69.5t-73.5 207.5v437h100v-432q0 -190 166 -190q78 0 121.5 46.5t43.5 143.5v432h100v-438q0 -139 -73 -207.5t-192 -68.5z" />
    <glyph glyph-name="uhungarumlaut" unicode="&#x171;" 
d="M239 569h-75l65 126h115zM386 569h-75l65 126h115zM492 495v-495h-81l-15 63q-57 -77 -157 -77q-82 0 -128 48.5t-46 148.5v312h98v-295q0 -123 106 -123q53 0 89 37.5t36 103.5v277h98z" />
    <glyph glyph-name="Uogonek" unicode="&#x172;" horiz-adv-x="685" 
d="M417 -182q-7 -1 -20 -1q-51 0 -80.5 24.5t-29.5 64.5q0 46 37 81q-112 6 -179.5 75t-67.5 201v437h100v-432q0 -190 166 -190q78 0 121.5 46.5t43.5 143.5v432h100v-438q0 -168 -108 -235q-21 -14 -69 -31q-69 -28 -69 -71q0 -18 13 -29.5t37 -11.5h6z" />
    <glyph glyph-name="uogonek" unicode="&#x173;" 
d="M492 0q-62 -32 -62 -75q0 -18 13 -29.5t37 -11.5h6l-1 -66q-7 -1 -20 -1q-51 0 -80.5 24.5t-29.5 64.5q0 60 54 101l-13 56q-57 -77 -157 -77q-82 0 -128 48.5t-46 148.5v312h98v-295q0 -123 106 -123q53 0 89 37.5t36 103.5v277h98v-495z" />
    <glyph glyph-name="Wcircumflex" unicode="&#x174;" horiz-adv-x="940" 
d="M470 834l-56 -63h-86l90 126h103l90 -126h-85zM816 700h102l-197 -700h-101l-150 556l-150 -556h-101l-197 700h103l148 -549l147 549h102l147 -547z" />
    <glyph glyph-name="wcircumflex" unicode="&#x175;" horiz-adv-x="759" 
d="M379 632l-56 -63h-86l90 126h103l90 -126h-85zM644 495h99l-153 -495h-101l-109 373l-110 -373h-101l-153 495h99l107 -378l109 378h96l110 -377z" />
    <glyph glyph-name="Ycircumflex" unicode="&#x176;" horiz-adv-x="623" 
d="M312 834l-56 -63h-86l90 126h103l90 -126h-85zM492 700h109l-239 -421v-279h-100v279l-240 421h109l180 -322z" />
    <glyph glyph-name="ycircumflex" unicode="&#x177;" horiz-adv-x="569" 
d="M285 632l-56 -63h-86l90 126h103l90 -126h-85zM406 495h98v-486q0 -99 -57.5 -163t-168.5 -64q-87 0 -140 42.5t-73 115.5l92 20q22 -93 121 -93q63 0 95.5 37t32.5 103v68q-30 -37 -67 -55.5t-93 -18.5q-79 0 -129 48.5t-50 146.5v299h98v-277q0 -126 111 -126
q57 0 93.5 37.5t36.5 104.5v261z" />
    <glyph glyph-name="Ydieresis" unicode="&#x178;" horiz-adv-x="623" 
d="M225 770q-26 0 -45.5 19t-19.5 45t19.5 45t45.5 19t45 -19t19 -45t-19 -45t-45 -19zM399 770q-26 0 -45 19t-19 45t19 45t45 19q27 0 45.5 -19t18.5 -45t-18.5 -45t-45.5 -19zM262 0v279l-240 421h109l180 -322l181 322h109l-239 -421v-279h-100z" />
    <glyph glyph-name="Zacute" unicode="&#x179;" horiz-adv-x="615" 
d="M272 771l67 126h127l-107 -126h-87zM43 0v88l405 522h-377v90h500v-88l-404 -522h400v-90h-524z" />
    <glyph glyph-name="zacute" unicode="&#x17a;" horiz-adv-x="469" 
d="M188 569l67 126h127l-107 -126h-87zM41 0v77l264 334h-256v84h376v-77l-265 -335h268l-1 -83h-386z" />
    <glyph glyph-name="Zdotaccent" unicode="&#x17b;" horiz-adv-x="615" 
d="M318 772q-27 0 -46 18.5t-19 45.5q0 26 19 45t46 19q26 0 44.5 -19t18.5 -45q0 -27 -18.5 -45.5t-44.5 -18.5zM43 0v88l405 522h-377v90h500v-88l-404 -522h400v-90h-524z" />
    <glyph glyph-name="zdotaccent" unicode="&#x17c;" horiz-adv-x="469" 
d="M236 568q-27 0 -46 18.5t-19 45.5q0 26 19 45t46 19q26 0 44.5 -19t18.5 -45q0 -27 -18.5 -45.5t-44.5 -18.5zM41 0v77l264 334h-256v84h376v-77l-265 -335h268l-1 -83h-386z" />
    <glyph glyph-name="Zcaron" unicode="&#x17d;" horiz-adv-x="615" 
d="M368 774h-103l-90 126h86l56 -63l56 63h85zM571 700v-88l-404 -522h400v-90h-524v88l405 522h-377v90h500z" />
    <glyph glyph-name="zcaron" unicode="&#x17e;" horiz-adv-x="469" 
d="M286 569h-103l-90 126h86l56 -63l56 63h85zM160 83h268l-1 -83h-386v77l264 334h-256v84h376v-77z" />
    <glyph glyph-name="longs" unicode="&#x17f;" horiz-adv-x="274" 
d="M65 0v597q0 58 31 87.5t83 29.5q49 0 79 -15l-23 -80q-14 6 -34 6q-38 0 -38 -40v-585h-98z" />
    <glyph glyph-name="florin" unicode="&#x192;" horiz-adv-x="423" 
d="M268 620v-125h124v-88h-124v-440q0 -63 -37.5 -100.5t-95.5 -37.5q-79 0 -115 40l47 69q18 -18 49 -18q52 0 52 58v429h-97v88h97v136q0 63 37 100.5t95 37.5q75 0 115 -40l-47 -69q-18 18 -49 18q-51 0 -51 -58z" />
    <glyph glyph-name="uni01B5" unicode="&#x1b5;" horiz-adv-x="615" 
d="M571 700v-88l-175 -226h124v-77h-184l-169 -219h400v-90h-524v88l171 221h-113v77h173l174 224h-377v90h500z" />
    <glyph glyph-name="uni01B6" unicode="&#x1b6;" horiz-adv-x="469" 
d="M160 83h268l-1 -83h-386v77l108 137h-79v68h133l102 129h-256v84h376v-77l-108 -136h78v-68h-131z" />
    <glyph glyph-name="AEacute" unicode="&#x1fc;" horiz-adv-x="986" 
d="M823 897l-107 -126h-87l67 126h127zM936 610h-332v-213h290v-88h-290v-219h332v-90h-432v160h-268l-107 -160h-107l467 700h447v-90zM294 248h210v315z" />
    <glyph glyph-name="aeacute" unicode="&#x1fd;" horiz-adv-x="884" 
d="M588 695l-107 -126h-87l67 126h127zM841 256v-39h-385q4 -62 46.5 -105.5t106.5 -43.5q52 0 87.5 25.5t47.5 60.5l84 -27q-22 -62 -78 -101.5t-141 -39.5q-128 0 -200 101v-1q-12 -36 -54.5 -68t-121.5 -32q-86 0 -137 42.5t-51 108.5q0 133 193 159l118 17v13
q0 103 -105 103q-96 0 -111 -91l-87 21q36 150 200 150q125 0 175 -80q71 79 180 79q106 0 169.5 -69t63.5 -183zM457 294h296q-4 53 -42.5 92.5t-101.5 39.5t-103 -38t-49 -94zM356 176v67l-110 -16q-53 -8 -79.5 -27.5t-26.5 -56.5q0 -35 26.5 -55.5t73.5 -20.5
q49 0 82.5 28t33.5 81z" />
    <glyph glyph-name="Oslashacute" unicode="&#x1fe;" horiz-adv-x="821" 
d="M561 897l-107 -126h-87l67 126h127zM658 619q108 -105 108 -268q0 -155 -99 -259.5t-256 -104.5q-95 0 -174 41l-57 -80l-70 50l57 80q-112 104 -112 273q0 155 99 259.5t257 104.5q99 0 178 -45l50 70l69 -50zM155 351q0 -117 69 -194l310 436q-57 30 -123 30
q-114 0 -185 -77t-71 -195zM411 79q114 0 184.5 76.5t70.5 195.5q0 112 -65 188l-309 -433q53 -27 119 -27z" />
    <glyph glyph-name="oslashacute" unicode="&#x1ff;" horiz-adv-x="594" 
d="M442 695l-107 -126h-87l67 126h127zM479 434q73 -78 73 -187q0 -106 -71.5 -183.5t-183.5 -77.5q-66 0 -119 28l-40 -55l-62 45l40 56q-74 76 -74 187q0 108 71.5 185t183.5 77q65 0 121 -29l38 52l61 -45zM140 247q0 -62 33 -108l191 265q-30 15 -67 15
q-69 0 -113 -48.5t-44 -123.5zM297 76q68 0 112.5 48.5t44.5 122.5q0 62 -32 108l-190 -265q30 -14 65 -14z" />
    <glyph glyph-name="Scommaaccent" unicode="&#x218;" horiz-adv-x="602" 
d="M307 -13q-104 0 -172 50.5t-93 149.5l94 27q18 -70 59 -103.5t112 -33.5q68 0 110.5 30t42.5 86q0 42 -30.5 70.5t-120.5 45.5q-120 21 -182 69.5t-62 134.5q0 90 68 146t174 56q96 0 156.5 -50t83.5 -141l-93 -27q-15 63 -50 95.5t-97 32.5q-64 0 -103 -29.5t-39 -82.5
q0 -47 38 -70t123 -39q120 -25 177 -74.5t57 -136.5q0 -93 -72 -149.5t-181 -56.5zM268 -210q18 21 24 45q-44 9 -44 51q0 26 17.5 40.5t38.5 14.5q26 0 42.5 -16t16.5 -45q0 -31 -16 -63t-43 -53z" />
    <glyph glyph-name="scommaaccent" unicode="&#x219;" horiz-adv-x="484" 
d="M246 -14q-163 0 -204 150l88 27q12 -42 37.5 -68t78.5 -26q46 0 74.5 18.5t28.5 50.5q0 24 -21 41.5t-83 28.5q-42 8 -72 17.5t-57.5 26.5t-42 43.5t-14.5 62.5q0 67 52.5 108.5t134.5 41.5q75 0 123.5 -37.5t63.5 -105.5l-87 -25q-19 85 -100 85q-48 0 -71 -18.5
t-23 -44.5q0 -29 27 -43.5t83 -24.5q88 -17 134 -51.5t46 -103.5q0 -67 -55 -110t-141 -43zM208 -210q18 21 24 45q-44 9 -44 51q0 26 17.5 40.5t38.5 14.5q26 0 42.5 -16t16.5 -45q0 -31 -16 -63t-43 -53z" />
    <glyph glyph-name="uni021A" unicode="&#x21a;" horiz-adv-x="575" 
d="M237 0v608h-208v92h517v-92h-209v-608h-100zM249 -210q18 21 24 45q-44 9 -44 51q0 26 17.5 40.5t38.5 14.5q26 0 42.5 -16t16.5 -45q0 -31 -16 -63t-43 -53z" />
    <glyph glyph-name="uni021B" unicode="&#x21b;" horiz-adv-x="373" 
d="M240 -14q-58 0 -94.5 36t-36.5 101v284h-89v88h89v129h98v-129h134v-88h-134v-272q0 -58 52 -58q29 0 48 19l45 -70q-35 -40 -112 -40zM190 -210q18 21 24 45q-44 9 -44 51q0 26 17.5 40.5t38.5 14.5q26 0 42.5 -16t16.5 -45q0 -31 -16 -63t-43 -53z" />
    <glyph glyph-name="uni0237" unicode="&#x237;" horiz-adv-x="246" 
d="M45 -219q-74 0 -107 38l45 70q16 -18 46 -18q50 0 50 60v564h98v-575q0 -63 -37.5 -101t-94.5 -38z" />
    <glyph glyph-name="uni02BB" unicode="&#x2bb;" horiz-adv-x="196" 
d="M40 516q38 48 40 93q-49 17 -49 63q0 29 19.5 48.5t46.5 19.5q29 0 48.5 -19.5t19.5 -56.5q0 -42 -22 -94.5t-61 -88.5z" />
    <glyph glyph-name="circumflex" unicode="&#x2c6;" 
d="M420 569h-85l-56 63l-56 -63h-86l90 126h103z" />
    <glyph glyph-name="caron" unicode="&#x2c7;" 
d="M336 695h85l-90 -126h-103l-90 126h86l56 -63z" />
    <glyph glyph-name="breve" unicode="&#x2d8;" 
d="M268 570q-56 0 -92 35.5t-39 90.5h72q2 -26 18 -42t42 -16t42.5 16t18.5 42h71q-2 -55 -39 -90.5t-94 -35.5z" />
    <glyph glyph-name="dotaccent" unicode="&#x2d9;" 
d="M280 568q-27 0 -46 18.5t-19 45.5q0 26 19 45t46 19q26 0 44.5 -19t18.5 -45q0 -27 -18.5 -45.5t-44.5 -18.5z" />
    <glyph glyph-name="ring" unicode="&#x2da;" 
d="M279 544q-37 0 -64 27t-27 65t27 65t64 27t64.5 -27t27.5 -65t-27.5 -65t-64.5 -27zM279 602q14 0 24 10t10 24t-10 24t-24 10t-24 -10t-10 -24t10 -24t24 -10z" />
    <glyph glyph-name="ogonek" unicode="&#x2db;" 
d="M322 -182q-7 -1 -20 -1q-51 0 -80.5 24.5t-29.5 64.5q0 72 76 116l61 -22q-62 -32 -62 -75q0 -18 13 -29.5t37 -11.5h6z" />
    <glyph glyph-name="tilde" unicode="&#x2dc;" 
d="M338 576q-30 0 -65 17.5t-51 17.5q-30 0 -48 -37l-55 37q28 75 96 75q29 0 64.5 -17.5t54.5 -17.5q27 0 47 39l57 -38q-28 -76 -100 -76z" />
    <glyph glyph-name="hungarumlaut" unicode="&#x2dd;" 
d="M226 569h-75l65 126h115zM373 569h-75l65 126h115z" />
    <glyph glyph-name="gravecomb" unicode="&#x300;" horiz-adv-x="0" 
d="M-40 569l-107 126h127l67 -126h-87z" />
    <glyph glyph-name="acutecomb" unicode="&#x301;" horiz-adv-x="0" 
d="M-47 569l67 126h127l-107 -126h-87z" />
    <glyph glyph-name="uni0302" unicode="&#x302;" horiz-adv-x="0" 
d="M141 569h-85l-56 63l-56 -63h-86l90 126h103z" />
    <glyph glyph-name="tildecomb" unicode="&#x303;" horiz-adv-x="0" 
d="M59 576q-30 0 -65 17.5t-51 17.5q-29 0 -48 -37l-55 37q28 75 96 75q29 0 64.5 -17.5t54.5 -17.5q27 0 47 39l57 -38q-28 -76 -100 -76z" />
    <glyph glyph-name="uni0304" unicode="&#x304;" horiz-adv-x="0" 
d="M-106 594v76h212v-76h-212z" />
    <glyph glyph-name="uni0306" unicode="&#x306;" horiz-adv-x="0" 
d="M-1 570q-56 0 -92 35.5t-39 90.5h72q2 -26 18 -42t42 -16t42.5 16t18.5 42h71q-2 -55 -39 -90.5t-94 -35.5z" />
    <glyph glyph-name="uni0307" unicode="&#x307;" horiz-adv-x="0" 
d="M1 568q-27 0 -46 18.5t-19 45.5q0 26 19 45t46 19q26 0 44.5 -19t18.5 -45q0 -27 -18.5 -45.5t-44.5 -18.5z" />
    <glyph glyph-name="uni0308" unicode="&#x308;" horiz-adv-x="0" 
d="M-84 568q-26 0 -45 19t-19 45t19 45t45 19t45 -19t19 -45t-19 -45t-45 -19zM84 568q-26 0 -45 19t-19 45t19 45t45 19t45 -19t19 -45t-19 -45t-45 -19z" />
    <glyph glyph-name="uni030A" unicode="&#x30a;" horiz-adv-x="0" 
d="M0 544q-37 0 -64 27t-27 65t27 65t64 27q38 0 65 -27t27 -65t-27 -65t-65 -27zM0 602q14 0 24 10t10 24t-10 24t-24 10t-24 -10t-10 -24t10 -24t24 -10z" />
    <glyph glyph-name="uni030B" unicode="&#x30b;" horiz-adv-x="0" 
d="M-44 569h-75l65 126h115zM103 569h-75l65 126h115z" />
    <glyph glyph-name="uni030C" unicode="&#x30c;" horiz-adv-x="0" 
d="M56 695h85l-90 -126h-103l-90 126h86l56 -63z" />
    <glyph glyph-name="uni0312" unicode="&#x312;" horiz-adv-x="0" 
d="M36 723q-18 -21 -25 -45q20 -4 32 -17.5t12 -33.5q0 -26 -17.5 -40.5t-37.5 -14.5q-26 0 -42.5 16t-16.5 46q0 31 16 63t43 52z" />
    <glyph glyph-name="uni0326" unicode="&#x326;" horiz-adv-x="0" 
d="M-39 -210q18 21 24 45q-44 9 -44 51q0 26 17.5 40.5t38.5 14.5q26 0 42.5 -16t16.5 -45q0 -31 -16 -63t-43 -53z" />
    <glyph glyph-name="uni0327" unicode="&#x327;" horiz-adv-x="0" 
d="M1 -217q-38 0 -63.5 20.5t-28.5 50.5l55 19q0 -16 10 -25.5t27 -9.5q15 0 25 9.5t10 25.5q0 15 -10 24t-25 9q-16 0 -23 -7l-43 25l45 84l53 -8l-22 -42q36 -1 60.5 -23t24.5 -58q0 -43 -26 -68.5t-69 -25.5z" />
    <glyph glyph-name="uni0328" unicode="&#x328;" horiz-adv-x="0" 
d="M64 -182q-7 -1 -20 -1q-51 0 -80.5 24.5t-29.5 64.5q0 72 76 116l61 -22q-62 -32 -62 -75q0 -18 13 -29.5t37 -11.5h6z" />
    <glyph glyph-name="uni0335" unicode="&#x335;" horiz-adv-x="0" 
d="M-173 339v70h321v-70h-321z" />
    <glyph glyph-name="uni0336" unicode="&#x336;" horiz-adv-x="0" 
d="M-86 311v78h340v-78h-340z" />
    <glyph glyph-name="uni0337" unicode="&#x337;" horiz-adv-x="0" 
d="M-23 227l-47 65l258 194l47 -64z" />
    <glyph glyph-name="uni0338" unicode="&#x338;" horiz-adv-x="0" 
d="M-58 -48l-62 45l380 528l62 -45z" />
    <glyph glyph-name="uni0394" unicode="&#x394;" horiz-adv-x="668" 
d="M22 0l259 700h107l258 -700h-624zM157 90h354l-176 483z" />
    <glyph glyph-name="uni03A9" unicode="&#x3a9;" horiz-adv-x="820" 
d="M765 353q0 -81 -34 -150t-93 -115h127v-88h-285v88q86 22 135.5 93t49.5 170q0 117 -70.5 194.5t-183.5 77.5q-114 0 -185 -77.5t-71 -194.5q0 -99 49 -169.5t135 -93.5v-88h-284v88h123q-123 96 -123 265q0 154 99.5 258t256.5 104q155 0 254.5 -104t99.5 -258z" />
    <glyph glyph-name="uni03BC" unicode="&#x3bc;" 
d="M394 495h98v-495h-81l-15 63q-57 -77 -157 -77q-44 0 -76 13v-204h-98v700h98v-295q0 -123 106 -123q53 0 89 37.5t36 103.5v277z" />
    <glyph glyph-name="pi" unicode="&#x3c0;" horiz-adv-x="642" 
d="M576 92l45 -67q-34 -39 -111 -39q-56 0 -92.5 36.5t-37.5 100.5v287h-161v-410h-98v410h-101v85h588v-85h-130v-277q0 -58 51 -58q30 0 47 17z" />
    <glyph glyph-name="Wgrave" unicode="&#x1e80;" horiz-adv-x="940" 
d="M515 771h-87l-107 126h127zM816 700h102l-197 -700h-101l-150 556l-150 -556h-101l-197 700h103l148 -549l147 549h102l147 -547z" />
    <glyph glyph-name="wgrave" unicode="&#x1e81;" horiz-adv-x="759" 
d="M426 569h-87l-107 126h127zM644 495h99l-153 -495h-101l-109 373l-110 -373h-101l-153 495h99l107 -378l109 378h96l110 -377z" />
    <glyph glyph-name="Wacute" unicode="&#x1e82;" horiz-adv-x="940" 
d="M619 897l-107 -126h-87l67 126h127zM816 700h102l-197 -700h-101l-150 556l-150 -556h-101l-197 700h103l148 -549l147 549h102l147 -547z" />
    <glyph glyph-name="wacute" unicode="&#x1e83;" horiz-adv-x="759" 
d="M526 695l-107 -126h-87l67 126h127zM644 495h99l-153 -495h-101l-109 373l-110 -373h-101l-153 495h99l107 -378l109 378h96l110 -377z" />
    <glyph glyph-name="Wdieresis" unicode="&#x1e84;" horiz-adv-x="940" 
d="M383 770q-26 0 -45.5 19t-19.5 45t19.5 45t45.5 19t45 -19t19 -45t-19 -45t-45 -19zM557 770q-26 0 -45 19t-19 45t19 45t45 19q27 0 45.5 -19t18.5 -45t-18.5 -45t-45.5 -19zM816 700h102l-197 -700h-101l-150 556l-150 -556h-101l-197 700h103l148 -549l147 549h102
l147 -547z" />
    <glyph glyph-name="wdieresis" unicode="&#x1e85;" horiz-adv-x="759" 
d="M295 568q-26 0 -45 19t-19 45t19 45t45 19t45 -19t19 -45t-19 -45t-45 -19zM463 568q-26 0 -45 19t-19 45t19 45t45 19t45 -19t19 -45t-19 -45t-45 -19zM644 495h99l-153 -495h-101l-109 373l-110 -373h-101l-153 495h99l107 -378l109 378h96l110 -377z" />
    <glyph glyph-name="uni1E8A" unicode="&#x1e8a;" horiz-adv-x="658" 
d="M333 772q-27 0 -46 18.5t-19 45.5q0 26 19 45t46 19q26 0 44.5 -19t18.5 -45q0 -27 -18.5 -45.5t-44.5 -18.5zM636 0h-118l-189 278l-188 -278h-119l242 356l-232 344h118l179 -266l180 266h118l-231 -343z" />
    <glyph glyph-name="uni1E8B" unicode="&#x1e8b;" horiz-adv-x="504" 
d="M253 568q-27 0 -46 18.5t-19 45.5q0 26 19 45t46 19q26 0 44.5 -19t18.5 -45q0 -27 -18.5 -45.5t-44.5 -18.5zM488 0h-109l-127 178l-128 -178h-108l180 249l-176 246h109l123 -174l123 174h108l-175 -245z" />
    <glyph glyph-name="Ygrave" unicode="&#x1ef2;" horiz-adv-x="623" 
d="M270 771l-107 126h127l67 -126h-87zM262 0v279l-240 421h109l180 -322l181 322h109l-239 -421v-279h-100z" />
    <glyph glyph-name="ygrave" unicode="&#x1ef3;" horiz-adv-x="569" 
d="M332 569h-87l-107 126h127zM406 495h98v-486q0 -99 -57.5 -163t-168.5 -64q-87 0 -140 42.5t-73 115.5l92 20q22 -93 121 -93q63 0 95.5 37t32.5 103v68q-30 -37 -67 -55.5t-93 -18.5q-79 0 -129 48.5t-50 146.5v299h98v-277q0 -126 111 -126q57 0 93.5 37.5t36.5 104.5
v261z" />
    <glyph glyph-name="endash" unicode="&#x2013;" horiz-adv-x="600" 
d="M50 255v90h500v-90h-500z" />
    <glyph glyph-name="emdash" unicode="&#x2014;" horiz-adv-x="1100" 
d="M50 255v90h1000v-90h-1000z" />
    <glyph glyph-name="quoteleft" unicode="&#x2018;" horiz-adv-x="196" 
d="M156 720q-38 -48 -40 -93q49 -17 49 -63q0 -29 -19.5 -48.5t-46.5 -19.5q-29 0 -48.5 19.5t-19.5 56.5q0 42 22 94.5t61 88.5z" />
    <glyph glyph-name="quoteright" unicode="&#x2019;" horiz-adv-x="196" 
d="M40 530q38 48 40 93q-49 17 -49 63q0 29 19.5 48.5t46.5 19.5q29 0 48.5 -19.5t19.5 -56.5q0 -42 -22 -94.5t-61 -88.5z" />
    <glyph glyph-name="quotesinglbase" unicode="&#x201a;" horiz-adv-x="196" 
d="M40 -97q38 48 40 93q-49 17 -49 63q0 29 19.5 48.5t46.5 19.5q29 0 48.5 -19.5t19.5 -56.5q0 -42 -22 -94.5t-61 -88.5z" />
    <glyph glyph-name="quotedblleft" unicode="&#x201c;" horiz-adv-x="381" 
d="M156 721q-38 -48 -40 -93q49 -17 49 -63q0 -29 -19.5 -48.5t-46.5 -19.5q-29 0 -48.5 19.5t-19.5 56.5q0 42 22 94.5t61 88.5zM341 721q-38 -48 -40 -93q49 -17 49 -63q0 -29 -19.5 -48.5t-46.5 -19.5q-29 0 -48.5 19.5t-19.5 56.5q0 42 22 94.5t61 88.5z" />
    <glyph glyph-name="quotedblright" unicode="&#x201d;" horiz-adv-x="381" 
d="M40 528q38 48 40 93q-49 17 -49 63q0 29 19.5 48.5t46.5 19.5q29 0 48.5 -19.5t19.5 -56.5q0 -42 -22 -94.5t-61 -88.5zM225 528q38 48 40 93q-49 17 -49 63q0 29 19.5 48.5t46.5 19.5q29 0 48.5 -19.5t19.5 -56.5q0 -42 -22 -94.5t-61 -88.5z" />
    <glyph glyph-name="quotedblbase" unicode="&#x201e;" horiz-adv-x="381" 
d="M40 -87q38 48 40 93q-49 17 -49 63q0 29 19.5 48.5t46.5 19.5q29 0 48.5 -19.5t19.5 -56.5q0 -42 -22 -94.5t-61 -88.5zM225 -87q38 48 40 93q-49 17 -49 63q0 29 19.5 48.5t46.5 19.5q29 0 48.5 -19.5t19.5 -56.5q0 -42 -22 -94.5t-61 -88.5z" />
    <glyph glyph-name="dagger" unicode="&#x2020;" horiz-adv-x="318" 
d="M282 603v-67h-86v-186h-73v186h-87v67h87v97h73v-97h86z" />
    <glyph glyph-name="daggerdbl" unicode="&#x2021;" horiz-adv-x="318" 
d="M282 536h-86v-49h86v-67h-86v-97h-73v97h-87v67h87v49h-87v67h87v97h73v-97h86v-67z" />
    <glyph glyph-name="bullet" unicode="&#x2022;" horiz-adv-x="252" 
d="M127 205q-41 0 -68.5 27.5t-27.5 67.5q0 39 28 67t68 28q38 0 66 -28t28 -67q0 -40 -27.5 -67.5t-66.5 -27.5z" />
    <glyph glyph-name="ellipsis" unicode="&#x2026;" horiz-adv-x="628" 
d="M98 -7q-28 0 -47.5 20t-19.5 47q0 28 19.5 47.5t47.5 19.5t47.5 -19.5t19.5 -47.5q0 -27 -19.5 -47t-47.5 -20zM314 -7q-27 0 -46.5 20t-19.5 47q0 28 19.5 47.5t46.5 19.5q28 0 48 -19.5t20 -47.5q0 -27 -20 -47t-48 -20zM530 -7q-28 0 -47.5 20t-19.5 47
q0 28 19.5 47.5t47.5 19.5t47.5 -19.5t19.5 -47.5q0 -27 -19.5 -47t-47.5 -20z" />
    <glyph glyph-name="perthousand" unicode="&#x2030;" horiz-adv-x="1102" 
d="M201 412q-63 0 -107 41.5t-44 105.5t42 106t103 42q63 0 107 -41.5t44 -106.5q0 -64 -41.5 -105.5t-103.5 -41.5zM88 0l478 700h96l-477 -700h-97zM201 480q32 0 54.5 22.5t22.5 56.5q0 37 -23 58.5t-58 21.5q-33 0 -54.5 -22t-21.5 -58q0 -35 23 -57t57 -22zM558 -7
q-63 0 -106 41.5t-43 105.5t42.5 106t103.5 42q63 0 106.5 -41.5t43.5 -106.5q0 -64 -42.5 -105.5t-104.5 -41.5zM905 -12q-63 0 -106.5 42t-43.5 106t42.5 105.5t104.5 41.5q63 0 106.5 -41.5t43.5 -105.5q0 -65 -42.5 -106.5t-104.5 -41.5zM560 61q32 0 54.5 23t22.5 56
q0 37 -23 58.5t-57 21.5t-56 -21.5t-22 -58.5q0 -35 23 -57t58 -22zM906 56q32 0 54.5 23t22.5 57q0 37 -22.5 58.5t-56.5 21.5t-56 -21.5t-22 -58.5q0 -35 23 -57.5t57 -22.5z" />
    <glyph glyph-name="guilsinglleft" unicode="&#x2039;" horiz-adv-x="295" 
d="M245 485l-93 -184l93 -186h-101l-94 186l93 184h102z" />
    <glyph glyph-name="guilsinglright" unicode="&#x203a;" horiz-adv-x="295" 
d="M152 485l93 -184l-94 -186h-101l93 186l-93 184h102z" />
    <glyph glyph-name="fraction" unicode="&#x2044;" horiz-adv-x="217" 
d="M-146 -7l-54 44l563 670l54 -43z" />
    <glyph glyph-name="uni2070" unicode="&#x2070;" horiz-adv-x="336" 
d="M169 429q-66 0 -99.5 50t-33.5 132q0 80 34 131t98 51q65 0 98.5 -50.5t33.5 -131.5t-33.5 -131.5t-97.5 -50.5zM169 492q61 0 61 119q0 117 -62 117q-63 0 -63 -117q0 -119 64 -119z" />
    <glyph glyph-name="uni2074" unicode="&#x2074;" horiz-adv-x="309" 
d="M179 436l1 87h-156v50l150 213h74v-205h37v-58h-37v-87h-69zM99 581h81l-1 111z" />
    <glyph glyph-name="uni2075" unicode="&#x2075;" horiz-adv-x="322" 
d="M159 429q-51 0 -86.5 29.5t-36.5 70.5l65 20q1 -25 17 -40t41 -15t41.5 16t16.5 41q0 24 -16.5 39.5t-41.5 15.5q-33 0 -49 -21l-61 22l18 179h199v-65h-140l-6 -64q17 10 45 10q54 0 87.5 -31.5t33.5 -84.5q0 -55 -35.5 -88.5t-91.5 -33.5z" />
    <glyph glyph-name="uni2076" unicode="&#x2076;" horiz-adv-x="329" 
d="M167 429q-131 0 -131 168q0 196 134 196q93 0 114 -89l-60 -18q-14 43 -54 43q-58 0 -61 -85q17 24 66 24q51 0 84.5 -32.5t33.5 -85.5q0 -54 -36 -87.5t-90 -33.5zM167 493q25 0 41 16t16 41t-16 40.5t-41 15.5q-26 0 -42 -15.5t-16 -40.5q0 -24 16.5 -40.5t41.5 -16.5z
" />
    <glyph glyph-name="uni2077" unicode="&#x2077;" horiz-adv-x="278" 
d="M80 436q10 68 39 151.5t59 134.5h-154v64h231v-64q-34 -52 -65 -135.5t-41 -150.5h-69z" />
    <glyph glyph-name="uni2078" unicode="&#x2078;" horiz-adv-x="323" 
d="M246 624q41 -31 41 -83q0 -49 -36 -80.5t-89 -31.5q-54 0 -90 31.5t-36 80.5q0 52 42 83q-29 27 -29 68q0 44 32.5 72.5t80.5 28.5t80.5 -28.5t32.5 -72.5q0 -41 -29 -68zM116 692q0 -19 13.5 -30.5t32.5 -11.5t32.5 11.5t13.5 30.5t-13.5 30.5t-32.5 11.5t-32.5 -11.5
t-13.5 -30.5zM162 491q24 0 40.5 14t16.5 37t-16.5 37.5t-40.5 14.5t-40.5 -14.5t-16.5 -37.5t16.5 -37t40.5 -14z" />
    <glyph glyph-name="uni2079" unicode="&#x2079;" horiz-adv-x="328" 
d="M159 429q-93 0 -114 89l60 18q14 -43 54 -43q58 0 61 86q-18 -25 -66 -25q-51 0 -84.5 32.5t-33.5 86.5t36 87t90 33q130 0 130 -168q0 -196 -133 -196zM162 616q25 0 41.5 16t16.5 40t-16.5 40.5t-41.5 16.5t-41 -16t-16 -41t16 -40.5t41 -15.5z" />
    <glyph glyph-name="uni2080" unicode="&#x2080;" horiz-adv-x="336" 
d="M169 -82q-66 0 -99.5 50t-33.5 132q0 80 34 131t98 51q65 0 98.5 -50.5t33.5 -131.5t-33.5 -131.5t-97.5 -50.5zM169 -19q61 0 61 119q0 117 -62 117q-63 0 -63 -117q0 -119 64 -119z" />
    <glyph glyph-name="uni2081" unicode="&#x2081;" horiz-adv-x="209" 
d="M87 -75v273q-29 -20 -69 -24v68q41 10 69 33h68v-350h-68z" />
    <glyph glyph-name="uni2082" unicode="&#x2082;" horiz-adv-x="315" 
d="M43 -75v65l119 102q26 24 36.5 40t10.5 37q0 20 -14.5 34.5t-37.5 14.5q-26 0 -42 -17t-15 -46l-64 18q2 49 36.5 79t84.5 30q51 0 86.5 -32t35.5 -80q0 -37 -17 -64.5t-51 -57.5l-69 -58h137v-65h-236z" />
    <glyph glyph-name="uni2083" unicode="&#x2083;" horiz-adv-x="325" 
d="M160 -82q-54 0 -88.5 30.5t-35.5 74.5l64 18q1 -25 17.5 -41.5t42.5 -16.5t43 15.5t17 40.5t-16.5 41t-43.5 16q-10 0 -21 -3l-35 41l81 77h-136v64h217v-64l-62 -62q36 -6 60.5 -34t24.5 -76q0 -53 -36.5 -87t-92.5 -34z" />
    <glyph glyph-name="uni2084" unicode="&#x2084;" horiz-adv-x="309" 
d="M179 -75l1 87h-156v50l150 213h74v-205h37v-58h-37v-87h-69zM99 70h81l-1 111z" />
    <glyph glyph-name="uni2085" unicode="&#x2085;" horiz-adv-x="322" 
d="M159 -82q-51 0 -86.5 29.5t-36.5 70.5l65 20q1 -25 17 -40t41 -15t41.5 16t16.5 41q0 24 -16.5 39.5t-41.5 15.5q-33 0 -49 -21l-61 22l18 179h199v-65h-140l-6 -64q18 10 45 10q54 0 87.5 -31.5t33.5 -84.5q0 -55 -35.5 -88.5t-91.5 -33.5z" />
    <glyph glyph-name="uni2086" unicode="&#x2086;" horiz-adv-x="329" 
d="M167 -82q-131 0 -131 168q0 196 134 196q93 0 114 -89l-60 -18q-14 43 -54 43q-58 0 -61 -85q17 24 66 24q51 0 84.5 -32.5t33.5 -85.5q0 -54 -36 -87.5t-90 -33.5zM167 -18q25 0 41 16t16 41t-16 40.5t-41 15.5q-26 0 -42 -15.5t-16 -40.5q0 -24 16.5 -40.5t41.5 -16.5z
" />
    <glyph glyph-name="uni2087" unicode="&#x2087;" horiz-adv-x="278" 
d="M80 -75q10 68 39 151.5t59 134.5h-154v64h231v-64q-34 -52 -65 -135.5t-41 -150.5h-69z" />
    <glyph glyph-name="uni2088" unicode="&#x2088;" horiz-adv-x="323" 
d="M246 113q41 -31 41 -83q0 -49 -36 -80.5t-89 -31.5q-54 0 -90 31.5t-36 80.5q0 52 42 83q-29 27 -29 68q0 44 32.5 72.5t80.5 28.5t80.5 -28.5t32.5 -72.5q0 -41 -29 -68zM116 181q0 -19 13.5 -30.5t32.5 -11.5t32.5 11.5t13.5 30.5t-13.5 30.5t-32.5 11.5t-32.5 -11.5
t-13.5 -30.5zM162 -20q24 0 40.5 14t16.5 37t-16.5 37.5t-40.5 14.5t-40.5 -14.5t-16.5 -37.5t16.5 -37t40.5 -14z" />
    <glyph glyph-name="uni2089" unicode="&#x2089;" horiz-adv-x="328" 
d="M159 -82q-93 0 -114 89l60 18q14 -43 54 -43q58 0 61 86q-18 -25 -66 -25q-51 0 -84.5 32.5t-33.5 86.5t36 87t90 33q130 0 130 -168q0 -196 -133 -196zM162 105q25 0 41.5 16t16.5 40t-16.5 40.5t-41.5 16.5t-41 -16t-16 -41t16 -40.5t41 -15.5z" />
    <glyph glyph-name="Euro" unicode="&#x20ac;" horiz-adv-x="732" 
d="M614 147l73 -58q-90 -103 -239 -103q-121 0 -209 64t-120 176h-99l22 80h62q-2 28 -2 44t2 44h-84l22 80h79q34 109 122 174.5t205 65.5q145 0 236 -99l-73 -61q-59 68 -163 68q-75 0 -133.5 -40t-88.5 -108h245l-23 -80h-244q-3 -22 -3 -45q0 -15 2 -43h221l-23 -80
h-178q28 -71 87.5 -110t138.5 -39q104 0 165 70z" />
    <glyph glyph-name="uni20BF" unicode="&#x20bf;" horiz-adv-x="576" 
d="M531 211q0 -73 -44.5 -123t-122.5 -61v-77h-73v74h-55v-74h-74v74h-85v654h85v62h74v-62h55v62h73v-66q70 -13 106 -58t36 -111q0 -96 -81 -140v-2q42 -14 74 -51t32 -101zM415 499q0 45 -28 70.5t-77 25.5h-140v-199h140q51 0 78 28t27 75zM322 106q56 0 85.5 30.5
t29.5 76.5q0 47 -30 75.5t-93 28.5h-144v-211h152z" />
    <glyph glyph-name="trademark" unicode="&#x2122;" horiz-adv-x="570" 
d="M50 658v42h181v-42h-67v-197h-46v197h-68zM520 700v-239h-46v155l-66 -155h-31l-66 153v-153h-45v239h50l76 -177l76 177h52z" />
    <glyph glyph-name="estimated" unicode="&#x212e;" horiz-adv-x="893" 
d="M445 -14q-176 0 -285.5 99t-109.5 264q0 162 110.5 263t286.5 101q178 -2 283 -99t113 -276h-632q-5 0 -8 -0.5t-5.5 -5t-2.5 -12.5v-178q0 -34 76 -80.5t179 -46.5q71 0 137.5 32t110.5 82h75q-74 -81 -145.5 -112t-182.5 -31zM212 361h466q11 0 14.5 4t3.5 14v173
q0 45 -83.5 90t-168.5 45q-65 -1 -125.5 -26.5t-92 -54.5t-31.5 -46v-190q0 -9 17 -9z" />
    <glyph glyph-name="uni2153" unicode="&#x2153;" horiz-adv-x="842" 
d="M145 -7l-54 44l563 670l54 -43zM134 350v273q-29 -20 -69 -24v68q41 10 69 33h68v-350h-68zM648 -7q-54 0 -88.5 30.5t-35.5 74.5l64 18q1 -25 17.5 -41.5t42.5 -16.5t43 15.5t17 40.5t-16.5 41t-43.5 16q-10 0 -21 -3l-35 41l81 77h-136v64h217v-64l-62 -62
q36 -6 60.5 -34t24.5 -76q0 -53 -36.5 -87t-92.5 -34z" />
    <glyph glyph-name="uni2154" unicode="&#x2154;" horiz-adv-x="879" 
d="M72 350v65l119 102q26 24 36.5 40t10.5 37q0 20 -14.5 34.5t-37.5 14.5q-26 0 -42 -17t-15 -46l-64 18q2 49 36.5 79t84.5 30q51 0 86.5 -32t35.5 -80q0 -37 -17 -64.5t-51 -57.5l-69 -58h137v-65h-236zM189 -7l-54 44l563 670l54 -43zM685 -7q-54 0 -88.5 30.5
t-35.5 74.5l64 18q1 -25 17.5 -41.5t42.5 -16.5t43 15.5t17 40.5t-16.5 41t-43.5 16q-11 0 -21 -3l-35 41l81 77h-136v64h217v-64l-62 -62q36 -6 60.5 -34t24.5 -76q0 -53 -36.5 -87t-92.5 -34z" />
    <glyph glyph-name="uni215F" unicode="&#x215f;" horiz-adv-x="506" 
d="M144 -7l-54 44l563 670l54 -43zM134 350v273q-29 -20 -69 -24v68q41 10 69 33h68v-350h-68z" />
    <glyph glyph-name="arrowleft" unicode="&#x2190;" horiz-adv-x="673" 
d="M623 340v-82h-419l169 -168l-56 -57l-267 266l266 268l56 -57l-169 -171z" />
    <glyph glyph-name="arrowup" unicode="&#x2191;" horiz-adv-x="633" 
d="M583 321l-56 -57l-171 169v-419h-80v419l-169 -170l-57 58l266 265z" />
    <glyph glyph-name="arrowright" unicode="&#x2192;" horiz-adv-x="673" 
d="M357 567l266 -268l-267 -266l-56 57l169 168h-419v82l420 -1l-169 171z" />
    <glyph glyph-name="arrowdown" unicode="&#x2193;" horiz-adv-x="633" 
d="M527 336l56 -57l-267 -265l-266 265l57 58l169 -170v419h80v-419z" />
    <glyph glyph-name="arrowboth" unicode="&#x2194;" horiz-adv-x="823" 
d="M507 567l266 -268l-267 -266l-56 57l169 168h-415l169 -168l-56 -57l-267 266l266 268l56 -57l-168 -170h415l-168 170z" />
    <glyph glyph-name="arrowupdn" unicode="&#x2195;" horiz-adv-x="634" 
d="M357 95l170 168l57 -56l-268 -266l-266 267l57 56l168 -169v415l-168 -169l-57 56l266 267l268 -266l-57 -56l-170 168v-415z" />
    <glyph glyph-name="uni2196" unicode="&#x2196;" horiz-adv-x="533" 
d="M483 138l-57 -57l-296 296v-239h-80v377l376 1v-80l-240 -1z" />
    <glyph glyph-name="uni2197" unicode="&#x2197;" horiz-adv-x="533" 
d="M107 516l376 -1v-377h-80v239l-296 -296l-57 57l297 297l-240 1v80z" />
    <glyph glyph-name="uni2198" unicode="&#x2198;" horiz-adv-x="533" 
d="M403 461h80v-377l-376 -1v80l240 1l-297 297l57 57l296 -296v239z" />
    <glyph glyph-name="uni2199" unicode="&#x2199;" horiz-adv-x="533" 
d="M483 461l-297 -297l240 -1v-80l-376 1v377h80v-239l296 296z" />
    <glyph glyph-name="uni21A9" unicode="&#x21a9;" horiz-adv-x="655" 
d="M421 635q77 -2 130.5 -56t53.5 -131t-54 -131.5t-131 -56.5h-218l132 -132l-56 -57l-228 228l227 228l57 -56l-131 -132h217q44 2 75 33.5t31 75.5q0 43 -31 74.5t-74 32.5v80z" />
    <glyph glyph-name="uni21AA" unicode="&#x21aa;" horiz-adv-x="655" 
d="M378 527l227 -228l-228 -228l-56 57l132 132h-218q-77 2 -131 56.5t-54 131.5t53.5 131t130.5 56v-80q-43 -1 -74 -32.5t-31 -74.5q0 -44 31 -75.5t75 -33.5h217l-131 132z" />
    <glyph glyph-name="uni21B0" unicode="&#x21b0;" horiz-adv-x="616" 
d="M204 342h362v-341h-81v261h-283l170 -171l-56 -57l-266 267l267 267l56 -57z" />
    <glyph glyph-name="uni21B1" unicode="&#x21b1;" horiz-adv-x="616" 
d="M299 568l267 -267l-266 -267l-56 57l170 171h-283v-261h-81v341h362l-169 169z" />
    <glyph glyph-name="uni21B2" unicode="&#x21b2;" horiz-adv-x="616" 
d="M485 600h81v-341h-362l169 -169l-56 -57l-267 267l266 267l56 -57l-170 -171h283v261z" />
    <glyph glyph-name="uni21B3" unicode="&#x21b3;" horiz-adv-x="616" 
d="M300 567l266 -267l-267 -267l-56 57l169 169h-362v341h81v-261h283l-170 171z" />
    <glyph glyph-name="uni21B4" unicode="&#x21b4;" horiz-adv-x="643" 
d="M536 377l57 -56l-266 -267l-268 266l57 56l171 -169v312h-237v81h317l1 -392z" />
    <glyph glyph-name="partialdiff" unicode="&#x2202;" horiz-adv-x="585" 
d="M289 -14q-106 0 -175.5 65.5t-69.5 170.5t67 169.5t169 64.5q54 0 95 -21t61 -46q-4 112 -38 172.5t-116 60.5q-100 0 -131 -107l-88 27q21 79 75.5 125.5t143.5 46.5q139 0 199 -104t60 -298q0 -157 -64 -241.5t-188 -84.5zM289 78q63 0 103.5 42t40.5 103
q0 63 -40.5 103t-103.5 40q-65 0 -105 -39.5t-40 -103.5q0 -65 40 -105t105 -40z" />
    <glyph glyph-name="emptyset" unicode="&#x2205;" horiz-adv-x="602" 
d="M552 545l-50 -50q47 -64 47 -145q0 -103 -73 -176t-176 -73q-80 0 -144 47l-49 -49l-57 56l49 49q-47 66 -47 146q0 103 73 176t175 73q80 0 146 -47l49 49zM135 350q0 -48 22 -87l231 231q-40 24 -88 24q-70 0 -117.5 -48.5t-47.5 -119.5zM467 350q0 49 -23 87
l-231 -231q38 -24 87 -24q72 0 119.5 48t47.5 120z" />
    <glyph glyph-name="uni2206" unicode="&#x2206;" horiz-adv-x="668" 
d="M22 0l313 700l311 -700h-624zM157 90h354l-176 404z" />
    <glyph glyph-name="product" unicode="&#x220f;" 
d="M507 700v-700h-98v608h-260v-608h-99v700h457z" />
    <glyph glyph-name="summation" unicode="&#x2211;" horiz-adv-x="600" 
d="M550 700v-90h-364l238 -260l-238 -260h364v-90h-500v79l246 271l-246 271v79h500z" />
    <glyph glyph-name="minus" unicode="&#x2212;" horiz-adv-x="600" 
d="M50 305v90h500v-90h-500z" />
    <glyph glyph-name="uni2219" unicode="&#x2219;" horiz-adv-x="600" 
d="M300 282q-28 0 -47.5 19.5t-19.5 47.5t19.5 47.5t47.5 19.5t47.5 -19.5t19.5 -47.5t-19.5 -47.5t-47.5 -19.5z" />
    <glyph glyph-name="radical" unicode="&#x221a;" horiz-adv-x="600" 
d="M473 700h105l-267 -700h-108l-113 305h-70v90h129l108 -284z" />
    <glyph glyph-name="infinity" unicode="&#x221e;" horiz-adv-x="658" 
d="M189 211q-60 0 -99.5 40t-39.5 99t39.5 99t99.5 40q70 0 140 -81q69 81 139 81q61 0 100.5 -39.5t39.5 -99.5t-39.5 -99.5t-100.5 -39.5q-38 0 -69.5 20t-69.5 62q-71 -82 -140 -82zM189 290q17 0 34.5 9t28.5 19.5t31 31.5q-20 21 -31 31.5t-28.5 19.5t-34.5 9
q-25 0 -42 -17t-17 -43t17 -43t42 -17zM468 290q26 0 42.5 17t16.5 43t-16.5 43t-42.5 17q-44 0 -93 -60q49 -60 93 -60z" />
    <glyph glyph-name="integral" unicode="&#x222b;" horiz-adv-x="423" 
d="M300 769q75 0 115 -40l-47 -69q-18 18 -49 18q-51 0 -51 -58v-653q0 -63 -37.5 -100.5t-95.5 -37.5q-79 0 -115 40l47 69q18 -18 49 -18q52 0 52 58v653q0 63 37 100.5t95 37.5z" />
    <glyph glyph-name="approxequal" unicode="&#x2248;" horiz-adv-x="600" 
d="M411 392q-43 0 -116.5 27t-100.5 27q-45 0 -82 -53l-64 53q58 87 141 87q45 0 117 -26.5t101 -26.5q43 0 78 51l68 -52q-57 -87 -142 -87zM411 164q-43 0 -116.5 27t-100.5 27q-45 0 -82 -53l-64 53q58 87 141 87q45 0 117 -26.5t101 -26.5q43 0 78 51l68 -52
q-57 -87 -142 -87z" />
    <glyph glyph-name="notequal" unicode="&#x2260;" horiz-adv-x="600" 
d="M550 421h-168l-66 -142h234v-90h-276l-51 -111l-82 38l34 73h-125v90h167l65 142h-232v90h274l51 110l82 -38l-33 -72h126v-90z" />
    <glyph glyph-name="lessequal" unicode="&#x2264;" horiz-adv-x="600" 
d="M551 705v-100l-376 -151l376 -151v-100l-500 201v100zM50 51v90h500v-90h-500z" />
    <glyph glyph-name="greaterequal" unicode="&#x2265;" horiz-adv-x="600" 
d="M50 705l501 -201v-100l-501 -201v100l376 151l-376 151v100zM51 51v90h500v-90h-500z" />
    <glyph glyph-name="uni258A" unicode="&#x258a;" horiz-adv-x="600" 
d="M75 0v700h450v-700h-450z" />
    <glyph glyph-name="lozenge" unicode="&#x25ca;" horiz-adv-x="629" 
d="M579 351v-1h-1l-209 -349h-109l-209 349h-1v1h1l209 349h109l209 -349h1zM315 92l154 259l-154 258l-155 -258z" />
    <glyph glyph-name="uni25D0" unicode="&#x25d0;" horiz-adv-x="597" 
d="M298 549q103 0 176 -73t73 -176t-73 -176t-176 -73q-102 0 -175 73t-73 176t73 176t175 73zM301 104q81 2 136 57t55 139t-55 139t-136 57v-392z" />
    <glyph glyph-name="smileface" unicode="&#x263a;" horiz-adv-x="828" 
d="M414 -14q-150 0 -257 106.5t-107 257.5t107 257.5t257 106.5q151 0 257.5 -106.5t106.5 -257.5t-106.5 -257.5t-257.5 -106.5zM414 51q124 0 212 87.5t88 211.5t-88 211.5t-212 87.5t-211.5 -87.5t-87.5 -211.5t87.5 -211.5t211.5 -87.5zM302 350q-25 0 -43.5 18
t-18.5 43t18 43.5t44 18.5q25 0 43 -18t18 -44q0 -25 -18 -43t-43 -18zM526 350q-25 0 -43 18t-18 43q0 26 18 44t43 18q26 0 44 -18.5t18 -43.5t-18.5 -43t-43.5 -18z" />
    <glyph glyph-name="uni2713" unicode="&#x2713;" horiz-adv-x="677" 
d="M543 700l84 -41l-339 -659h-99l-139 249l75 43l112 -201z" />
    <glyph glyph-name="uni2B0F" unicode="&#x2b0f;" horiz-adv-x="643" 
d="M593 333l-57 -56l-168 169l-1 -392h-317v81h237v312l-171 -169l-57 56l268 266z" />
    <glyph glyph-name="uni2B10" unicode="&#x2b10;" horiz-adv-x="643" 
d="M593 519h-237v-312l171 169l57 -56l-268 -266l-266 267l57 56l168 -169l1 392h317v-81z" />
    <glyph glyph-name="uni2B11" unicode="&#x2b11;" horiz-adv-x="643" 
d="M356 135h237v-81h-317l-1 392l-168 -169l-57 56l266 267l268 -266l-57 -56l-171 169v-312z" />
    <glyph glyph-name="fi" unicode="&#xfb01;" horiz-adv-x="600" 
d="M107 0v407h-87v88h87v82q0 63 37 100.5t95 37.5q79 0 115 -41l-48 -67q-15 19 -48 19q-53 0 -53 -60v-71h135v-88h-135v-407h-98zM482 568q-27 0 -46 18.5t-19 45.5q0 26 19 45t46 19q26 0 44.5 -19t18.5 -45q0 -27 -18.5 -45.5t-44.5 -18.5zM432 0v495h98v-495h-98z" />
    <glyph glyph-name="fl" unicode="&#xfb02;" horiz-adv-x="590" 
d="M107 0v407h-87v88h87v82q0 63 37 100.5t95 37.5q79 0 115 -41l-48 -67q-15 19 -48 19q-53 0 -53 -60v-71h135v-88h-135v-407h-98zM427 0v700h98v-700h-98z" />
    <glyph glyph-name="G.ss05" horiz-adv-x="784" 
d="M408 -14q-155 0 -254 102t-99 262q0 155 100 259.5t251 104.5q112 0 187.5 -52t109.5 -141l-93 -32q-53 133 -200 133q-111 0 -183 -79t-72 -193q0 -118 71.5 -195t184.5 -77q104 0 160 61t59 144h-160v86h259v-57q-2 -144 -88 -235t-233 -91z" />
    <glyph glyph-name="Gbreve.ss05" horiz-adv-x="784" 
d="M406 775q-56 0 -92 35.5t-39 90.5h72q2 -26 18 -42t42 -16t42.5 16t18.5 42h71q-2 -55 -39 -90.5t-94 -35.5zM408 -14q-155 0 -254 102t-99 262q0 155 100 259.5t251 104.5q112 0 187.5 -52t109.5 -141l-93 -32q-53 133 -200 133q-111 0 -183 -79t-72 -193
q0 -118 71.5 -195t184.5 -77q104 0 160 61t59 144h-160v86h259v-57q-2 -144 -88 -235t-233 -91z" />
    <glyph glyph-name="Gcircumflex.ss05" horiz-adv-x="784" 
d="M407 834l-56 -63h-86l90 126h103l90 -126h-85zM470 369h259v-57q-2 -144 -88 -235t-233 -91q-155 0 -254 102t-99 262q0 155 100 259.5t251 104.5q112 0 187.5 -52t109.5 -141l-93 -32q-53 133 -200 133q-111 0 -183 -79t-72 -193q0 -118 71.5 -195t184.5 -77
q104 0 160 61t59 144h-160v86z" />
    <glyph glyph-name="Gcommaaccent.ss05" horiz-adv-x="784" 
d="M408 -14q-155 0 -254 102t-99 262q0 155 100 259.5t251 104.5q112 0 187.5 -52t109.5 -141l-93 -32q-53 133 -200 133q-111 0 -183 -79t-72 -193q0 -118 71.5 -195t184.5 -77q104 0 160 61t59 144h-160v86h259v-57q-2 -144 -88 -235t-233 -91zM368 -218q18 21 24 45
q-44 9 -44 51q0 26 17.5 40.5t38.5 14.5q26 0 42.5 -16t16.5 -45q0 -31 -16 -63t-43 -53z" />
    <glyph glyph-name="Gdotaccent.ss05" horiz-adv-x="784" 
d="M408 772q-27 0 -46 18.5t-19 45.5q0 26 19 45t46 19q26 0 44.5 -19t18.5 -45q0 -27 -18.5 -45.5t-44.5 -18.5zM408 -14q-155 0 -254 102t-99 262q0 155 100 259.5t251 104.5q112 0 187.5 -52t109.5 -141l-93 -32q-53 133 -200 133q-111 0 -183 -79t-72 -193
q0 -118 71.5 -195t184.5 -77q104 0 160 61t59 144h-160v86h259v-57q-2 -144 -88 -235t-233 -91z" />
    <glyph glyph-name="i.loclTRK" horiz-adv-x="238" 
d="M120 568q-27 0 -46 18.5t-19 45.5q0 26 19 45t46 19q26 0 44.5 -19t18.5 -45q0 -27 -18.5 -45.5t-44.5 -18.5zM70 0v495h98v-495h-98z" />
    <glyph glyph-name="a.ss01" horiz-adv-x="531" 
d="M504 67l17 -72l-7 -3q-7 -2 -19 -4t-25 -2q-82 0 -103 63q-49 -63 -154 -63q-77 0 -124 42.5t-47 108.5q0 65 44.5 106.5t148.5 56.5l119 17v10q0 101 -106 101q-98 0 -111 -90l-87 21q36 149 200 149q91 0 146.5 -45.5t55.5 -134.5v-229q0 -35 34 -35q5 0 9 1t7 1z
M354 176v64l-111 -17q-54 -8 -80 -26.5t-26 -54.5q0 -34 27 -54.5t73 -20.5q49 0 83 28t34 81z" />
    <glyph glyph-name="aacute.ss01" horiz-adv-x="531" 
d="M398 694l-107 -126h-87l67 126h127zM504 67l17 -72l-7 -3q-7 -2 -19 -4t-25 -2q-82 0 -103 63q-49 -63 -154 -63q-77 0 -124 42.5t-47 108.5q0 65 44.5 106.5t148.5 56.5l119 17v10q0 101 -106 101q-98 0 -111 -90l-87 21q36 149 200 149q91 0 146.5 -45.5t55.5 -134.5
v-229q0 -35 34 -35q5 0 9 1t7 1zM354 176v64l-111 -17q-54 -8 -80 -26.5t-26 -54.5q0 -34 27 -54.5t73 -20.5q49 0 83 28t34 81z" />
    <glyph glyph-name="abreve.ss01" horiz-adv-x="531" 
d="M250 569q-56 0 -92 35.5t-39 90.5h72q2 -26 18 -42t42 -16t42.5 16t18.5 42h71q-2 -55 -39 -90.5t-94 -35.5zM504 67l17 -72l-7 -3q-7 -2 -19 -4t-25 -2q-82 0 -103 63q-49 -63 -154 -63q-77 0 -124 42.5t-47 108.5q0 65 44.5 106.5t148.5 56.5l119 17v10q0 101 -106 101
q-98 0 -111 -90l-87 21q36 149 200 149q91 0 146.5 -45.5t55.5 -134.5v-229q0 -35 34 -35q5 0 9 1t7 1zM354 176v64l-111 -17q-54 -8 -80 -26.5t-26 -54.5q0 -34 27 -54.5t73 -20.5q49 0 83 28t34 81z" />
    <glyph glyph-name="acircumflex.ss01" horiz-adv-x="531" 
d="M251 631l-56 -63h-86l90 126h103l90 -126h-85zM504 67l17 -72l-7 -3q-7 -2 -19 -4t-25 -2q-82 0 -103 63q-49 -63 -154 -63q-77 0 -124 42.5t-47 108.5q0 65 44.5 106.5t148.5 56.5l119 17v10q0 101 -106 101q-98 0 -111 -90l-87 21q36 149 200 149q91 0 146.5 -45.5
t55.5 -134.5v-229q0 -35 34 -35q5 0 9 1t7 1zM354 176v64l-111 -17q-54 -8 -80 -26.5t-26 -54.5q0 -34 27 -54.5t73 -20.5q49 0 83 28t34 81z" />
    <glyph glyph-name="adieresis.ss01" horiz-adv-x="531" 
d="M167 567q-26 0 -45 19t-19 45t19 45t45 19t45 -19t19 -45t-19 -45t-45 -19zM335 567q-26 0 -45 19t-19 45t19 45t45 19t45 -19t19 -45t-19 -45t-45 -19zM504 67l17 -72l-7 -3q-7 -2 -19 -4t-25 -2q-82 0 -103 63q-49 -63 -154 -63q-77 0 -124 42.5t-47 108.5
q0 65 44.5 106.5t148.5 56.5l119 17v10q0 101 -106 101q-98 0 -111 -90l-87 21q36 149 200 149q91 0 146.5 -45.5t55.5 -134.5v-229q0 -35 34 -35q5 0 9 1t7 1zM354 176v64l-111 -17q-54 -8 -80 -26.5t-26 -54.5q0 -34 27 -54.5t73 -20.5q49 0 83 28t34 81z" />
    <glyph glyph-name="agrave.ss01" horiz-adv-x="531" 
d="M298 568h-87l-107 126h127zM504 67l17 -72l-7 -3q-7 -2 -19 -4t-25 -2q-82 0 -103 63q-49 -63 -154 -63q-77 0 -124 42.5t-47 108.5q0 65 44.5 106.5t148.5 56.5l119 17v10q0 101 -106 101q-98 0 -111 -90l-87 21q36 149 200 149q91 0 146.5 -45.5t55.5 -134.5v-229
q0 -35 34 -35q5 0 9 1t7 1zM354 176v64l-111 -17q-54 -8 -80 -26.5t-26 -54.5q0 -34 27 -54.5t73 -20.5q49 0 83 28t34 81z" />
    <glyph glyph-name="amacron.ss01" horiz-adv-x="531" 
d="M357 670v-76h-212v76h212zM504 67l17 -72l-7 -3q-7 -2 -19 -4t-25 -2q-82 0 -103 63q-49 -63 -154 -63q-77 0 -124 42.5t-47 108.5q0 65 44.5 106.5t148.5 56.5l119 17v10q0 101 -106 101q-98 0 -111 -90l-87 21q36 149 200 149q91 0 146.5 -45.5t55.5 -134.5v-229
q0 -35 34 -35q5 0 9 1t7 1zM354 176v64l-111 -17q-54 -8 -80 -26.5t-26 -54.5q0 -34 27 -54.5t73 -20.5q49 0 83 28t34 81z" />
    <glyph glyph-name="aogonek.ss01" horiz-adv-x="531" 
d="M437 -80q0 -18 13 -29.5t37 -11.5h6l-1 -66q-7 -1 -20 -1q-51 0 -80.5 24.5t-29.5 64.5q0 55 49 97q-32 15 -44 51q-49 -63 -154 -63q-77 0 -124 42.5t-47 108.5q0 65 44.5 106.5t148.5 56.5l119 17v10q0 101 -106 101q-98 0 -111 -90l-87 21q36 149 200 149
q91 0 146.5 -45.5t55.5 -134.5v-229q0 -35 34 -35q5 0 9 1t7 1l2 1l17 -72l-5 -1q-5 -2 -14 -4t-18 -3q-47 -30 -47 -67zM354 176v64l-111 -17q-54 -8 -80 -26.5t-26 -54.5q0 -34 27 -54.5t73 -20.5q49 0 83 28t34 81z" />
    <glyph glyph-name="aring.ss01" horiz-adv-x="531" 
d="M251 543q-37 0 -64 27t-27 65t27 65t64 27t64.5 -27.5t27.5 -64.5t-27.5 -64.5t-64.5 -27.5zM251 669q-14 0 -24 -10t-10 -24t10 -24t24 -10t24 10t10 24t-10 24t-24 10zM504 67l17 -72l-7 -3q-7 -2 -19 -4t-25 -2q-82 0 -103 63q-49 -63 -154 -63q-77 0 -124 42.5
t-47 108.5q0 65 44.5 106.5t148.5 56.5l119 17v10q0 101 -106 101q-98 0 -111 -90l-87 21q36 149 200 149q91 0 146.5 -45.5t55.5 -134.5v-229q0 -35 34 -35q5 0 9 1t7 1zM354 176v64l-111 -17q-54 -8 -80 -26.5t-26 -54.5q0 -34 27 -54.5t73 -20.5q49 0 83 28t34 81z" />
    <glyph glyph-name="atilde.ss01" horiz-adv-x="531" 
d="M194 610q-30 0 -48 -37l-55 37q28 75 96 75q29 0 64.5 -17.5t54.5 -17.5q27 0 47 39l57 -38q-28 -76 -100 -76q-30 0 -65 17.5t-51 17.5zM504 67l17 -72l-7 -3q-7 -2 -19 -4t-25 -2q-82 0 -103 63q-49 -63 -154 -63q-77 0 -124 42.5t-47 108.5q0 65 44.5 106.5
t148.5 56.5l119 17v10q0 101 -106 101q-98 0 -111 -90l-87 21q36 149 200 149q91 0 146.5 -45.5t55.5 -134.5v-229q0 -35 34 -35q5 0 9 1t7 1zM354 176v64l-111 -17q-54 -8 -80 -26.5t-26 -54.5q0 -34 27 -54.5t73 -20.5q49 0 83 28t34 81z" />
    <glyph glyph-name="a.ss02" horiz-adv-x="606" 
d="M280 -13q-104 0 -171 77.5t-67 183.5q0 108 64.5 184.5t172.5 76.5q106 0 164 -78v64h98v-495h-81l-13 67q-58 -80 -167 -80zM292 75q67 0 109 48.5t42 124.5t-42 124.5t-109 48.5t-109.5 -48.5t-42.5 -124.5q0 -75 42.5 -124t109.5 -49z" />
    <glyph glyph-name="aacute.ss02" horiz-adv-x="606" 
d="M241 569l67 126h127l-107 -126h-87zM280 -13q-104 0 -171 77.5t-67 183.5q0 108 64.5 184.5t172.5 76.5q106 0 164 -78v64h98v-495h-81l-13 67q-58 -80 -167 -80zM292 75q67 0 109 48.5t42 124.5t-42 124.5t-109 48.5t-109.5 -48.5t-42.5 -124.5q0 -75 42.5 -124
t109.5 -49z" />
    <glyph glyph-name="abreve.ss02" horiz-adv-x="606" 
d="M287 570q-56 0 -92 35.5t-39 90.5h72q2 -26 18 -42t42 -16t42.5 16t18.5 42h71q-2 -55 -39 -90.5t-94 -35.5zM280 -13q-104 0 -171 77.5t-67 183.5q0 108 64.5 184.5t172.5 76.5q106 0 164 -78v64h98v-495h-81l-13 67q-58 -80 -167 -80zM292 75q67 0 109 48.5t42 124.5
t-42 124.5t-109 48.5t-109.5 -48.5t-42.5 -124.5q0 -75 42.5 -124t109.5 -49z" />
    <glyph glyph-name="acircumflex.ss02" horiz-adv-x="606" 
d="M288 632l-56 -63h-86l90 126h103l90 -126h-85zM443 495h98v-495h-81l-13 67q-58 -80 -167 -80q-104 0 -171 77.5t-67 183.5q0 108 64.5 184.5t172.5 76.5q106 0 164 -78v64zM292 75q67 0 109 48.5t42 124.5t-42 124.5t-109 48.5t-109.5 -48.5t-42.5 -124.5
q0 -75 42.5 -124t109.5 -49z" />
    <glyph glyph-name="adieresis.ss02" horiz-adv-x="606" 
d="M204 568q-26 0 -45 19t-19 45t19 45t45 19t45 -19t19 -45t-19 -45t-45 -19zM372 568q-26 0 -45 19t-19 45t19 45t45 19t45 -19t19 -45t-19 -45t-45 -19zM280 -13q-104 0 -171 77.5t-67 183.5q0 108 64.5 184.5t172.5 76.5q106 0 164 -78v64h98v-495h-81l-13 67
q-58 -80 -167 -80zM292 75q67 0 109 48.5t42 124.5t-42 124.5t-109 48.5t-109.5 -48.5t-42.5 -124.5q0 -75 42.5 -124t109.5 -49z" />
    <glyph glyph-name="agrave.ss02" horiz-adv-x="606" 
d="M248 569l-107 126h127l67 -126h-87zM280 -13q-104 0 -171 77.5t-67 183.5q0 108 64.5 184.5t172.5 76.5q106 0 164 -78v64h98v-495h-81l-13 67q-58 -80 -167 -80zM292 75q67 0 109 48.5t42 124.5t-42 124.5t-109 48.5t-109.5 -48.5t-42.5 -124.5q0 -75 42.5 -124
t109.5 -49z" />
    <glyph glyph-name="amacron.ss02" horiz-adv-x="606" 
d="M182 594v76h212v-76h-212zM280 -13q-104 0 -171 77.5t-67 183.5q0 108 64.5 184.5t172.5 76.5q106 0 164 -78v64h98v-495h-81l-13 67q-58 -80 -167 -80zM292 75q67 0 109 48.5t42 124.5t-42 124.5t-109 48.5t-109.5 -48.5t-42.5 -124.5q0 -75 42.5 -124t109.5 -49z" />
    <glyph glyph-name="aogonek.ss02" horiz-adv-x="606" 
d="M481 -75q0 -18 13 -29.5t37 -11.5h6l-1 -66q-7 -1 -20 -1q-51 0 -80.5 24.5t-29.5 64.5q0 60 53 100l-12 61q-58 -80 -167 -80q-104 0 -171 77.5t-67 183.5q0 108 64.5 184.5t172.5 76.5q106 0 164 -78v64h98v-494l2 -1q-62 -32 -62 -75zM292 75q67 0 109 48.5t42 124.5
t-42 124.5t-109 48.5t-109.5 -48.5t-42.5 -124.5q0 -75 42.5 -124t109.5 -49z" />
    <glyph glyph-name="aring.ss02" horiz-adv-x="606" 
d="M288 544q-37 0 -64 27t-27 65t27 65t64 27q38 0 65 -27t27 -65t-27 -65t-65 -27zM288 602q14 0 24 10t10 24t-10 24t-24 10t-24 -10t-10 -24t10 -24t24 -10zM280 -13q-104 0 -171 77.5t-67 183.5q0 108 64.5 184.5t172.5 76.5q106 0 164 -78v64h98v-495h-81l-13 67
q-58 -80 -167 -80zM292 75q67 0 109 48.5t42 124.5t-42 124.5t-109 48.5t-109.5 -48.5t-42.5 -124.5q0 -75 42.5 -124t109.5 -49z" />
    <glyph glyph-name="atilde.ss02" horiz-adv-x="606" 
d="M347 576q-30 0 -65 17.5t-51 17.5q-29 0 -48 -37l-55 37q28 75 96 75q29 0 64.5 -17.5t54.5 -17.5q27 0 47 39l57 -38q-28 -76 -100 -76zM280 -13q-104 0 -171 77.5t-67 183.5q0 108 64.5 184.5t172.5 76.5q106 0 164 -78v64h98v-495h-81l-13 67q-58 -80 -167 -80z
M292 75q67 0 109 48.5t42 124.5t-42 124.5t-109 48.5t-109.5 -48.5t-42.5 -124.5q0 -75 42.5 -124t109.5 -49z" />
    <glyph glyph-name="l.ss03" horiz-adv-x="274" 
d="M179 -14q-52 0 -83 29.5t-31 87.5v597h98v-585q0 -40 38 -40q20 0 34 6l23 -80q-30 -15 -79 -15z" />
    <glyph glyph-name="lacute.ss03" horiz-adv-x="283" 
d="M73 771l67 126h127l-107 -126h-87zM180 -14q-52 0 -83 29.5t-31 87.5v597h98v-585q0 -40 38 -40q20 0 34 6l23 -80q-30 -15 -79 -15z" />
    <glyph glyph-name="lcaron.ss03" horiz-adv-x="286" 
d="M179 -14q-52 0 -83 29.5t-31 87.5v597h98v-585q0 -40 38 -40q20 0 34 6l23 -80q-30 -15 -79 -15zM204 574l37 126h102l-73 -126h-66z" />
    <glyph glyph-name="lcommaaccent.ss03" horiz-adv-x="274" 
d="M179 -14q-52 0 -83 29.5t-31 87.5v597h98v-585q0 -40 38 -40q20 0 34 6l23 -80q-30 -15 -79 -15zM129 -210q18 21 24 45q-44 9 -44 51q0 26 17.5 40.5t38.5 14.5q26 0 42.5 -16t16.5 -45q0 -31 -16 -63t-43 -53z" />
    <glyph glyph-name="ldot.ss03" horiz-adv-x="357" 
d="M179 -14q-52 0 -83 29.5t-31 87.5v597h98v-585q0 -40 38 -40q20 0 34 6l23 -80q-30 -15 -79 -15zM295 283q-28 0 -47.5 19.5t-19.5 47.5t19.5 47.5t47.5 19.5t47.5 -19.5t19.5 -47.5t-19.5 -47.5t-47.5 -19.5z" />
    <glyph glyph-name="lslash.ss03" horiz-adv-x="318" 
d="M244 75q20 0 34 6l23 -80q-30 -15 -79 -15q-52 0 -83 29.5t-31 87.5v161l-56 -42l-47 66l103 77v335h98v-261l57 43l47 -65l-104 -79v-223q0 -40 38 -40z" />
    <glyph glyph-name="y.ss04" horiz-adv-x="511" 
d="M393 495h102l-232 -608q-43 -107 -143 -107q-80 0 -120 62l77 50q12 -22 44 -22q40 0 55 46l37 98l-191 481h101l137 -354z" />
    <glyph glyph-name="yacute.ss04" horiz-adv-x="511" 
d="M403 695l-107 -126h-87l67 126h127zM393 495h102l-232 -608q-43 -107 -143 -107q-80 0 -120 62l77 50q12 -22 44 -22q40 0 55 46l37 98l-191 481h101l137 -354z" />
    <glyph glyph-name="ycircumflex.ss04" horiz-adv-x="511" 
d="M256 632l-56 -63h-86l90 126h103l90 -126h-85zM393 495h102l-232 -608q-43 -107 -143 -107q-80 0 -120 62l77 50q12 -22 44 -22q40 0 55 46l37 98l-191 481h101l137 -354z" />
    <glyph glyph-name="ydieresis.ss04" horiz-adv-x="511" 
d="M172 568q-26 0 -45 19t-19 45t19 45t45 19t45 -19t19 -45t-19 -45t-45 -19zM340 568q-26 0 -45 19t-19 45t19 45t45 19t45 -19t19 -45t-19 -45t-45 -19zM393 495h102l-232 -608q-43 -107 -143 -107q-80 0 -120 62l77 50q12 -22 44 -22q40 0 55 46l37 98l-191 481h101
l137 -354z" />
    <glyph glyph-name="ygrave.ss04" horiz-adv-x="511" 
d="M303 569h-87l-107 126h127zM393 495h102l-232 -608q-43 -107 -143 -107q-80 0 -120 62l77 50q12 -22 44 -22q40 0 55 46l37 98l-191 481h101l137 -354z" />
    <glyph glyph-name="f_f.dlig" horiz-adv-x="682" 
d="M526 566v-71h134v-88h-134v-407h-98v407h-223v-407h-98v407h-87v88h87v82q0 63 37 100.5t95 37.5q79 0 115 -41l-48 -67q-15 19 -48 19q-53 0 -53 -60v-71h223v82q0 63 37 100.5t94 37.5q79 0 115 -41l-47 -67q-19 19 -49 19q-52 0 -52 -60z" />
    <glyph glyph-name="f_f_i.dlig" horiz-adv-x="916" 
d="M846 495v-495h-98v407h-222v-407h-98v407h-223v-407h-98v407h-87v88h87v82q0 63 37 100.5t95 37.5q79 0 115 -41l-48 -67q-15 19 -48 19q-53 0 -53 -60v-71h223v82q0 63 37 100.5t94 37.5q79 0 115 -41l-47 -67q-19 19 -49 19q-52 0 -52 -60v-71h320zM798 568
q-27 0 -46 18.5t-19 45.5q0 26 19 45t46 19q26 0 44.5 -19t18.5 -45q0 -27 -18.5 -45.5t-44.5 -18.5z" />
    <glyph glyph-name="f_f_j.dlig" horiz-adv-x="914" 
d="M845 495v-575q0 -63 -37.5 -101t-94.5 -38q-74 0 -107 38l45 70q16 -18 46 -18q50 0 50 60v476h-221v-407h-98v407h-223v-407h-98v407h-87v88h87v82q0 63 37 100.5t95 37.5q79 0 115 -41l-48 -67q-15 19 -48 19q-53 0 -53 -60v-71h223v82q0 63 37 100.5t94 37.5
q79 0 115 -41l-47 -67q-19 19 -49 19q-52 0 -52 -60v-71h319zM797 568q-27 0 -46 18.5t-19 45.5q0 26 19 45t46 19q26 0 44.5 -19t18.5 -45q0 -27 -18.5 -45.5t-44.5 -18.5z" />
    <glyph glyph-name="f_f_l.dlig" horiz-adv-x="911" 
d="M748 700h98v-700h-98v407h-222v-407h-98v407h-223v-407h-98v407h-87v88h87v82q0 63 37 100.5t95 37.5q79 0 115 -41l-48 -67q-15 19 -48 19q-53 0 -53 -60v-71h223v82q0 63 37 100.5t94 37.5q79 0 115 -41l-47 -67q-19 19 -49 19q-52 0 -52 -60v-71h222v205z" />
    <glyph glyph-name="f_i.dlig" horiz-adv-x="596" 
d="M525 495v-495h-98v407h-222v-407h-98v407h-87v88h87v82q0 63 37 100.5t95 37.5q79 0 115 -41l-48 -67q-15 19 -48 19q-53 0 -53 -60v-71h320zM477 568q-27 0 -46 18.5t-19 45.5q0 26 19 45t46 19q26 0 44.5 -19t18.5 -45q0 -27 -18.5 -45.5t-44.5 -18.5z" />
    <glyph glyph-name="f_j.dlig" horiz-adv-x="594" 
d="M525 495v-575q0 -63 -37.5 -101t-94.5 -38q-74 0 -107 38l45 70q16 -18 46 -18q50 0 50 60v476h-222v-407h-98v407h-87v88h87v82q0 63 37 100.5t95 37.5q79 0 115 -41l-48 -67q-15 19 -48 19q-53 0 -53 -60v-71h320zM477 568q-27 0 -46 18.5t-19 45.5q0 26 19 45t46 19
q26 0 44.5 -19t18.5 -45q0 -27 -18.5 -45.5t-44.5 -18.5z" />
    <glyph glyph-name="f_l.dlig" horiz-adv-x="591" 
d="M428 700h98v-700h-98v407h-223v-407h-98v407h-87v88h87v82q0 63 37 100.5t95 37.5q79 0 115 -41l-48 -67q-15 19 -48 19q-53 0 -53 -60v-71h223v205z" />
    <glyph glyph-name="fl.dlig" horiz-adv-x="591" 
d="M428 700h98v-700h-98v407h-223v-407h-98v407h-87v88h87v82q0 63 37 100.5t95 37.5q79 0 115 -41l-48 -67q-15 19 -48 19q-53 0 -53 -60v-71h223v205z" />
    <glyph glyph-name="zero.tf" horiz-adv-x="600" 
d="M301 -14q-87 0 -146.5 50t-86 131t-26.5 186q0 159 65.5 260t192.5 101q85 0 144.5 -49.5t86 -129t26.5 -182.5q0 -162 -64.5 -264.5t-191.5 -102.5zM301 78q79 0 117.5 75t38.5 197q0 120 -39.5 196t-117.5 76q-80 0 -119.5 -76t-39.5 -196q0 -121 39.5 -196.5
t120.5 -75.5z" />
    <glyph glyph-name="one.tf" horiz-adv-x="600" 
d="M351 92h174v-92h-450v92h176v498q-60 -39 -145 -51v98q73 13 145 63h100v-608z" />
    <glyph glyph-name="two.tf" horiz-adv-x="600" 
d="M81 0v93l234 206q44 38 65 60t40 59t19 77q0 54 -37.5 90.5t-96.5 36.5q-62 0 -103 -41t-41 -108l-93 27q4 96 72.5 155t164.5 59q101 0 167.5 -62t66.5 -156q0 -81 -38.5 -137t-115.5 -123l-163 -144h318v-92h-459z" />
    <glyph glyph-name="three.tf" horiz-adv-x="600" 
d="M299 -14q-103 0 -171 59.5t-71 144.5l92 27q3 -59 45.5 -99t104.5 -40q66 0 108 40.5t42 101.5q0 63 -40.5 103t-109.5 40q-27 0 -51 -8l-51 62l187 191h-305v92h424v-92l-158 -165q91 -5 147.5 -64.5t56.5 -158.5q0 -100 -70.5 -167t-179.5 -67z" />
    <glyph glyph-name="four.tf" horiz-adv-x="600" 
d="M357 0v183h-316v76l311 441h105v-431h91v-86h-91v-183h-100zM149 268l208 1v291z" />
    <glyph glyph-name="five.tf" horiz-adv-x="600" 
d="M301 -14q-100 0 -169.5 57.5t-74.5 136.5l93 28q5 -58 47.5 -94t103.5 -36q66 0 107.5 41t41.5 105q0 63 -42 104t-107 41q-40 0 -73.5 -15.5t-50.5 -37.5l-89 31l38 353h377v-92h-293l-20 -186q45 34 117 34q107 0 174.5 -64.5t67.5 -167.5q0 -105 -71 -171.5
t-177 -66.5z" />
    <glyph glyph-name="six.tf" horiz-adv-x="600" 
d="M301 -14q-124 0 -188 84.5t-64 241.5q0 194 60 298t199 104q89 0 143.5 -46.5t75.5 -125.5l-88 -27q-31 107 -131 107q-82 0 -116 -60.5t-38 -172.5q20 25 61 46t95 21q102 0 169 -64.5t67 -169.5t-69.5 -170.5t-175.5 -65.5zM301 78q65 0 105 40t40 105q0 64 -40 103.5
t-105 39.5q-63 0 -103.5 -40t-40.5 -103q0 -61 40.5 -103t103.5 -42z" />
    <glyph glyph-name="seven.tf" horiz-adv-x="600" 
d="M187 0q26 141 94 318.5t134 289.5h-343v92h455v-92q-71 -111 -142.5 -288.5t-97.5 -319.5h-100z" />
    <glyph glyph-name="eight.tf" horiz-adv-x="600" 
d="M444 378q97 -58 97 -174q0 -97 -68.5 -158t-173.5 -61q-107 0 -175 61t-68 158q0 115 98 174q-69 53 -69 141q0 85 60.5 139.5t153.5 54.5q92 0 153 -54.5t61 -139.5q0 -88 -69 -141zM183 521q0 -48 33 -76.5t83 -28.5q49 0 82.5 28.5t33.5 76.5t-33.5 77t-82.5 29
q-50 0 -83 -29t-33 -77zM299 75q60 0 101 35.5t41 93.5q0 60 -41 95t-101 35t-101.5 -35.5t-41.5 -94.5q0 -58 42 -93.5t101 -35.5z" />
    <glyph glyph-name="nine.tf" horiz-adv-x="600" 
d="M294 714q124 0 188 -84.5t64 -241.5q0 -194 -60 -298t-199 -104q-89 0 -143.5 46.5t-75.5 125.5l88 27q31 -107 131 -107q82 0 116 60.5t38 172.5q-20 -25 -61 -46t-95 -21q-102 0 -169 64.5t-67 169.5t69.5 170.5t175.5 65.5zM294 622q-64 0 -104.5 -40t-40.5 -105
q0 -64 40 -103.5t105 -39.5q63 0 103.5 40t40.5 103q0 61 -40.5 103t-103.5 42z" />
    <glyph glyph-name="zero.tf.zero" horiz-adv-x="600" 
d="M300 713q85 0 144.5 -49.5t86 -129t26.5 -182.5q0 -162 -64.5 -264.5t-191.5 -102.5q-87 0 -146.5 50t-86 131t-26.5 186q0 159 65.5 260t192.5 101zM300 621q-80 0 -119.5 -76t-39.5 -196q0 -67 12 -122l247 345q-40 49 -100 49zM301 77q79 0 117.5 75t38.5 197
q0 65 -12 120l-246 -344q40 -48 102 -48z" />
    <glyph glyph-name="zero.zero" horiz-adv-x="603" 
d="M302 713q85 0 144.5 -49.5t86 -129t26.5 -182.5q0 -162 -64.5 -264.5t-191.5 -102.5q-87 0 -146.5 50t-86 131t-26.5 186q0 159 65.5 260t192.5 101zM302 621q-80 0 -119.5 -76t-39.5 -196q0 -67 12 -122l247 345q-40 49 -100 49zM303 77q79 0 117.5 75t38.5 197
q0 65 -12 120l-246 -344q40 -48 102 -48z" />
    <glyph glyph-name="zero.dnom" horiz-adv-x="336" 
d="M169 -7q-66 0 -99.5 50t-33.5 132q0 80 34 131t98 51q65 0 98.5 -50.5t33.5 -131.5t-33.5 -131.5t-97.5 -50.5zM169 56q61 0 61 119q0 117 -62 117q-63 0 -63 -117q0 -119 64 -119z" />
    <glyph glyph-name="one.dnom" horiz-adv-x="209" 
d="M87 0v273q-29 -20 -69 -24v68q41 10 69 33h68v-350h-68z" />
    <glyph glyph-name="two.dnom" horiz-adv-x="315" 
d="M43 0v65l119 102q26 24 36.5 40t10.5 37q0 20 -14.5 34.5t-37.5 14.5q-26 0 -42 -17t-15 -46l-64 18q2 49 36.5 79t84.5 30q51 0 86.5 -32t35.5 -80q0 -37 -17 -64.5t-51 -57.5l-69 -58h137v-65h-236z" />
    <glyph glyph-name="three.dnom" horiz-adv-x="325" 
d="M160 -7q-54 0 -88.5 30.5t-35.5 74.5l64 18q1 -25 17.5 -41.5t42.5 -16.5t43 15.5t17 40.5t-16.5 41t-43.5 16q-10 0 -21 -3l-35 41l81 77h-136v64h217v-64l-62 -62q36 -6 60.5 -34t24.5 -76q0 -53 -36.5 -87t-92.5 -34z" />
    <glyph glyph-name="four.dnom" horiz-adv-x="309" 
d="M179 0l1 87h-156v50l150 213h74v-205h37v-58h-37v-87h-69zM99 145h81l-1 111z" />
    <glyph glyph-name="five.dnom" horiz-adv-x="322" 
d="M159 -7q-51 0 -86.5 29.5t-36.5 70.5l65 20q1 -25 17 -40t41 -15t41.5 16t16.5 41q0 24 -16.5 39.5t-41.5 15.5q-33 0 -49 -21l-61 22l18 179h199v-65h-140l-6 -64q18 10 45 10q54 0 87.5 -31.5t33.5 -84.5q0 -55 -35.5 -88.5t-91.5 -33.5z" />
    <glyph glyph-name="six.dnom" horiz-adv-x="329" 
d="M167 -7q-131 0 -131 168q0 196 134 196q93 0 114 -89l-60 -18q-14 43 -54 43q-58 0 -61 -85q17 24 66 24q51 0 84.5 -32.5t33.5 -85.5q0 -54 -36 -87.5t-90 -33.5zM167 57q25 0 41 16t16 41t-16 40.5t-41 15.5q-26 0 -42 -15.5t-16 -40.5q0 -24 16.5 -40.5t41.5 -16.5z
" />
    <glyph glyph-name="seven.dnom" horiz-adv-x="278" 
d="M80 0q10 68 39 151.5t59 134.5h-154v64h231v-64q-34 -52 -65 -135.5t-41 -150.5h-69z" />
    <glyph glyph-name="eight.dnom" horiz-adv-x="323" 
d="M246 188q41 -31 41 -83q0 -49 -36 -80.5t-89 -31.5q-54 0 -90 31.5t-36 80.5q0 52 42 83q-29 27 -29 68q0 44 32.5 72.5t80.5 28.5t80.5 -28.5t32.5 -72.5q0 -41 -29 -68zM116 256q0 -19 13.5 -30.5t32.5 -11.5t32.5 11.5t13.5 30.5t-13.5 30.5t-32.5 11.5t-32.5 -11.5
t-13.5 -30.5zM162 55q24 0 40.5 14t16.5 37t-16.5 37.5t-40.5 14.5t-40.5 -14.5t-16.5 -37.5t16.5 -37t40.5 -14z" />
    <glyph glyph-name="nine.dnom" horiz-adv-x="328" 
d="M159 -7q-93 0 -114 89l60 18q14 -43 54 -43q58 0 61 86q-18 -25 -66 -25q-51 0 -84.5 32.5t-33.5 86.5t36 87t90 33q130 0 130 -168q0 -196 -133 -196zM162 180q25 0 41.5 16t16.5 40t-16.5 40.5t-41.5 16.5t-41 -16t-16 -41t16 -40.5t41 -15.5z" />
    <glyph glyph-name="zero.numr" horiz-adv-x="336" 
d="M169 343q-66 0 -99.5 50t-33.5 132q0 80 34 131t98 51q65 0 98.5 -50.5t33.5 -131.5t-33.5 -131.5t-97.5 -50.5zM169 406q61 0 61 119q0 117 -62 117q-63 0 -63 -117q0 -119 64 -119z" />
    <glyph glyph-name="one.numr" horiz-adv-x="209" 
d="M87 350v273q-29 -20 -69 -24v68q41 10 69 33h68v-350h-68z" />
    <glyph glyph-name="two.numr" horiz-adv-x="315" 
d="M43 350v65l119 102q26 24 36.5 40t10.5 37q0 20 -14.5 34.5t-37.5 14.5q-26 0 -42 -17t-15 -46l-64 18q2 49 36.5 79t84.5 30q51 0 86.5 -32t35.5 -80q0 -37 -17 -64.5t-51 -57.5l-69 -58h137v-65h-236z" />
    <glyph glyph-name="three.numr" horiz-adv-x="325" 
d="M160 343q-54 0 -88.5 30.5t-35.5 74.5l64 18q1 -25 17.5 -41.5t42.5 -16.5t43 15.5t17 40.5t-16.5 41t-43.5 16q-10 0 -21 -3l-35 41l81 77h-136v64h217v-64l-62 -62q36 -6 60.5 -34t24.5 -76q0 -53 -36.5 -87t-92.5 -34z" />
    <glyph glyph-name="four.numr" horiz-adv-x="309" 
d="M179 350l1 87h-156v50l150 213h74v-205h37v-58h-37v-87h-69zM99 495h81l-1 111z" />
    <glyph glyph-name="five.numr" horiz-adv-x="322" 
d="M159 343q-51 0 -86.5 29.5t-36.5 70.5l65 20q1 -25 17 -40t41 -15t41.5 16t16.5 41q0 24 -16.5 39.5t-41.5 15.5q-33 0 -49 -21l-61 22l18 179h199v-65h-140l-6 -64q18 10 45 10q54 0 87.5 -31.5t33.5 -84.5q0 -55 -35.5 -88.5t-91.5 -33.5z" />
    <glyph glyph-name="six.numr" horiz-adv-x="329" 
d="M167 343q-131 0 -131 168q0 196 134 196q93 0 114 -89l-60 -18q-14 43 -54 43q-58 0 -61 -85q17 24 66 24q51 0 84.5 -32.5t33.5 -85.5q0 -54 -36 -87.5t-90 -33.5zM167 407q25 0 41 16t16 41t-16 40.5t-41 15.5q-26 0 -42 -15.5t-16 -40.5q0 -24 16.5 -40.5t41.5 -16.5z
" />
    <glyph glyph-name="seven.numr" horiz-adv-x="278" 
d="M80 350q10 68 39 151.5t59 134.5h-154v64h231v-64q-34 -52 -65 -135.5t-41 -150.5h-69z" />
    <glyph glyph-name="eight.numr" horiz-adv-x="323" 
d="M246 538q41 -31 41 -83q0 -49 -36 -80.5t-89 -31.5q-54 0 -90 31.5t-36 80.5q0 52 42 83q-29 27 -29 68q0 44 32.5 72.5t80.5 28.5t80.5 -28.5t32.5 -72.5q0 -41 -29 -68zM116 606q0 -19 13.5 -30.5t32.5 -11.5t32.5 11.5t13.5 30.5t-13.5 30.5t-32.5 11.5t-32.5 -11.5
t-13.5 -30.5zM162 405q24 0 40.5 14t16.5 37t-16.5 37.5t-40.5 14.5t-40.5 -14.5t-16.5 -37.5t16.5 -37t40.5 -14z" />
    <glyph glyph-name="nine.numr" horiz-adv-x="328" 
d="M159 343q-93 0 -114 89l60 18q14 -43 54 -43q58 0 61 86q-18 -25 -66 -25q-51 0 -84.5 32.5t-33.5 86.5t36 87t90 33q130 0 130 -168q0 -196 -133 -196zM162 530q25 0 41.5 16t16.5 40t-16.5 40.5t-41.5 16.5t-41 -16t-16 -41t16 -40.5t41 -15.5z" />
    <glyph glyph-name="periodcentered.case" horiz-adv-x="196" 
d="M98 283q-28 0 -47.5 19.5t-19.5 47.5t19.5 47.5t47.5 19.5t47.5 -19.5t19.5 -47.5t-19.5 -47.5t-47.5 -19.5z" />
    <glyph glyph-name="bullet.case" horiz-adv-x="252" 
d="M127 255q-41 0 -68.5 27.5t-27.5 67.5q0 39 28 67t68 28q38 0 66 -28t28 -67q0 -40 -27.5 -67.5t-66.5 -27.5z" />
    <glyph glyph-name="exclamdown.case" horiz-adv-x="288" 
d="M144 707q27 0 47 -19.5t20 -46.5t-20 -47.5t-47 -20.5q-28 0 -47.5 20t-19.5 46q0 27 19.5 47.5t47.5 20.5zM94 510h100v-510h-100v510z" />
    <glyph glyph-name="questiondown.case" horiz-adv-x="518" 
d="M252 573q-28 0 -47.5 19.5t-19.5 47.5t19.5 47.5t47.5 19.5t47.5 -19.5t19.5 -47.5t-19.5 -47.5t-47.5 -19.5zM397 213l90 -24q-5 -91 -67.5 -147.5t-157.5 -56.5q-98 0 -164.5 61.5t-66.5 153.5q0 78 45 137.5t128 80.5v96h99v-164h-18q-75 0 -115.5 -41t-42.5 -104
q0 -55 37.5 -91.5t95.5 -36.5q63 0 99.5 37t37.5 99z" />
    <glyph glyph-name="braceleft.case" horiz-adv-x="278" 
d="M242 -121h-45q-43 0 -75.5 28.5t-32.5 80.5v260q0 57 -53 57v93q53 0 53 57v255q0 52 32.5 80.5t75.5 28.5h45v-88h-22q-35 -1 -35 -55v-249q0 -51 -31 -77q31 -26 31 -76v-252q0 -54 35 -55h22v-88z" />
    <glyph glyph-name="braceright.case" horiz-adv-x="278" 
d="M36 -121v88h22q35 1 35 55v252q0 50 31 76q-31 26 -31 77v249q0 54 -35 55h-22v88h45q43 0 75.5 -28.5t32.5 -80.5v-255q0 -57 53 -57v-93q-53 0 -53 -57v-260q0 -52 -32.5 -80.5t-75.5 -28.5h-45z" />
    <glyph glyph-name="bracketleft.case" horiz-adv-x="232" 
d="M36 -120v940h160v-88h-68v-764h68v-88h-160z" />
    <glyph glyph-name="bracketright.case" horiz-adv-x="232" 
d="M36 -120v88h68v764h-68v88h160v-940h-160z" />
    <glyph glyph-name="parenleft.case" horiz-adv-x="273" 
d="M166 -121q-54 80 -92 200.5t-38 270.5q0 151 38 271t93 198l78 -51q-47 -66 -80 -174.5t-33 -245.5q0 -134 33.5 -241.5t79.5 -175.5z" />
    <glyph glyph-name="parenright.case" horiz-adv-x="273" 
d="M107 -120l-79 52q46 68 79.5 175.5t33.5 241.5q0 137 -33 245.5t-80 174.5l78 51q55 -78 93 -198t38 -271q0 -150 -38 -270.5t-92 -200.5z" />
    <glyph glyph-name="emdash.case" horiz-adv-x="1100" 
d="M50 304v90h1000v-90h-1000z" />
    <glyph glyph-name="endash.case" horiz-adv-x="600" 
d="M50 304v90h500v-90h-500z" />
    <glyph glyph-name="hyphen.case" horiz-adv-x="361" 
d="M50 306v90h261v-90h-261z" />
    <glyph glyph-name="guillemotleft.case" horiz-adv-x="498" 
d="M143 533h102l-93 -184l93 -186h-101l-94 186zM448 533l-93 -184l93 -186h-101l-94 186l93 184h102z" />
    <glyph glyph-name="guillemotright.case" horiz-adv-x="498" 
d="M50 534h102l93 -184l-94 -186h-101l93 186zM355 534l93 -184l-94 -186h-101l93 186l-93 184h102z" />
    <glyph glyph-name="guilsinglleft.case" horiz-adv-x="295" 
d="M245 535l-93 -184l93 -186h-101l-94 186l93 184h102z" />
    <glyph glyph-name="guilsinglright.case" horiz-adv-x="295" 
d="M152 535l93 -184l-94 -186h-101l93 186l-93 184h102z" />
    <glyph glyph-name="at.case" horiz-adv-x="839" 
d="M421 716q162 0 262.5 -99.5t100.5 -261.5q0 -85 -43 -135t-116 -50q-81 0 -107 54q-52 -54 -120 -54q-70 0 -108.5 47.5t-38.5 115.5q0 76 46.5 134.5t126.5 58.5q66 0 101 -45l7 35h63l-19 -217v-10q-2 -20 10.5 -33t38.5 -13q39 0 61 32.5t22 79.5q0 133 -77.5 210.5
t-209.5 77.5q-124 0 -206.5 -84.5t-82.5 -208.5q0 -122 84 -207t205 -85q88 0 153 45l41 -59q-83 -59 -194 -59q-153 0 -259.5 105.5t-106.5 259.5q0 151 107 258.5t259 107.5zM409 241q47 0 75 36t28 82q0 40 -21.5 68t-62.5 28q-47 0 -75.5 -36.5t-28.5 -82.5
q0 -40 22 -67.5t63 -27.5z" />
    <glyph glyph-name="uni0308.case" horiz-adv-x="0" 
d="M-87 770q-26 0 -45.5 19t-19.5 45t19.5 45t45.5 19t45 -19t19 -45t-19 -45t-45 -19zM87 770q-26 0 -45 19t-19 45t19 45t45 19q27 0 45.5 -19t18.5 -45t-18.5 -45t-45.5 -19z" />
    <glyph glyph-name="uni0307.case" horiz-adv-x="0" 
d="M1 772q-27 0 -46 18.5t-19 45.5q0 26 19 45t46 19q26 0 44.5 -19t18.5 -45q0 -27 -18.5 -45.5t-44.5 -18.5z" />
    <glyph glyph-name="gravecomb.case" horiz-adv-x="0" 
d="M-42 771l-107 126h127l67 -126h-87z" />
    <glyph glyph-name="acutecomb.case" horiz-adv-x="0" 
d="M-45 771l67 126h127l-107 -126h-87z" />
    <glyph glyph-name="uni0302.case" horiz-adv-x="0" 
d="M141 771h-85l-56 63l-56 -63h-86l90 126h103z" />
    <glyph glyph-name="uni030A.case" horiz-adv-x="0" 
d="M0 745q-37 0 -64 27t-27 65t27 65t64 27q38 0 65 -27.5t27 -64.5t-27 -64.5t-65 -27.5zM0 803q14 0 24 10t10 24t-10 24t-24 10t-24 -10t-10 -24t10 -24t24 -10z" />
    <glyph glyph-name="tildecomb.case" horiz-adv-x="0" 
d="M62 777q-30 0 -65 18t-51 18q-30 0 -48 -37l-55 37q28 75 96 75q29 0 64.5 -18t53.5 -18q27 0 47 40l57 -39q-28 -76 -99 -76z" />
    <glyph glyph-name="uni0304.case" horiz-adv-x="0" 
d="M-106 796v76h212v-76h-212z" />
    <glyph glyph-name="uni0327.case" horiz-adv-x="0" 
d="M-1 -217q-37 0 -63 20.5t-28 50.5l55 19q0 -35 36 -35q16 0 25.5 9.5t9.5 25.5q0 15 -10 24t-25 9t-22 -7l-44 25l45 84l54 -8l-22 -42q36 -1 60 -23t24 -58q0 -43 -26 -68.5t-69 -25.5z" />
    <glyph glyph-name="uni0328.case" horiz-adv-x="0" 
d="M99 -182q-7 -1 -20 -1q-51 0 -80.5 24.5t-29.5 64.5q0 71 75 116l62 -22q-62 -32 -62 -75q0 -18 13 -29.5t37 -11.5h6z" />
    <glyph glyph-name="uni0335.case" horiz-adv-x="0" 
d="M-106 798v76h212v-76h-212z" />
    <glyph glyph-name="uni0338.case" horiz-adv-x="0" 
d="M-361 -49l-70 50l529 742l69 -51z" />
    </font>
</defs>
</svg>
