<svg id="_Icons_main_mining" data-name=" Icons / main / mining" xmlns="http://www.w3.org/2000/svg" width="43.75" height="35" viewBox="0 0 43.75 35">
  <g id="Group" transform="translate(41.491 34.218) rotate(180)">
    <g id="Group_4" data-name="Group 4" transform="translate(19.396 12.255)" opacity="0.5">
      <rect id="Rectangle" width="21.753" height="21.38" rx="10.69" transform="translate(21.753 21.38) rotate(-180)" fill="#616f6e" opacity="0.62"/>
    </g>
    <g id="Group_2" data-name="Group 2" transform="translate(0 27.99) rotate(-90)">
      <g id="Path_2" data-name="Path 2" transform="translate(4.858 2.637)">
        <path id="Path_2-2" data-name="Path 2" d="M0,0V30.179" transform="translate(0 0)" fill="#fafbfc" stroke="#213533" stroke-miterlimit="10" stroke-width="0.833"/>
        <path id="Path_2-3" data-name="Path 2" d="M0,0V30.179" transform="translate(0 0)" fill="none"/>
      </g>
      <path id="Path_2_Copy" data-name="Path 2 Copy" d="M17.869,0C16.913,14.388,0,3.448,0,25.44" transform="translate(5.641 7.376)" fill="none" stroke="#213533" stroke-miterlimit="10" stroke-width="0.833" stroke-dasharray="1.167"/>
      <g id="Oval" transform="translate(0 0)">
        <ellipse id="Oval-2" data-name="Oval" cx="5.604" cy="5.702" rx="5.604" ry="5.702" fill="#fafbfc" stroke="#213533" stroke-miterlimit="10" stroke-width="0.875"/>
        <ellipse id="Oval-3" data-name="Oval" cx="5.604" cy="5.702" rx="5.604" ry="5.702" fill="none"/>
      </g>
      <g id="Oval_Copy_8" data-name="Oval Copy 8" transform="translate(1.883 1.916)">
        <ellipse id="Oval_Copy_8-2" data-name="Oval Copy 8" cx="3.684" cy="3.748" rx="3.684" ry="3.748" fill="#fafbfc" stroke="#15414f" stroke-miterlimit="10" stroke-width="0.833"/>
        <ellipse id="Oval_Copy_8-3" data-name="Oval Copy 8" cx="3.684" cy="3.748" rx="3.684" ry="3.748" fill="none"/>
      </g>
      <g id="Oval_Copy" data-name="Oval Copy" transform="translate(0.783 25.811)">
        <ellipse id="Oval_Copy-2" data-name="Oval Copy" cx="4.436" cy="4.514" rx="4.436" ry="4.514" fill="#fff" stroke="#213533" stroke-miterlimit="10" stroke-width="0.833"/>
        <ellipse id="Oval_Copy-3" data-name="Oval Copy" cx="4.436" cy="4.514" rx="4.436" ry="4.514" fill="none"/>
      </g>
      <g id="Group_3" data-name="Group 3" transform="translate(19.118 4.153)">
        <g id="Oval_Copy_2" data-name="Oval Copy 2" transform="translate(0 0)">
          <path id="Oval_Copy_2-2" data-name="Oval Copy 2" d="M4.436,9.027A4.475,4.475,0,0,0,8.872,4.513,4.555,4.555,0,0,0,8.32,2.331,4.424,4.424,0,0,0,4.436,0,4.359,4.359,0,0,0,2.86.293,4.449,4.449,0,0,0,1.016,1.639,4.543,4.543,0,0,0,0,4.513,4.475,4.475,0,0,0,4.436,9.027Z" fill="#fff" stroke="#213533" stroke-miterlimit="10" stroke-width="0.833"/>
          <path id="Oval_Copy_2-3" data-name="Oval Copy 2" d="M4.436,9.027A4.475,4.475,0,0,0,8.872,4.513,4.555,4.555,0,0,0,8.32,2.331,4.424,4.424,0,0,0,4.436,0,4.359,4.359,0,0,0,2.86.293,4.449,4.449,0,0,0,1.016,1.639,4.543,4.543,0,0,0,0,4.513,4.475,4.475,0,0,0,4.436,9.027Z" fill="none"/>
        </g>
        <path id="Oval_Copy_5" data-name="Oval Copy 5" d="M3.936,6.632a6.628,6.628,0,0,0,0-4.1A4.74,4.74,0,0,0,.03,0C-.214,0,1.1,1.463,2.133,3.007S3.631,7.551,3.936,6.632Z" transform="translate(4.406 0)" fill="#213533"/>
      </g>
    </g>
  </g>
</svg>
