<svg id="icns_feature_2" data-name="icns/feature/2" xmlns="http://www.w3.org/2000/svg" xmlns:xlink="http://www.w3.org/1999/xlink" width="66.625" height="65" viewBox="0 0 66.625 65">
  <defs>
    <clipPath id="clip-path">
      <rect id="Rectangle" width="32.361" height="32.361" fill="none"/>
    </clipPath>
  </defs>
  <g id="Group_59" data-name="Group 59" transform="translate(22.474 2.961)" opacity="0.58">
    <rect id="Rectangle-2" data-name="Rectangle" width="32.361" height="32.361" fill="none"/>
    <g id="Group_59-2" data-name="Group 59" clip-path="url(#clip-path)">
      <circle id="Oval" cx="27.652" cy="27.652" r="27.652" transform="translate(0.207 -23.895)" fill="#616e6f" opacity="0.34"/>
    </g>
  </g>
  <g id="Group_7" data-name="Group 7" transform="translate(1.625 4.063)">
    <g id="Group_5" data-name="Group 5" transform="translate(28.044 25.844)">
      <g id="Oval-2" data-name="Oval" transform="translate(6.049)">
        <circle id="Oval-3" data-name="Oval" cx="6.873" cy="6.873" r="6.873" fill="#fafbfc" stroke="#213533" stroke-miterlimit="10" stroke-width="1"/>
        <circle id="Oval-4" data-name="Oval" cx="6.873" cy="6.873" r="6.873" fill="none"/>
      </g>
      <g id="Oval_Copy_3" data-name="Oval Copy 3" transform="translate(0 15.122)">
        <path id="Oval_Copy_3-2" data-name="Oval Copy 3" d="M25.294,12.647A12.647,12.647,0,1,0,0,12.647Z" fill="#fafbfc" stroke="#213533" stroke-miterlimit="10" stroke-width="1"/>
        <path id="Oval_Copy_3-3" data-name="Oval Copy 3" d="M25.294,12.647A12.647,12.647,0,1,0,0,12.647Z" fill="none"/>
      </g>
    </g>
    <g id="Group_5_Copy" data-name="Group 5 Copy" transform="translate(0 30.793)">
      <g id="Oval-5" data-name="Oval" transform="translate(4.691 0)">
        <circle id="Oval-6" data-name="Oval" cx="5.33" cy="5.33" r="5.33" fill="#fafbfc" stroke="#213533" stroke-miterlimit="10" stroke-width="1"/>
        <circle id="Oval-7" data-name="Oval" cx="5.33" cy="5.33" r="5.33" fill="none"/>
      </g>
      <g id="Oval_Copy_3-4" data-name="Oval Copy 3" transform="translate(0 11.912)">
        <path id="Oval_Copy_3-5" data-name="Oval Copy 3" d="M19.616,9.808A9.808,9.808,0,0,0,0,9.808H19.616Z" fill="#fafbfc" stroke="#213533" stroke-miterlimit="10" stroke-width="1"/>
        <path id="Oval_Copy_3-6" data-name="Oval Copy 3" d="M19.616,9.808A9.808,9.808,0,0,0,0,9.808H19.616Z" fill="none"/>
      </g>
    </g>
    <g id="Oval_Copy_4" data-name="Oval Copy 4" transform="translate(20.345 0)">
      <path id="Oval_Copy_4-2" data-name="Oval Copy 4" d="M-17.681,19.8c-6.681,0-12.1-4.431-12.1-9.9S-24.362,0-17.681,0s12.1,4.431,12.1,9.9a9.07,9.07,0,0,1-3.549,7c-.725.593,2.717,6.45,2.052,6.789s-7.6-4.2-7.847-4.152A14.718,14.718,0,0,1-17.681,19.8Z" transform="translate(29.778)" fill="#fafbfc" stroke="#213533" stroke-miterlimit="10" stroke-width="1"/>
      <path id="Oval_Copy_4-3" data-name="Oval Copy 4" d="M-17.681,19.8c-6.681,0-12.1-4.431-12.1-9.9S-24.362,0-17.681,0s12.1,4.431,12.1,9.9a9.07,9.07,0,0,1-3.549,7c-.725.593,2.717,6.45,2.052,6.789s-7.6-4.2-7.847-4.152A14.718,14.718,0,0,1-17.681,19.8Z" transform="translate(29.778)" fill="none"/>
    </g>
    <g id="Group_6" data-name="Group 6" transform="translate(7.148 4.686)">
      <g id="Oval-8" data-name="Oval" transform="translate(0 0)">
        <path id="Oval-9" data-name="Oval" d="M12.1,19.8c6.681,0,12.1-4.431,12.1-9.9S18.778,0,12.1,0,0,4.431,0,9.9a9.07,9.07,0,0,0,3.549,7c.725.593-2.717,6.45-2.052,6.789s7.6-4.2,7.847-4.152A14.718,14.718,0,0,0,12.1,19.8Z" fill="#fafbfc" stroke="#213533" stroke-miterlimit="10" stroke-width="1.5"/>
        <path id="Oval-10" data-name="Oval" d="M12.1,19.8c6.681,0,12.1-4.431,12.1-9.9S18.778,0,12.1,0,0,4.431,0,9.9a9.07,9.07,0,0,0,3.549,7c.725.593-2.717,6.45-2.052,6.789s7.6-4.2,7.847-4.152A14.718,14.718,0,0,0,12.1,19.8Z" fill="none"/>
      </g>
      <g id="Oval-11" data-name="Oval" transform="translate(4.112 7.698)">
        <circle id="Oval-12" data-name="Oval" cx="1.925" cy="1.925" r="1.925" fill="#fafbfc" stroke="#213533" stroke-miterlimit="10" stroke-width="1"/>
        <circle id="Oval-13" data-name="Oval" cx="1.925" cy="1.925" r="1.925" fill="none"/>
      </g>
      <g id="Oval_Copy_6" data-name="Oval Copy 6" transform="translate(10.16 7.698)">
        <circle id="Oval_Copy_6-2" data-name="Oval Copy 6" cx="1.925" cy="1.925" r="1.925" fill="#fafbfc" stroke="#213533" stroke-miterlimit="10" stroke-width="1"/>
        <circle id="Oval_Copy_6-3" data-name="Oval Copy 6" cx="1.925" cy="1.925" r="1.925" fill="none"/>
      </g>
      <g id="Oval_Copy_7" data-name="Oval Copy 7" transform="translate(16.209 7.698)">
        <circle id="Oval_Copy_7-2" data-name="Oval Copy 7" cx="1.925" cy="1.925" r="1.925" fill="#fafbfc" stroke="#213533" stroke-miterlimit="10" stroke-width="1"/>
        <circle id="Oval_Copy_7-3" data-name="Oval Copy 7" cx="1.925" cy="1.925" r="1.925" fill="none"/>
      </g>
    </g>
    <path id="Path_3" data-name="Path 3" d="M0,.338H9.6" transform="translate(29.79 5.16)" fill="none" stroke="#213533" stroke-miterlimit="10" stroke-width="1" stroke-dasharray="2"/>
    <path id="Path_3_Copy" data-name="Path 3 Copy" d="M0,.5H9.289" transform="translate(32.539 8.848)" fill="none" stroke="#213533" stroke-miterlimit="10" stroke-width="1" stroke-dasharray="2"/>
    <path id="Path_3_Copy_2" data-name="Path 3 Copy 2" d="M0,.338H5.2" transform="translate(34.189 12.309)" fill="none" stroke="#213533" stroke-miterlimit="10" stroke-width="1" stroke-dasharray="2"/>
  </g>
</svg>
