<svg xmlns="http://www.w3.org/2000/svg" width="23.571" height="22" viewBox="0 0 23.571 22">
  <g id="Icon" transform="translate(1)">
    <g id="shuffle" transform="translate(-1 1)">
      <g id="Path">
        <path id="Path-2" data-name="Path" d="M21.429,0H17.584a6.852,6.852,0,0,0-5.845,3.777L9.283,8.127A6.852,6.852,0,0,1,3.438,11.9H0" transform="translate(1.143 3.571)" fill="none" stroke="#213533" stroke-miterlimit="10" stroke-width="1"/>
        <path id="Path-3" data-name="Path" d="M21.429,0H17.584a6.852,6.852,0,0,0-5.845,3.777L9.283,8.127A6.852,6.852,0,0,1,3.438,11.9H0" transform="translate(1.143 3.571)" fill="none"/>
      </g>
      <g id="Path-4" data-name="Path">
        <path id="Path-5" data-name="Path" d="M21.976,10.762H18.727a6.944,6.944,0,0,1-5.845-3.415L10.425,3.415A6.944,6.944,0,0,0,4.581,0H0" transform="translate(0 5.286)" fill="none" stroke="#213533" stroke-miterlimit="10" stroke-width="1.5"/>
        <path id="Path-6" data-name="Path" d="M21.976,10.762H18.727a6.944,6.944,0,0,1-5.845-3.415L10.425,3.415A6.944,6.944,0,0,0,4.581,0H0" transform="translate(0 5.286)" fill="none"/>
      </g>
      <g id="Path-7" data-name="Path">
        <path id="Path-8" data-name="Path" d="M0,0,3.571,3.571,0,7.143" transform="translate(20 12.571)" fill="#213533"/>
        <path id="Path-9" data-name="Path" d="M0,0,3.571,3.571,0,7.143" transform="translate(20 12.571)" fill="none"/>
      </g>
      <g id="Path-10" data-name="Path">
        <path id="Path-11" data-name="Path" d="M0,0,3.571,3.571,0,7.143" transform="translate(20)" fill="#213533"/>
        <path id="Path-12" data-name="Path" d="M0,0,3.571,3.571,0,7.143" transform="translate(20)" fill="none"/>
      </g>
      <path id="Path_Copy" data-name="Path Copy" d="M0,0,10.857,8.571,0,17.143" transform="translate(12 1.143)" fill="#616f6e" opacity="0.3"/>
      <path id="Path_Copy_2" data-name="Path Copy 2" d="M0,0,10.857,8.571,0,17.143" transform="translate(1.143 1.143)" fill="#616f6e" opacity="0.3"/>
    </g>
  </g>
</svg>
