<svg xmlns="http://www.w3.org/2000/svg" xmlns:xlink="http://www.w3.org/1999/xlink" width="92.625" height="94.208" viewBox="0 0 92.625 94.208">
  <defs>
    <clipPath id="clip-path">
      <rect id="Rectangle" width="58.125" height="58.125" fill="none"/>
    </clipPath>
  </defs>
  <g id="icns_feature_2" data-name="icns/feature/2" transform="translate(0 29.208)">
    <g id="Group_4" data-name="Group 4" transform="translate(92.625 28.917) rotate(-180)">
      <rect id="Rectangle-2" data-name="Rectangle" width="58.125" height="58.125" fill="none"/>
    </g>
    <g id="Group" transform="translate(62.576 54.032) rotate(180)">
      <g id="Group_4-3" data-name="Group 4" transform="translate(28.891 19.094)" opacity="0.5">
        <rect id="Rectangle-3" data-name="Rectangle" width="33.313" height="33.313" rx="16.656" transform="translate(33.313 33.313) rotate(-180)" fill="#616f6e" opacity="0.62"/>
      </g>
      <g id="Group_2" data-name="Group 2" transform="translate(0 43.611) rotate(-90)">
        <g id="Path_2" data-name="Path 2" transform="translate(7.57 4.039)">
          <path id="Path_2-2" data-name="Path 2" d="M0,0V46.216" transform="translate(0 0)" fill="#fafbfc" stroke="#213533" stroke-miterlimit="10" stroke-width="1"/>
          <path id="Path_2-3" data-name="Path 2" d="M0,0V46.216" transform="translate(0 0)" fill="none"/>
        </g>
        <path id="Path_2_Copy" data-name="Path 2 Copy" d="M27.842,0C26.352,22.033,0,5.28,0,38.959" transform="translate(8.79 11.296)" fill="none" stroke="#213533" stroke-miterlimit="10" stroke-width="1" stroke-dasharray="2"/>
        <g id="Oval">
          <circle id="Oval-2" data-name="Oval" cx="8.731" cy="8.731" r="8.731" fill="#fafbfc" stroke="#213533" stroke-miterlimit="10" stroke-width="1.5"/>
          <circle id="Oval-3" data-name="Oval" cx="8.731" cy="8.731" r="8.731" fill="none"/>
        </g>
        <g id="Oval_Copy_8" data-name="Oval Copy 8" transform="translate(2.934 2.934)">
          <circle id="Oval_Copy_8-2" data-name="Oval Copy 8" cx="5.74" cy="5.74" r="5.74" fill="#fafbfc" stroke="#15414f" stroke-miterlimit="10" stroke-width="0.5"/>
          <circle id="Oval_Copy_8-3" data-name="Oval Copy 8" cx="5.74" cy="5.74" r="5.74" fill="none"/>
        </g>
        <g id="Oval_Copy" data-name="Oval Copy" transform="translate(1.22 39.527)">
          <circle id="Oval_Copy-2" data-name="Oval Copy" cx="6.912" cy="6.912" r="6.912" fill="#fff" stroke="#213533" stroke-miterlimit="10" stroke-width="1"/>
          <circle id="Oval_Copy-3" data-name="Oval Copy" cx="6.912" cy="6.912" r="6.912" fill="none"/>
        </g>
        <g id="Group_3" data-name="Group 3" transform="translate(29.787 6.36)">
          <g id="Oval_Copy_2" data-name="Oval Copy 2" transform="translate(0 0)">
            <path id="Oval_Copy_2-2" data-name="Oval Copy 2" d="M6.912,13.824A6.912,6.912,0,1,0,0,6.912,6.912,6.912,0,0,0,6.912,13.824Z" fill="#fff" stroke="#213533" stroke-miterlimit="10" stroke-width="1"/>
            <path id="Oval_Copy_2-3" data-name="Oval Copy 2" d="M6.912,13.824A6.912,6.912,0,1,0,0,6.912,6.912,6.912,0,0,0,6.912,13.824Z" fill="none"/>
          </g>
          <path id="Oval_Copy_5" data-name="Oval Copy 5" d="M6.132,10.156a9.985,9.985,0,0,0,0-6.283A7.394,7.394,0,0,0,.046,0C-.334,0,1.71,2.241,3.324,4.6S5.658,11.564,6.132,10.156Z" transform="translate(6.865 0)" fill="#213533"/>
        </g>
      </g>
    </g>
  </g>
</svg>
