<svg id="Logo" xmlns="http://www.w3.org/2000/svg" width="117" height="24" viewBox="0 0 117 24">
  <rect id="Logo_White_background" data-name="Logo/White background" width="117" height="24" fill="none"/>
  <g id="logo_copy" data-name="logo copy" transform="translate(2 3)">
    <g id="XMLID_79_">
      <g id="XMLID_84_" transform="translate(21 2)">
        <path id="XMLID_93_" d="M5.507,5.136c-1.453-.178-2.7-.472-2.7-1.529,0-.9.816-1.619,2.511-1.619A3.512,3.512,0,0,1,8.2,3.339l1.823-.93C9.1.535,7.139,0,5.252,0,3.021.013.548,1.045.548,3.53c0,2.727,2.295,3.377,4.768,3.671,1.619.178,2.8.637,2.8,1.784,0,1.313-1.351,1.823-2.792,1.823A3.449,3.449,0,0,1,1.912,8.883L0,9.877C.905,12.1,2.8,12.86,5.291,12.86c2.7,0,5.1-1.16,5.1-3.862C10.4,6.1,8.044,5.442,5.507,5.136Z" transform="translate(0.025 0.102)" fill="#fff"/>
        <path id="XMLID_90_" d="M4.768,12.133H0V0H4.768A5.9,5.9,0,0,1,9.346,1.859a6.324,6.324,0,0,1,1.49,4.105,6.266,6.266,0,0,1-1.666,4.5A6,6,0,0,1,4.768,12.133Zm-2.5-9.967V9.929h2.5A3.7,3.7,0,0,0,7.536,8.892a4,4,0,0,0,1.031-2.94,3.593,3.593,0,0,0-3.8-3.785Z" transform="translate(12.034 0.523)" fill="#fff"/>
        <path id="XMLID_89_" d="M6.438,5.225,2.639,0H0V12.146H2.295V3.314L6.157,8.6H6.6l3.952-5.264v8.807H12.85V0H10.237Z" transform="translate(24.4 0.535)" fill="#fff"/>
        <path id="XMLID_88_" d="M0,2.077H3.85V12.133H6.145V2.077h3.85V0H.013V2.077Z" transform="translate(38.691 0.523)" fill="#fff"/>
        <path id="XMLID_87_" d="M5.444,0,0,12.133H2.486L6.693,2.549l4.194,9.584h2.5L7.942,0Z" transform="translate(52.319 0.523)" fill="#fff"/>
        <path id="XMLID_86_" d="M6.055,5.455V7.507h3.1V9.661a4.026,4.026,0,0,1-2.741.969A3.842,3.842,0,0,1,2.231,6.576,4.142,4.142,0,0,1,6.412,2.1,4.659,4.659,0,0,1,9.5,3.314l1.428-1.453A6.4,6.4,0,0,0,6.412,0C2.129,0,0,3.161,0,6.576c0,3.186,1.861,6.194,6.412,6.194a6.083,6.083,0,0,0,4.844-2.179V5.48h-5.2Z" transform="translate(65.705 0.178)" fill="#fff"/>
        <path id="XMLID_85_" d="M0,5.162H4.513L2.256,0Z" transform="translate(56.756 7.494)" fill="#f05234"/>
      </g>
      <g id="XMLID_80_">
        <path id="XMLID_83_" d="M14.553,3.747,12.716,2.7l-1.439-.822L9.837,2.7l-2,1.144-1.439.822-1.671.951-.051.029-1.389.794-.051.029v7.266l-1.642-.937-.072-.043v-7.4L2.886,4.57l.347-.2,1.439-.822,1.722-.98,1.439-.822L9.439.822,8,0,7.834.1,6.394.923,4.673,1.9l-1.439.822L1.519,3.7,0,4.57V13.53l.072.043.08.043,1.367.779,1.714.98,1.439.822V7.287l.051-.029,1.439-.822.231-.129,1.439-.822,3.443-1.967L13.114,4.57,8,7.487l-.166.093L6.561,8.31,6.394,8.4v8.775L7.834,18V9.225L8,9.132,16,4.57Z" fill="#fff"/>
        <path id="XMLID_82_" d="M0,13l1.484-.822V5.246l5.025-2.78V9.4L8,8.576V0L0,4.424Z" transform="translate(8 5)" fill="#fff"/>
        <path id="XMLID_81_" d="M0,5,3,3.278V0L0,1.722Z" transform="translate(11 9)" fill="#f05234"/>
      </g>
    </g>
  </g>
</svg>
