<svg id="Logo" xmlns="http://www.w3.org/2000/svg" width="117" height="24.51" viewBox="0 0 117 24.51">
  <g id="XMLID_79_" transform="translate(3 3.064)">
    <g id="XMLID_84_" transform="translate(21.025 2.147)">
      <path id="XMLID_93_" d="M5.507,5.245c-1.453-.182-2.7-.482-2.7-1.562,0-.924.816-1.653,2.511-1.653A3.487,3.487,0,0,1,8.2,3.41l1.823-.95C9.1.547,7.139,0,5.252,0,3.021.013.548,1.067.548,3.605c0,2.785,2.295,3.449,4.768,3.749,1.619.182,2.8.651,2.8,1.822,0,1.341-1.351,1.861-2.792,1.861A3.438,3.438,0,0,1,1.912,9.072L0,10.087c.905,2.265,2.8,3.046,5.291,3.046,2.7,0,5.1-1.184,5.1-3.944C10.4,6.235,8.044,5.558,5.507,5.245Z" transform="translate(0 0)" fill="#0b1c1a"/>
      <path id="XMLID_90_" d="M4.768,12.391H0V0H4.768A5.838,5.838,0,0,1,9.346,1.9a6.54,6.54,0,0,1,1.49,4.192,6.478,6.478,0,0,1-1.666,4.6A5.928,5.928,0,0,1,4.768,12.391ZM2.269,2.212V10.14h2.5A3.66,3.66,0,0,0,7.536,9.081a4.139,4.139,0,0,0,1.031-3,3.634,3.634,0,0,0-3.8-3.866Z" transform="translate(12.009 0.43)" fill="#0b1c1a"/>
      <path id="XMLID_89_" d="M6.438,5.337,2.639,0H0V12.4H2.295V3.384l3.863,5.4H6.6L10.556,3.41V12.4H12.85V0H10.237Z" transform="translate(24.375 0.443)" fill="#0b1c1a"/>
      <path id="XMLID_88_" d="M0,2.122H3.85v10.27H6.145V2.122h3.85V0H.013V2.122Z" transform="translate(38.666 0.43)" fill="#0b1c1a"/>
      <path id="XMLID_87_" d="M5.444,0,0,12.391H2.486L6.693,2.6l4.194,9.788h2.5L7.942,0Z" transform="translate(52.294 0.43)" fill="#0b1c1a"/>
      <path id="XMLID_86_" d="M6.055,5.571v2.1h3.1v2.2a3.974,3.974,0,0,1-2.741.989A3.885,3.885,0,0,1,2.231,6.716c0-2.551,1.581-4.569,4.181-4.569A4.606,4.606,0,0,1,9.5,3.384L10.925,1.9A6.335,6.335,0,0,0,6.412,0C2.129,0,0,3.228,0,6.716c0,3.254,1.861,6.326,6.412,6.326a6.031,6.031,0,0,0,4.844-2.226V5.6h-5.2Z" transform="translate(65.679 0.078)" fill="#0b1c1a"/>
      <path id="XMLID_85_" d="M0,5.271H4.513L2.256,0Z" transform="translate(56.73 7.549)" fill="#f05234"/>
    </g>
    <g id="XMLID_80_">
      <path id="XMLID_83_" d="M14.553,3.827,12.716,2.753l-1.439-.84-1.439.84-2,1.169-1.439.84-1.671.971-.051.029-1.389.811L3.233,6.6v7.42l-1.642-.957-.072-.044V5.463l1.367-.8.347-.2,1.439-.84,1.722-1,1.439-.84L9.439.84,8,0,7.834.1,6.394.942l-1.722,1-1.439.84-1.714,1L0,4.667v9.151l.072.044.08.044,1.367.8,1.714,1,1.439.84v-9.1l.051-.029,1.439-.84.231-.131L7.834,5.6l3.443-2.008,1.837,1.074L8,7.647l-.166.095-1.273.745-.166.095v8.961l1.439.84V9.421L8,9.326l8-4.66Z" fill="#0b1c1a"/>
      <path id="XMLID_82_" d="M0,13.276l1.484-.839V5.357L6.509,2.518V9.6L8,8.758V0L0,4.518Z" transform="translate(8 5.106)" fill="#0b1c1a"/>
      <path id="XMLID_81_" d="M0,5.106,3,3.348V0L0,1.759Z" transform="translate(11 9.191)" fill="#f05234"/>
    </g>
  </g>
</svg>
