<svg id="icns_feature_2" data-name="icns/feature/2" xmlns="http://www.w3.org/2000/svg" width="66.625" height="65" viewBox="0 0 66.625 65">
  <g id="Group_52" data-name="Group 52" transform="translate(0.813 4.063)">
    <rect id="Rectangle" width="31.317" height="31.317" transform="translate(23.754)" fill="#616e6f" opacity="0.3"/>
    <g id="Group_39" data-name="Group 39" transform="translate(0 3.111)">
      <g id="Path_6" data-name="Path 6" transform="translate(0 0)">
        <path id="Path_6-2" data-name="Path 6" d="M0,0V46.921H49.267" transform="translate(0)" fill="none" stroke="#213533" stroke-miterlimit="10" stroke-width="1"/>
        <path id="Path_6-3" data-name="Path 6" d="M0,0V46.921H49.267" transform="translate(0)" fill="none"/>
      </g>
      <path id="Path_6_Copy" data-name="Path 6 Copy" d="M0,.619H49.267" transform="translate(0 52.335)" fill="none" stroke="#213533" stroke-miterlimit="10" stroke-width="1" stroke-dasharray="2"/>
      <g id="Path_7" data-name="Path 7" transform="translate(5.571 14.517)">
        <path id="Path_7-2" data-name="Path 7" d="M0,22.352,14.538,8.944l9.049,6.626L40.233,0" fill="none" stroke="#213533" stroke-miterlimit="10" stroke-width="1.5"/>
        <path id="Path_7-3" data-name="Path 7" d="M0,22.352,14.538,8.944l9.049,6.626L40.233,0" fill="none"/>
      </g>
      <g id="Oval" transform="translate(17.093 21.45)">
        <circle id="Oval-2" data-name="Oval" cx="2.514" cy="2.514" r="2.514" fill="#fff" stroke="#213533" stroke-miterlimit="10" stroke-width="1"/>
        <circle id="Oval-3" data-name="Oval" cx="2.514" cy="2.514" r="2.514" fill="none"/>
      </g>
      <g id="Oval_Copy_9" data-name="Oval Copy 9" transform="translate(4.022 33.515)">
        <circle id="Oval_Copy_9-2" data-name="Oval Copy 9" cx="2.514" cy="2.514" r="2.514" fill="#fff" stroke="#213533" stroke-miterlimit="10" stroke-width="1"/>
        <circle id="Oval_Copy_9-3" data-name="Oval Copy 9" cx="2.514" cy="2.514" r="2.514" fill="none"/>
      </g>
      <g id="Oval_Copy_8" data-name="Oval Copy 8" transform="translate(26.142 26.477)">
        <circle id="Oval_Copy_8-2" data-name="Oval Copy 8" cx="2.514" cy="2.514" r="2.514" fill="#fff" stroke="#213533" stroke-miterlimit="10" stroke-width="1"/>
        <circle id="Oval_Copy_8-3" data-name="Oval Copy 8" cx="2.514" cy="2.514" r="2.514" fill="none"/>
      </g>
      <g id="Path_8" data-name="Path 8" transform="translate(35.439 13.94)">
        <path id="Path_8-2" data-name="Path 8" d="M0,0H10.366V10.526" transform="translate(0)" fill="none" stroke="#213533" stroke-miterlimit="10" stroke-width="1.5"/>
        <path id="Path_8-3" data-name="Path 8" d="M0,0H10.366V10.526" transform="translate(0)" fill="none"/>
      </g>
    </g>
  </g>
</svg>
