<svg id="_Icons_main_mining" data-name=" Icons / main / mining" xmlns="http://www.w3.org/2000/svg" width="43.75" height="35" viewBox="0 0 43.75 35">
  <g id="Group_52" data-name="Group 52" transform="translate(0.58)">
    <rect id="Rectangle" width="19.163" height="19.272" transform="translate(14.535)" fill="#616f6e" opacity="0.2"/>
    <g id="Group_39" data-name="Group 39" transform="translate(0 1.914)">
      <g id="Path_6" data-name="Path 6">
        <path id="Path_6-2" data-name="Path 6" d="M0,0V28.874H30.146" transform="translate(0)" fill="none" stroke="#213533" stroke-miterlimit="10" stroke-width="0.583"/>
        <path id="Path_6-3" data-name="Path 6" d="M0,0V28.874H30.146" transform="translate(0)" fill="none"/>
      </g>
      <path id="Path_6_Copy" data-name="Path 6 Copy" d="M0,.309H30.146" transform="translate(0 32.277)" fill="none" stroke="#213533" stroke-miterlimit="10" stroke-width="0.833" stroke-dasharray="1.167"/>
      <g id="Path_7" data-name="Path 7" transform="translate(3.409 8.933)">
        <path id="Path_7-2" data-name="Path 7" d="M0,13.755,8.9,5.5l5.537,4.078L24.618,0" fill="none" stroke="#213533" stroke-miterlimit="10" stroke-width="0.875"/>
        <path id="Path_7-3" data-name="Path 7" d="M0,13.755,8.9,5.5l5.537,4.078L24.618,0" fill="none"/>
      </g>
      <g id="Oval" transform="translate(10.459 13.2)">
        <ellipse id="Oval-2" data-name="Oval" cx="1.538" cy="1.547" rx="1.538" ry="1.547" fill="#fff" stroke="#213533" stroke-miterlimit="10" stroke-width="0.583"/>
        <ellipse id="Oval-3" data-name="Oval" cx="1.538" cy="1.547" rx="1.538" ry="1.547" fill="none"/>
      </g>
      <g id="Oval_Copy_9" data-name="Oval Copy 9" transform="translate(2.461 20.625)">
        <ellipse id="Oval_Copy_9-2" data-name="Oval Copy 9" cx="1.538" cy="1.547" rx="1.538" ry="1.547" fill="#fff" stroke="#213533" stroke-miterlimit="10" stroke-width="0.583"/>
        <ellipse id="Oval_Copy_9-3" data-name="Oval Copy 9" cx="1.538" cy="1.547" rx="1.538" ry="1.547" fill="none"/>
      </g>
      <g id="Oval_Copy_8" data-name="Oval Copy 8" transform="translate(15.996 16.293)">
        <ellipse id="Oval_Copy_8-2" data-name="Oval Copy 8" cx="1.538" cy="1.547" rx="1.538" ry="1.547" fill="#fff" stroke="#213533" stroke-miterlimit="10" stroke-width="0.583"/>
        <ellipse id="Oval_Copy_8-3" data-name="Oval Copy 8" cx="1.538" cy="1.547" rx="1.538" ry="1.547" fill="none"/>
      </g>
      <g id="Path_8" data-name="Path 8" transform="translate(21.684 8.579)">
        <path id="Path_8-2" data-name="Path 8" d="M0,0H6.343V6.477" transform="translate(0)" fill="none" stroke="#213533" stroke-miterlimit="10" stroke-width="0.875"/>
        <path id="Path_8-3" data-name="Path 8" d="M0,0H6.343V6.477" transform="translate(0)" fill="none"/>
      </g>
    </g>
  </g>
</svg>
