<svg xmlns="http://www.w3.org/2000/svg" xmlns:xlink="http://www.w3.org/1999/xlink" width="105.794" height="102.767" viewBox="0 0 105.794 102.767">
  <defs>
    <clipPath id="clip-path">
      <rect id="Rectangle" width="69.161" height="69.161" fill="none"/>
    </clipPath>
  </defs>
  <g id="_Icons_main_mining" data-name=" Icons / main / mining" transform="translate(0 37.767)">
    <g id="Group" transform="translate(1.056 -37.767)">
      <g id="Group_4" data-name="Group 4" transform="translate(104.738 69.161) rotate(-180)">
        <rect id="Rectangle-2" data-name="Rectangle" width="69.161" height="69.161" transform="translate(0 0)" fill="none"/>
        <g id="Group_4-2" data-name="Group 4" transform="translate(0 0)" clip-path="url(#clip-path)">
          <circle id="Oval" cx="29.739" cy="29.739" r="29.739" transform="translate(37.051 -28.003)" fill="#616f6e" opacity="0.2"/>
        </g>
      </g>
      <g id="Group_2" data-name="Group 2" transform="translate(0 39.76)">
        <g id="Group_3_Copy_2" data-name="Group 3 Copy 2" transform="translate(0 0)">
          <g id="Group_5" data-name="Group 5" transform="translate(11.563 11.563)">
            <path id="Path_2" data-name="Path 2" d="M.534,0V38.158" transform="translate(14.865)" fill="none" stroke="#213533" stroke-miterlimit="10" stroke-width="1" stroke-dasharray="2"/>
            <path id="Path_2_Copy" data-name="Path 2 Copy" d="M32.377,0,0,19.757" transform="translate(0 9.151)" fill="none" stroke="#213533" stroke-miterlimit="10" stroke-width="1" stroke-dasharray="2"/>
            <path id="Path_2_Copy_5" data-name="Path 2 Copy 5" d="M-29.886,0,2.491,19.757" transform="translate(29.886 9.151)" fill="none" stroke="#213533" stroke-miterlimit="10" stroke-width="1" stroke-dasharray="2"/>
          </g>
          <g id="Oval-2" data-name="Oval" transform="translate(17.711 20.814)">
            <path id="Oval-3" data-name="Oval" d="M9.829,19.657A9.829,9.829,0,1,0,0,9.829,9.829,9.829,0,0,0,9.829,19.657Z" fill="#fafbfc" stroke="#213533" stroke-miterlimit="10" stroke-width="1"/>
            <path id="Oval-4" data-name="Oval" d="M9.829,19.657A9.829,9.829,0,1,0,0,9.829,9.829,9.829,0,0,0,9.829,19.657Z" fill="none"/>
          </g>
          <g id="Oval_Copy_7" data-name="Oval Copy 7" transform="translate(21.758 24.861)">
            <circle id="Oval_Copy_7-2" data-name="Oval Copy 7" cx="5.782" cy="5.782" r="5.782" fill="#213533" stroke="#213533" stroke-miterlimit="10" stroke-width="0.5"/>
            <circle id="Oval_Copy_7-3" data-name="Oval Copy 7" cx="5.782" cy="5.782" r="5.782" fill="none"/>
          </g>
          <g id="Oval_Copy_8" data-name="Oval Copy 8" transform="translate(24.951 28.054)">
            <circle id="Oval_Copy_8-2" data-name="Oval Copy 8" cx="2.588" cy="2.588" r="2.588" fill="#213533" stroke="#213533" stroke-miterlimit="10" stroke-width="0.5"/>
            <circle id="Oval_Copy_8-3" data-name="Oval Copy 8" cx="2.588" cy="2.588" r="2.588" fill="none"/>
          </g>
          <g id="Oval_Copy" data-name="Oval Copy" transform="translate(21.18 0)">
            <circle id="Oval_Copy-2" data-name="Oval Copy" cx="5.782" cy="5.782" r="5.782" fill="none" stroke="#213533" stroke-miterlimit="10" stroke-width="1.5"/>
            <circle id="Oval_Copy-3" data-name="Oval Copy" cx="5.782" cy="5.782" r="5.782" fill="none"/>
          </g>
          <g id="Oval_Copy_2" data-name="Oval Copy 2" transform="translate(21.18 49.721)">
            <circle id="Oval_Copy_2-2" data-name="Oval Copy 2" cx="5.782" cy="5.782" r="5.782" fill="none" stroke="#213533" stroke-miterlimit="10" stroke-width="1.5"/>
            <circle id="Oval_Copy_2-3" data-name="Oval Copy 2" cx="5.782" cy="5.782" r="5.782" fill="none"/>
          </g>
          <g id="Oval_Copy_3" data-name="Oval Copy 3" transform="translate(42.783 37.002)">
            <circle id="Oval_Copy_3-2" data-name="Oval Copy 3" cx="5.782" cy="5.782" r="5.782" fill="#fff" stroke="#213533" stroke-miterlimit="10" stroke-width="1"/>
            <circle id="Oval_Copy_3-3" data-name="Oval Copy 3" cx="5.782" cy="5.782" r="5.782" fill="none"/>
          </g>
          <g id="Oval_Copy_4" data-name="Oval Copy 4" transform="translate(42.783 12.719)">
            <circle id="Oval_Copy_4-2" data-name="Oval Copy 4" cx="5.782" cy="5.782" r="5.782" fill="#fff" stroke="#213533" stroke-miterlimit="10" stroke-width="1"/>
            <circle id="Oval_Copy_4-3" data-name="Oval Copy 4" cx="5.782" cy="5.782" r="5.782" fill="none"/>
          </g>
          <g id="Oval_Copy_5" data-name="Oval Copy 5" transform="translate(0 12.719)">
            <circle id="Oval_Copy_5-2" data-name="Oval Copy 5" cx="5.782" cy="5.782" r="5.782" fill="#fff" stroke="#213533" stroke-miterlimit="10" stroke-width="1"/>
            <circle id="Oval_Copy_5-3" data-name="Oval Copy 5" cx="5.782" cy="5.782" r="5.782" fill="none"/>
          </g>
          <g id="Oval_Copy_6" data-name="Oval Copy 6" transform="translate(0 37.002)">
            <circle id="Oval_Copy_6-2" data-name="Oval Copy 6" cx="5.782" cy="5.782" r="5.782" fill="#fff" stroke="#213533" stroke-miterlimit="10" stroke-width="1"/>
            <circle id="Oval_Copy_6-3" data-name="Oval Copy 6" cx="5.782" cy="5.782" r="5.782" fill="none"/>
          </g>
        </g>
      </g>
    </g>
  </g>
</svg>
